%TF.GenerationSoftware,KiCad,Pcbnew,10.0.3*%
%TF.CreationDate,2026-07-02T12:34:20+05:30*%
%TF.ProjectId,pcb,7063622e-6b69-4636-9164-5f7063625858,rev?*%
%TF.SameCoordinates,Original*%
%TF.FileFunction,Profile,NP*%
%FSLAX46Y46*%
G04 Gerber Fmt 4.6, Leading zero omitted, Abs format (unit mm)*
G04 Created by KiCad (PCBNEW 10.0.3) date 2026-07-02 12:34:20*
%MOMM*%
%LPD*%
G01*
G04 APERTURE LIST*
%TA.AperFunction,Profile*%
%ADD10C,0.010000*%
%TD*%
%TA.AperFunction,Profile*%
%ADD11C,0.100000*%
%TD*%
G04 APERTURE END LIST*
D10*
X-23400000Y-54040000D02*
X-23400000Y-54040000D01*
G75*
G02*
X-20900000Y-51540000I2500000J0D01*
G01*
X314900000Y-51540000D01*
G75*
G02*
X317400000Y-54040000I0J-2500000D01*
G01*
X317400000Y-149040000D01*
G75*
G02*
X314900000Y-151540000I-2500000J0D01*
G01*
X-20900000Y-151540000D01*
G75*
G02*
X-23400000Y-149040000I0J2500000D01*
G01*
X-23400000Y-54040000D01*
%TO.C,D80*%
D11*
X224606001Y-70022841D02*
X224606001Y-68617157D01*
X225511548Y-67820000D02*
X227100453Y-67820000D01*
X227100452Y-70819999D02*
X225511548Y-70819999D01*
X228005999Y-68617157D02*
X228005999Y-70022841D01*
X224556516Y-68400279D02*
G75*
G02*
X224606001Y-68617157I-450505J-216876D01*
G01*
X224556516Y-68400279D02*
G75*
G02*
X225259289Y-67751700I450515J216878D01*
G01*
X224606001Y-70022842D02*
G75*
G02*
X224556516Y-70239719I-499990J-1D01*
G01*
X225259289Y-70888296D02*
G75*
G02*
X224556516Y-70239719I-252258J431700D01*
G01*
X225259290Y-70888298D02*
G75*
G02*
X225511548Y-70819999I252261J-431710D01*
G01*
X225511547Y-67819999D02*
G75*
G02*
X225259289Y-67751700I3J500009D01*
G01*
X227100452Y-70819999D02*
G75*
G02*
X227352711Y-70888298I-2J-500011D01*
G01*
X227352711Y-67751701D02*
G75*
G02*
X227100453Y-67820000I-252261J431711D01*
G01*
X227352711Y-67751701D02*
G75*
G02*
X228055483Y-68400279I252259J-431699D01*
G01*
X228005999Y-68617156D02*
G75*
G02*
X228055486Y-68400280I499991J-4D01*
G01*
X228055484Y-70239718D02*
G75*
G02*
X227352711Y-70888298I-450514J-216880D01*
G01*
X228055484Y-70239719D02*
G75*
G02*
X228005981Y-70022841I450516J216919D01*
G01*
%TO.C,D78*%
X186506001Y-70022841D02*
X186506001Y-68617157D01*
X187411548Y-67820000D02*
X189000453Y-67820000D01*
X189000452Y-70819999D02*
X187411548Y-70819999D01*
X189905999Y-68617157D02*
X189905999Y-70022841D01*
X186456516Y-68400279D02*
G75*
G02*
X186506001Y-68617157I-450505J-216876D01*
G01*
X186456516Y-68400279D02*
G75*
G02*
X187159289Y-67751700I450515J216878D01*
G01*
X186506001Y-70022842D02*
G75*
G02*
X186456516Y-70239719I-499990J-1D01*
G01*
X187159289Y-70888296D02*
G75*
G02*
X186456516Y-70239719I-252258J431700D01*
G01*
X187159290Y-70888298D02*
G75*
G02*
X187411548Y-70819999I252261J-431710D01*
G01*
X187411547Y-67819999D02*
G75*
G02*
X187159289Y-67751700I3J500009D01*
G01*
X189000452Y-70819999D02*
G75*
G02*
X189252711Y-70888298I-2J-500011D01*
G01*
X189252711Y-67751701D02*
G75*
G02*
X189000453Y-67820000I-252261J431711D01*
G01*
X189252711Y-67751701D02*
G75*
G02*
X189955483Y-68400279I252259J-431699D01*
G01*
X189905999Y-68617156D02*
G75*
G02*
X189955486Y-68400280I499991J-4D01*
G01*
X189955484Y-70239718D02*
G75*
G02*
X189252711Y-70888298I-450514J-216880D01*
G01*
X189955484Y-70239719D02*
G75*
G02*
X189905981Y-70022841I450516J216919D01*
G01*
%TO.C,D108*%
X200826001Y-108122841D02*
X200826001Y-106717157D01*
X201731548Y-105920000D02*
X203320453Y-105920000D01*
X203320452Y-108919999D02*
X201731548Y-108919999D01*
X204225999Y-106717157D02*
X204225999Y-108122841D01*
X200776516Y-106500279D02*
G75*
G02*
X200826001Y-106717157I-450505J-216876D01*
G01*
X200776516Y-106500279D02*
G75*
G02*
X201479289Y-105851700I450515J216878D01*
G01*
X200826001Y-108122842D02*
G75*
G02*
X200776516Y-108339719I-499990J-1D01*
G01*
X201479289Y-108988296D02*
G75*
G02*
X200776516Y-108339719I-252258J431700D01*
G01*
X201479290Y-108988298D02*
G75*
G02*
X201731548Y-108919999I252261J-431710D01*
G01*
X201731547Y-105919999D02*
G75*
G02*
X201479289Y-105851700I3J500009D01*
G01*
X203320452Y-108919999D02*
G75*
G02*
X203572711Y-108988298I-2J-500011D01*
G01*
X203572711Y-105851701D02*
G75*
G02*
X203320453Y-105920000I-252261J431711D01*
G01*
X203572711Y-105851701D02*
G75*
G02*
X204275483Y-106500279I252259J-431699D01*
G01*
X204225999Y-106717156D02*
G75*
G02*
X204275486Y-106500280I499991J-4D01*
G01*
X204275484Y-108339718D02*
G75*
G02*
X203572711Y-108988298I-450514J-216880D01*
G01*
X204275484Y-108339719D02*
G75*
G02*
X204225981Y-108122841I450516J216919D01*
G01*
%TO.C,D90*%
X138882001Y-89072841D02*
X138882001Y-87667157D01*
X139787548Y-86870000D02*
X141376453Y-86870000D01*
X141376452Y-89869999D02*
X139787548Y-89869999D01*
X142281999Y-87667157D02*
X142281999Y-89072841D01*
X138832516Y-87450279D02*
G75*
G02*
X138882001Y-87667157I-450505J-216876D01*
G01*
X138832516Y-87450279D02*
G75*
G02*
X139535289Y-86801700I450515J216878D01*
G01*
X138882001Y-89072842D02*
G75*
G02*
X138832516Y-89289719I-499990J-1D01*
G01*
X139535289Y-89938296D02*
G75*
G02*
X138832516Y-89289719I-252258J431700D01*
G01*
X139535290Y-89938298D02*
G75*
G02*
X139787548Y-89869999I252261J-431710D01*
G01*
X139787547Y-86869999D02*
G75*
G02*
X139535289Y-86801700I3J500009D01*
G01*
X141376452Y-89869999D02*
G75*
G02*
X141628711Y-89938298I-2J-500011D01*
G01*
X141628711Y-86801701D02*
G75*
G02*
X141376453Y-86870000I-252261J431711D01*
G01*
X141628711Y-86801701D02*
G75*
G02*
X142331483Y-87450279I252259J-431699D01*
G01*
X142281999Y-87667156D02*
G75*
G02*
X142331486Y-87450280I499991J-4D01*
G01*
X142331484Y-89289718D02*
G75*
G02*
X141628711Y-89938298I-450514J-216880D01*
G01*
X142331484Y-89289719D02*
G75*
G02*
X142281981Y-89072841I450516J216919D01*
G01*
%TO.C,D99*%
X22228501Y-108102841D02*
X22228501Y-106697157D01*
X23134048Y-105900000D02*
X24722953Y-105900000D01*
X24722952Y-108899999D02*
X23134048Y-108899999D01*
X25628499Y-106697157D02*
X25628499Y-108102841D01*
X22179016Y-106480279D02*
G75*
G02*
X22228501Y-106697157I-450505J-216876D01*
G01*
X22179016Y-106480279D02*
G75*
G02*
X22881789Y-105831700I450515J216878D01*
G01*
X22228501Y-108102842D02*
G75*
G02*
X22179016Y-108319719I-499990J-1D01*
G01*
X22881789Y-108968296D02*
G75*
G02*
X22179016Y-108319719I-252258J431700D01*
G01*
X22881790Y-108968298D02*
G75*
G02*
X23134048Y-108899999I252261J-431710D01*
G01*
X23134047Y-105899999D02*
G75*
G02*
X22881789Y-105831700I3J500009D01*
G01*
X24722952Y-108899999D02*
G75*
G02*
X24975211Y-108968298I-2J-500011D01*
G01*
X24975211Y-105831701D02*
G75*
G02*
X24722953Y-105900000I-252261J431711D01*
G01*
X24975211Y-105831701D02*
G75*
G02*
X25677983Y-106480279I252259J-431699D01*
G01*
X25628499Y-106697156D02*
G75*
G02*
X25677986Y-106480280I499991J-4D01*
G01*
X25677984Y-108319718D02*
G75*
G02*
X24975211Y-108968298I-450514J-216880D01*
G01*
X25677984Y-108319719D02*
G75*
G02*
X25628481Y-108102841I450516J216919D01*
G01*
%TO.C,D127*%
X17476001Y-146202841D02*
X17476001Y-144797157D01*
X18381548Y-144000000D02*
X19970453Y-144000000D01*
X19970452Y-146999999D02*
X18381548Y-146999999D01*
X20875999Y-144797157D02*
X20875999Y-146202841D01*
X17426516Y-144580279D02*
G75*
G02*
X17476001Y-144797157I-450505J-216876D01*
G01*
X17426516Y-144580279D02*
G75*
G02*
X18129289Y-143931700I450515J216878D01*
G01*
X17476001Y-146202842D02*
G75*
G02*
X17426516Y-146419719I-499990J-1D01*
G01*
X18129289Y-147068296D02*
G75*
G02*
X17426516Y-146419719I-252258J431700D01*
G01*
X18129290Y-147068298D02*
G75*
G02*
X18381548Y-146999999I252261J-431710D01*
G01*
X18381547Y-143999999D02*
G75*
G02*
X18129289Y-143931700I3J500009D01*
G01*
X19970452Y-146999999D02*
G75*
G02*
X20222711Y-147068298I-2J-500011D01*
G01*
X20222711Y-143931701D02*
G75*
G02*
X19970453Y-144000000I-252261J431711D01*
G01*
X20222711Y-143931701D02*
G75*
G02*
X20925483Y-144580279I252259J-431699D01*
G01*
X20875999Y-144797156D02*
G75*
G02*
X20925486Y-144580280I499991J-4D01*
G01*
X20925484Y-146419718D02*
G75*
G02*
X20222711Y-147068298I-450514J-216880D01*
G01*
X20925484Y-146419719D02*
G75*
G02*
X20875981Y-146202841I450516J216919D01*
G01*
%TO.C,D103*%
X105576001Y-108122841D02*
X105576001Y-106717157D01*
X106481548Y-105920000D02*
X108070453Y-105920000D01*
X108070452Y-108919999D02*
X106481548Y-108919999D01*
X108975999Y-106717157D02*
X108975999Y-108122841D01*
X105526516Y-106500279D02*
G75*
G02*
X105576001Y-106717157I-450505J-216876D01*
G01*
X105526516Y-106500279D02*
G75*
G02*
X106229289Y-105851700I450515J216878D01*
G01*
X105576001Y-108122842D02*
G75*
G02*
X105526516Y-108339719I-499990J-1D01*
G01*
X106229289Y-108988296D02*
G75*
G02*
X105526516Y-108339719I-252258J431700D01*
G01*
X106229290Y-108988298D02*
G75*
G02*
X106481548Y-108919999I252261J-431710D01*
G01*
X106481547Y-105919999D02*
G75*
G02*
X106229289Y-105851700I3J500009D01*
G01*
X108070452Y-108919999D02*
G75*
G02*
X108322711Y-108988298I-2J-500011D01*
G01*
X108322711Y-105851701D02*
G75*
G02*
X108070453Y-105920000I-252261J431711D01*
G01*
X108322711Y-105851701D02*
G75*
G02*
X109025483Y-106500279I252259J-431699D01*
G01*
X108975999Y-106717156D02*
G75*
G02*
X109025486Y-106500280I499991J-4D01*
G01*
X109025484Y-108339718D02*
G75*
G02*
X108322711Y-108988298I-450514J-216880D01*
G01*
X109025484Y-108339719D02*
G75*
G02*
X108975981Y-108122841I450516J216919D01*
G01*
%TO.C,D129*%
X65076001Y-146222841D02*
X65076001Y-144817157D01*
X65981548Y-144020000D02*
X67570453Y-144020000D01*
X67570452Y-147019999D02*
X65981548Y-147019999D01*
X68475999Y-144817157D02*
X68475999Y-146222841D01*
X65026516Y-144600279D02*
G75*
G02*
X65076001Y-144817157I-450505J-216876D01*
G01*
X65026516Y-144600279D02*
G75*
G02*
X65729289Y-143951700I450515J216878D01*
G01*
X65076001Y-146222842D02*
G75*
G02*
X65026516Y-146439719I-499990J-1D01*
G01*
X65729289Y-147088296D02*
G75*
G02*
X65026516Y-146439719I-252258J431700D01*
G01*
X65729290Y-147088298D02*
G75*
G02*
X65981548Y-147019999I252261J-431710D01*
G01*
X65981547Y-144019999D02*
G75*
G02*
X65729289Y-143951700I3J500009D01*
G01*
X67570452Y-147019999D02*
G75*
G02*
X67822711Y-147088298I-2J-500011D01*
G01*
X67822711Y-143951701D02*
G75*
G02*
X67570453Y-144020000I-252261J431711D01*
G01*
X67822711Y-143951701D02*
G75*
G02*
X68525483Y-144600279I252259J-431699D01*
G01*
X68475999Y-144817156D02*
G75*
G02*
X68525486Y-144600280I499991J-4D01*
G01*
X68525484Y-146439718D02*
G75*
G02*
X67822711Y-147088298I-450514J-216880D01*
G01*
X68525484Y-146439719D02*
G75*
G02*
X68475981Y-146222841I450516J216919D01*
G01*
%TO.C,D98*%
X300906001Y-89072841D02*
X300906001Y-87667157D01*
X301811548Y-86870000D02*
X303400453Y-86870000D01*
X303400452Y-89869999D02*
X301811548Y-89869999D01*
X304305999Y-87667157D02*
X304305999Y-89072841D01*
X300856516Y-87450279D02*
G75*
G02*
X300906001Y-87667157I-450505J-216876D01*
G01*
X300856516Y-87450279D02*
G75*
G02*
X301559289Y-86801700I450515J216878D01*
G01*
X300906001Y-89072842D02*
G75*
G02*
X300856516Y-89289719I-499990J-1D01*
G01*
X301559289Y-89938296D02*
G75*
G02*
X300856516Y-89289719I-252258J431700D01*
G01*
X301559290Y-89938298D02*
G75*
G02*
X301811548Y-89869999I252261J-431710D01*
G01*
X301811547Y-86869999D02*
G75*
G02*
X301559289Y-86801700I3J500009D01*
G01*
X303400452Y-89869999D02*
G75*
G02*
X303652711Y-89938298I-2J-500011D01*
G01*
X303652711Y-86801701D02*
G75*
G02*
X303400453Y-86870000I-252261J431711D01*
G01*
X303652711Y-86801701D02*
G75*
G02*
X304355483Y-87450279I252259J-431699D01*
G01*
X304305999Y-87667156D02*
G75*
G02*
X304355486Y-87450280I499991J-4D01*
G01*
X304355484Y-89289718D02*
G75*
G02*
X303652711Y-89938298I-450514J-216880D01*
G01*
X304355484Y-89289719D02*
G75*
G02*
X304305981Y-89072841I450516J216919D01*
G01*
%TO.C,D102*%
X86526001Y-108122841D02*
X86526001Y-106717157D01*
X87431548Y-105920000D02*
X89020453Y-105920000D01*
X89020452Y-108919999D02*
X87431548Y-108919999D01*
X89925999Y-106717157D02*
X89925999Y-108122841D01*
X86476516Y-106500279D02*
G75*
G02*
X86526001Y-106717157I-450505J-216876D01*
G01*
X86476516Y-106500279D02*
G75*
G02*
X87179289Y-105851700I450515J216878D01*
G01*
X86526001Y-108122842D02*
G75*
G02*
X86476516Y-108339719I-499990J-1D01*
G01*
X87179289Y-108988296D02*
G75*
G02*
X86476516Y-108339719I-252258J431700D01*
G01*
X87179290Y-108988298D02*
G75*
G02*
X87431548Y-108919999I252261J-431710D01*
G01*
X87431547Y-105919999D02*
G75*
G02*
X87179289Y-105851700I3J500009D01*
G01*
X89020452Y-108919999D02*
G75*
G02*
X89272711Y-108988298I-2J-500011D01*
G01*
X89272711Y-105851701D02*
G75*
G02*
X89020453Y-105920000I-252261J431711D01*
G01*
X89272711Y-105851701D02*
G75*
G02*
X89975483Y-106500279I252259J-431699D01*
G01*
X89925999Y-106717156D02*
G75*
G02*
X89975486Y-106500280I499991J-4D01*
G01*
X89975484Y-108339718D02*
G75*
G02*
X89272711Y-108988298I-450514J-216880D01*
G01*
X89975484Y-108339719D02*
G75*
G02*
X89925981Y-108122841I450516J216919D01*
G01*
%TO.C,D89*%
X119832001Y-89072841D02*
X119832001Y-87667157D01*
X120737548Y-86870000D02*
X122326453Y-86870000D01*
X122326452Y-89869999D02*
X120737548Y-89869999D01*
X123231999Y-87667157D02*
X123231999Y-89072841D01*
X119782516Y-87450279D02*
G75*
G02*
X119832001Y-87667157I-450505J-216876D01*
G01*
X119782516Y-87450279D02*
G75*
G02*
X120485289Y-86801700I450515J216878D01*
G01*
X119832001Y-89072842D02*
G75*
G02*
X119782516Y-89289719I-499990J-1D01*
G01*
X120485289Y-89938296D02*
G75*
G02*
X119782516Y-89289719I-252258J431700D01*
G01*
X120485290Y-89938298D02*
G75*
G02*
X120737548Y-89869999I252261J-431710D01*
G01*
X120737547Y-86869999D02*
G75*
G02*
X120485289Y-86801700I3J500009D01*
G01*
X122326452Y-89869999D02*
G75*
G02*
X122578711Y-89938298I-2J-500011D01*
G01*
X122578711Y-86801701D02*
G75*
G02*
X122326453Y-86870000I-252261J431711D01*
G01*
X122578711Y-86801701D02*
G75*
G02*
X123281483Y-87450279I252259J-431699D01*
G01*
X123231999Y-87667156D02*
G75*
G02*
X123281486Y-87450280I499991J-4D01*
G01*
X123281484Y-89289718D02*
G75*
G02*
X122578711Y-89938298I-450514J-216880D01*
G01*
X123281484Y-89289719D02*
G75*
G02*
X123231981Y-89072841I450516J216919D01*
G01*
%TO.C,D82*%
X272281001Y-70022841D02*
X272281001Y-68617157D01*
X273186548Y-67820000D02*
X274775453Y-67820000D01*
X274775452Y-70819999D02*
X273186548Y-70819999D01*
X275680999Y-68617157D02*
X275680999Y-70022841D01*
X272231516Y-68400279D02*
G75*
G02*
X272281001Y-68617157I-450505J-216876D01*
G01*
X272231516Y-68400279D02*
G75*
G02*
X272934289Y-67751700I450515J216878D01*
G01*
X272281001Y-70022842D02*
G75*
G02*
X272231516Y-70239719I-499990J-1D01*
G01*
X272934289Y-70888296D02*
G75*
G02*
X272231516Y-70239719I-252258J431700D01*
G01*
X272934290Y-70888298D02*
G75*
G02*
X273186548Y-70819999I252261J-431710D01*
G01*
X273186547Y-67819999D02*
G75*
G02*
X272934289Y-67751700I3J500009D01*
G01*
X274775452Y-70819999D02*
G75*
G02*
X275027711Y-70888298I-2J-500011D01*
G01*
X275027711Y-67751701D02*
G75*
G02*
X274775453Y-67820000I-252261J431711D01*
G01*
X275027711Y-67751701D02*
G75*
G02*
X275730483Y-68400279I252259J-431699D01*
G01*
X275680999Y-68617156D02*
G75*
G02*
X275730486Y-68400280I499991J-4D01*
G01*
X275730484Y-70239718D02*
G75*
G02*
X275027711Y-70888298I-450514J-216880D01*
G01*
X275730484Y-70239719D02*
G75*
G02*
X275680981Y-70022841I450516J216919D01*
G01*
%TO.C,D93*%
X196032001Y-89072841D02*
X196032001Y-87667157D01*
X196937548Y-86870000D02*
X198526453Y-86870000D01*
X198526452Y-89869999D02*
X196937548Y-89869999D01*
X199431999Y-87667157D02*
X199431999Y-89072841D01*
X195982516Y-87450279D02*
G75*
G02*
X196032001Y-87667157I-450505J-216876D01*
G01*
X195982516Y-87450279D02*
G75*
G02*
X196685289Y-86801700I450515J216878D01*
G01*
X196032001Y-89072842D02*
G75*
G02*
X195982516Y-89289719I-499990J-1D01*
G01*
X196685289Y-89938296D02*
G75*
G02*
X195982516Y-89289719I-252258J431700D01*
G01*
X196685290Y-89938298D02*
G75*
G02*
X196937548Y-89869999I252261J-431710D01*
G01*
X196937547Y-86869999D02*
G75*
G02*
X196685289Y-86801700I3J500009D01*
G01*
X198526452Y-89869999D02*
G75*
G02*
X198778711Y-89938298I-2J-500011D01*
G01*
X198778711Y-86801701D02*
G75*
G02*
X198526453Y-86870000I-252261J431711D01*
G01*
X198778711Y-86801701D02*
G75*
G02*
X199481483Y-87450279I252259J-431699D01*
G01*
X199431999Y-87667156D02*
G75*
G02*
X199481486Y-87450280I499991J-4D01*
G01*
X199481484Y-89289718D02*
G75*
G02*
X198778711Y-89938298I-450514J-216880D01*
G01*
X199481484Y-89289719D02*
G75*
G02*
X199431981Y-89072841I450516J216919D01*
G01*
%TO.C,D122*%
X210356001Y-127132841D02*
X210356001Y-125727157D01*
X211261548Y-124930000D02*
X212850453Y-124930000D01*
X212850452Y-127929999D02*
X211261548Y-127929999D01*
X213755999Y-125727157D02*
X213755999Y-127132841D01*
X210306516Y-125510279D02*
G75*
G02*
X210356001Y-125727157I-450505J-216876D01*
G01*
X210306516Y-125510279D02*
G75*
G02*
X211009289Y-124861700I450515J216878D01*
G01*
X210356001Y-127132842D02*
G75*
G02*
X210306516Y-127349719I-499990J-1D01*
G01*
X211009289Y-127998296D02*
G75*
G02*
X210306516Y-127349719I-252258J431700D01*
G01*
X211009290Y-127998298D02*
G75*
G02*
X211261548Y-127929999I252261J-431710D01*
G01*
X211261547Y-124929999D02*
G75*
G02*
X211009289Y-124861700I3J500009D01*
G01*
X212850452Y-127929999D02*
G75*
G02*
X213102711Y-127998298I-2J-500011D01*
G01*
X213102711Y-124861701D02*
G75*
G02*
X212850453Y-124930000I-252261J431711D01*
G01*
X213102711Y-124861701D02*
G75*
G02*
X213805483Y-125510279I252259J-431699D01*
G01*
X213755999Y-125727156D02*
G75*
G02*
X213805486Y-125510280I499991J-4D01*
G01*
X213805484Y-127349718D02*
G75*
G02*
X213102711Y-127998298I-450514J-216880D01*
G01*
X213805484Y-127349719D02*
G75*
G02*
X213755981Y-127132841I450516J216919D01*
G01*
%TO.C,D88*%
X100782001Y-89072841D02*
X100782001Y-87667157D01*
X101687548Y-86870000D02*
X103276453Y-86870000D01*
X103276452Y-89869999D02*
X101687548Y-89869999D01*
X104181999Y-87667157D02*
X104181999Y-89072841D01*
X100732516Y-87450279D02*
G75*
G02*
X100782001Y-87667157I-450505J-216876D01*
G01*
X100732516Y-87450279D02*
G75*
G02*
X101435289Y-86801700I450515J216878D01*
G01*
X100782001Y-89072842D02*
G75*
G02*
X100732516Y-89289719I-499990J-1D01*
G01*
X101435289Y-89938296D02*
G75*
G02*
X100732516Y-89289719I-252258J431700D01*
G01*
X101435290Y-89938298D02*
G75*
G02*
X101687548Y-89869999I252261J-431710D01*
G01*
X101687547Y-86869999D02*
G75*
G02*
X101435289Y-86801700I3J500009D01*
G01*
X103276452Y-89869999D02*
G75*
G02*
X103528711Y-89938298I-2J-500011D01*
G01*
X103528711Y-86801701D02*
G75*
G02*
X103276453Y-86870000I-252261J431711D01*
G01*
X103528711Y-86801701D02*
G75*
G02*
X104231483Y-87450279I252259J-431699D01*
G01*
X104181999Y-87667156D02*
G75*
G02*
X104231486Y-87450280I499991J-4D01*
G01*
X104231484Y-89289718D02*
G75*
G02*
X103528711Y-89938298I-450514J-216880D01*
G01*
X104231484Y-89289719D02*
G75*
G02*
X104181981Y-89072841I450516J216919D01*
G01*
%TO.C,D135*%
X281770001Y-146222841D02*
X281770001Y-144817157D01*
X282675548Y-144020000D02*
X284264453Y-144020000D01*
X284264452Y-147019999D02*
X282675548Y-147019999D01*
X285169999Y-144817157D02*
X285169999Y-146222841D01*
X281720516Y-144600279D02*
G75*
G02*
X281770001Y-144817157I-450505J-216876D01*
G01*
X281720516Y-144600279D02*
G75*
G02*
X282423289Y-143951700I450515J216878D01*
G01*
X281770001Y-146222842D02*
G75*
G02*
X281720516Y-146439719I-499990J-1D01*
G01*
X282423289Y-147088296D02*
G75*
G02*
X281720516Y-146439719I-252258J431700D01*
G01*
X282423290Y-147088298D02*
G75*
G02*
X282675548Y-147019999I252261J-431710D01*
G01*
X282675547Y-144019999D02*
G75*
G02*
X282423289Y-143951700I3J500009D01*
G01*
X284264452Y-147019999D02*
G75*
G02*
X284516711Y-147088298I-2J-500011D01*
G01*
X284516711Y-143951701D02*
G75*
G02*
X284264453Y-144020000I-252261J431711D01*
G01*
X284516711Y-143951701D02*
G75*
G02*
X285219483Y-144600279I252259J-431699D01*
G01*
X285169999Y-144817156D02*
G75*
G02*
X285219486Y-144600280I499991J-4D01*
G01*
X285219484Y-146439718D02*
G75*
G02*
X284516711Y-147088298I-450514J-216880D01*
G01*
X285219484Y-146439719D02*
G75*
G02*
X285169981Y-146222841I450516J216919D01*
G01*
%TO.C,D96*%
X253182001Y-89072841D02*
X253182001Y-87667157D01*
X254087548Y-86870000D02*
X255676453Y-86870000D01*
X255676452Y-89869999D02*
X254087548Y-89869999D01*
X256581999Y-87667157D02*
X256581999Y-89072841D01*
X253132516Y-87450279D02*
G75*
G02*
X253182001Y-87667157I-450505J-216876D01*
G01*
X253132516Y-87450279D02*
G75*
G02*
X253835289Y-86801700I450515J216878D01*
G01*
X253182001Y-89072842D02*
G75*
G02*
X253132516Y-89289719I-499990J-1D01*
G01*
X253835289Y-89938296D02*
G75*
G02*
X253132516Y-89289719I-252258J431700D01*
G01*
X253835290Y-89938298D02*
G75*
G02*
X254087548Y-89869999I252261J-431710D01*
G01*
X254087547Y-86869999D02*
G75*
G02*
X253835289Y-86801700I3J500009D01*
G01*
X255676452Y-89869999D02*
G75*
G02*
X255928711Y-89938298I-2J-500011D01*
G01*
X255928711Y-86801701D02*
G75*
G02*
X255676453Y-86870000I-252261J431711D01*
G01*
X255928711Y-86801701D02*
G75*
G02*
X256631483Y-87450279I252259J-431699D01*
G01*
X256581999Y-87667156D02*
G75*
G02*
X256631486Y-87450280I499991J-4D01*
G01*
X256631484Y-89289718D02*
G75*
G02*
X255928711Y-89938298I-450514J-216880D01*
G01*
X256631484Y-89289719D02*
G75*
G02*
X256581981Y-89072841I450516J216919D01*
G01*
%TO.C,D134*%
X262720001Y-146222841D02*
X262720001Y-144817157D01*
X263625548Y-144020000D02*
X265214453Y-144020000D01*
X265214452Y-147019999D02*
X263625548Y-147019999D01*
X266119999Y-144817157D02*
X266119999Y-146222841D01*
X262670516Y-144600279D02*
G75*
G02*
X262720001Y-144817157I-450505J-216876D01*
G01*
X262670516Y-144600279D02*
G75*
G02*
X263373289Y-143951700I450515J216878D01*
G01*
X262720001Y-146222842D02*
G75*
G02*
X262670516Y-146439719I-499990J-1D01*
G01*
X263373289Y-147088296D02*
G75*
G02*
X262670516Y-146439719I-252258J431700D01*
G01*
X263373290Y-147088298D02*
G75*
G02*
X263625548Y-147019999I252261J-431710D01*
G01*
X263625547Y-144019999D02*
G75*
G02*
X263373289Y-143951700I3J500009D01*
G01*
X265214452Y-147019999D02*
G75*
G02*
X265466711Y-147088298I-2J-500011D01*
G01*
X265466711Y-143951701D02*
G75*
G02*
X265214453Y-144020000I-252261J431711D01*
G01*
X265466711Y-143951701D02*
G75*
G02*
X266169483Y-144600279I252259J-431699D01*
G01*
X266119999Y-144817156D02*
G75*
G02*
X266169486Y-144600280I499991J-4D01*
G01*
X266169484Y-146439718D02*
G75*
G02*
X265466711Y-147088298I-450514J-216880D01*
G01*
X266169484Y-146439719D02*
G75*
G02*
X266119981Y-146222841I450516J216919D01*
G01*
%TO.C,D113*%
X26996001Y-127132841D02*
X26996001Y-125727157D01*
X27901548Y-124930000D02*
X29490453Y-124930000D01*
X29490452Y-127929999D02*
X27901548Y-127929999D01*
X30395999Y-125727157D02*
X30395999Y-127132841D01*
X26946516Y-125510279D02*
G75*
G02*
X26996001Y-125727157I-450505J-216876D01*
G01*
X26946516Y-125510279D02*
G75*
G02*
X27649289Y-124861700I450515J216878D01*
G01*
X26996001Y-127132842D02*
G75*
G02*
X26946516Y-127349719I-499990J-1D01*
G01*
X27649289Y-127998296D02*
G75*
G02*
X26946516Y-127349719I-252258J431700D01*
G01*
X27649290Y-127998298D02*
G75*
G02*
X27901548Y-127929999I252261J-431710D01*
G01*
X27901547Y-124929999D02*
G75*
G02*
X27649289Y-124861700I3J500009D01*
G01*
X29490452Y-127929999D02*
G75*
G02*
X29742711Y-127998298I-2J-500011D01*
G01*
X29742711Y-124861701D02*
G75*
G02*
X29490453Y-124930000I-252261J431711D01*
G01*
X29742711Y-124861701D02*
G75*
G02*
X30445483Y-125510279I252259J-431699D01*
G01*
X30395999Y-125727156D02*
G75*
G02*
X30445486Y-125510280I499991J-4D01*
G01*
X30445484Y-127349718D02*
G75*
G02*
X29742711Y-127998298I-450514J-216880D01*
G01*
X30445484Y-127349719D02*
G75*
G02*
X30395981Y-127132841I450516J216919D01*
G01*
%TO.C,D101*%
X67476001Y-108122841D02*
X67476001Y-106717157D01*
X68381548Y-105920000D02*
X69970453Y-105920000D01*
X69970452Y-108919999D02*
X68381548Y-108919999D01*
X70875999Y-106717157D02*
X70875999Y-108122841D01*
X67426516Y-106500279D02*
G75*
G02*
X67476001Y-106717157I-450505J-216876D01*
G01*
X67426516Y-106500279D02*
G75*
G02*
X68129289Y-105851700I450515J216878D01*
G01*
X67476001Y-108122842D02*
G75*
G02*
X67426516Y-108339719I-499990J-1D01*
G01*
X68129289Y-108988296D02*
G75*
G02*
X67426516Y-108339719I-252258J431700D01*
G01*
X68129290Y-108988298D02*
G75*
G02*
X68381548Y-108919999I252261J-431710D01*
G01*
X68381547Y-105919999D02*
G75*
G02*
X68129289Y-105851700I3J500009D01*
G01*
X69970452Y-108919999D02*
G75*
G02*
X70222711Y-108988298I-2J-500011D01*
G01*
X70222711Y-105851701D02*
G75*
G02*
X69970453Y-105920000I-252261J431711D01*
G01*
X70222711Y-105851701D02*
G75*
G02*
X70925483Y-106500279I252259J-431699D01*
G01*
X70875999Y-106717156D02*
G75*
G02*
X70925486Y-106500280I499991J-4D01*
G01*
X70925484Y-108339718D02*
G75*
G02*
X70222711Y-108988298I-450514J-216880D01*
G01*
X70925484Y-108339719D02*
G75*
G02*
X70875981Y-108122841I450516J216919D01*
G01*
%TO.C,D84*%
X19819001Y-89072841D02*
X19819001Y-87667157D01*
X20724548Y-86870000D02*
X22313453Y-86870000D01*
X22313452Y-89869999D02*
X20724548Y-89869999D01*
X23218999Y-87667157D02*
X23218999Y-89072841D01*
X19769516Y-87450279D02*
G75*
G02*
X19819001Y-87667157I-450505J-216876D01*
G01*
X19769516Y-87450279D02*
G75*
G02*
X20472289Y-86801700I450515J216878D01*
G01*
X19819001Y-89072842D02*
G75*
G02*
X19769516Y-89289719I-499990J-1D01*
G01*
X20472289Y-89938296D02*
G75*
G02*
X19769516Y-89289719I-252258J431700D01*
G01*
X20472290Y-89938298D02*
G75*
G02*
X20724548Y-89869999I252261J-431710D01*
G01*
X20724547Y-86869999D02*
G75*
G02*
X20472289Y-86801700I3J500009D01*
G01*
X22313452Y-89869999D02*
G75*
G02*
X22565711Y-89938298I-2J-500011D01*
G01*
X22565711Y-86801701D02*
G75*
G02*
X22313453Y-86870000I-252261J431711D01*
G01*
X22565711Y-86801701D02*
G75*
G02*
X23268483Y-87450279I252259J-431699D01*
G01*
X23218999Y-87667156D02*
G75*
G02*
X23268486Y-87450280I499991J-4D01*
G01*
X23268484Y-89289718D02*
G75*
G02*
X22565711Y-89938298I-450514J-216880D01*
G01*
X23268484Y-89289719D02*
G75*
G02*
X23218981Y-89072841I450516J216919D01*
G01*
%TO.C,D119*%
X153206001Y-127132841D02*
X153206001Y-125727157D01*
X154111548Y-124930000D02*
X155700453Y-124930000D01*
X155700452Y-127929999D02*
X154111548Y-127929999D01*
X156605999Y-125727157D02*
X156605999Y-127132841D01*
X153156516Y-125510279D02*
G75*
G02*
X153206001Y-125727157I-450505J-216876D01*
G01*
X153156516Y-125510279D02*
G75*
G02*
X153859289Y-124861700I450515J216878D01*
G01*
X153206001Y-127132842D02*
G75*
G02*
X153156516Y-127349719I-499990J-1D01*
G01*
X153859289Y-127998296D02*
G75*
G02*
X153156516Y-127349719I-252258J431700D01*
G01*
X153859290Y-127998298D02*
G75*
G02*
X154111548Y-127929999I252261J-431710D01*
G01*
X154111547Y-124929999D02*
G75*
G02*
X153859289Y-124861700I3J500009D01*
G01*
X155700452Y-127929999D02*
G75*
G02*
X155952711Y-127998298I-2J-500011D01*
G01*
X155952711Y-124861701D02*
G75*
G02*
X155700453Y-124930000I-252261J431711D01*
G01*
X155952711Y-124861701D02*
G75*
G02*
X156655483Y-125510279I252259J-431699D01*
G01*
X156605999Y-125727156D02*
G75*
G02*
X156655486Y-125510280I499991J-4D01*
G01*
X156655484Y-127349718D02*
G75*
G02*
X155952711Y-127998298I-450514J-216880D01*
G01*
X156655484Y-127349719D02*
G75*
G02*
X156605981Y-127132841I450516J216919D01*
G01*
%TO.C,D116*%
X96056001Y-127132841D02*
X96056001Y-125727157D01*
X96961548Y-124930000D02*
X98550453Y-124930000D01*
X98550452Y-127929999D02*
X96961548Y-127929999D01*
X99455999Y-125727157D02*
X99455999Y-127132841D01*
X96006516Y-125510279D02*
G75*
G02*
X96056001Y-125727157I-450505J-216876D01*
G01*
X96006516Y-125510279D02*
G75*
G02*
X96709289Y-124861700I450515J216878D01*
G01*
X96056001Y-127132842D02*
G75*
G02*
X96006516Y-127349719I-499990J-1D01*
G01*
X96709289Y-127998296D02*
G75*
G02*
X96006516Y-127349719I-252258J431700D01*
G01*
X96709290Y-127998298D02*
G75*
G02*
X96961548Y-127929999I252261J-431710D01*
G01*
X96961547Y-124929999D02*
G75*
G02*
X96709289Y-124861700I3J500009D01*
G01*
X98550452Y-127929999D02*
G75*
G02*
X98802711Y-127998298I-2J-500011D01*
G01*
X98802711Y-124861701D02*
G75*
G02*
X98550453Y-124930000I-252261J431711D01*
G01*
X98802711Y-124861701D02*
G75*
G02*
X99505483Y-125510279I252259J-431699D01*
G01*
X99455999Y-125727156D02*
G75*
G02*
X99505486Y-125510280I499991J-4D01*
G01*
X99505484Y-127349718D02*
G75*
G02*
X98802711Y-127998298I-450514J-216880D01*
G01*
X99505484Y-127349719D02*
G75*
G02*
X99455981Y-127132841I450516J216919D01*
G01*
%TO.C,D131*%
X205570001Y-146222841D02*
X205570001Y-144817157D01*
X206475548Y-144020000D02*
X208064453Y-144020000D01*
X208064452Y-147019999D02*
X206475548Y-147019999D01*
X208969999Y-144817157D02*
X208969999Y-146222841D01*
X205520516Y-144600279D02*
G75*
G02*
X205570001Y-144817157I-450505J-216876D01*
G01*
X205520516Y-144600279D02*
G75*
G02*
X206223289Y-143951700I450515J216878D01*
G01*
X205570001Y-146222842D02*
G75*
G02*
X205520516Y-146439719I-499990J-1D01*
G01*
X206223289Y-147088296D02*
G75*
G02*
X205520516Y-146439719I-252258J431700D01*
G01*
X206223290Y-147088298D02*
G75*
G02*
X206475548Y-147019999I252261J-431710D01*
G01*
X206475547Y-144019999D02*
G75*
G02*
X206223289Y-143951700I3J500009D01*
G01*
X208064452Y-147019999D02*
G75*
G02*
X208316711Y-147088298I-2J-500011D01*
G01*
X208316711Y-143951701D02*
G75*
G02*
X208064453Y-144020000I-252261J431711D01*
G01*
X208316711Y-143951701D02*
G75*
G02*
X209019483Y-144600279I252259J-431699D01*
G01*
X208969999Y-144817156D02*
G75*
G02*
X209019486Y-144600280I499991J-4D01*
G01*
X209019484Y-146439718D02*
G75*
G02*
X208316711Y-147088298I-450514J-216880D01*
G01*
X209019484Y-146439719D02*
G75*
G02*
X208969981Y-146222841I450516J216919D01*
G01*
%TO.C,D91*%
X157932001Y-89072841D02*
X157932001Y-87667157D01*
X158837548Y-86870000D02*
X160426453Y-86870000D01*
X160426452Y-89869999D02*
X158837548Y-89869999D01*
X161331999Y-87667157D02*
X161331999Y-89072841D01*
X157882516Y-87450279D02*
G75*
G02*
X157932001Y-87667157I-450505J-216876D01*
G01*
X157882516Y-87450279D02*
G75*
G02*
X158585289Y-86801700I450515J216878D01*
G01*
X157932001Y-89072842D02*
G75*
G02*
X157882516Y-89289719I-499990J-1D01*
G01*
X158585289Y-89938296D02*
G75*
G02*
X157882516Y-89289719I-252258J431700D01*
G01*
X158585290Y-89938298D02*
G75*
G02*
X158837548Y-89869999I252261J-431710D01*
G01*
X158837547Y-86869999D02*
G75*
G02*
X158585289Y-86801700I3J500009D01*
G01*
X160426452Y-89869999D02*
G75*
G02*
X160678711Y-89938298I-2J-500011D01*
G01*
X160678711Y-86801701D02*
G75*
G02*
X160426453Y-86870000I-252261J431711D01*
G01*
X160678711Y-86801701D02*
G75*
G02*
X161381483Y-87450279I252259J-431699D01*
G01*
X161331999Y-87667156D02*
G75*
G02*
X161381486Y-87450280I499991J-4D01*
G01*
X161381484Y-89289718D02*
G75*
G02*
X160678711Y-89938298I-450514J-216880D01*
G01*
X161381484Y-89289719D02*
G75*
G02*
X161331981Y-89072841I450516J216919D01*
G01*
%TO.C,D77*%
X167456001Y-70022841D02*
X167456001Y-68617157D01*
X168361548Y-67820000D02*
X169950453Y-67820000D01*
X169950452Y-70819999D02*
X168361548Y-70819999D01*
X170855999Y-68617157D02*
X170855999Y-70022841D01*
X167406516Y-68400279D02*
G75*
G02*
X167456001Y-68617157I-450505J-216876D01*
G01*
X167406516Y-68400279D02*
G75*
G02*
X168109289Y-67751700I450515J216878D01*
G01*
X167456001Y-70022842D02*
G75*
G02*
X167406516Y-70239719I-499990J-1D01*
G01*
X168109289Y-70888296D02*
G75*
G02*
X167406516Y-70239719I-252258J431700D01*
G01*
X168109290Y-70888298D02*
G75*
G02*
X168361548Y-70819999I252261J-431710D01*
G01*
X168361547Y-67819999D02*
G75*
G02*
X168109289Y-67751700I3J500009D01*
G01*
X169950452Y-70819999D02*
G75*
G02*
X170202711Y-70888298I-2J-500011D01*
G01*
X170202711Y-67751701D02*
G75*
G02*
X169950453Y-67820000I-252261J431711D01*
G01*
X170202711Y-67751701D02*
G75*
G02*
X170905483Y-68400279I252259J-431699D01*
G01*
X170855999Y-68617156D02*
G75*
G02*
X170905486Y-68400280I499991J-4D01*
G01*
X170905484Y-70239718D02*
G75*
G02*
X170202711Y-70888298I-450514J-216880D01*
G01*
X170905484Y-70239719D02*
G75*
G02*
X170855981Y-70022841I450516J216919D01*
G01*
%TO.C,D110*%
X238926001Y-108122841D02*
X238926001Y-106717157D01*
X239831548Y-105920000D02*
X241420453Y-105920000D01*
X241420452Y-108919999D02*
X239831548Y-108919999D01*
X242325999Y-106717157D02*
X242325999Y-108122841D01*
X238876516Y-106500279D02*
G75*
G02*
X238926001Y-106717157I-450505J-216876D01*
G01*
X238876516Y-106500279D02*
G75*
G02*
X239579289Y-105851700I450515J216878D01*
G01*
X238926001Y-108122842D02*
G75*
G02*
X238876516Y-108339719I-499990J-1D01*
G01*
X239579289Y-108988296D02*
G75*
G02*
X238876516Y-108339719I-252258J431700D01*
G01*
X239579290Y-108988298D02*
G75*
G02*
X239831548Y-108919999I252261J-431710D01*
G01*
X239831547Y-105919999D02*
G75*
G02*
X239579289Y-105851700I3J500009D01*
G01*
X241420452Y-108919999D02*
G75*
G02*
X241672711Y-108988298I-2J-500011D01*
G01*
X241672711Y-105851701D02*
G75*
G02*
X241420453Y-105920000I-252261J431711D01*
G01*
X241672711Y-105851701D02*
G75*
G02*
X242375483Y-106500279I252259J-431699D01*
G01*
X242325999Y-106717156D02*
G75*
G02*
X242375486Y-106500280I499991J-4D01*
G01*
X242375484Y-108339718D02*
G75*
G02*
X241672711Y-108988298I-450514J-216880D01*
G01*
X242375484Y-108339719D02*
G75*
G02*
X242325981Y-108122841I450516J216919D01*
G01*
%TO.C,D117*%
X115106001Y-127132841D02*
X115106001Y-125727157D01*
X116011548Y-124930000D02*
X117600453Y-124930000D01*
X117600452Y-127929999D02*
X116011548Y-127929999D01*
X118505999Y-125727157D02*
X118505999Y-127132841D01*
X115056516Y-125510279D02*
G75*
G02*
X115106001Y-125727157I-450505J-216876D01*
G01*
X115056516Y-125510279D02*
G75*
G02*
X115759289Y-124861700I450515J216878D01*
G01*
X115106001Y-127132842D02*
G75*
G02*
X115056516Y-127349719I-499990J-1D01*
G01*
X115759289Y-127998296D02*
G75*
G02*
X115056516Y-127349719I-252258J431700D01*
G01*
X115759290Y-127998298D02*
G75*
G02*
X116011548Y-127929999I252261J-431710D01*
G01*
X116011547Y-124929999D02*
G75*
G02*
X115759289Y-124861700I3J500009D01*
G01*
X117600452Y-127929999D02*
G75*
G02*
X117852711Y-127998298I-2J-500011D01*
G01*
X117852711Y-124861701D02*
G75*
G02*
X117600453Y-124930000I-252261J431711D01*
G01*
X117852711Y-124861701D02*
G75*
G02*
X118555483Y-125510279I252259J-431699D01*
G01*
X118505999Y-125727156D02*
G75*
G02*
X118555486Y-125510280I499991J-4D01*
G01*
X118555484Y-127349718D02*
G75*
G02*
X117852711Y-127998298I-450514J-216880D01*
G01*
X118555484Y-127349719D02*
G75*
G02*
X118505981Y-127132841I450516J216919D01*
G01*
%TO.C,D112*%
X300906001Y-108122841D02*
X300906001Y-106717157D01*
X301811548Y-105920000D02*
X303400453Y-105920000D01*
X303400452Y-108919999D02*
X301811548Y-108919999D01*
X304305999Y-106717157D02*
X304305999Y-108122841D01*
X300856516Y-106500279D02*
G75*
G02*
X300906001Y-106717157I-450505J-216876D01*
G01*
X300856516Y-106500279D02*
G75*
G02*
X301559289Y-105851700I450515J216878D01*
G01*
X300906001Y-108122842D02*
G75*
G02*
X300856516Y-108339719I-499990J-1D01*
G01*
X301559289Y-108988296D02*
G75*
G02*
X300856516Y-108339719I-252258J431700D01*
G01*
X301559290Y-108988298D02*
G75*
G02*
X301811548Y-108919999I252261J-431710D01*
G01*
X301811547Y-105919999D02*
G75*
G02*
X301559289Y-105851700I3J500009D01*
G01*
X303400452Y-108919999D02*
G75*
G02*
X303652711Y-108988298I-2J-500011D01*
G01*
X303652711Y-105851701D02*
G75*
G02*
X303400453Y-105920000I-252261J431711D01*
G01*
X303652711Y-105851701D02*
G75*
G02*
X304355483Y-106500279I252259J-431699D01*
G01*
X304305999Y-106717156D02*
G75*
G02*
X304355486Y-106500280I499991J-4D01*
G01*
X304355484Y-108339718D02*
G75*
G02*
X303652711Y-108988298I-450514J-216880D01*
G01*
X304355484Y-108339719D02*
G75*
G02*
X304305981Y-108122841I450516J216919D01*
G01*
%TO.C,D100*%
X48426001Y-108122841D02*
X48426001Y-106717157D01*
X49331548Y-105920000D02*
X50920453Y-105920000D01*
X50920452Y-108919999D02*
X49331548Y-108919999D01*
X51825999Y-106717157D02*
X51825999Y-108122841D01*
X48376516Y-106500279D02*
G75*
G02*
X48426001Y-106717157I-450505J-216876D01*
G01*
X48376516Y-106500279D02*
G75*
G02*
X49079289Y-105851700I450515J216878D01*
G01*
X48426001Y-108122842D02*
G75*
G02*
X48376516Y-108339719I-499990J-1D01*
G01*
X49079289Y-108988296D02*
G75*
G02*
X48376516Y-108339719I-252258J431700D01*
G01*
X49079290Y-108988298D02*
G75*
G02*
X49331548Y-108919999I252261J-431710D01*
G01*
X49331547Y-105919999D02*
G75*
G02*
X49079289Y-105851700I3J500009D01*
G01*
X50920452Y-108919999D02*
G75*
G02*
X51172711Y-108988298I-2J-500011D01*
G01*
X51172711Y-105851701D02*
G75*
G02*
X50920453Y-105920000I-252261J431711D01*
G01*
X51172711Y-105851701D02*
G75*
G02*
X51875483Y-106500279I252259J-431699D01*
G01*
X51825999Y-106717156D02*
G75*
G02*
X51875486Y-106500280I499991J-4D01*
G01*
X51875484Y-108339718D02*
G75*
G02*
X51172711Y-108988298I-450514J-216880D01*
G01*
X51875484Y-108339719D02*
G75*
G02*
X51825981Y-108122841I450516J216919D01*
G01*
%TO.C,D83*%
X300906001Y-70022841D02*
X300906001Y-68617157D01*
X301811548Y-67820000D02*
X303400453Y-67820000D01*
X303400452Y-70819999D02*
X301811548Y-70819999D01*
X304305999Y-68617157D02*
X304305999Y-70022841D01*
X300856516Y-68400279D02*
G75*
G02*
X300906001Y-68617157I-450505J-216876D01*
G01*
X300856516Y-68400279D02*
G75*
G02*
X301559289Y-67751700I450515J216878D01*
G01*
X300906001Y-70022842D02*
G75*
G02*
X300856516Y-70239719I-499990J-1D01*
G01*
X301559289Y-70888296D02*
G75*
G02*
X300856516Y-70239719I-252258J431700D01*
G01*
X301559290Y-70888298D02*
G75*
G02*
X301811548Y-70819999I252261J-431710D01*
G01*
X301811547Y-67819999D02*
G75*
G02*
X301559289Y-67751700I3J500009D01*
G01*
X303400452Y-70819999D02*
G75*
G02*
X303652711Y-70888298I-2J-500011D01*
G01*
X303652711Y-67751701D02*
G75*
G02*
X303400453Y-67820000I-252261J431711D01*
G01*
X303652711Y-67751701D02*
G75*
G02*
X304355483Y-68400279I252259J-431699D01*
G01*
X304305999Y-68617156D02*
G75*
G02*
X304355486Y-68400280I499991J-4D01*
G01*
X304355484Y-70239718D02*
G75*
G02*
X303652711Y-70888298I-450514J-216880D01*
G01*
X304355484Y-70239719D02*
G75*
G02*
X304305981Y-70022841I450516J216919D01*
G01*
%TO.C,D86*%
X62682001Y-89072841D02*
X62682001Y-87667157D01*
X63587548Y-86870000D02*
X65176453Y-86870000D01*
X65176452Y-89869999D02*
X63587548Y-89869999D01*
X66081999Y-87667157D02*
X66081999Y-89072841D01*
X62632516Y-87450279D02*
G75*
G02*
X62682001Y-87667157I-450505J-216876D01*
G01*
X62632516Y-87450279D02*
G75*
G02*
X63335289Y-86801700I450515J216878D01*
G01*
X62682001Y-89072842D02*
G75*
G02*
X62632516Y-89289719I-499990J-1D01*
G01*
X63335289Y-89938296D02*
G75*
G02*
X62632516Y-89289719I-252258J431700D01*
G01*
X63335290Y-89938298D02*
G75*
G02*
X63587548Y-89869999I252261J-431710D01*
G01*
X63587547Y-86869999D02*
G75*
G02*
X63335289Y-86801700I3J500009D01*
G01*
X65176452Y-89869999D02*
G75*
G02*
X65428711Y-89938298I-2J-500011D01*
G01*
X65428711Y-86801701D02*
G75*
G02*
X65176453Y-86870000I-252261J431711D01*
G01*
X65428711Y-86801701D02*
G75*
G02*
X66131483Y-87450279I252259J-431699D01*
G01*
X66081999Y-87667156D02*
G75*
G02*
X66131486Y-87450280I499991J-4D01*
G01*
X66131484Y-89289718D02*
G75*
G02*
X65428711Y-89938298I-450514J-216880D01*
G01*
X66131484Y-89289719D02*
G75*
G02*
X66081981Y-89072841I450516J216919D01*
G01*
%TO.C,D106*%
X162726001Y-108122841D02*
X162726001Y-106717157D01*
X163631548Y-105920000D02*
X165220453Y-105920000D01*
X165220452Y-108919999D02*
X163631548Y-108919999D01*
X166125999Y-106717157D02*
X166125999Y-108122841D01*
X162676516Y-106500279D02*
G75*
G02*
X162726001Y-106717157I-450505J-216876D01*
G01*
X162676516Y-106500279D02*
G75*
G02*
X163379289Y-105851700I450515J216878D01*
G01*
X162726001Y-108122842D02*
G75*
G02*
X162676516Y-108339719I-499990J-1D01*
G01*
X163379289Y-108988296D02*
G75*
G02*
X162676516Y-108339719I-252258J431700D01*
G01*
X163379290Y-108988298D02*
G75*
G02*
X163631548Y-108919999I252261J-431710D01*
G01*
X163631547Y-105919999D02*
G75*
G02*
X163379289Y-105851700I3J500009D01*
G01*
X165220452Y-108919999D02*
G75*
G02*
X165472711Y-108988298I-2J-500011D01*
G01*
X165472711Y-105851701D02*
G75*
G02*
X165220453Y-105920000I-252261J431711D01*
G01*
X165472711Y-105851701D02*
G75*
G02*
X166175483Y-106500279I252259J-431699D01*
G01*
X166125999Y-106717156D02*
G75*
G02*
X166175486Y-106500280I499991J-4D01*
G01*
X166175484Y-108339718D02*
G75*
G02*
X165472711Y-108988298I-450514J-216880D01*
G01*
X166175484Y-108339719D02*
G75*
G02*
X166125981Y-108122841I450516J216919D01*
G01*
%TO.C,D81*%
X243656001Y-70022841D02*
X243656001Y-68617157D01*
X244561548Y-67820000D02*
X246150453Y-67820000D01*
X246150452Y-70819999D02*
X244561548Y-70819999D01*
X247055999Y-68617157D02*
X247055999Y-70022841D01*
X243606516Y-68400279D02*
G75*
G02*
X243656001Y-68617157I-450505J-216876D01*
G01*
X243606516Y-68400279D02*
G75*
G02*
X244309289Y-67751700I450515J216878D01*
G01*
X243656001Y-70022842D02*
G75*
G02*
X243606516Y-70239719I-499990J-1D01*
G01*
X244309289Y-70888296D02*
G75*
G02*
X243606516Y-70239719I-252258J431700D01*
G01*
X244309290Y-70888298D02*
G75*
G02*
X244561548Y-70819999I252261J-431710D01*
G01*
X244561547Y-67819999D02*
G75*
G02*
X244309289Y-67751700I3J500009D01*
G01*
X246150452Y-70819999D02*
G75*
G02*
X246402711Y-70888298I-2J-500011D01*
G01*
X246402711Y-67751701D02*
G75*
G02*
X246150453Y-67820000I-252261J431711D01*
G01*
X246402711Y-67751701D02*
G75*
G02*
X247105483Y-68400279I252259J-431699D01*
G01*
X247055999Y-68617156D02*
G75*
G02*
X247105486Y-68400280I499991J-4D01*
G01*
X247105484Y-70239718D02*
G75*
G02*
X246402711Y-70888298I-450514J-216880D01*
G01*
X247105484Y-70239719D02*
G75*
G02*
X247055981Y-70022841I450516J216919D01*
G01*
%TO.C,D109*%
X219876001Y-108122841D02*
X219876001Y-106717157D01*
X220781548Y-105920000D02*
X222370453Y-105920000D01*
X222370452Y-108919999D02*
X220781548Y-108919999D01*
X223275999Y-106717157D02*
X223275999Y-108122841D01*
X219826516Y-106500279D02*
G75*
G02*
X219876001Y-106717157I-450505J-216876D01*
G01*
X219826516Y-106500279D02*
G75*
G02*
X220529289Y-105851700I450515J216878D01*
G01*
X219876001Y-108122842D02*
G75*
G02*
X219826516Y-108339719I-499990J-1D01*
G01*
X220529289Y-108988296D02*
G75*
G02*
X219826516Y-108339719I-252258J431700D01*
G01*
X220529290Y-108988298D02*
G75*
G02*
X220781548Y-108919999I252261J-431710D01*
G01*
X220781547Y-105919999D02*
G75*
G02*
X220529289Y-105851700I3J500009D01*
G01*
X222370452Y-108919999D02*
G75*
G02*
X222622711Y-108988298I-2J-500011D01*
G01*
X222622711Y-105851701D02*
G75*
G02*
X222370453Y-105920000I-252261J431711D01*
G01*
X222622711Y-105851701D02*
G75*
G02*
X223325483Y-106500279I252259J-431699D01*
G01*
X223275999Y-106717156D02*
G75*
G02*
X223325486Y-106500280I499991J-4D01*
G01*
X223325484Y-108339718D02*
G75*
G02*
X222622711Y-108988298I-450514J-216880D01*
G01*
X223325484Y-108339719D02*
G75*
G02*
X223275981Y-108122841I450516J216919D01*
G01*
%TO.C,D115*%
X77006001Y-127132841D02*
X77006001Y-125727157D01*
X77911548Y-124930000D02*
X79500453Y-124930000D01*
X79500452Y-127929999D02*
X77911548Y-127929999D01*
X80405999Y-125727157D02*
X80405999Y-127132841D01*
X76956516Y-125510279D02*
G75*
G02*
X77006001Y-125727157I-450505J-216876D01*
G01*
X76956516Y-125510279D02*
G75*
G02*
X77659289Y-124861700I450515J216878D01*
G01*
X77006001Y-127132842D02*
G75*
G02*
X76956516Y-127349719I-499990J-1D01*
G01*
X77659289Y-127998296D02*
G75*
G02*
X76956516Y-127349719I-252258J431700D01*
G01*
X77659290Y-127998298D02*
G75*
G02*
X77911548Y-127929999I252261J-431710D01*
G01*
X77911547Y-124929999D02*
G75*
G02*
X77659289Y-124861700I3J500009D01*
G01*
X79500452Y-127929999D02*
G75*
G02*
X79752711Y-127998298I-2J-500011D01*
G01*
X79752711Y-124861701D02*
G75*
G02*
X79500453Y-124930000I-252261J431711D01*
G01*
X79752711Y-124861701D02*
G75*
G02*
X80455483Y-125510279I252259J-431699D01*
G01*
X80405999Y-125727156D02*
G75*
G02*
X80455486Y-125510280I499991J-4D01*
G01*
X80455484Y-127349718D02*
G75*
G02*
X79752711Y-127998298I-450514J-216880D01*
G01*
X80455484Y-127349719D02*
G75*
G02*
X80405981Y-127132841I450516J216919D01*
G01*
%TO.C,D114*%
X57956001Y-127132841D02*
X57956001Y-125727157D01*
X58861548Y-124930000D02*
X60450453Y-124930000D01*
X60450452Y-127929999D02*
X58861548Y-127929999D01*
X61355999Y-125727157D02*
X61355999Y-127132841D01*
X57906516Y-125510279D02*
G75*
G02*
X57956001Y-125727157I-450505J-216876D01*
G01*
X57906516Y-125510279D02*
G75*
G02*
X58609289Y-124861700I450515J216878D01*
G01*
X57956001Y-127132842D02*
G75*
G02*
X57906516Y-127349719I-499990J-1D01*
G01*
X58609289Y-127998296D02*
G75*
G02*
X57906516Y-127349719I-252258J431700D01*
G01*
X58609290Y-127998298D02*
G75*
G02*
X58861548Y-127929999I252261J-431710D01*
G01*
X58861547Y-124929999D02*
G75*
G02*
X58609289Y-124861700I3J500009D01*
G01*
X60450452Y-127929999D02*
G75*
G02*
X60702711Y-127998298I-2J-500011D01*
G01*
X60702711Y-124861701D02*
G75*
G02*
X60450453Y-124930000I-252261J431711D01*
G01*
X60702711Y-124861701D02*
G75*
G02*
X61405483Y-125510279I252259J-431699D01*
G01*
X61355999Y-125727156D02*
G75*
G02*
X61405486Y-125510280I499991J-4D01*
G01*
X61405484Y-127349718D02*
G75*
G02*
X60702711Y-127998298I-450514J-216880D01*
G01*
X61405484Y-127349719D02*
G75*
G02*
X61355981Y-127132841I450516J216919D01*
G01*
%TO.C,D118*%
X134156001Y-127132841D02*
X134156001Y-125727157D01*
X135061548Y-124930000D02*
X136650453Y-124930000D01*
X136650452Y-127929999D02*
X135061548Y-127929999D01*
X137555999Y-125727157D02*
X137555999Y-127132841D01*
X134106516Y-125510279D02*
G75*
G02*
X134156001Y-125727157I-450505J-216876D01*
G01*
X134106516Y-125510279D02*
G75*
G02*
X134809289Y-124861700I450515J216878D01*
G01*
X134156001Y-127132842D02*
G75*
G02*
X134106516Y-127349719I-499990J-1D01*
G01*
X134809289Y-127998296D02*
G75*
G02*
X134106516Y-127349719I-252258J431700D01*
G01*
X134809290Y-127998298D02*
G75*
G02*
X135061548Y-127929999I252261J-431710D01*
G01*
X135061547Y-124929999D02*
G75*
G02*
X134809289Y-124861700I3J500009D01*
G01*
X136650452Y-127929999D02*
G75*
G02*
X136902711Y-127998298I-2J-500011D01*
G01*
X136902711Y-124861701D02*
G75*
G02*
X136650453Y-124930000I-252261J431711D01*
G01*
X136902711Y-124861701D02*
G75*
G02*
X137605483Y-125510279I252259J-431699D01*
G01*
X137555999Y-125727156D02*
G75*
G02*
X137605486Y-125510280I499991J-4D01*
G01*
X137605484Y-127349718D02*
G75*
G02*
X136902711Y-127998298I-450514J-216880D01*
G01*
X137605484Y-127349719D02*
G75*
G02*
X137555981Y-127132841I450516J216919D01*
G01*
%TO.C,D94*%
X215082001Y-89072841D02*
X215082001Y-87667157D01*
X215987548Y-86870000D02*
X217576453Y-86870000D01*
X217576452Y-89869999D02*
X215987548Y-89869999D01*
X218481999Y-87667157D02*
X218481999Y-89072841D01*
X215032516Y-87450279D02*
G75*
G02*
X215082001Y-87667157I-450505J-216876D01*
G01*
X215032516Y-87450279D02*
G75*
G02*
X215735289Y-86801700I450515J216878D01*
G01*
X215082001Y-89072842D02*
G75*
G02*
X215032516Y-89289719I-499990J-1D01*
G01*
X215735289Y-89938296D02*
G75*
G02*
X215032516Y-89289719I-252258J431700D01*
G01*
X215735290Y-89938298D02*
G75*
G02*
X215987548Y-89869999I252261J-431710D01*
G01*
X215987547Y-86869999D02*
G75*
G02*
X215735289Y-86801700I3J500009D01*
G01*
X217576452Y-89869999D02*
G75*
G02*
X217828711Y-89938298I-2J-500011D01*
G01*
X217828711Y-86801701D02*
G75*
G02*
X217576453Y-86870000I-252261J431711D01*
G01*
X217828711Y-86801701D02*
G75*
G02*
X218531483Y-87450279I252259J-431699D01*
G01*
X218481999Y-87667156D02*
G75*
G02*
X218531486Y-87450280I499991J-4D01*
G01*
X218531484Y-89289718D02*
G75*
G02*
X217828711Y-89938298I-450514J-216880D01*
G01*
X218531484Y-89289719D02*
G75*
G02*
X218481981Y-89072841I450516J216919D01*
G01*
%TO.C,D136*%
X300820001Y-146222841D02*
X300820001Y-144817157D01*
X301725548Y-144020000D02*
X303314453Y-144020000D01*
X303314452Y-147019999D02*
X301725548Y-147019999D01*
X304219999Y-144817157D02*
X304219999Y-146222841D01*
X300770516Y-144600279D02*
G75*
G02*
X300820001Y-144817157I-450505J-216876D01*
G01*
X300770516Y-144600279D02*
G75*
G02*
X301473289Y-143951700I450515J216878D01*
G01*
X300820001Y-146222842D02*
G75*
G02*
X300770516Y-146439719I-499990J-1D01*
G01*
X301473289Y-147088296D02*
G75*
G02*
X300770516Y-146439719I-252258J431700D01*
G01*
X301473290Y-147088298D02*
G75*
G02*
X301725548Y-147019999I252261J-431710D01*
G01*
X301725547Y-144019999D02*
G75*
G02*
X301473289Y-143951700I3J500009D01*
G01*
X303314452Y-147019999D02*
G75*
G02*
X303566711Y-147088298I-2J-500011D01*
G01*
X303566711Y-143951701D02*
G75*
G02*
X303314453Y-144020000I-252261J431711D01*
G01*
X303566711Y-143951701D02*
G75*
G02*
X304269483Y-144600279I252259J-431699D01*
G01*
X304219999Y-144817156D02*
G75*
G02*
X304269486Y-144600280I499991J-4D01*
G01*
X304269484Y-146439718D02*
G75*
G02*
X303566711Y-147088298I-450514J-216880D01*
G01*
X304269484Y-146439719D02*
G75*
G02*
X304219981Y-146222841I450516J216919D01*
G01*
%TO.C,D126*%
X300906001Y-127172841D02*
X300906001Y-125767157D01*
X301811548Y-124970000D02*
X303400453Y-124970000D01*
X303400452Y-127969999D02*
X301811548Y-127969999D01*
X304305999Y-125767157D02*
X304305999Y-127172841D01*
X300856516Y-125550279D02*
G75*
G02*
X300906001Y-125767157I-450505J-216876D01*
G01*
X300856516Y-125550279D02*
G75*
G02*
X301559289Y-124901700I450515J216878D01*
G01*
X300906001Y-127172842D02*
G75*
G02*
X300856516Y-127389719I-499990J-1D01*
G01*
X301559289Y-128038296D02*
G75*
G02*
X300856516Y-127389719I-252258J431700D01*
G01*
X301559290Y-128038298D02*
G75*
G02*
X301811548Y-127969999I252261J-431710D01*
G01*
X301811547Y-124969999D02*
G75*
G02*
X301559289Y-124901700I3J500009D01*
G01*
X303400452Y-127969999D02*
G75*
G02*
X303652711Y-128038298I-2J-500011D01*
G01*
X303652711Y-124901701D02*
G75*
G02*
X303400453Y-124970000I-252261J431711D01*
G01*
X303652711Y-124901701D02*
G75*
G02*
X304355483Y-125550279I252259J-431699D01*
G01*
X304305999Y-125767156D02*
G75*
G02*
X304355486Y-125550280I499991J-4D01*
G01*
X304355484Y-127389718D02*
G75*
G02*
X303652711Y-128038298I-450514J-216880D01*
G01*
X304355484Y-127389719D02*
G75*
G02*
X304305981Y-127172841I450516J216919D01*
G01*
%TO.C,D132*%
X224620001Y-146222841D02*
X224620001Y-144817157D01*
X225525548Y-144020000D02*
X227114453Y-144020000D01*
X227114452Y-147019999D02*
X225525548Y-147019999D01*
X228019999Y-144817157D02*
X228019999Y-146222841D01*
X224570516Y-144600279D02*
G75*
G02*
X224620001Y-144817157I-450505J-216876D01*
G01*
X224570516Y-144600279D02*
G75*
G02*
X225273289Y-143951700I450515J216878D01*
G01*
X224620001Y-146222842D02*
G75*
G02*
X224570516Y-146439719I-499990J-1D01*
G01*
X225273289Y-147088296D02*
G75*
G02*
X224570516Y-146439719I-252258J431700D01*
G01*
X225273290Y-147088298D02*
G75*
G02*
X225525548Y-147019999I252261J-431710D01*
G01*
X225525547Y-144019999D02*
G75*
G02*
X225273289Y-143951700I3J500009D01*
G01*
X227114452Y-147019999D02*
G75*
G02*
X227366711Y-147088298I-2J-500011D01*
G01*
X227366711Y-143951701D02*
G75*
G02*
X227114453Y-144020000I-252261J431711D01*
G01*
X227366711Y-143951701D02*
G75*
G02*
X228069483Y-144600279I252259J-431699D01*
G01*
X228019999Y-144817156D02*
G75*
G02*
X228069486Y-144600280I499991J-4D01*
G01*
X228069484Y-146439718D02*
G75*
G02*
X227366711Y-147088298I-450514J-216880D01*
G01*
X228069484Y-146439719D02*
G75*
G02*
X228019981Y-146222841I450516J216919D01*
G01*
%TO.C,D111*%
X269886001Y-108112841D02*
X269886001Y-106707157D01*
X270791548Y-105910000D02*
X272380453Y-105910000D01*
X272380452Y-108909999D02*
X270791548Y-108909999D01*
X273285999Y-106707157D02*
X273285999Y-108112841D01*
X269836516Y-106490279D02*
G75*
G02*
X269886001Y-106707157I-450505J-216876D01*
G01*
X269836516Y-106490279D02*
G75*
G02*
X270539289Y-105841700I450515J216878D01*
G01*
X269886001Y-108112842D02*
G75*
G02*
X269836516Y-108329719I-499990J-1D01*
G01*
X270539289Y-108978296D02*
G75*
G02*
X269836516Y-108329719I-252258J431700D01*
G01*
X270539290Y-108978298D02*
G75*
G02*
X270791548Y-108909999I252261J-431710D01*
G01*
X270791547Y-105909999D02*
G75*
G02*
X270539289Y-105841700I3J500009D01*
G01*
X272380452Y-108909999D02*
G75*
G02*
X272632711Y-108978298I-2J-500011D01*
G01*
X272632711Y-105841701D02*
G75*
G02*
X272380453Y-105910000I-252261J431711D01*
G01*
X272632711Y-105841701D02*
G75*
G02*
X273335483Y-106490279I252259J-431699D01*
G01*
X273285999Y-106707156D02*
G75*
G02*
X273335486Y-106490280I499991J-4D01*
G01*
X273335484Y-108329718D02*
G75*
G02*
X272632711Y-108978298I-450514J-216880D01*
G01*
X273335484Y-108329719D02*
G75*
G02*
X273285981Y-108112841I450516J216919D01*
G01*
%TO.C,D73*%
X91256001Y-70022841D02*
X91256001Y-68617157D01*
X92161548Y-67820000D02*
X93750453Y-67820000D01*
X93750452Y-70819999D02*
X92161548Y-70819999D01*
X94655999Y-68617157D02*
X94655999Y-70022841D01*
X91206516Y-68400279D02*
G75*
G02*
X91256001Y-68617157I-450505J-216876D01*
G01*
X91206516Y-68400279D02*
G75*
G02*
X91909289Y-67751700I450515J216878D01*
G01*
X91256001Y-70022842D02*
G75*
G02*
X91206516Y-70239719I-499990J-1D01*
G01*
X91909289Y-70888296D02*
G75*
G02*
X91206516Y-70239719I-252258J431700D01*
G01*
X91909290Y-70888298D02*
G75*
G02*
X92161548Y-70819999I252261J-431710D01*
G01*
X92161547Y-67819999D02*
G75*
G02*
X91909289Y-67751700I3J500009D01*
G01*
X93750452Y-70819999D02*
G75*
G02*
X94002711Y-70888298I-2J-500011D01*
G01*
X94002711Y-67751701D02*
G75*
G02*
X93750453Y-67820000I-252261J431711D01*
G01*
X94002711Y-67751701D02*
G75*
G02*
X94705483Y-68400279I252259J-431699D01*
G01*
X94655999Y-68617156D02*
G75*
G02*
X94705486Y-68400280I499991J-4D01*
G01*
X94705484Y-70239718D02*
G75*
G02*
X94002711Y-70888298I-450514J-216880D01*
G01*
X94705484Y-70239719D02*
G75*
G02*
X94655981Y-70022841I450516J216919D01*
G01*
%TO.C,D128*%
X41296001Y-146212841D02*
X41296001Y-144807157D01*
X42201548Y-144010000D02*
X43790453Y-144010000D01*
X43790452Y-147009999D02*
X42201548Y-147009999D01*
X44695999Y-144807157D02*
X44695999Y-146212841D01*
X41246516Y-144590279D02*
G75*
G02*
X41296001Y-144807157I-450505J-216876D01*
G01*
X41246516Y-144590279D02*
G75*
G02*
X41949289Y-143941700I450515J216878D01*
G01*
X41296001Y-146212842D02*
G75*
G02*
X41246516Y-146429719I-499990J-1D01*
G01*
X41949289Y-147078296D02*
G75*
G02*
X41246516Y-146429719I-252258J431700D01*
G01*
X41949290Y-147078298D02*
G75*
G02*
X42201548Y-147009999I252261J-431710D01*
G01*
X42201547Y-144009999D02*
G75*
G02*
X41949289Y-143941700I3J500009D01*
G01*
X43790452Y-147009999D02*
G75*
G02*
X44042711Y-147078298I-2J-500011D01*
G01*
X44042711Y-143941701D02*
G75*
G02*
X43790453Y-144010000I-252261J431711D01*
G01*
X44042711Y-143941701D02*
G75*
G02*
X44745483Y-144590279I252259J-431699D01*
G01*
X44695999Y-144807156D02*
G75*
G02*
X44745486Y-144590280I499991J-4D01*
G01*
X44745484Y-146429718D02*
G75*
G02*
X44042711Y-147078298I-450514J-216880D01*
G01*
X44745484Y-146429719D02*
G75*
G02*
X44695981Y-146212841I450516J216919D01*
G01*
%TO.C,D85*%
X43632001Y-89072841D02*
X43632001Y-87667157D01*
X44537548Y-86870000D02*
X46126453Y-86870000D01*
X46126452Y-89869999D02*
X44537548Y-89869999D01*
X47031999Y-87667157D02*
X47031999Y-89072841D01*
X43582516Y-87450279D02*
G75*
G02*
X43632001Y-87667157I-450505J-216876D01*
G01*
X43582516Y-87450279D02*
G75*
G02*
X44285289Y-86801700I450515J216878D01*
G01*
X43632001Y-89072842D02*
G75*
G02*
X43582516Y-89289719I-499990J-1D01*
G01*
X44285289Y-89938296D02*
G75*
G02*
X43582516Y-89289719I-252258J431700D01*
G01*
X44285290Y-89938298D02*
G75*
G02*
X44537548Y-89869999I252261J-431710D01*
G01*
X44537547Y-86869999D02*
G75*
G02*
X44285289Y-86801700I3J500009D01*
G01*
X46126452Y-89869999D02*
G75*
G02*
X46378711Y-89938298I-2J-500011D01*
G01*
X46378711Y-86801701D02*
G75*
G02*
X46126453Y-86870000I-252261J431711D01*
G01*
X46378711Y-86801701D02*
G75*
G02*
X47081483Y-87450279I252259J-431699D01*
G01*
X47031999Y-87667156D02*
G75*
G02*
X47081486Y-87450280I499991J-4D01*
G01*
X47081484Y-89289718D02*
G75*
G02*
X46378711Y-89938298I-450514J-216880D01*
G01*
X47081484Y-89289719D02*
G75*
G02*
X47031981Y-89072841I450516J216919D01*
G01*
%TO.C,D123*%
X229406001Y-127132841D02*
X229406001Y-125727157D01*
X230311548Y-124930000D02*
X231900453Y-124930000D01*
X231900452Y-127929999D02*
X230311548Y-127929999D01*
X232805999Y-125727157D02*
X232805999Y-127132841D01*
X229356516Y-125510279D02*
G75*
G02*
X229406001Y-125727157I-450505J-216876D01*
G01*
X229356516Y-125510279D02*
G75*
G02*
X230059289Y-124861700I450515J216878D01*
G01*
X229406001Y-127132842D02*
G75*
G02*
X229356516Y-127349719I-499990J-1D01*
G01*
X230059289Y-127998296D02*
G75*
G02*
X229356516Y-127349719I-252258J431700D01*
G01*
X230059290Y-127998298D02*
G75*
G02*
X230311548Y-127929999I252261J-431710D01*
G01*
X230311547Y-124929999D02*
G75*
G02*
X230059289Y-124861700I3J500009D01*
G01*
X231900452Y-127929999D02*
G75*
G02*
X232152711Y-127998298I-2J-500011D01*
G01*
X232152711Y-124861701D02*
G75*
G02*
X231900453Y-124930000I-252261J431711D01*
G01*
X232152711Y-124861701D02*
G75*
G02*
X232855483Y-125510279I252259J-431699D01*
G01*
X232805999Y-125727156D02*
G75*
G02*
X232855486Y-125510280I499991J-4D01*
G01*
X232855484Y-127349718D02*
G75*
G02*
X232152711Y-127998298I-450514J-216880D01*
G01*
X232855484Y-127349719D02*
G75*
G02*
X232805981Y-127132841I450516J216919D01*
G01*
%TO.C,D70*%
X34106001Y-70022841D02*
X34106001Y-68617157D01*
X35011548Y-67820000D02*
X36600453Y-67820000D01*
X36600452Y-70819999D02*
X35011548Y-70819999D01*
X37505999Y-68617157D02*
X37505999Y-70022841D01*
X34056516Y-68400279D02*
G75*
G02*
X34106001Y-68617157I-450505J-216876D01*
G01*
X34056516Y-68400279D02*
G75*
G02*
X34759289Y-67751700I450515J216878D01*
G01*
X34106001Y-70022842D02*
G75*
G02*
X34056516Y-70239719I-499990J-1D01*
G01*
X34759289Y-70888296D02*
G75*
G02*
X34056516Y-70239719I-252258J431700D01*
G01*
X34759290Y-70888298D02*
G75*
G02*
X35011548Y-70819999I252261J-431710D01*
G01*
X35011547Y-67819999D02*
G75*
G02*
X34759289Y-67751700I3J500009D01*
G01*
X36600452Y-70819999D02*
G75*
G02*
X36852711Y-70888298I-2J-500011D01*
G01*
X36852711Y-67751701D02*
G75*
G02*
X36600453Y-67820000I-252261J431711D01*
G01*
X36852711Y-67751701D02*
G75*
G02*
X37555483Y-68400279I252259J-431699D01*
G01*
X37505999Y-68617156D02*
G75*
G02*
X37555486Y-68400280I499991J-4D01*
G01*
X37555484Y-70239718D02*
G75*
G02*
X36852711Y-70888298I-450514J-216880D01*
G01*
X37555484Y-70239719D02*
G75*
G02*
X37505981Y-70022841I450516J216919D01*
G01*
%TO.C,D87*%
X81732001Y-89072841D02*
X81732001Y-87667157D01*
X82637548Y-86870000D02*
X84226453Y-86870000D01*
X84226452Y-89869999D02*
X82637548Y-89869999D01*
X85131999Y-87667157D02*
X85131999Y-89072841D01*
X81682516Y-87450279D02*
G75*
G02*
X81732001Y-87667157I-450505J-216876D01*
G01*
X81682516Y-87450279D02*
G75*
G02*
X82385289Y-86801700I450515J216878D01*
G01*
X81732001Y-89072842D02*
G75*
G02*
X81682516Y-89289719I-499990J-1D01*
G01*
X82385289Y-89938296D02*
G75*
G02*
X81682516Y-89289719I-252258J431700D01*
G01*
X82385290Y-89938298D02*
G75*
G02*
X82637548Y-89869999I252261J-431710D01*
G01*
X82637547Y-86869999D02*
G75*
G02*
X82385289Y-86801700I3J500009D01*
G01*
X84226452Y-89869999D02*
G75*
G02*
X84478711Y-89938298I-2J-500011D01*
G01*
X84478711Y-86801701D02*
G75*
G02*
X84226453Y-86870000I-252261J431711D01*
G01*
X84478711Y-86801701D02*
G75*
G02*
X85181483Y-87450279I252259J-431699D01*
G01*
X85131999Y-87667156D02*
G75*
G02*
X85181486Y-87450280I499991J-4D01*
G01*
X85181484Y-89289718D02*
G75*
G02*
X84478711Y-89938298I-450514J-216880D01*
G01*
X85181484Y-89289719D02*
G75*
G02*
X85131981Y-89072841I450516J216919D01*
G01*
%TO.C,D121*%
X191306001Y-127132841D02*
X191306001Y-125727157D01*
X192211548Y-124930000D02*
X193800453Y-124930000D01*
X193800452Y-127929999D02*
X192211548Y-127929999D01*
X194705999Y-125727157D02*
X194705999Y-127132841D01*
X191256516Y-125510279D02*
G75*
G02*
X191306001Y-125727157I-450505J-216876D01*
G01*
X191256516Y-125510279D02*
G75*
G02*
X191959289Y-124861700I450515J216878D01*
G01*
X191306001Y-127132842D02*
G75*
G02*
X191256516Y-127349719I-499990J-1D01*
G01*
X191959289Y-127998296D02*
G75*
G02*
X191256516Y-127349719I-252258J431700D01*
G01*
X191959290Y-127998298D02*
G75*
G02*
X192211548Y-127929999I252261J-431710D01*
G01*
X192211547Y-124929999D02*
G75*
G02*
X191959289Y-124861700I3J500009D01*
G01*
X193800452Y-127929999D02*
G75*
G02*
X194052711Y-127998298I-2J-500011D01*
G01*
X194052711Y-124861701D02*
G75*
G02*
X193800453Y-124930000I-252261J431711D01*
G01*
X194052711Y-124861701D02*
G75*
G02*
X194755483Y-125510279I252259J-431699D01*
G01*
X194705999Y-125727156D02*
G75*
G02*
X194755486Y-125510280I499991J-4D01*
G01*
X194755484Y-127349718D02*
G75*
G02*
X194052711Y-127998298I-450514J-216880D01*
G01*
X194755484Y-127349719D02*
G75*
G02*
X194705981Y-127132841I450516J216919D01*
G01*
%TO.C,D72*%
X72206001Y-70022841D02*
X72206001Y-68617157D01*
X73111548Y-67820000D02*
X74700453Y-67820000D01*
X74700452Y-70819999D02*
X73111548Y-70819999D01*
X75605999Y-68617157D02*
X75605999Y-70022841D01*
X72156516Y-68400279D02*
G75*
G02*
X72206001Y-68617157I-450505J-216876D01*
G01*
X72156516Y-68400279D02*
G75*
G02*
X72859289Y-67751700I450515J216878D01*
G01*
X72206001Y-70022842D02*
G75*
G02*
X72156516Y-70239719I-499990J-1D01*
G01*
X72859289Y-70888296D02*
G75*
G02*
X72156516Y-70239719I-252258J431700D01*
G01*
X72859290Y-70888298D02*
G75*
G02*
X73111548Y-70819999I252261J-431710D01*
G01*
X73111547Y-67819999D02*
G75*
G02*
X72859289Y-67751700I3J500009D01*
G01*
X74700452Y-70819999D02*
G75*
G02*
X74952711Y-70888298I-2J-500011D01*
G01*
X74952711Y-67751701D02*
G75*
G02*
X74700453Y-67820000I-252261J431711D01*
G01*
X74952711Y-67751701D02*
G75*
G02*
X75655483Y-68400279I252259J-431699D01*
G01*
X75605999Y-68617156D02*
G75*
G02*
X75655486Y-68400280I499991J-4D01*
G01*
X75655484Y-70239718D02*
G75*
G02*
X74952711Y-70888298I-450514J-216880D01*
G01*
X75655484Y-70239719D02*
G75*
G02*
X75605981Y-70022841I450516J216919D01*
G01*
%TO.C,D125*%
X281856001Y-127172841D02*
X281856001Y-125767157D01*
X282761548Y-124970000D02*
X284350453Y-124970000D01*
X284350452Y-127969999D02*
X282761548Y-127969999D01*
X285255999Y-125767157D02*
X285255999Y-127172841D01*
X281806516Y-125550279D02*
G75*
G02*
X281856001Y-125767157I-450505J-216876D01*
G01*
X281806516Y-125550279D02*
G75*
G02*
X282509289Y-124901700I450515J216878D01*
G01*
X281856001Y-127172842D02*
G75*
G02*
X281806516Y-127389719I-499990J-1D01*
G01*
X282509289Y-128038296D02*
G75*
G02*
X281806516Y-127389719I-252258J431700D01*
G01*
X282509290Y-128038298D02*
G75*
G02*
X282761548Y-127969999I252261J-431710D01*
G01*
X282761547Y-124969999D02*
G75*
G02*
X282509289Y-124901700I3J500009D01*
G01*
X284350452Y-127969999D02*
G75*
G02*
X284602711Y-128038298I-2J-500011D01*
G01*
X284602711Y-124901701D02*
G75*
G02*
X284350453Y-124970000I-252261J431711D01*
G01*
X284602711Y-124901701D02*
G75*
G02*
X285305483Y-125550279I252259J-431699D01*
G01*
X285255999Y-125767156D02*
G75*
G02*
X285305486Y-125550280I499991J-4D01*
G01*
X285305484Y-127389718D02*
G75*
G02*
X284602711Y-128038298I-450514J-216880D01*
G01*
X285305484Y-127389719D02*
G75*
G02*
X285255981Y-127172841I450516J216919D01*
G01*
%TO.C,D75*%
X129356001Y-70022841D02*
X129356001Y-68617157D01*
X130261548Y-67820000D02*
X131850453Y-67820000D01*
X131850452Y-70819999D02*
X130261548Y-70819999D01*
X132755999Y-68617157D02*
X132755999Y-70022841D01*
X129306516Y-68400279D02*
G75*
G02*
X129356001Y-68617157I-450505J-216876D01*
G01*
X129306516Y-68400279D02*
G75*
G02*
X130009289Y-67751700I450515J216878D01*
G01*
X129356001Y-70022842D02*
G75*
G02*
X129306516Y-70239719I-499990J-1D01*
G01*
X130009289Y-70888296D02*
G75*
G02*
X129306516Y-70239719I-252258J431700D01*
G01*
X130009290Y-70888298D02*
G75*
G02*
X130261548Y-70819999I252261J-431710D01*
G01*
X130261547Y-67819999D02*
G75*
G02*
X130009289Y-67751700I3J500009D01*
G01*
X131850452Y-70819999D02*
G75*
G02*
X132102711Y-70888298I-2J-500011D01*
G01*
X132102711Y-67751701D02*
G75*
G02*
X131850453Y-67820000I-252261J431711D01*
G01*
X132102711Y-67751701D02*
G75*
G02*
X132805483Y-68400279I252259J-431699D01*
G01*
X132755999Y-68617156D02*
G75*
G02*
X132805486Y-68400280I499991J-4D01*
G01*
X132805484Y-70239718D02*
G75*
G02*
X132102711Y-70888298I-450514J-216880D01*
G01*
X132805484Y-70239719D02*
G75*
G02*
X132755981Y-70022841I450516J216919D01*
G01*
%TO.C,D124*%
X255598501Y-127122841D02*
X255598501Y-125717157D01*
X256504048Y-124920000D02*
X258092953Y-124920000D01*
X258092952Y-127919999D02*
X256504048Y-127919999D01*
X258998499Y-125717157D02*
X258998499Y-127122841D01*
X255549016Y-125500279D02*
G75*
G02*
X255598501Y-125717157I-450505J-216876D01*
G01*
X255549016Y-125500279D02*
G75*
G02*
X256251789Y-124851700I450515J216878D01*
G01*
X255598501Y-127122842D02*
G75*
G02*
X255549016Y-127339719I-499990J-1D01*
G01*
X256251789Y-127988296D02*
G75*
G02*
X255549016Y-127339719I-252258J431700D01*
G01*
X256251790Y-127988298D02*
G75*
G02*
X256504048Y-127919999I252261J-431710D01*
G01*
X256504047Y-124919999D02*
G75*
G02*
X256251789Y-124851700I3J500009D01*
G01*
X258092952Y-127919999D02*
G75*
G02*
X258345211Y-127988298I-2J-500011D01*
G01*
X258345211Y-124851701D02*
G75*
G02*
X258092953Y-124920000I-252261J431711D01*
G01*
X258345211Y-124851701D02*
G75*
G02*
X259047983Y-125500279I252259J-431699D01*
G01*
X258998499Y-125717156D02*
G75*
G02*
X259047986Y-125500280I499991J-4D01*
G01*
X259047984Y-127339718D02*
G75*
G02*
X258345211Y-127988298I-450514J-216880D01*
G01*
X259047984Y-127339719D02*
G75*
G02*
X258998481Y-127122841I450516J216919D01*
G01*
%TO.C,D92*%
X176982001Y-89072841D02*
X176982001Y-87667157D01*
X177887548Y-86870000D02*
X179476453Y-86870000D01*
X179476452Y-89869999D02*
X177887548Y-89869999D01*
X180381999Y-87667157D02*
X180381999Y-89072841D01*
X176932516Y-87450279D02*
G75*
G02*
X176982001Y-87667157I-450505J-216876D01*
G01*
X176932516Y-87450279D02*
G75*
G02*
X177635289Y-86801700I450515J216878D01*
G01*
X176982001Y-89072842D02*
G75*
G02*
X176932516Y-89289719I-499990J-1D01*
G01*
X177635289Y-89938296D02*
G75*
G02*
X176932516Y-89289719I-252258J431700D01*
G01*
X177635290Y-89938298D02*
G75*
G02*
X177887548Y-89869999I252261J-431710D01*
G01*
X177887547Y-86869999D02*
G75*
G02*
X177635289Y-86801700I3J500009D01*
G01*
X179476452Y-89869999D02*
G75*
G02*
X179728711Y-89938298I-2J-500011D01*
G01*
X179728711Y-86801701D02*
G75*
G02*
X179476453Y-86870000I-252261J431711D01*
G01*
X179728711Y-86801701D02*
G75*
G02*
X180431483Y-87450279I252259J-431699D01*
G01*
X180381999Y-87667156D02*
G75*
G02*
X180431486Y-87450280I499991J-4D01*
G01*
X180431484Y-89289718D02*
G75*
G02*
X179728711Y-89938298I-450514J-216880D01*
G01*
X180431484Y-89289719D02*
G75*
G02*
X180381981Y-89072841I450516J216919D01*
G01*
%TO.C,D133*%
X243670001Y-146222841D02*
X243670001Y-144817157D01*
X244575548Y-144020000D02*
X246164453Y-144020000D01*
X246164452Y-147019999D02*
X244575548Y-147019999D01*
X247069999Y-144817157D02*
X247069999Y-146222841D01*
X243620516Y-144600279D02*
G75*
G02*
X243670001Y-144817157I-450505J-216876D01*
G01*
X243620516Y-144600279D02*
G75*
G02*
X244323289Y-143951700I450515J216878D01*
G01*
X243670001Y-146222842D02*
G75*
G02*
X243620516Y-146439719I-499990J-1D01*
G01*
X244323289Y-147088296D02*
G75*
G02*
X243620516Y-146439719I-252258J431700D01*
G01*
X244323290Y-147088298D02*
G75*
G02*
X244575548Y-147019999I252261J-431710D01*
G01*
X244575547Y-144019999D02*
G75*
G02*
X244323289Y-143951700I3J500009D01*
G01*
X246164452Y-147019999D02*
G75*
G02*
X246416711Y-147088298I-2J-500011D01*
G01*
X246416711Y-143951701D02*
G75*
G02*
X246164453Y-144020000I-252261J431711D01*
G01*
X246416711Y-143951701D02*
G75*
G02*
X247119483Y-144600279I252259J-431699D01*
G01*
X247069999Y-144817156D02*
G75*
G02*
X247119486Y-144600280I499991J-4D01*
G01*
X247119484Y-146439718D02*
G75*
G02*
X246416711Y-147088298I-450514J-216880D01*
G01*
X247119484Y-146439719D02*
G75*
G02*
X247069981Y-146222841I450516J216919D01*
G01*
%TO.C,D76*%
X148406001Y-70022841D02*
X148406001Y-68617157D01*
X149311548Y-67820000D02*
X150900453Y-67820000D01*
X150900452Y-70819999D02*
X149311548Y-70819999D01*
X151805999Y-68617157D02*
X151805999Y-70022841D01*
X148356516Y-68400279D02*
G75*
G02*
X148406001Y-68617157I-450505J-216876D01*
G01*
X148356516Y-68400279D02*
G75*
G02*
X149059289Y-67751700I450515J216878D01*
G01*
X148406001Y-70022842D02*
G75*
G02*
X148356516Y-70239719I-499990J-1D01*
G01*
X149059289Y-70888296D02*
G75*
G02*
X148356516Y-70239719I-252258J431700D01*
G01*
X149059290Y-70888298D02*
G75*
G02*
X149311548Y-70819999I252261J-431710D01*
G01*
X149311547Y-67819999D02*
G75*
G02*
X149059289Y-67751700I3J500009D01*
G01*
X150900452Y-70819999D02*
G75*
G02*
X151152711Y-70888298I-2J-500011D01*
G01*
X151152711Y-67751701D02*
G75*
G02*
X150900453Y-67820000I-252261J431711D01*
G01*
X151152711Y-67751701D02*
G75*
G02*
X151855483Y-68400279I252259J-431699D01*
G01*
X151805999Y-68617156D02*
G75*
G02*
X151855486Y-68400280I499991J-4D01*
G01*
X151855484Y-70239718D02*
G75*
G02*
X151152711Y-70888298I-450514J-216880D01*
G01*
X151855484Y-70239719D02*
G75*
G02*
X151805981Y-70022841I450516J216919D01*
G01*
%TO.C,D104*%
X124626001Y-108122841D02*
X124626001Y-106717157D01*
X125531548Y-105920000D02*
X127120453Y-105920000D01*
X127120452Y-108919999D02*
X125531548Y-108919999D01*
X128025999Y-106717157D02*
X128025999Y-108122841D01*
X124576516Y-106500279D02*
G75*
G02*
X124626001Y-106717157I-450505J-216876D01*
G01*
X124576516Y-106500279D02*
G75*
G02*
X125279289Y-105851700I450515J216878D01*
G01*
X124626001Y-108122842D02*
G75*
G02*
X124576516Y-108339719I-499990J-1D01*
G01*
X125279289Y-108988296D02*
G75*
G02*
X124576516Y-108339719I-252258J431700D01*
G01*
X125279290Y-108988298D02*
G75*
G02*
X125531548Y-108919999I252261J-431710D01*
G01*
X125531547Y-105919999D02*
G75*
G02*
X125279289Y-105851700I3J500009D01*
G01*
X127120452Y-108919999D02*
G75*
G02*
X127372711Y-108988298I-2J-500011D01*
G01*
X127372711Y-105851701D02*
G75*
G02*
X127120453Y-105920000I-252261J431711D01*
G01*
X127372711Y-105851701D02*
G75*
G02*
X128075483Y-106500279I252259J-431699D01*
G01*
X128025999Y-106717156D02*
G75*
G02*
X128075486Y-106500280I499991J-4D01*
G01*
X128075484Y-108339718D02*
G75*
G02*
X127372711Y-108988298I-450514J-216880D01*
G01*
X128075484Y-108339719D02*
G75*
G02*
X128025981Y-108122841I450516J216919D01*
G01*
%TO.C,D79*%
X205556001Y-70022841D02*
X205556001Y-68617157D01*
X206461548Y-67820000D02*
X208050453Y-67820000D01*
X208050452Y-70819999D02*
X206461548Y-70819999D01*
X208955999Y-68617157D02*
X208955999Y-70022841D01*
X205506516Y-68400279D02*
G75*
G02*
X205556001Y-68617157I-450505J-216876D01*
G01*
X205506516Y-68400279D02*
G75*
G02*
X206209289Y-67751700I450515J216878D01*
G01*
X205556001Y-70022842D02*
G75*
G02*
X205506516Y-70239719I-499990J-1D01*
G01*
X206209289Y-70888296D02*
G75*
G02*
X205506516Y-70239719I-252258J431700D01*
G01*
X206209290Y-70888298D02*
G75*
G02*
X206461548Y-70819999I252261J-431710D01*
G01*
X206461547Y-67819999D02*
G75*
G02*
X206209289Y-67751700I3J500009D01*
G01*
X208050452Y-70819999D02*
G75*
G02*
X208302711Y-70888298I-2J-500011D01*
G01*
X208302711Y-67751701D02*
G75*
G02*
X208050453Y-67820000I-252261J431711D01*
G01*
X208302711Y-67751701D02*
G75*
G02*
X209005483Y-68400279I252259J-431699D01*
G01*
X208955999Y-68617156D02*
G75*
G02*
X209005486Y-68400280I499991J-4D01*
G01*
X209005484Y-70239718D02*
G75*
G02*
X208302711Y-70888298I-450514J-216880D01*
G01*
X209005484Y-70239719D02*
G75*
G02*
X208955981Y-70022841I450516J216919D01*
G01*
%TO.C,D95*%
X234132001Y-89072841D02*
X234132001Y-87667157D01*
X235037548Y-86870000D02*
X236626453Y-86870000D01*
X236626452Y-89869999D02*
X235037548Y-89869999D01*
X237531999Y-87667157D02*
X237531999Y-89072841D01*
X234082516Y-87450279D02*
G75*
G02*
X234132001Y-87667157I-450505J-216876D01*
G01*
X234082516Y-87450279D02*
G75*
G02*
X234785289Y-86801700I450515J216878D01*
G01*
X234132001Y-89072842D02*
G75*
G02*
X234082516Y-89289719I-499990J-1D01*
G01*
X234785289Y-89938296D02*
G75*
G02*
X234082516Y-89289719I-252258J431700D01*
G01*
X234785290Y-89938298D02*
G75*
G02*
X235037548Y-89869999I252261J-431710D01*
G01*
X235037547Y-86869999D02*
G75*
G02*
X234785289Y-86801700I3J500009D01*
G01*
X236626452Y-89869999D02*
G75*
G02*
X236878711Y-89938298I-2J-500011D01*
G01*
X236878711Y-86801701D02*
G75*
G02*
X236626453Y-86870000I-252261J431711D01*
G01*
X236878711Y-86801701D02*
G75*
G02*
X237581483Y-87450279I252259J-431699D01*
G01*
X237531999Y-87667156D02*
G75*
G02*
X237581486Y-87450280I499991J-4D01*
G01*
X237581484Y-89289718D02*
G75*
G02*
X236878711Y-89938298I-450514J-216880D01*
G01*
X237581484Y-89289719D02*
G75*
G02*
X237531981Y-89072841I450516J216919D01*
G01*
%TO.C,D74*%
X110306001Y-70022841D02*
X110306001Y-68617157D01*
X111211548Y-67820000D02*
X112800453Y-67820000D01*
X112800452Y-70819999D02*
X111211548Y-70819999D01*
X113705999Y-68617157D02*
X113705999Y-70022841D01*
X110256516Y-68400279D02*
G75*
G02*
X110306001Y-68617157I-450505J-216876D01*
G01*
X110256516Y-68400279D02*
G75*
G02*
X110959289Y-67751700I450515J216878D01*
G01*
X110306001Y-70022842D02*
G75*
G02*
X110256516Y-70239719I-499990J-1D01*
G01*
X110959289Y-70888296D02*
G75*
G02*
X110256516Y-70239719I-252258J431700D01*
G01*
X110959290Y-70888298D02*
G75*
G02*
X111211548Y-70819999I252261J-431710D01*
G01*
X111211547Y-67819999D02*
G75*
G02*
X110959289Y-67751700I3J500009D01*
G01*
X112800452Y-70819999D02*
G75*
G02*
X113052711Y-70888298I-2J-500011D01*
G01*
X113052711Y-67751701D02*
G75*
G02*
X112800453Y-67820000I-252261J431711D01*
G01*
X113052711Y-67751701D02*
G75*
G02*
X113755483Y-68400279I252259J-431699D01*
G01*
X113705999Y-68617156D02*
G75*
G02*
X113755486Y-68400280I499991J-4D01*
G01*
X113755484Y-70239718D02*
G75*
G02*
X113052711Y-70888298I-450514J-216880D01*
G01*
X113755484Y-70239719D02*
G75*
G02*
X113705981Y-70022841I450516J216919D01*
G01*
%TO.C,D105*%
X143676001Y-108122841D02*
X143676001Y-106717157D01*
X144581548Y-105920000D02*
X146170453Y-105920000D01*
X146170452Y-108919999D02*
X144581548Y-108919999D01*
X147075999Y-106717157D02*
X147075999Y-108122841D01*
X143626516Y-106500279D02*
G75*
G02*
X143676001Y-106717157I-450505J-216876D01*
G01*
X143626516Y-106500279D02*
G75*
G02*
X144329289Y-105851700I450515J216878D01*
G01*
X143676001Y-108122842D02*
G75*
G02*
X143626516Y-108339719I-499990J-1D01*
G01*
X144329289Y-108988296D02*
G75*
G02*
X143626516Y-108339719I-252258J431700D01*
G01*
X144329290Y-108988298D02*
G75*
G02*
X144581548Y-108919999I252261J-431710D01*
G01*
X144581547Y-105919999D02*
G75*
G02*
X144329289Y-105851700I3J500009D01*
G01*
X146170452Y-108919999D02*
G75*
G02*
X146422711Y-108988298I-2J-500011D01*
G01*
X146422711Y-105851701D02*
G75*
G02*
X146170453Y-105920000I-252261J431711D01*
G01*
X146422711Y-105851701D02*
G75*
G02*
X147125483Y-106500279I252259J-431699D01*
G01*
X147075999Y-106717156D02*
G75*
G02*
X147125486Y-106500280I499991J-4D01*
G01*
X147125484Y-108339718D02*
G75*
G02*
X146422711Y-108988298I-450514J-216880D01*
G01*
X147125484Y-108339719D02*
G75*
G02*
X147075981Y-108122841I450516J216919D01*
G01*
%TO.C,D71*%
X53156001Y-70022841D02*
X53156001Y-68617157D01*
X54061548Y-67820000D02*
X55650453Y-67820000D01*
X55650452Y-70819999D02*
X54061548Y-70819999D01*
X56555999Y-68617157D02*
X56555999Y-70022841D01*
X53106516Y-68400279D02*
G75*
G02*
X53156001Y-68617157I-450505J-216876D01*
G01*
X53106516Y-68400279D02*
G75*
G02*
X53809289Y-67751700I450515J216878D01*
G01*
X53156001Y-70022842D02*
G75*
G02*
X53106516Y-70239719I-499990J-1D01*
G01*
X53809289Y-70888296D02*
G75*
G02*
X53106516Y-70239719I-252258J431700D01*
G01*
X53809290Y-70888298D02*
G75*
G02*
X54061548Y-70819999I252261J-431710D01*
G01*
X54061547Y-67819999D02*
G75*
G02*
X53809289Y-67751700I3J500009D01*
G01*
X55650452Y-70819999D02*
G75*
G02*
X55902711Y-70888298I-2J-500011D01*
G01*
X55902711Y-67751701D02*
G75*
G02*
X55650453Y-67820000I-252261J431711D01*
G01*
X55902711Y-67751701D02*
G75*
G02*
X56605483Y-68400279I252259J-431699D01*
G01*
X56555999Y-68617156D02*
G75*
G02*
X56605486Y-68400280I499991J-4D01*
G01*
X56605484Y-70239718D02*
G75*
G02*
X55902711Y-70888298I-450514J-216880D01*
G01*
X56605484Y-70239719D02*
G75*
G02*
X56555981Y-70022841I450516J216919D01*
G01*
%TO.C,D69*%
X15056001Y-70022841D02*
X15056001Y-68617157D01*
X15961548Y-67820000D02*
X17550453Y-67820000D01*
X17550452Y-70819999D02*
X15961548Y-70819999D01*
X18455999Y-68617157D02*
X18455999Y-70022841D01*
X15006516Y-68400279D02*
G75*
G02*
X15056001Y-68617157I-450505J-216876D01*
G01*
X15006516Y-68400279D02*
G75*
G02*
X15709289Y-67751700I450515J216878D01*
G01*
X15056001Y-70022842D02*
G75*
G02*
X15006516Y-70239719I-499990J-1D01*
G01*
X15709289Y-70888296D02*
G75*
G02*
X15006516Y-70239719I-252258J431700D01*
G01*
X15709290Y-70888298D02*
G75*
G02*
X15961548Y-70819999I252261J-431710D01*
G01*
X15961547Y-67819999D02*
G75*
G02*
X15709289Y-67751700I3J500009D01*
G01*
X17550452Y-70819999D02*
G75*
G02*
X17802711Y-70888298I-2J-500011D01*
G01*
X17802711Y-67751701D02*
G75*
G02*
X17550453Y-67820000I-252261J431711D01*
G01*
X17802711Y-67751701D02*
G75*
G02*
X18505483Y-68400279I252259J-431699D01*
G01*
X18455999Y-68617156D02*
G75*
G02*
X18505486Y-68400280I499991J-4D01*
G01*
X18505484Y-70239718D02*
G75*
G02*
X17802711Y-70888298I-450514J-216880D01*
G01*
X18505484Y-70239719D02*
G75*
G02*
X18455981Y-70022841I450516J216919D01*
G01*
%TO.C,D130*%
X136514001Y-146222841D02*
X136514001Y-144817157D01*
X137419548Y-144020000D02*
X139008453Y-144020000D01*
X139008452Y-147019999D02*
X137419548Y-147019999D01*
X139913999Y-144817157D02*
X139913999Y-146222841D01*
X136464516Y-144600279D02*
G75*
G02*
X136514001Y-144817157I-450505J-216876D01*
G01*
X136464516Y-144600279D02*
G75*
G02*
X137167289Y-143951700I450515J216878D01*
G01*
X136514001Y-146222842D02*
G75*
G02*
X136464516Y-146439719I-499990J-1D01*
G01*
X137167289Y-147088296D02*
G75*
G02*
X136464516Y-146439719I-252258J431700D01*
G01*
X137167290Y-147088298D02*
G75*
G02*
X137419548Y-147019999I252261J-431710D01*
G01*
X137419547Y-144019999D02*
G75*
G02*
X137167289Y-143951700I3J500009D01*
G01*
X139008452Y-147019999D02*
G75*
G02*
X139260711Y-147088298I-2J-500011D01*
G01*
X139260711Y-143951701D02*
G75*
G02*
X139008453Y-144020000I-252261J431711D01*
G01*
X139260711Y-143951701D02*
G75*
G02*
X139963483Y-144600279I252259J-431699D01*
G01*
X139913999Y-144817156D02*
G75*
G02*
X139963486Y-144600280I499991J-4D01*
G01*
X139963484Y-146439718D02*
G75*
G02*
X139260711Y-147088298I-450514J-216880D01*
G01*
X139963484Y-146439719D02*
G75*
G02*
X139913981Y-146222841I450516J216919D01*
G01*
%TO.C,D120*%
X172256001Y-127132841D02*
X172256001Y-125727157D01*
X173161548Y-124930000D02*
X174750453Y-124930000D01*
X174750452Y-127929999D02*
X173161548Y-127929999D01*
X175655999Y-125727157D02*
X175655999Y-127132841D01*
X172206516Y-125510279D02*
G75*
G02*
X172256001Y-125727157I-450505J-216876D01*
G01*
X172206516Y-125510279D02*
G75*
G02*
X172909289Y-124861700I450515J216878D01*
G01*
X172256001Y-127132842D02*
G75*
G02*
X172206516Y-127349719I-499990J-1D01*
G01*
X172909289Y-127998296D02*
G75*
G02*
X172206516Y-127349719I-252258J431700D01*
G01*
X172909290Y-127998298D02*
G75*
G02*
X173161548Y-127929999I252261J-431710D01*
G01*
X173161547Y-124929999D02*
G75*
G02*
X172909289Y-124861700I3J500009D01*
G01*
X174750452Y-127929999D02*
G75*
G02*
X175002711Y-127998298I-2J-500011D01*
G01*
X175002711Y-124861701D02*
G75*
G02*
X174750453Y-124930000I-252261J431711D01*
G01*
X175002711Y-124861701D02*
G75*
G02*
X175705483Y-125510279I252259J-431699D01*
G01*
X175655999Y-125727156D02*
G75*
G02*
X175705486Y-125510280I499991J-4D01*
G01*
X175705484Y-127349718D02*
G75*
G02*
X175002711Y-127998298I-450514J-216880D01*
G01*
X175705484Y-127349719D02*
G75*
G02*
X175655981Y-127132841I450516J216919D01*
G01*
%TO.C,D97*%
X276995001Y-89072841D02*
X276995001Y-87667157D01*
X277900548Y-86870000D02*
X279489453Y-86870000D01*
X279489452Y-89869999D02*
X277900548Y-89869999D01*
X280394999Y-87667157D02*
X280394999Y-89072841D01*
X276945516Y-87450279D02*
G75*
G02*
X276995001Y-87667157I-450505J-216876D01*
G01*
X276945516Y-87450279D02*
G75*
G02*
X277648289Y-86801700I450515J216878D01*
G01*
X276995001Y-89072842D02*
G75*
G02*
X276945516Y-89289719I-499990J-1D01*
G01*
X277648289Y-89938296D02*
G75*
G02*
X276945516Y-89289719I-252258J431700D01*
G01*
X277648290Y-89938298D02*
G75*
G02*
X277900548Y-89869999I252261J-431710D01*
G01*
X277900547Y-86869999D02*
G75*
G02*
X277648289Y-86801700I3J500009D01*
G01*
X279489452Y-89869999D02*
G75*
G02*
X279741711Y-89938298I-2J-500011D01*
G01*
X279741711Y-86801701D02*
G75*
G02*
X279489453Y-86870000I-252261J431711D01*
G01*
X279741711Y-86801701D02*
G75*
G02*
X280444483Y-87450279I252259J-431699D01*
G01*
X280394999Y-87667156D02*
G75*
G02*
X280444486Y-87450280I499991J-4D01*
G01*
X280444484Y-89289718D02*
G75*
G02*
X279741711Y-89938298I-450514J-216880D01*
G01*
X280444484Y-89289719D02*
G75*
G02*
X280394981Y-89072841I450516J216919D01*
G01*
%TO.C,D107*%
X181776001Y-108122841D02*
X181776001Y-106717157D01*
X182681548Y-105920000D02*
X184270453Y-105920000D01*
X184270452Y-108919999D02*
X182681548Y-108919999D01*
X185175999Y-106717157D02*
X185175999Y-108122841D01*
X181726516Y-106500279D02*
G75*
G02*
X181776001Y-106717157I-450505J-216876D01*
G01*
X181726516Y-106500279D02*
G75*
G02*
X182429289Y-105851700I450515J216878D01*
G01*
X181776001Y-108122842D02*
G75*
G02*
X181726516Y-108339719I-499990J-1D01*
G01*
X182429289Y-108988296D02*
G75*
G02*
X181726516Y-108339719I-252258J431700D01*
G01*
X182429290Y-108988298D02*
G75*
G02*
X182681548Y-108919999I252261J-431710D01*
G01*
X182681547Y-105919999D02*
G75*
G02*
X182429289Y-105851700I3J500009D01*
G01*
X184270452Y-108919999D02*
G75*
G02*
X184522711Y-108988298I-2J-500011D01*
G01*
X184522711Y-105851701D02*
G75*
G02*
X184270453Y-105920000I-252261J431711D01*
G01*
X184522711Y-105851701D02*
G75*
G02*
X185225483Y-106500279I252259J-431699D01*
G01*
X185175999Y-106717156D02*
G75*
G02*
X185225486Y-106500280I499991J-4D01*
G01*
X185225484Y-108339718D02*
G75*
G02*
X184522711Y-108988298I-450514J-216880D01*
G01*
X185225484Y-108339719D02*
G75*
G02*
X185175981Y-108122841I450516J216919D01*
G01*
%TD*%
M02*
