%TF.GenerationSoftware,KiCad,Pcbnew,10.0.3*%
%TF.CreationDate,2026-07-02T12:34:20+05:30*%
%TF.ProjectId,pcb,7063622e-6b69-4636-9164-5f7063625858,rev?*%
%TF.SameCoordinates,Original*%
%TF.FileFunction,Other,ECO2*%
%FSLAX46Y46*%
G04 Gerber Fmt 4.6, Leading zero omitted, Abs format (unit mm)*
G04 Created by KiCad (PCBNEW 10.0.3) date 2026-07-02 12:34:20*
%MOMM*%
%LPD*%
G01*
G04 APERTURE LIST*
%ADD10C,0.050000*%
G04 APERTURE END LIST*
%TO.C,REF\u002A\u002A*%
D10*
X13414750Y-115850001D02*
X13414750Y-128850001D01*
X13914750Y-115350001D02*
X19664750Y-115350001D01*
X13914750Y-129350001D02*
X19664750Y-129350001D01*
X20164750Y-115850001D02*
X20164750Y-128850001D01*
X37227250Y-115850001D02*
X37227250Y-128850001D01*
X37727250Y-115350001D02*
X43476039Y-115350001D01*
X37727250Y-129350001D02*
X43477250Y-129350001D01*
X43976039Y-115850001D02*
X43977250Y-128850001D01*
X13414750Y-115850001D02*
G75*
G02*
X13914750Y-115350001I500001J-1D01*
G01*
X13914750Y-129350001D02*
G75*
G02*
X13414750Y-128850001I1J500001D01*
G01*
X19664750Y-115350001D02*
G75*
G02*
X20164750Y-115850001I-1J-500001D01*
G01*
X20164750Y-128850001D02*
G75*
G02*
X19664750Y-129350001I-500001J1D01*
G01*
X37227250Y-115850001D02*
G75*
G02*
X37727250Y-115349950I500050J1D01*
G01*
X37727250Y-129350001D02*
G75*
G02*
X37227299Y-128850001I50J500001D01*
G01*
X43476039Y-115350001D02*
G75*
G02*
X43975999Y-115850001I-39J-499999D01*
G01*
X43977250Y-128850001D02*
G75*
G02*
X43477250Y-129350050I-500050J1D01*
G01*
X84832750Y-134940001D02*
X84832750Y-147940001D01*
X85332750Y-134440001D02*
X91082750Y-134440001D01*
X85332750Y-148440001D02*
X91082750Y-148440001D01*
X91582750Y-134940001D02*
X91582750Y-147940001D01*
X184845250Y-134940001D02*
X184845250Y-147940001D01*
X185345250Y-134440001D02*
X191094039Y-134440001D01*
X185345250Y-148440001D02*
X191095250Y-148440001D01*
X191594039Y-134940001D02*
X191595250Y-147940001D01*
X84832750Y-134940001D02*
G75*
G02*
X85332750Y-134440001I500001J-1D01*
G01*
X85332750Y-148440001D02*
G75*
G02*
X84832750Y-147940001I1J500001D01*
G01*
X91082750Y-134440001D02*
G75*
G02*
X91582750Y-134940001I-1J-500001D01*
G01*
X91582750Y-147940001D02*
G75*
G02*
X91082750Y-148440001I-500001J1D01*
G01*
X184845250Y-134940001D02*
G75*
G02*
X185345250Y-134439950I500050J1D01*
G01*
X185345250Y-148440001D02*
G75*
G02*
X184845299Y-147940001I50J500001D01*
G01*
X191094039Y-134440001D02*
G75*
G02*
X191593999Y-134940001I-39J-499999D01*
G01*
X191595250Y-147940001D02*
G75*
G02*
X191095250Y-148440050I-500050J1D01*
G01*
X258699750Y-58740001D02*
X258699750Y-71740001D01*
X259199750Y-58240001D02*
X264949750Y-58240001D01*
X259199750Y-72240001D02*
X264949750Y-72240001D01*
X265449750Y-58740001D02*
X265449750Y-71740001D01*
X282512250Y-58740001D02*
X282512250Y-71740001D01*
X283012250Y-58240001D02*
X288761039Y-58240001D01*
X283012250Y-72240001D02*
X288762250Y-72240001D01*
X289261039Y-58740001D02*
X289262250Y-71740001D01*
X258699750Y-58740001D02*
G75*
G02*
X259199750Y-58240001I500001J-1D01*
G01*
X259199750Y-72240001D02*
G75*
G02*
X258699750Y-71740001I1J500001D01*
G01*
X264949750Y-58240001D02*
G75*
G02*
X265449750Y-58740001I-1J-500001D01*
G01*
X265449750Y-71740001D02*
G75*
G02*
X264949750Y-72240001I-500001J1D01*
G01*
X282512250Y-58740001D02*
G75*
G02*
X283012250Y-58239950I500050J1D01*
G01*
X283012250Y-72240001D02*
G75*
G02*
X282512299Y-71740001I50J500001D01*
G01*
X288761039Y-58240001D02*
G75*
G02*
X289260999Y-58740001I-39J-499999D01*
G01*
X289262250Y-71740001D02*
G75*
G02*
X288762250Y-72240050I-500050J1D01*
G01*
X256304750Y-96830001D02*
X256304750Y-109830001D01*
X256804750Y-96330001D02*
X262554750Y-96330001D01*
X256804750Y-110330001D02*
X262554750Y-110330001D01*
X263054750Y-96830001D02*
X263054750Y-109830001D01*
X280117250Y-96830001D02*
X280117250Y-109830001D01*
X280617250Y-96330001D02*
X286366039Y-96330001D01*
X280617250Y-110330001D02*
X286367250Y-110330001D01*
X286866039Y-96830001D02*
X286867250Y-109830001D01*
X256304750Y-96830001D02*
G75*
G02*
X256804750Y-96330001I500001J-1D01*
G01*
X256804750Y-110330001D02*
G75*
G02*
X256304750Y-109830001I1J500001D01*
G01*
X262554750Y-96330001D02*
G75*
G02*
X263054750Y-96830001I-1J-500001D01*
G01*
X263054750Y-109830001D02*
G75*
G02*
X262554750Y-110330001I-500001J1D01*
G01*
X280117250Y-96830001D02*
G75*
G02*
X280617250Y-96329950I500050J1D01*
G01*
X280617250Y-110330001D02*
G75*
G02*
X280117299Y-109830001I50J500001D01*
G01*
X286366039Y-96330001D02*
G75*
G02*
X286865999Y-96830001I-39J-499999D01*
G01*
X286867250Y-109830001D02*
G75*
G02*
X286367250Y-110330050I-500050J1D01*
G01*
%TD*%
M02*
