M48
; DRILL file KiCad 10.0.3 date 2026-07-02T12:34:34
; FORMAT={-:-/ absolute / metric / decimal}
; #@! TF.CreationDate,2026-07-02T12:34:34+05:30
; #@! TF.GenerationSoftware,Kicad,Pcbnew,10.0.3
; #@! TF.FileFunction,NonPlated,1,2,NPTH
FMAT,2
METRIC
; #@! TA.AperFunction,NonPlated,NPTH,ComponentDrill
T1C1.750
; #@! TA.AperFunction,NonPlated,NPTH,ComponentDrill
T2C3.048
; #@! TA.AperFunction,NonPlated,NPTH,ComponentDrill
T3C3.050
; #@! TA.AperFunction,NonPlated,NPTH,ComponentDrill
T4C3.200
; #@! TA.AperFunction,NonPlated,NPTH,ComponentDrill
T5C3.988
; #@! TA.AperFunction,NonPlated,NPTH,ComponentDrill
T6C4.000
%
G90
G05
T1
X11.676Y-64.24
X14.096Y-140.42
X16.439Y-83.29
X18.848Y-102.32
X21.836Y-64.24
X23.616Y-121.35
X24.256Y-140.42
X26.599Y-83.29
X29.008Y-102.32
X30.726Y-64.24
X33.776Y-121.35
X37.916Y-140.43
X40.252Y-83.29
X40.886Y-64.24
X45.046Y-102.34
X48.076Y-140.43
X49.776Y-64.24
X50.412Y-83.29
X54.576Y-121.35
X55.206Y-102.34
X59.302Y-83.29
X59.936Y-64.24
X61.696Y-140.44
X64.096Y-102.34
X64.736Y-121.35
X68.826Y-64.24
X69.462Y-83.29
X71.856Y-140.44
X73.626Y-121.35
X74.256Y-102.34
X78.352Y-83.29
X78.986Y-64.24
X83.146Y-102.34
X83.786Y-121.35
X87.876Y-64.24
X88.512Y-83.29
X92.676Y-121.35
X93.306Y-102.34
X97.402Y-83.29
X98.036Y-64.24
X102.196Y-102.34
X102.836Y-121.35
X106.926Y-64.24
X107.562Y-83.29
X111.726Y-121.35
X112.356Y-102.34
X116.452Y-83.29
X117.086Y-64.24
X121.246Y-102.34
X121.886Y-121.35
X125.976Y-64.24
X126.612Y-83.29
X130.776Y-121.35
X131.406Y-102.34
X133.134Y-140.44
X135.502Y-83.29
X136.136Y-64.24
X140.296Y-102.34
X140.936Y-121.35
X143.294Y-140.44
X145.026Y-64.24
X145.662Y-83.29
X149.826Y-121.35
X150.456Y-102.34
X154.552Y-83.29
X155.186Y-64.24
X159.346Y-102.34
X159.986Y-121.35
X164.076Y-64.24
X164.712Y-83.29
X168.876Y-121.35
X169.506Y-102.34
X173.602Y-83.29
X174.236Y-64.24
X178.396Y-102.34
X179.036Y-121.35
X183.126Y-64.24
X183.762Y-83.29
X187.926Y-121.35
X188.556Y-102.34
X192.652Y-83.29
X193.286Y-64.24
X197.446Y-102.34
X198.086Y-121.35
X202.176Y-64.24
X202.19Y-140.44
X202.812Y-83.29
X206.976Y-121.35
X207.606Y-102.34
X211.702Y-83.29
X212.336Y-64.24
X212.35Y-140.44
X216.496Y-102.34
X217.136Y-121.35
X221.226Y-64.24
X221.24Y-140.44
X221.862Y-83.29
X226.026Y-121.35
X226.656Y-102.34
X230.752Y-83.29
X231.386Y-64.24
X231.4Y-140.44
X235.546Y-102.34
X236.186Y-121.35
X240.276Y-64.24
X240.29Y-140.44
X240.912Y-83.29
X245.706Y-102.34
X249.802Y-83.29
X250.436Y-64.24
X250.45Y-140.44
X252.32Y-121.44
X259.34Y-140.44
X259.962Y-83.29
X262.48Y-121.44
X266.506Y-102.33
X268.901Y-64.24
X269.5Y-140.44
X273.615Y-83.29
X276.666Y-102.33
X278.39Y-140.44
X278.476Y-121.39
X279.061Y-64.24
X283.775Y-83.29
X288.55Y-140.44
X288.636Y-121.39
X297.44Y-140.44
X297.526Y-64.24
X297.526Y-83.29
X297.526Y-102.34
X297.526Y-121.39
X307.6Y-140.44
X307.686Y-64.24
X307.686Y-83.29
X307.686Y-102.34
X307.686Y-121.39
T2
X16.79Y-114.365
X40.602Y-114.365
X88.208Y-133.455
X188.22Y-133.455
X259.68Y-95.345
X262.075Y-57.255
X283.492Y-95.345
X285.887Y-57.255
T3
X12.946Y-61.7
X15.366Y-137.88
X17.709Y-80.75
X19.296Y-59.16
X20.118Y-99.78
X21.716Y-135.34
X24.059Y-78.21
X24.886Y-118.81
X26.468Y-97.24
X31.236Y-116.27
X31.996Y-61.7
X38.346Y-59.16
X39.186Y-137.89
X41.522Y-80.75
X45.536Y-135.35
X46.316Y-99.8
X47.872Y-78.21
X51.046Y-61.7
X52.666Y-97.26
X55.846Y-118.81
X57.396Y-59.16
X60.572Y-80.75
X62.196Y-116.27
X62.966Y-137.9
X65.366Y-99.8
X66.922Y-78.21
X69.316Y-135.36
X70.096Y-61.7
X71.716Y-97.26
X74.896Y-118.81
X76.446Y-59.16
X79.622Y-80.75
X81.246Y-116.27
X84.416Y-99.8
X85.972Y-78.21
X89.146Y-61.7
X90.766Y-97.26
X93.946Y-118.81
X95.496Y-59.16
X98.672Y-80.75
X100.296Y-116.27
X103.466Y-99.8
X105.022Y-78.21
X108.196Y-61.7
X109.816Y-97.26
X112.996Y-118.81
X114.546Y-59.16
X117.722Y-80.75
X119.346Y-116.27
X122.516Y-99.8
X124.072Y-78.21
X127.246Y-61.7
X128.866Y-97.26
X132.046Y-118.81
X133.596Y-59.16
X134.404Y-137.9
X136.772Y-80.75
X138.396Y-116.27
X140.754Y-135.36
X141.566Y-99.8
X143.122Y-78.21
X146.296Y-61.7
X147.916Y-97.26
X151.096Y-118.81
X152.646Y-59.16
X155.822Y-80.75
X157.446Y-116.27
X160.616Y-99.8
X162.172Y-78.21
X165.346Y-61.7
X166.966Y-97.26
X170.146Y-118.81
X171.696Y-59.16
X174.872Y-80.75
X176.496Y-116.27
X179.666Y-99.8
X181.222Y-78.21
X184.396Y-61.7
X186.016Y-97.26
X189.196Y-118.81
X190.746Y-59.16
X193.922Y-80.75
X195.546Y-116.27
X198.716Y-99.8
X200.272Y-78.21
X203.446Y-61.7
X203.46Y-137.9
X205.066Y-97.26
X208.246Y-118.81
X209.796Y-59.16
X209.81Y-135.36
X212.972Y-80.75
X214.596Y-116.27
X217.766Y-99.8
X219.322Y-78.21
X222.496Y-61.7
X222.51Y-137.9
X224.116Y-97.26
X227.296Y-118.81
X228.846Y-59.16
X228.86Y-135.36
X232.022Y-80.75
X233.646Y-116.27
X236.816Y-99.8
X238.372Y-78.21
X241.546Y-61.7
X241.56Y-137.9
X243.166Y-97.26
X247.896Y-59.16
X247.91Y-135.36
X251.072Y-80.75
X253.59Y-118.9
X257.422Y-78.21
X259.94Y-116.36
X260.61Y-137.9
X266.96Y-135.36
X267.776Y-99.79
X270.171Y-61.7
X274.126Y-97.25
X274.885Y-80.75
X276.521Y-59.16
X279.66Y-137.9
X279.746Y-118.85
X281.235Y-78.21
X286.01Y-135.36
X286.096Y-116.31
X298.71Y-137.9
X298.796Y-61.7
X298.796Y-80.75
X298.796Y-99.8
X298.796Y-118.85
X305.06Y-135.36
X305.146Y-59.16
X305.146Y-78.21
X305.146Y-97.26
X305.146Y-116.31
T4
X-20.0Y-55.14
X-19.8Y-147.74
X44.3Y-121.47
X140.6Y-54.24
X153.3Y-142.04
X244.4Y-117.04
X313.84Y-148.08
X313.85Y-55.19
T5
X16.79Y-129.605
X40.602Y-129.605
X88.208Y-148.695
X188.22Y-148.695
X259.68Y-110.585
X262.075Y-72.495
X283.492Y-110.585
X285.887Y-72.495
T6
X16.756Y-64.24
X19.176Y-140.42
X21.519Y-83.29
X23.928Y-102.32
X28.696Y-121.35
X35.806Y-64.24
X42.996Y-140.43
X45.332Y-83.29
X50.126Y-102.34
X54.856Y-64.24
X59.656Y-121.35
X64.382Y-83.29
X66.776Y-140.44
X69.176Y-102.34
X73.906Y-64.24
X78.706Y-121.35
X83.432Y-83.29
X88.226Y-102.34
X92.956Y-64.24
X97.756Y-121.35
X102.482Y-83.29
X107.276Y-102.34
X112.006Y-64.24
X116.806Y-121.35
X121.532Y-83.29
X126.326Y-102.34
X131.056Y-64.24
X135.856Y-121.35
X138.214Y-140.44
X140.582Y-83.29
X145.376Y-102.34
X150.106Y-64.24
X154.906Y-121.35
X159.632Y-83.29
X164.426Y-102.34
X169.156Y-64.24
X173.956Y-121.35
X178.682Y-83.29
X183.476Y-102.34
X188.206Y-64.24
X193.006Y-121.35
X197.732Y-83.29
X202.526Y-102.34
X207.256Y-64.24
X207.27Y-140.44
X212.056Y-121.35
X216.782Y-83.29
X221.576Y-102.34
X226.306Y-64.24
X226.32Y-140.44
X231.106Y-121.35
X235.832Y-83.29
X240.626Y-102.34
X245.356Y-64.24
X245.37Y-140.44
X254.882Y-83.29
X257.4Y-121.44
X264.42Y-140.44
X271.586Y-102.33
X273.981Y-64.24
X278.695Y-83.29
X283.47Y-140.44
X283.556Y-121.39
X302.52Y-140.44
X302.606Y-64.24
X302.606Y-83.29
X302.606Y-102.34
X302.606Y-121.39
M30
