%TF.GenerationSoftware,KiCad,Pcbnew,10.0.3*%
%TF.CreationDate,2026-07-02T12:34:20+05:30*%
%TF.ProjectId,pcb,7063622e-6b69-4636-9164-5f7063625858,rev?*%
%TF.SameCoordinates,Original*%
%TF.FileFunction,Soldermask,Bot*%
%TF.FilePolarity,Negative*%
%FSLAX46Y46*%
G04 Gerber Fmt 4.6, Leading zero omitted, Abs format (unit mm)*
G04 Created by KiCad (PCBNEW 10.0.3) date 2026-07-02 12:34:20*
%MOMM*%
%LPD*%
G01*
G04 APERTURE LIST*
G04 Aperture macros list*
%AMRoundRect*
0 Rectangle with rounded corners*
0 $1 Rounding radius*
0 $2 $3 $4 $5 $6 $7 $8 $9 X,Y pos of 4 corners*
0 Add a 4 corners polygon primitive as box body*
4,1,4,$2,$3,$4,$5,$6,$7,$8,$9,$2,$3,0*
0 Add four circle primitives for the rounded corners*
1,1,$1+$1,$2,$3*
1,1,$1+$1,$4,$5*
1,1,$1+$1,$6,$7*
1,1,$1+$1,$8,$9*
0 Add four rect primitives between the rounded corners*
20,1,$1+$1,$2,$3,$4,$5,0*
20,1,$1+$1,$4,$5,$6,$7,0*
20,1,$1+$1,$6,$7,$8,$9,0*
20,1,$1+$1,$8,$9,$2,$3,0*%
%AMFreePoly0*
4,1,37,0.603843,0.796157,0.639018,0.796157,0.711114,0.766294,0.766294,0.711114,0.796157,0.639018,0.796157,0.603843,0.800000,0.600000,0.800000,-0.600000,0.796157,-0.603843,0.796157,-0.639018,0.766294,-0.711114,0.711114,-0.766294,0.639018,-0.796157,0.603843,-0.796157,0.600000,-0.800000,0.000000,-0.800000,0.000000,-0.796148,-0.078414,-0.796148,-0.232228,-0.765552,-0.377117,-0.705537,
-0.507515,-0.618408,-0.618408,-0.507515,-0.705537,-0.377117,-0.765552,-0.232228,-0.796148,-0.078414,-0.796148,0.078414,-0.765552,0.232228,-0.705537,0.377117,-0.618408,0.507515,-0.507515,0.618408,-0.377117,0.705537,-0.232228,0.765552,-0.078414,0.796148,0.000000,0.796148,0.000000,0.800000,0.600000,0.800000,0.603843,0.796157,0.603843,0.796157,$1*%
%AMFreePoly1*
4,1,37,0.000000,0.796148,0.078414,0.796148,0.232228,0.765552,0.377117,0.705537,0.507515,0.618408,0.618408,0.507515,0.705537,0.377117,0.765552,0.232228,0.796148,0.078414,0.796148,-0.078414,0.765552,-0.232228,0.705537,-0.377117,0.618408,-0.507515,0.507515,-0.618408,0.377117,-0.705537,0.232228,-0.765552,0.078414,-0.796148,0.000000,-0.796148,0.000000,-0.800000,-0.600000,-0.800000,
-0.603843,-0.796157,-0.639018,-0.796157,-0.711114,-0.766294,-0.766294,-0.711114,-0.796157,-0.639018,-0.796157,-0.603843,-0.800000,-0.600000,-0.800000,0.600000,-0.796157,0.603843,-0.796157,0.639018,-0.766294,0.711114,-0.711114,0.766294,-0.639018,0.796157,-0.603843,0.796157,-0.600000,0.800000,0.000000,0.800000,0.000000,0.796148,0.000000,0.796148,$1*%
G04 Aperture macros list end*
%ADD10C,3.048000*%
%ADD11C,3.987800*%
%ADD12RoundRect,0.082000X-0.718000X0.328000X-0.718000X-0.328000X0.718000X-0.328000X0.718000X0.328000X0*%
%ADD13C,1.750000*%
%ADD14C,3.050000*%
%ADD15C,4.000000*%
%ADD16RoundRect,0.250000X-1.025000X-1.000000X1.025000X-1.000000X1.025000X1.000000X-1.025000X1.000000X0*%
%ADD17C,3.200000*%
%ADD18C,1.600000*%
%ADD19RoundRect,0.225000X0.375000X-0.225000X0.375000X0.225000X-0.375000X0.225000X-0.375000X-0.225000X0*%
%ADD20RoundRect,0.200000X0.600000X0.600000X-0.600000X0.600000X-0.600000X-0.600000X0.600000X-0.600000X0*%
%ADD21FreePoly0,180.000000*%
%ADD22FreePoly1,180.000000*%
G04 APERTURE END LIST*
D10*
%TO.C,REF\u002A\u002A*%
X16789750Y-114365000D03*
D11*
X16789750Y-129605000D03*
D10*
X40602250Y-114365000D03*
D11*
X40602250Y-129605000D03*
%TD*%
D12*
%TO.C,D80*%
X223706000Y-68569999D03*
X223706000Y-70069999D03*
X228906000Y-70069999D03*
X228906000Y-68569999D03*
%TD*%
%TO.C,D78*%
X185606000Y-68569999D03*
X185606000Y-70069999D03*
X190806000Y-70069999D03*
X190806000Y-68569999D03*
%TD*%
%TO.C,D108*%
X199926000Y-106669999D03*
X199926000Y-108169999D03*
X205126000Y-108169999D03*
X205126000Y-106669999D03*
%TD*%
%TO.C,D90*%
X137982000Y-87619999D03*
X137982000Y-89119999D03*
X143182000Y-89119999D03*
X143182000Y-87619999D03*
%TD*%
D13*
%TO.C,SW49*%
X111726000Y-121350000D03*
D14*
X112996000Y-118810000D03*
D15*
X116806000Y-121350000D03*
D14*
X119346000Y-116270000D03*
D13*
X121886000Y-121350000D03*
D16*
X109721000Y-118810000D03*
X122648000Y-116270000D03*
%TD*%
D12*
%TO.C,D99*%
X21328500Y-106649999D03*
X21328500Y-108149999D03*
X26528500Y-108149999D03*
X26528500Y-106649999D03*
%TD*%
D13*
%TO.C,SW38*%
X159346000Y-102340000D03*
D14*
X160616000Y-99800000D03*
D15*
X164426000Y-102340000D03*
D14*
X166966000Y-97260000D03*
D13*
X169506000Y-102340000D03*
D16*
X157341000Y-99800000D03*
X170268000Y-97260000D03*
%TD*%
D13*
%TO.C,SW7*%
X125976000Y-64240000D03*
D14*
X127246000Y-61700000D03*
D15*
X131056000Y-64240000D03*
D14*
X133596000Y-59160000D03*
D13*
X136136000Y-64240000D03*
D16*
X123971000Y-61700000D03*
X136898000Y-59160000D03*
%TD*%
D17*
%TO.C,H6*%
X140600000Y-54240000D03*
%TD*%
D13*
%TO.C,SW60*%
X37916000Y-140430000D03*
D14*
X39186000Y-137890000D03*
D15*
X42996000Y-140430000D03*
D14*
X45536000Y-135350000D03*
D13*
X48076000Y-140430000D03*
D16*
X35911000Y-137890000D03*
X48838000Y-135350000D03*
%TD*%
D13*
%TO.C,SW44*%
X297526000Y-102340000D03*
D14*
X298796000Y-99800000D03*
D15*
X302606000Y-102340000D03*
D14*
X305146000Y-97260000D03*
D13*
X307686000Y-102340000D03*
D16*
X295521000Y-99800000D03*
X308448000Y-97260000D03*
%TD*%
D13*
%TO.C,SW13*%
X240276000Y-64240000D03*
D14*
X241546000Y-61700000D03*
D15*
X245356000Y-64240000D03*
D14*
X247896000Y-59160000D03*
D13*
X250436000Y-64240000D03*
D16*
X238271000Y-61700000D03*
X251198000Y-59160000D03*
%TD*%
D13*
%TO.C,SW39*%
X178396000Y-102340000D03*
D14*
X179666000Y-99800000D03*
D15*
X183476000Y-102340000D03*
D14*
X186016000Y-97260000D03*
D13*
X188556000Y-102340000D03*
D16*
X176391000Y-99800000D03*
X189318000Y-97260000D03*
%TD*%
D12*
%TO.C,D127*%
X16576000Y-144749999D03*
X16576000Y-146249999D03*
X21776000Y-146249999D03*
X21776000Y-144749999D03*
%TD*%
D13*
%TO.C,SW19*%
X78352000Y-83290000D03*
D14*
X79622000Y-80750000D03*
D15*
X83432000Y-83290000D03*
D14*
X85972000Y-78210000D03*
D13*
X88512000Y-83290000D03*
D16*
X76347000Y-80750000D03*
X89274000Y-78210000D03*
%TD*%
D10*
%TO.C,REF\u002A\u002A*%
X88207750Y-133455000D03*
D11*
X88207750Y-148695000D03*
D10*
X188220250Y-133455000D03*
D11*
X188220250Y-148695000D03*
%TD*%
D13*
%TO.C,SW54*%
X206976000Y-121350000D03*
D14*
X208246000Y-118810000D03*
D15*
X212056000Y-121350000D03*
D14*
X214596000Y-116270000D03*
D13*
X217136000Y-121350000D03*
D16*
X204971000Y-118810000D03*
X217898000Y-116270000D03*
%TD*%
D12*
%TO.C,D103*%
X104676000Y-106669999D03*
X104676000Y-108169999D03*
X109876000Y-108169999D03*
X109876000Y-106669999D03*
%TD*%
%TO.C,D129*%
X64176000Y-144769999D03*
X64176000Y-146269999D03*
X69376000Y-146269999D03*
X69376000Y-144769999D03*
%TD*%
%TO.C,D98*%
X300006000Y-87619999D03*
X300006000Y-89119999D03*
X305206000Y-89119999D03*
X305206000Y-87619999D03*
%TD*%
%TO.C,D102*%
X85626000Y-106669999D03*
X85626000Y-108169999D03*
X90826000Y-108169999D03*
X90826000Y-106669999D03*
%TD*%
D13*
%TO.C,SW32*%
X45046000Y-102340000D03*
D14*
X46316000Y-99800000D03*
D15*
X50126000Y-102340000D03*
D14*
X52666000Y-97260000D03*
D13*
X55206000Y-102340000D03*
D16*
X43041000Y-99800000D03*
X55968000Y-97260000D03*
%TD*%
D18*
%TO.C,R1*%
X-19300000Y-90500000D03*
X-19300000Y-80340000D03*
%TD*%
D12*
%TO.C,D89*%
X118932000Y-87619999D03*
X118932000Y-89119999D03*
X124132000Y-89119999D03*
X124132000Y-87619999D03*
%TD*%
D13*
%TO.C,SW48*%
X92676000Y-121350000D03*
D14*
X93946000Y-118810000D03*
D15*
X97756000Y-121350000D03*
D14*
X100296000Y-116270000D03*
D13*
X102836000Y-121350000D03*
D16*
X90671000Y-118810000D03*
X103598000Y-116270000D03*
%TD*%
D13*
%TO.C,SW55*%
X226026000Y-121350000D03*
D14*
X227296000Y-118810000D03*
D15*
X231106000Y-121350000D03*
D14*
X233646000Y-116270000D03*
D13*
X236186000Y-121350000D03*
D16*
X224021000Y-118810000D03*
X236948000Y-116270000D03*
%TD*%
D13*
%TO.C,SW63*%
X202190000Y-140440000D03*
D14*
X203460000Y-137900000D03*
D15*
X207270000Y-140440000D03*
D14*
X209810000Y-135360000D03*
D13*
X212350000Y-140440000D03*
D16*
X200185000Y-137900000D03*
X213112000Y-135360000D03*
%TD*%
D12*
%TO.C,D82*%
X271381000Y-68569999D03*
X271381000Y-70069999D03*
X276581000Y-70069999D03*
X276581000Y-68569999D03*
%TD*%
D13*
%TO.C,SW42*%
X235546000Y-102340000D03*
D14*
X236816000Y-99800000D03*
D15*
X240626000Y-102340000D03*
D14*
X243166000Y-97260000D03*
D13*
X245706000Y-102340000D03*
D16*
X233541000Y-99800000D03*
X246468000Y-97260000D03*
%TD*%
D12*
%TO.C,D93*%
X195132000Y-87619999D03*
X195132000Y-89119999D03*
X200332000Y-89119999D03*
X200332000Y-87619999D03*
%TD*%
%TO.C,D122*%
X209456000Y-125679999D03*
X209456000Y-127179999D03*
X214656000Y-127179999D03*
X214656000Y-125679999D03*
%TD*%
D10*
%TO.C,REF\u002A\u002A*%
X262074750Y-57255000D03*
D11*
X262074750Y-72495000D03*
D10*
X285887250Y-57255000D03*
D11*
X285887250Y-72495000D03*
%TD*%
D13*
%TO.C,SW58*%
X297526000Y-121390000D03*
D14*
X298796000Y-118850000D03*
D15*
X302606000Y-121390000D03*
D14*
X305146000Y-116310000D03*
D13*
X307686000Y-121390000D03*
D16*
X295521000Y-118850000D03*
X308448000Y-116310000D03*
%TD*%
D12*
%TO.C,D88*%
X99882000Y-87619999D03*
X99882000Y-89119999D03*
X105082000Y-89119999D03*
X105082000Y-87619999D03*
%TD*%
%TO.C,D135*%
X280870000Y-144769999D03*
X280870000Y-146269999D03*
X286070000Y-146269999D03*
X286070000Y-144769999D03*
%TD*%
%TO.C,D96*%
X252282000Y-87619999D03*
X252282000Y-89119999D03*
X257482000Y-89119999D03*
X257482000Y-87619999D03*
%TD*%
D13*
%TO.C,SW24*%
X173602000Y-83290000D03*
D14*
X174872000Y-80750000D03*
D15*
X178682000Y-83290000D03*
D14*
X181222000Y-78210000D03*
D13*
X183762000Y-83290000D03*
D16*
X171597000Y-80750000D03*
X184524000Y-78210000D03*
%TD*%
D13*
%TO.C,SW5*%
X87876000Y-64240000D03*
D14*
X89146000Y-61700000D03*
D15*
X92956000Y-64240000D03*
D14*
X95496000Y-59160000D03*
D13*
X98036000Y-64240000D03*
D16*
X85871000Y-61700000D03*
X98798000Y-59160000D03*
%TD*%
D12*
%TO.C,D134*%
X261820000Y-144769999D03*
X261820000Y-146269999D03*
X267020000Y-146269999D03*
X267020000Y-144769999D03*
%TD*%
%TO.C,D113*%
X26096000Y-125679999D03*
X26096000Y-127179999D03*
X31296000Y-127179999D03*
X31296000Y-125679999D03*
%TD*%
%TO.C,D101*%
X66576000Y-106669999D03*
X66576000Y-108169999D03*
X71776000Y-108169999D03*
X71776000Y-106669999D03*
%TD*%
D13*
%TO.C,SW31*%
X18848500Y-102320000D03*
D14*
X20118500Y-99780000D03*
D15*
X23928500Y-102320000D03*
D14*
X26468500Y-97240000D03*
D13*
X29008500Y-102320000D03*
D16*
X16843500Y-99780000D03*
X29770500Y-97240000D03*
%TD*%
D12*
%TO.C,D84*%
X18919000Y-87619999D03*
X18919000Y-89119999D03*
X24119000Y-89119999D03*
X24119000Y-87619999D03*
%TD*%
%TO.C,D119*%
X152306000Y-125679999D03*
X152306000Y-127179999D03*
X157506000Y-127179999D03*
X157506000Y-125679999D03*
%TD*%
%TO.C,D116*%
X95156000Y-125679999D03*
X95156000Y-127179999D03*
X100356000Y-127179999D03*
X100356000Y-125679999D03*
%TD*%
%TO.C,D131*%
X204670000Y-144769999D03*
X204670000Y-146269999D03*
X209870000Y-146269999D03*
X209870000Y-144769999D03*
%TD*%
D13*
%TO.C,SW15*%
X297526000Y-64240000D03*
D14*
X298796000Y-61700000D03*
D15*
X302606000Y-64240000D03*
D14*
X305146000Y-59160000D03*
D13*
X307686000Y-64240000D03*
D16*
X295521000Y-61700000D03*
X308448000Y-59160000D03*
%TD*%
D12*
%TO.C,D91*%
X157032000Y-87619999D03*
X157032000Y-89119999D03*
X162232000Y-89119999D03*
X162232000Y-87619999D03*
%TD*%
%TO.C,D77*%
X166556000Y-68569999D03*
X166556000Y-70069999D03*
X171756000Y-70069999D03*
X171756000Y-68569999D03*
%TD*%
D13*
%TO.C,SW30*%
X297526000Y-83290000D03*
D14*
X298796000Y-80750000D03*
D15*
X302606000Y-83290000D03*
D14*
X305146000Y-78210000D03*
D13*
X307686000Y-83290000D03*
D16*
X295521000Y-80750000D03*
X308448000Y-78210000D03*
%TD*%
D13*
%TO.C,SW35*%
X102196000Y-102340000D03*
D14*
X103466000Y-99800000D03*
D15*
X107276000Y-102340000D03*
D14*
X109816000Y-97260000D03*
D13*
X112356000Y-102340000D03*
D16*
X100191000Y-99800000D03*
X113118000Y-97260000D03*
%TD*%
D12*
%TO.C,D110*%
X238026000Y-106669999D03*
X238026000Y-108169999D03*
X243226000Y-108169999D03*
X243226000Y-106669999D03*
%TD*%
D17*
%TO.C,H5*%
X244400000Y-117040000D03*
%TD*%
D13*
%TO.C,SW14*%
X268901000Y-64240000D03*
D14*
X270171000Y-61700000D03*
D15*
X273981000Y-64240000D03*
D14*
X276521000Y-59160000D03*
D13*
X279061000Y-64240000D03*
D16*
X266896000Y-61700000D03*
X279823000Y-59160000D03*
%TD*%
D17*
%TO.C,H2*%
X-19800000Y-147740000D03*
%TD*%
D12*
%TO.C,D117*%
X114206000Y-125679999D03*
X114206000Y-127179999D03*
X119406000Y-127179999D03*
X119406000Y-125679999D03*
%TD*%
D17*
%TO.C,H3*%
X313850000Y-55190000D03*
%TD*%
D12*
%TO.C,D112*%
X300006000Y-106669999D03*
X300006000Y-108169999D03*
X305206000Y-108169999D03*
X305206000Y-106669999D03*
%TD*%
%TO.C,D100*%
X47526000Y-106669999D03*
X47526000Y-108169999D03*
X52726000Y-108169999D03*
X52726000Y-106669999D03*
%TD*%
D13*
%TO.C,SW33*%
X64096000Y-102340000D03*
D14*
X65366000Y-99800000D03*
D15*
X69176000Y-102340000D03*
D14*
X71716000Y-97260000D03*
D13*
X74256000Y-102340000D03*
D16*
X62091000Y-99800000D03*
X75018000Y-97260000D03*
%TD*%
D12*
%TO.C,D83*%
X300006000Y-68569999D03*
X300006000Y-70069999D03*
X305206000Y-70069999D03*
X305206000Y-68569999D03*
%TD*%
%TO.C,D86*%
X61782000Y-87619999D03*
X61782000Y-89119999D03*
X66982000Y-89119999D03*
X66982000Y-87619999D03*
%TD*%
D13*
%TO.C,SW50*%
X130776000Y-121350000D03*
D14*
X132046000Y-118810000D03*
D15*
X135856000Y-121350000D03*
D14*
X138396000Y-116270000D03*
D13*
X140936000Y-121350000D03*
D16*
X128771000Y-118810000D03*
X141698000Y-116270000D03*
%TD*%
D13*
%TO.C,SW66*%
X259340000Y-140440000D03*
D14*
X260610000Y-137900000D03*
D15*
X264420000Y-140440000D03*
D14*
X266960000Y-135360000D03*
D13*
X269500000Y-140440000D03*
D16*
X257335000Y-137900000D03*
X270262000Y-135360000D03*
%TD*%
D13*
%TO.C,SW21*%
X116452000Y-83290000D03*
D14*
X117722000Y-80750000D03*
D15*
X121532000Y-83290000D03*
D14*
X124072000Y-78210000D03*
D13*
X126612000Y-83290000D03*
D16*
X114447000Y-80750000D03*
X127374000Y-78210000D03*
%TD*%
D12*
%TO.C,D106*%
X161826000Y-106669999D03*
X161826000Y-108169999D03*
X167026000Y-108169999D03*
X167026000Y-106669999D03*
%TD*%
D13*
%TO.C,SW12*%
X221226000Y-64240000D03*
D14*
X222496000Y-61700000D03*
D15*
X226306000Y-64240000D03*
D14*
X228846000Y-59160000D03*
D13*
X231386000Y-64240000D03*
D16*
X219221000Y-61700000D03*
X232148000Y-59160000D03*
%TD*%
D17*
%TO.C,H1*%
X-20000000Y-55140000D03*
%TD*%
D13*
%TO.C,SW2*%
X30726000Y-64240000D03*
D14*
X31996000Y-61700000D03*
D15*
X35806000Y-64240000D03*
D14*
X38346000Y-59160000D03*
D13*
X40886000Y-64240000D03*
D16*
X28721000Y-61700000D03*
X41648000Y-59160000D03*
%TD*%
D13*
%TO.C,SW28*%
X249802000Y-83290000D03*
D14*
X251072000Y-80750000D03*
D15*
X254882000Y-83290000D03*
D14*
X257422000Y-78210000D03*
D13*
X259962000Y-83290000D03*
D16*
X247797000Y-80750000D03*
X260724000Y-78210000D03*
%TD*%
D13*
%TO.C,SW10*%
X183126000Y-64240000D03*
D14*
X184396000Y-61700000D03*
D15*
X188206000Y-64240000D03*
D14*
X190746000Y-59160000D03*
D13*
X193286000Y-64240000D03*
D16*
X181121000Y-61700000D03*
X194048000Y-59160000D03*
%TD*%
D13*
%TO.C,SW25*%
X192652000Y-83290000D03*
D14*
X193922000Y-80750000D03*
D15*
X197732000Y-83290000D03*
D14*
X200272000Y-78210000D03*
D13*
X202812000Y-83290000D03*
D16*
X190647000Y-80750000D03*
X203574000Y-78210000D03*
%TD*%
D13*
%TO.C,SW67*%
X278390000Y-140440000D03*
D14*
X279660000Y-137900000D03*
D15*
X283470000Y-140440000D03*
D14*
X286010000Y-135360000D03*
D13*
X288550000Y-140440000D03*
D16*
X276385000Y-137900000D03*
X289312000Y-135360000D03*
%TD*%
D12*
%TO.C,D81*%
X242756000Y-68569999D03*
X242756000Y-70069999D03*
X247956000Y-70069999D03*
X247956000Y-68569999D03*
%TD*%
D13*
%TO.C,SW62*%
X133134000Y-140440000D03*
D14*
X134404000Y-137900000D03*
D15*
X138214000Y-140440000D03*
D14*
X140754000Y-135360000D03*
D13*
X143294000Y-140440000D03*
D16*
X131129000Y-137900000D03*
X144056000Y-135360000D03*
%TD*%
D12*
%TO.C,D109*%
X218976000Y-106669999D03*
X218976000Y-108169999D03*
X224176000Y-108169999D03*
X224176000Y-106669999D03*
%TD*%
D13*
%TO.C,SW52*%
X168876000Y-121350000D03*
D14*
X170146000Y-118810000D03*
D15*
X173956000Y-121350000D03*
D14*
X176496000Y-116270000D03*
D13*
X179036000Y-121350000D03*
D16*
X166871000Y-118810000D03*
X179798000Y-116270000D03*
%TD*%
D17*
%TO.C,H5*%
X153300000Y-142040000D03*
%TD*%
D12*
%TO.C,D115*%
X76106000Y-125679999D03*
X76106000Y-127179999D03*
X81306000Y-127179999D03*
X81306000Y-125679999D03*
%TD*%
D13*
%TO.C,SW59*%
X14096000Y-140420000D03*
D14*
X15366000Y-137880000D03*
D15*
X19176000Y-140420000D03*
D14*
X21716000Y-135340000D03*
D13*
X24256000Y-140420000D03*
D16*
X12091000Y-137880000D03*
X25018000Y-135340000D03*
%TD*%
D13*
%TO.C,SW61*%
X61696000Y-140440000D03*
D14*
X62966000Y-137900000D03*
D15*
X66776000Y-140440000D03*
D14*
X69316000Y-135360000D03*
D13*
X71856000Y-140440000D03*
D16*
X59691000Y-137900000D03*
X72618000Y-135360000D03*
%TD*%
D13*
%TO.C,SW22*%
X135502000Y-83290000D03*
D14*
X136772000Y-80750000D03*
D15*
X140582000Y-83290000D03*
D14*
X143122000Y-78210000D03*
D13*
X145662000Y-83290000D03*
D16*
X133497000Y-80750000D03*
X146424000Y-78210000D03*
%TD*%
D12*
%TO.C,D114*%
X57056000Y-125679999D03*
X57056000Y-127179999D03*
X62256000Y-127179999D03*
X62256000Y-125679999D03*
%TD*%
%TO.C,D118*%
X133256000Y-125679999D03*
X133256000Y-127179999D03*
X138456000Y-127179999D03*
X138456000Y-125679999D03*
%TD*%
%TO.C,D94*%
X214182000Y-87619999D03*
X214182000Y-89119999D03*
X219382000Y-89119999D03*
X219382000Y-87619999D03*
%TD*%
%TO.C,D136*%
X299920000Y-144769999D03*
X299920000Y-146269999D03*
X305120000Y-146269999D03*
X305120000Y-144769999D03*
%TD*%
D13*
%TO.C,SW41*%
X216496000Y-102340000D03*
D14*
X217766000Y-99800000D03*
D15*
X221576000Y-102340000D03*
D14*
X224116000Y-97260000D03*
D13*
X226656000Y-102340000D03*
D16*
X214491000Y-99800000D03*
X227418000Y-97260000D03*
%TD*%
D12*
%TO.C,D126*%
X300006000Y-125719999D03*
X300006000Y-127219999D03*
X305206000Y-127219999D03*
X305206000Y-125719999D03*
%TD*%
%TO.C,D132*%
X223720000Y-144769999D03*
X223720000Y-146269999D03*
X228920000Y-146269999D03*
X228920000Y-144769999D03*
%TD*%
D13*
%TO.C,SW3*%
X49776000Y-64240000D03*
D14*
X51046000Y-61700000D03*
D15*
X54856000Y-64240000D03*
D14*
X57396000Y-59160000D03*
D13*
X59936000Y-64240000D03*
D16*
X47771000Y-61700000D03*
X60698000Y-59160000D03*
%TD*%
D12*
%TO.C,D111*%
X268986000Y-106659999D03*
X268986000Y-108159999D03*
X274186000Y-108159999D03*
X274186000Y-106659999D03*
%TD*%
D13*
%TO.C,SW64*%
X221240000Y-140440000D03*
D14*
X222510000Y-137900000D03*
D15*
X226320000Y-140440000D03*
D14*
X228860000Y-135360000D03*
D13*
X231400000Y-140440000D03*
D16*
X219235000Y-137900000D03*
X232162000Y-135360000D03*
%TD*%
D13*
%TO.C,SW17*%
X40252000Y-83290000D03*
D14*
X41522000Y-80750000D03*
D15*
X45332000Y-83290000D03*
D14*
X47872000Y-78210000D03*
D13*
X50412000Y-83290000D03*
D16*
X38247000Y-80750000D03*
X51174000Y-78210000D03*
%TD*%
D12*
%TO.C,D73*%
X90356000Y-68569999D03*
X90356000Y-70069999D03*
X95556000Y-70069999D03*
X95556000Y-68569999D03*
%TD*%
D13*
%TO.C,SW11*%
X202176000Y-64240000D03*
D14*
X203446000Y-61700000D03*
D15*
X207256000Y-64240000D03*
D14*
X209796000Y-59160000D03*
D13*
X212336000Y-64240000D03*
D16*
X200171000Y-61700000D03*
X213098000Y-59160000D03*
%TD*%
D12*
%TO.C,D128*%
X40396000Y-144759999D03*
X40396000Y-146259999D03*
X45596000Y-146259999D03*
X45596000Y-144759999D03*
%TD*%
%TO.C,D85*%
X42732000Y-87619999D03*
X42732000Y-89119999D03*
X47932000Y-89119999D03*
X47932000Y-87619999D03*
%TD*%
%TO.C,D123*%
X228506000Y-125679999D03*
X228506000Y-127179999D03*
X233706000Y-127179999D03*
X233706000Y-125679999D03*
%TD*%
D13*
%TO.C,SW68*%
X297440000Y-140440000D03*
D14*
X298710000Y-137900000D03*
D15*
X302520000Y-140440000D03*
D14*
X305060000Y-135360000D03*
D13*
X307600000Y-140440000D03*
D16*
X295435000Y-137900000D03*
X308362000Y-135360000D03*
%TD*%
D12*
%TO.C,D70*%
X33206000Y-68569999D03*
X33206000Y-70069999D03*
X38406000Y-70069999D03*
X38406000Y-68569999D03*
%TD*%
%TO.C,D87*%
X80832000Y-87619999D03*
X80832000Y-89119999D03*
X86032000Y-89119999D03*
X86032000Y-87619999D03*
%TD*%
D13*
%TO.C,SW4*%
X68826000Y-64240000D03*
D14*
X70096000Y-61700000D03*
D15*
X73906000Y-64240000D03*
D14*
X76446000Y-59160000D03*
D13*
X78986000Y-64240000D03*
D16*
X66821000Y-61700000D03*
X79748000Y-59160000D03*
%TD*%
D13*
%TO.C,SW29*%
X273615000Y-83290000D03*
D14*
X274885000Y-80750000D03*
D15*
X278695000Y-83290000D03*
D14*
X281235000Y-78210000D03*
D13*
X283775000Y-83290000D03*
D16*
X271610000Y-80750000D03*
X284537000Y-78210000D03*
%TD*%
D12*
%TO.C,D121*%
X190406000Y-125679999D03*
X190406000Y-127179999D03*
X195606000Y-127179999D03*
X195606000Y-125679999D03*
%TD*%
%TO.C,D72*%
X71306000Y-68569999D03*
X71306000Y-70069999D03*
X76506000Y-70069999D03*
X76506000Y-68569999D03*
%TD*%
D13*
%TO.C,SW8*%
X145026000Y-64240000D03*
D14*
X146296000Y-61700000D03*
D15*
X150106000Y-64240000D03*
D14*
X152646000Y-59160000D03*
D13*
X155186000Y-64240000D03*
D16*
X143021000Y-61700000D03*
X155948000Y-59160000D03*
%TD*%
D13*
%TO.C,SW18*%
X59302000Y-83290000D03*
D14*
X60572000Y-80750000D03*
D15*
X64382000Y-83290000D03*
D14*
X66922000Y-78210000D03*
D13*
X69462000Y-83290000D03*
D16*
X57297000Y-80750000D03*
X70224000Y-78210000D03*
%TD*%
D13*
%TO.C,SW56*%
X252320000Y-121440000D03*
D14*
X253590000Y-118900000D03*
D15*
X257400000Y-121440000D03*
D14*
X259940000Y-116360000D03*
D13*
X262480000Y-121440000D03*
D16*
X250315000Y-118900000D03*
X263242000Y-116360000D03*
%TD*%
D12*
%TO.C,D125*%
X280956000Y-125719999D03*
X280956000Y-127219999D03*
X286156000Y-127219999D03*
X286156000Y-125719999D03*
%TD*%
D13*
%TO.C,SW26*%
X211702000Y-83290000D03*
D14*
X212972000Y-80750000D03*
D15*
X216782000Y-83290000D03*
D14*
X219322000Y-78210000D03*
D13*
X221862000Y-83290000D03*
D16*
X209697000Y-80750000D03*
X222624000Y-78210000D03*
%TD*%
D12*
%TO.C,D75*%
X128456000Y-68569999D03*
X128456000Y-70069999D03*
X133656000Y-70069999D03*
X133656000Y-68569999D03*
%TD*%
D13*
%TO.C,SW1*%
X11676000Y-64240000D03*
D14*
X12946000Y-61700000D03*
D15*
X16756000Y-64240000D03*
D14*
X19296000Y-59160000D03*
D13*
X21836000Y-64240000D03*
D16*
X9671000Y-61700000D03*
X22598000Y-59160000D03*
%TD*%
D13*
%TO.C,SW53*%
X187926000Y-121350000D03*
D14*
X189196000Y-118810000D03*
D15*
X193006000Y-121350000D03*
D14*
X195546000Y-116270000D03*
D13*
X198086000Y-121350000D03*
D16*
X185921000Y-118810000D03*
X198848000Y-116270000D03*
%TD*%
D12*
%TO.C,D124*%
X254698500Y-125669999D03*
X254698500Y-127169999D03*
X259898500Y-127169999D03*
X259898500Y-125669999D03*
%TD*%
%TO.C,D92*%
X176082000Y-87619999D03*
X176082000Y-89119999D03*
X181282000Y-89119999D03*
X181282000Y-87619999D03*
%TD*%
D17*
%TO.C,H4*%
X313840000Y-148080000D03*
%TD*%
D12*
%TO.C,D133*%
X242770000Y-144769999D03*
X242770000Y-146269999D03*
X247970000Y-146269999D03*
X247970000Y-144769999D03*
%TD*%
D13*
%TO.C,SW6*%
X106926000Y-64240000D03*
D14*
X108196000Y-61700000D03*
D15*
X112006000Y-64240000D03*
D14*
X114546000Y-59160000D03*
D13*
X117086000Y-64240000D03*
D16*
X104921000Y-61700000D03*
X117848000Y-59160000D03*
%TD*%
D12*
%TO.C,D76*%
X147506000Y-68569999D03*
X147506000Y-70069999D03*
X152706000Y-70069999D03*
X152706000Y-68569999D03*
%TD*%
%TO.C,D104*%
X123726000Y-106669999D03*
X123726000Y-108169999D03*
X128926000Y-108169999D03*
X128926000Y-106669999D03*
%TD*%
D10*
%TO.C,REF\u002A\u002A*%
X259679750Y-95345000D03*
D11*
X259679750Y-110585000D03*
D10*
X283492250Y-95345000D03*
D11*
X283492250Y-110585000D03*
%TD*%
D12*
%TO.C,D79*%
X204656000Y-68569999D03*
X204656000Y-70069999D03*
X209856000Y-70069999D03*
X209856000Y-68569999D03*
%TD*%
D13*
%TO.C,SW34*%
X83146000Y-102340000D03*
D14*
X84416000Y-99800000D03*
D15*
X88226000Y-102340000D03*
D14*
X90766000Y-97260000D03*
D13*
X93306000Y-102340000D03*
D16*
X81141000Y-99800000D03*
X94068000Y-97260000D03*
%TD*%
D13*
%TO.C,SW16*%
X16439000Y-83290000D03*
D14*
X17709000Y-80750000D03*
D15*
X21519000Y-83290000D03*
D14*
X24059000Y-78210000D03*
D13*
X26599000Y-83290000D03*
D16*
X14434000Y-80750000D03*
X27361000Y-78210000D03*
%TD*%
D12*
%TO.C,D95*%
X233232000Y-87619999D03*
X233232000Y-89119999D03*
X238432000Y-89119999D03*
X238432000Y-87619999D03*
%TD*%
D13*
%TO.C,SW45*%
X23616000Y-121350000D03*
D14*
X24886000Y-118810000D03*
D15*
X28696000Y-121350000D03*
D14*
X31236000Y-116270000D03*
D13*
X33776000Y-121350000D03*
D16*
X21611000Y-118810000D03*
X34538000Y-116270000D03*
%TD*%
D13*
%TO.C,SW23*%
X154552000Y-83290000D03*
D14*
X155822000Y-80750000D03*
D15*
X159632000Y-83290000D03*
D14*
X162172000Y-78210000D03*
D13*
X164712000Y-83290000D03*
D16*
X152547000Y-80750000D03*
X165474000Y-78210000D03*
%TD*%
D13*
%TO.C,SW51*%
X149826000Y-121350000D03*
D14*
X151096000Y-118810000D03*
D15*
X154906000Y-121350000D03*
D14*
X157446000Y-116270000D03*
D13*
X159986000Y-121350000D03*
D16*
X147821000Y-118810000D03*
X160748000Y-116270000D03*
%TD*%
D12*
%TO.C,D74*%
X109406000Y-68569999D03*
X109406000Y-70069999D03*
X114606000Y-70069999D03*
X114606000Y-68569999D03*
%TD*%
%TO.C,D105*%
X142776000Y-106669999D03*
X142776000Y-108169999D03*
X147976000Y-108169999D03*
X147976000Y-106669999D03*
%TD*%
D13*
%TO.C,SW43*%
X266506000Y-102330000D03*
D14*
X267776000Y-99790000D03*
D15*
X271586000Y-102330000D03*
D14*
X274126000Y-97250000D03*
D13*
X276666000Y-102330000D03*
D16*
X264501000Y-99790000D03*
X277428000Y-97250000D03*
%TD*%
D12*
%TO.C,D71*%
X52256000Y-68569999D03*
X52256000Y-70069999D03*
X57456000Y-70069999D03*
X57456000Y-68569999D03*
%TD*%
%TO.C,D69*%
X14156000Y-68569999D03*
X14156000Y-70069999D03*
X19356000Y-70069999D03*
X19356000Y-68569999D03*
%TD*%
%TO.C,D130*%
X135614000Y-144769999D03*
X135614000Y-146269999D03*
X140814000Y-146269999D03*
X140814000Y-144769999D03*
%TD*%
D13*
%TO.C,SW46*%
X54576000Y-121350000D03*
D14*
X55846000Y-118810000D03*
D15*
X59656000Y-121350000D03*
D14*
X62196000Y-116270000D03*
D13*
X64736000Y-121350000D03*
D16*
X52571000Y-118810000D03*
X65498000Y-116270000D03*
%TD*%
D17*
%TO.C,H5*%
X44300000Y-121470000D03*
%TD*%
D12*
%TO.C,D120*%
X171356000Y-125679999D03*
X171356000Y-127179999D03*
X176556000Y-127179999D03*
X176556000Y-125679999D03*
%TD*%
%TO.C,D97*%
X276095000Y-87619999D03*
X276095000Y-89119999D03*
X281295000Y-89119999D03*
X281295000Y-87619999D03*
%TD*%
D13*
%TO.C,SW20*%
X97402000Y-83290000D03*
D14*
X98672000Y-80750000D03*
D15*
X102482000Y-83290000D03*
D14*
X105022000Y-78210000D03*
D13*
X107562000Y-83290000D03*
D16*
X95397000Y-80750000D03*
X108324000Y-78210000D03*
%TD*%
D13*
%TO.C,SW36*%
X121246000Y-102340000D03*
D14*
X122516000Y-99800000D03*
D15*
X126326000Y-102340000D03*
D14*
X128866000Y-97260000D03*
D13*
X131406000Y-102340000D03*
D16*
X119241000Y-99800000D03*
X132168000Y-97260000D03*
%TD*%
D13*
%TO.C,SW57*%
X278476000Y-121390000D03*
D14*
X279746000Y-118850000D03*
D15*
X283556000Y-121390000D03*
D14*
X286096000Y-116310000D03*
D13*
X288636000Y-121390000D03*
D16*
X276471000Y-118850000D03*
X289398000Y-116310000D03*
%TD*%
D12*
%TO.C,D107*%
X180876000Y-106669999D03*
X180876000Y-108169999D03*
X186076000Y-108169999D03*
X186076000Y-106669999D03*
%TD*%
D13*
%TO.C,SW65*%
X240290000Y-140440000D03*
D14*
X241560000Y-137900000D03*
D15*
X245370000Y-140440000D03*
D14*
X247910000Y-135360000D03*
D13*
X250450000Y-140440000D03*
D16*
X238285000Y-137900000D03*
X251212000Y-135360000D03*
%TD*%
D13*
%TO.C,SW37*%
X140296000Y-102340000D03*
D14*
X141566000Y-99800000D03*
D15*
X145376000Y-102340000D03*
D14*
X147916000Y-97260000D03*
D13*
X150456000Y-102340000D03*
D16*
X138291000Y-99800000D03*
X151218000Y-97260000D03*
%TD*%
D13*
%TO.C,SW40*%
X197446000Y-102340000D03*
D14*
X198716000Y-99800000D03*
D15*
X202526000Y-102340000D03*
D14*
X205066000Y-97260000D03*
D13*
X207606000Y-102340000D03*
D16*
X195441000Y-99800000D03*
X208368000Y-97260000D03*
%TD*%
D13*
%TO.C,SW27*%
X230752000Y-83290000D03*
D14*
X232022000Y-80750000D03*
D15*
X235832000Y-83290000D03*
D14*
X238372000Y-78210000D03*
D13*
X240912000Y-83290000D03*
D16*
X228747000Y-80750000D03*
X241674000Y-78210000D03*
%TD*%
D13*
%TO.C,SW9*%
X164076000Y-64240000D03*
D14*
X165346000Y-61700000D03*
D15*
X169156000Y-64240000D03*
D14*
X171696000Y-59160000D03*
D13*
X174236000Y-64240000D03*
D16*
X162071000Y-61700000D03*
X174998000Y-59160000D03*
%TD*%
D13*
%TO.C,SW47*%
X73626000Y-121350000D03*
D14*
X74896000Y-118810000D03*
D15*
X78706000Y-121350000D03*
D14*
X81246000Y-116270000D03*
D13*
X83786000Y-121350000D03*
D16*
X71621000Y-118810000D03*
X84548000Y-116270000D03*
%TD*%
D19*
%TO.C,D66*%
X255600000Y-145290000D03*
X255600000Y-141990000D03*
%TD*%
%TO.C,D47*%
X69500000Y-125990000D03*
X69500000Y-122690000D03*
%TD*%
%TO.C,D55*%
X221800000Y-126090000D03*
X221800000Y-122790000D03*
%TD*%
%TO.C,D63*%
X198300000Y-145190000D03*
X198300000Y-141890000D03*
%TD*%
%TO.C,D12*%
X217300000Y-69190000D03*
X217300000Y-65890000D03*
%TD*%
%TO.C,D45*%
X19700000Y-125890000D03*
X19700000Y-122590000D03*
%TD*%
%TO.C,D56*%
X247600000Y-126940000D03*
X247600000Y-123640000D03*
%TD*%
%TO.C,D37*%
X136850000Y-107290000D03*
X136850000Y-103990000D03*
%TD*%
%TO.C,D67*%
X274800000Y-145490000D03*
X274800000Y-142190000D03*
%TD*%
%TO.C,D19*%
X74800000Y-88690000D03*
X74800000Y-85390000D03*
%TD*%
%TO.C,D3*%
X46300000Y-68490000D03*
X46300000Y-65190000D03*
%TD*%
%TO.C,D23*%
X150700000Y-88390000D03*
X150700000Y-85090000D03*
%TD*%
%TO.C,D31*%
X15100000Y-106940000D03*
X15100000Y-103640000D03*
%TD*%
%TO.C,D14*%
X265100000Y-69090000D03*
X265100000Y-65790000D03*
%TD*%
%TO.C,D64*%
X217400000Y-145190000D03*
X217400000Y-141890000D03*
%TD*%
%TO.C,D21*%
X112500000Y-88390000D03*
X112500000Y-85090000D03*
%TD*%
%TO.C,D52*%
X164800000Y-125790000D03*
X164800000Y-122490000D03*
%TD*%
%TO.C,D10*%
X179000000Y-69190000D03*
X179000000Y-65890000D03*
%TD*%
%TO.C,D30*%
X293400000Y-88240000D03*
X293400000Y-84940000D03*
%TD*%
%TO.C,D50*%
X126600000Y-126090000D03*
X126600000Y-122790000D03*
%TD*%
%TO.C,D46*%
X50700000Y-126090000D03*
X50700000Y-122790000D03*
%TD*%
%TO.C,D39*%
X174800000Y-107290000D03*
X174800000Y-103990000D03*
%TD*%
%TO.C,D7*%
X122000000Y-68790000D03*
X122000000Y-65490000D03*
%TD*%
%TO.C,D44*%
X293800000Y-106890000D03*
X293800000Y-103590000D03*
%TD*%
%TO.C,D34*%
X79600000Y-107190000D03*
X79600000Y-103890000D03*
%TD*%
%TO.C,D29*%
X270000000Y-88340000D03*
X270000000Y-85040000D03*
%TD*%
%TO.C,D42*%
X232000000Y-107190000D03*
X232000000Y-103890000D03*
%TD*%
%TO.C,D53*%
X183700000Y-125890000D03*
X183700000Y-122590000D03*
%TD*%
%TO.C,D8*%
X140900000Y-68690000D03*
X140900000Y-65390000D03*
%TD*%
%TO.C,D2*%
X26800000Y-68150000D03*
X26800000Y-64850000D03*
%TD*%
%TO.C,D16*%
X12900000Y-88640000D03*
X12900000Y-85340000D03*
%TD*%
%TO.C,D65*%
X236600000Y-145390000D03*
X236600000Y-142090000D03*
%TD*%
%TO.C,D33*%
X60400000Y-106790000D03*
X60400000Y-103490000D03*
%TD*%
%TO.C,D59*%
X10550000Y-144740000D03*
X10550000Y-141440000D03*
%TD*%
%TO.C,D38*%
X155700000Y-107190000D03*
X155700000Y-103890000D03*
%TD*%
%TO.C,D20*%
X93500000Y-88490000D03*
X93500000Y-85190000D03*
%TD*%
%TO.C,D9*%
X160100000Y-68790000D03*
X160100000Y-65490000D03*
%TD*%
%TO.C,D17*%
X36700000Y-88540000D03*
X36700000Y-85240000D03*
%TD*%
%TO.C,D60*%
X34300000Y-144990000D03*
X34300000Y-141690000D03*
%TD*%
%TO.C,D61*%
X58050000Y-145540000D03*
X58050000Y-142240000D03*
%TD*%
%TO.C,D41*%
X213100000Y-107290000D03*
X213100000Y-103990000D03*
%TD*%
%TO.C,D26*%
X208100000Y-88290000D03*
X208100000Y-84990000D03*
%TD*%
%TO.C,D13*%
X236900000Y-68990000D03*
X236900000Y-65690000D03*
%TD*%
%TO.C,D35*%
X98400000Y-107290000D03*
X98400000Y-103990000D03*
%TD*%
D20*
%TO.C,A1*%
X3890000Y-53222500D03*
D18*
X3890000Y-55762500D03*
D21*
X3890000Y-58302500D03*
D18*
X3890000Y-60842500D03*
X3890000Y-63382500D03*
X3890000Y-65922500D03*
X3890000Y-68462500D03*
D21*
X3890000Y-71002500D03*
D18*
X3890000Y-73542500D03*
X3890000Y-76082500D03*
X3890000Y-78622500D03*
X3890000Y-81162500D03*
D21*
X3890000Y-83702500D03*
D18*
X3890000Y-86242500D03*
X3890000Y-88782500D03*
X3890000Y-91322500D03*
X3890000Y-93862500D03*
D21*
X3890000Y-96402500D03*
D18*
X3890000Y-98942500D03*
X3890000Y-101482500D03*
X-13890000Y-101482500D03*
X-13890000Y-98942500D03*
D22*
X-13890000Y-96402500D03*
D18*
X-13890000Y-93862500D03*
X-13890000Y-91322500D03*
X-13890000Y-88782500D03*
X-13890000Y-86242500D03*
D22*
X-13890000Y-83702500D03*
D18*
X-13890000Y-81162500D03*
X-13890000Y-78622500D03*
X-13890000Y-76082500D03*
X-13890000Y-73542500D03*
D22*
X-13890000Y-71002500D03*
D18*
X-13890000Y-68462500D03*
X-13890000Y-65922500D03*
X-13890000Y-63382500D03*
X-13890000Y-60842500D03*
D22*
X-13890000Y-58302500D03*
D18*
X-13890000Y-55762500D03*
X-13890000Y-53222500D03*
%TD*%
D19*
%TO.C,D15*%
X293700000Y-69490000D03*
X293700000Y-66190000D03*
%TD*%
%TO.C,D51*%
X145800000Y-125890000D03*
X145800000Y-122590000D03*
%TD*%
%TO.C,D5*%
X84400000Y-68590000D03*
X84400000Y-65290000D03*
%TD*%
%TO.C,D54*%
X202800000Y-126090000D03*
X202800000Y-122790000D03*
%TD*%
%TO.C,D18*%
X55900000Y-88590000D03*
X55900000Y-85290000D03*
%TD*%
%TO.C,D36*%
X117800000Y-107190000D03*
X117800000Y-103890000D03*
%TD*%
%TO.C,D40*%
X193700000Y-107290000D03*
X193700000Y-103990000D03*
%TD*%
%TO.C,D57*%
X274150000Y-125940000D03*
X274150000Y-122640000D03*
%TD*%
%TO.C,D27*%
X227000000Y-88190000D03*
X227000000Y-84890000D03*
%TD*%
%TO.C,D43*%
X262600000Y-106990000D03*
X262600000Y-103690000D03*
%TD*%
%TO.C,D4*%
X65100000Y-68590000D03*
X65100000Y-65290000D03*
%TD*%
%TO.C,D58*%
X293800000Y-126090000D03*
X293800000Y-122790000D03*
%TD*%
%TO.C,D68*%
X293700000Y-145490000D03*
X293700000Y-142190000D03*
%TD*%
%TO.C,D22*%
X131600000Y-88390000D03*
X131600000Y-85090000D03*
%TD*%
%TO.C,D6*%
X103300000Y-68690000D03*
X103300000Y-65390000D03*
%TD*%
%TO.C,D62*%
X129800000Y-144990000D03*
X129800000Y-141690000D03*
%TD*%
%TO.C,D32*%
X41300000Y-107090000D03*
X41300000Y-103790000D03*
%TD*%
%TO.C,D28*%
X246200000Y-88090000D03*
X246200000Y-84790000D03*
%TD*%
%TO.C,D11*%
X198100000Y-69190000D03*
X198100000Y-65890000D03*
%TD*%
%TO.C,D1*%
X8600000Y-67950000D03*
X8600000Y-64650000D03*
%TD*%
%TO.C,D48*%
X89000000Y-125990000D03*
X89000000Y-122690000D03*
%TD*%
%TO.C,D24*%
X170200000Y-88990000D03*
X170200000Y-85690000D03*
%TD*%
%TO.C,D49*%
X107900000Y-125990000D03*
X107900000Y-122690000D03*
%TD*%
%TO.C,D25*%
X188750000Y-88290000D03*
X188750000Y-84990000D03*
%TD*%
M02*
