M48
; DRILL file KiCad 10.0.3 date 2026-06-25T14:28:47
; FORMAT={-:-/ absolute / metric / decimal}
; #@! TF.CreationDate,2026-06-25T14:28:47+05:30
; #@! TF.GenerationSoftware,Kicad,Pcbnew,10.0.3
; #@! TF.FileFunction,Plated,1,2,PTH
FMAT,2
METRIC
; #@! TA.AperFunction,Plated,PTH,ViaDrill
T1C0.300
; #@! TA.AperFunction,Plated,PTH,ComponentDrill
T2C0.800
; #@! TA.AperFunction,Plated,PTH,ComponentDrill
T3C1.000
%
G90
G05
T1
X-10.525Y-132.625
X-4.9Y-119.85
X0.72Y-64.12
X1.299Y-71.17
X1.7Y-57.4
X6.07Y-74.77
X6.197Y-72.8
X6.25Y-64.94
X6.34Y-142.72
X7.4Y-58.3
X8.6Y-67.95
X9.0Y-88.6
X9.6Y-132.0
X9.998Y-105.0
X10.16Y-69.49
X10.399Y-111.0
X10.399Y-123.8
X10.55Y-144.74
X10.7Y-81.825
X11.09Y-142.96
X11.8Y-71.5
X12.4Y-94.04
X12.5Y-107.0
X12.8Y-67.8
X13.0Y-57.7
X13.7Y-148.2
X14.2Y-70.124
X14.354Y-66.306
X15.2Y-55.7
X16.0Y-90.7
X16.35Y-146.39
X17.5Y-149.7
X17.925Y-85.275
X18.2Y-109.5
X18.37Y-114.41
X18.5Y-111.8
X18.77Y-89.16
X19.4Y-71.5
X19.7Y-125.89
X19.87Y-76.2
X20.0Y-74.75
X20.46Y-108.51
X21.17Y-66.4
X21.59Y-68.28
X21.749Y-144.051
X21.776Y-144.75
X21.776Y-146.25
X22.06Y-76.89
X22.4Y-59.1
X22.43Y-69.94
X23.5Y-129.0
X24.496Y-135.34
X24.92Y-69.75
X25.68Y-88.52
X26.03Y-90.7
X26.06Y-127.15
X26.239Y-72.7
X26.839Y-78.21
X27.1Y-131.9
X27.1Y-133.0
X27.12Y-85.42
X28.56Y-106.65
X28.648Y-91.9
X29.248Y-97.24
X29.39Y-69.0
X29.4Y-76.4
X29.46Y-107.55
X29.7Y-74.142
X29.842Y-133.116
X30.2Y-132.4
X30.4Y-71.2
X30.501Y-130.2
X31.2Y-95.2
X31.79Y-90.7
X32.14Y-67.38
X32.4Y-102.75
X32.5Y-112.0
X32.825Y-65.85
X33.245Y-70.145
X33.374Y-100.516
X33.416Y-109.5
X33.416Y-111.1
X34.016Y-116.27
X34.4Y-126.26
X35.3Y-109.5
X36.4Y-112.0
X37.5Y-112.6
X38.0Y-148.2
X38.4Y-72.5
X38.406Y-68.57
X38.406Y-70.07
X39.2Y-90.7
X40.34Y-146.23
X41.32Y-69.14
X41.5Y-111.101
X41.9Y-73.6
X42.12Y-94.5
X42.5Y-59.2
X42.5Y-72.8
X42.69Y-90.7
X45.1Y-109.5
X45.596Y-146.26
X45.6Y-149.4
X46.12Y-72.56
X47.256Y-143.1
X47.48Y-108.18
X47.9Y-91.9
X47.932Y-89.12
X48.316Y-135.35
X48.65Y-67.39
X49.1Y-71.2
X49.1Y-149.5
X49.65Y-95.8
X50.19Y-81.49
X50.463Y-75.111
X50.48Y-87.25
X50.574Y-76.0
X51.075Y-65.7
X51.1Y-80.61
X51.1Y-91.9
X51.174Y-78.21
X52.3Y-81.7
X52.345Y-69.986
X52.5Y-110.7
X52.9Y-108.4
X53.0Y-131.0
X53.8Y-110.7
X54.38Y-76.6
X54.5Y-129.0
X55.3Y-94.541
X56.3Y-112.4
X56.42Y-123.1
X56.656Y-113.204
X56.9Y-95.9
X57.025Y-127.2
X57.4Y-72.4
X57.456Y-68.57
X57.456Y-70.07
X57.5Y-108.04
X57.89Y-73.7
X58.84Y-114.405
X59.0Y-90.7
X60.675Y-118.475
X61.0Y-148.2
X61.525Y-69.7
X61.59Y-96.16
X61.77Y-89.19
X61.8Y-59.2
X61.8Y-75.2
X62.256Y-125.68
X62.256Y-127.18
X62.266Y-124.083
X62.3Y-130.2
X62.66Y-143.1
X62.88Y-72.64
X64.1Y-109.5
X64.218Y-146.331
X64.5Y-123.392
X64.68Y-96.92
X64.81Y-75.24
X64.81Y-76.99
X64.876Y-113.824
X65.498Y-116.27
X66.39Y-130.7
X66.59Y-108.17
X66.982Y-89.12
X67.0Y-91.9
X67.1Y-114.002
X67.4Y-149.5
X68.0Y-71.2
X68.2Y-75.0
X69.31Y-143.79
X69.376Y-146.27
X70.224Y-78.21
X70.3Y-92.5
X70.775Y-86.1
X70.925Y-65.8
X71.32Y-70.08
X71.675Y-124.625
X71.776Y-106.67
X71.776Y-108.17
X71.8Y-110.7
X72.096Y-135.36
X73.2Y-130.2
X74.4Y-129.0
X74.7Y-130.7
X74.9Y-106.67
X74.9Y-110.9
X75.018Y-97.26
X75.85Y-127.11
X76.5Y-72.4
X76.506Y-70.07
X77.2Y-93.3
X77.33Y-109.5
X78.0Y-90.7
X79.0Y-109.2
X79.612Y-73.0
X79.65Y-68.525
X79.7Y-59.2
X80.893Y-89.118
X81.3Y-130.2
X81.306Y-127.18
X82.3Y-109.5
X84.548Y-116.27
X85.51Y-108.4
X86.0Y-91.9
X86.032Y-89.12
X86.5Y-84.075
X87.6Y-71.2
X87.8Y-67.025
X89.2Y-93.177
X89.274Y-78.21
X90.382Y-70.205
X90.5Y-110.7
X90.826Y-106.67
X90.826Y-108.17
X92.7Y-129.0
X93.3Y-94.5
X94.0Y-110.7
X94.068Y-97.26
X95.11Y-127.4
X95.556Y-70.07
X95.6Y-72.4
X96.6Y-90.7
X98.43Y-69.61
X98.7Y-72.7
X98.8Y-59.2
X99.82Y-89.11
X100.3Y-130.2
X100.356Y-127.18
X101.6Y-109.5
X102.3Y-130.2
X103.598Y-116.27
X104.716Y-108.241
X104.9Y-91.9
X105.082Y-89.12
X105.72Y-69.68
X107.2Y-71.2
X108.3Y-91.9
X108.324Y-78.21
X108.56Y-67.21
X108.675Y-85.225
X109.44Y-70.07
X109.6Y-110.7
X109.876Y-108.17
X111.8Y-129.0
X113.0Y-94.8
X113.118Y-97.26
X113.876Y-110.724
X114.2Y-127.21
X114.5Y-72.4
X114.606Y-68.57
X114.606Y-70.07
X116.1Y-90.7
X117.85Y-66.925
X117.9Y-59.1
X118.1Y-70.36
X118.118Y-73.746
X118.95Y-89.28
X119.406Y-127.18
X119.5Y-130.2
X120.27Y-67.6
X121.4Y-109.5
X121.72Y-63.29
X122.648Y-116.27
X122.9Y-130.5
X123.76Y-108.09
X123.76Y-108.09
X124.1Y-91.9
X124.132Y-89.12
X126.4Y-71.2
X126.875Y-66.6
X127.1Y-85.2
X127.3Y-91.9
X127.374Y-78.21
X128.46Y-70.07
X128.9Y-110.7
X128.926Y-108.17
X129.5Y-149.4
X130.2Y-129.0
X132.168Y-97.26
X132.168Y-97.26
X132.6Y-110.7
X133.3Y-127.16
X133.4Y-148.2
X133.656Y-70.07
X133.7Y-72.4
X133.96Y-108.95
X134.1Y-55.899
X134.83Y-62.01
X135.67Y-146.28
X136.08Y-66.14
X136.1Y-88.1
X136.72Y-74.6
X136.9Y-59.2
X137.94Y-89.04
X138.456Y-127.18
X138.5Y-130.2
X140.1Y-109.5
X140.8Y-149.4
X140.814Y-144.77
X140.814Y-146.27
X141.698Y-116.27
X142.82Y-108.225
X142.934Y-130.4
X143.182Y-89.12
X143.2Y-91.9
X143.534Y-135.36
X145.05Y-67.125
X145.343Y-73.0
X146.424Y-78.21
X146.45Y-85.675
X146.5Y-91.9
X146.7Y-71.2
X147.1Y-73.9
X147.586Y-70.01
X147.74Y-129.0
X147.976Y-108.17
X148.0Y-110.7
X149.07Y-58.4
X149.2Y-129.0
X151.218Y-97.26
X151.4Y-110.7
X152.26Y-127.16
X152.7Y-72.4
X152.706Y-70.07
X154.0Y-90.7
X154.28Y-65.74
X154.675Y-85.35
X156.1Y-59.2
X156.92Y-89.16
X157.5Y-130.2
X157.506Y-127.18
X159.0Y-109.5
X160.748Y-116.27
X161.2Y-130.2
X161.3Y-91.9
X161.58Y-108.07
X162.232Y-89.12
X163.85Y-67.3
X163.9Y-71.2
X165.46Y-89.09
X165.474Y-78.21
X165.5Y-91.9
X166.57Y-70.07
X167.0Y-110.7
X167.026Y-108.17
X168.4Y-129.0
X170.268Y-97.26
X170.3Y-110.7
X171.36Y-127.24
X171.57Y-83.63
X171.756Y-70.07
X171.8Y-73.0
X172.87Y-88.26
X173.8Y-90.7
X175.0Y-59.1
X175.126Y-74.074
X175.547Y-69.525
X176.1Y-89.1
X176.13Y-84.6
X176.5Y-130.2
X176.556Y-127.18
X177.26Y-66.69
X178.0Y-109.5
X179.798Y-116.27
X180.89Y-108.17
X181.282Y-89.12
X181.3Y-91.9
X181.6Y-130.2
X182.925Y-68.475
X184.1Y-89.51
X184.325Y-65.9
X184.524Y-78.21
X184.6Y-71.2
X184.6Y-91.9
X185.124Y-75.38
X185.706Y-69.87
X186.076Y-108.17
X186.1Y-110.7
X186.51Y-89.8
X187.2Y-129.0
X189.2Y-110.7
X189.318Y-97.26
X190.48Y-127.12
X190.8Y-72.4
X190.806Y-70.07
X192.6Y-90.7
X193.825Y-69.85
X194.0Y-59.2
X194.83Y-89.28
X195.3Y-72.4
X195.6Y-130.2
X195.606Y-127.18
X195.9Y-149.5
X196.9Y-109.5
X198.848Y-116.27
X199.4Y-91.9
X199.89Y-108.19
X200.2Y-130.2
X200.332Y-89.12
X200.6Y-69.375
X201.5Y-148.2
X201.9Y-71.1
X203.0Y-65.85
X203.574Y-78.21
X204.35Y-69.98
X204.73Y-146.271
X204.9Y-91.9
X205.1Y-110.7
X205.126Y-108.17
X205.9Y-129.0
X208.368Y-97.26
X209.3Y-110.7
X209.46Y-127.19
X209.5Y-72.4
X209.856Y-70.07
X209.87Y-146.27
X209.9Y-112.4
X209.9Y-149.5
X212.6Y-90.7
X213.0Y-69.15
X213.1Y-135.5
X213.3Y-59.2
X214.03Y-89.33
X214.1Y-73.3
X214.6Y-130.2
X214.656Y-127.18
X215.275Y-55.725
X216.2Y-109.5
X217.7Y-149.5
X217.898Y-116.27
X218.1Y-130.3
X218.3Y-91.9
X218.775Y-71.05
X218.88Y-108.35
X219.382Y-89.12
X220.8Y-71.2
X221.3Y-148.2
X222.6Y-91.9
X222.624Y-78.21
X223.275Y-66.1
X223.73Y-146.26
X223.768Y-70.062
X224.176Y-108.17
X224.2Y-110.7
X225.2Y-90.56
X225.7Y-129.0
X227.418Y-97.26
X227.5Y-110.7
X228.47Y-127.14
X228.8Y-149.5
X228.906Y-70.07
X228.92Y-146.27
X229.0Y-72.7
X229.23Y-93.75
X230.357Y-149.423
X230.966Y-150.0
X231.3Y-90.7
X232.148Y-59.16
X232.162Y-135.36
X232.45Y-69.15
X233.25Y-89.16
X233.51Y-93.7
X233.7Y-130.3
X233.706Y-127.18
X233.93Y-90.7
X234.0Y-72.431
X234.525Y-62.8
X235.6Y-109.5
X236.812Y-130.3
X236.948Y-112.4
X236.948Y-116.27
X237.99Y-108.1
X238.38Y-85.89
X238.432Y-87.62
X238.432Y-89.12
X238.5Y-91.9
X239.8Y-148.2
X240.7Y-112.8
X240.8Y-71.2
X241.674Y-78.21
X242.0Y-91.9
X242.816Y-146.319
X242.816Y-70.068
X243.2Y-85.641
X243.226Y-108.17
X243.3Y-110.7
X245.55Y-90.25
X246.332Y-110.7
X246.468Y-97.26
X246.5Y-149.4
X247.9Y-72.4
X247.956Y-70.07
X247.97Y-146.27
X249.0Y-149.4
X249.5Y-90.7
X251.2Y-72.5
X251.2Y-135.4
X251.3Y-59.2
X251.6Y-129.0
X251.8Y-76.925
X251.9Y-131.0
X252.1Y-89.25
X255.36Y-129.0
X255.84Y-107.86
X257.482Y-89.12
X257.5Y-91.9
X257.54Y-86.28
X258.8Y-148.2
X260.325Y-57.95
X260.438Y-127.17
X260.588Y-91.9
X260.724Y-78.21
X260.8Y-130.2
X260.875Y-68.75
X261.81Y-146.25
X262.618Y-116.26
X265.9Y-109.5
X267.0Y-149.4
X267.02Y-146.27
X269.03Y-108.05
X269.4Y-71.2
X270.25Y-131.9
X270.262Y-135.36
X271.45Y-70.0
X272.4Y-149.4
X272.6Y-90.7
X274.186Y-108.16
X274.2Y-110.7
X276.177Y-89.056
X276.581Y-70.07
X276.6Y-72.4
X277.56Y-97.25
X277.7Y-129.0
X278.0Y-148.2
X279.823Y-59.16
X280.4Y-110.9
X280.475Y-66.275
X280.635Y-73.0
X280.635Y-93.1
X280.87Y-146.25
X280.96Y-127.22
X281.835Y-89.12
X282.3Y-91.9
X283.42Y-104.98
X284.01Y-88.37
X284.36Y-107.34
X284.537Y-78.21
X286.07Y-146.27
X286.1Y-130.2
X286.1Y-149.4
X286.156Y-127.22
X286.38Y-70.15
X287.7Y-149.4
X289.2Y-130.2
X289.312Y-135.36
X289.375Y-61.675
X289.398Y-116.31
X289.9Y-133.1
X290.5Y-131.3
X297.16Y-126.79
X297.5Y-69.42
X298.5Y-109.9
X298.5Y-111.8
X298.5Y-129.6
X299.3Y-73.8
X299.7Y-72.4
X300.006Y-127.22
X300.075Y-70.042
X300.081Y-108.123
X301.15Y-123.83
X305.206Y-87.62
X305.206Y-89.12
X305.206Y-104.98
X305.206Y-106.67
X305.3Y-91.0
X305.81Y-85.5
X306.54Y-91.67
X306.83Y-81.27
X307.45Y-142.83
X307.57Y-84.98
T2
X-19.3Y-80.34
X-19.3Y-90.5
T3
X-13.89Y-53.222
X-13.89Y-55.762
X-13.89Y-58.302
X-13.89Y-60.842
X-13.89Y-63.383
X-13.89Y-65.922
X-13.89Y-68.462
X-13.89Y-71.002
X-13.89Y-73.542
X-13.89Y-76.082
X-13.89Y-78.623
X-13.89Y-81.162
X-13.89Y-83.703
X-13.89Y-86.242
X-13.89Y-88.782
X-13.89Y-91.322
X-13.89Y-93.862
X-13.89Y-96.402
X-13.89Y-98.942
X-13.89Y-101.483
X3.89Y-53.222
X3.89Y-55.762
X3.89Y-58.302
X3.89Y-60.842
X3.89Y-63.383
X3.89Y-65.922
X3.89Y-68.462
X3.89Y-71.002
X3.89Y-73.542
X3.89Y-76.082
X3.89Y-78.623
X3.89Y-81.162
X3.89Y-83.703
X3.89Y-86.242
X3.89Y-88.782
X3.89Y-91.322
X3.89Y-93.862
X3.89Y-96.402
X3.89Y-98.942
X3.89Y-101.483
M30
