%TF.GenerationSoftware,KiCad,Pcbnew,10.0.3*%
%TF.CreationDate,2026-07-02T12:34:20+05:30*%
%TF.ProjectId,pcb,7063622e-6b69-4636-9164-5f7063625858,rev?*%
%TF.SameCoordinates,Original*%
%TF.FileFunction,OtherDrawing,Comment*%
%FSLAX46Y46*%
G04 Gerber Fmt 4.6, Leading zero omitted, Abs format (unit mm)*
G04 Created by KiCad (PCBNEW 10.0.3) date 2026-07-02 12:34:20*
%MOMM*%
%LPD*%
G01*
G04 APERTURE LIST*
%ADD10C,0.120000*%
%ADD11C,0.150000*%
%ADD12C,0.100000*%
G04 APERTURE END LIST*
%TO.C,REF\u002A\u002A*%
D10*
X7264750Y-111825000D02*
X7264750Y-130875000D01*
X7264750Y-111825000D02*
X50127250Y-111825000D01*
X7264750Y-130875000D02*
X50127250Y-130875000D01*
X21696000Y-114350000D02*
X23696000Y-114350000D01*
X21696000Y-116350000D02*
X21696000Y-114350000D01*
X21696000Y-128350000D02*
X21696000Y-126350000D01*
X23696000Y-128350000D02*
X21696000Y-128350000D01*
X33696000Y-114350000D02*
X35696000Y-114350000D01*
X33696000Y-128350000D02*
X35696000Y-128350000D01*
X35696000Y-114350000D02*
X35696000Y-116350000D01*
X35696000Y-128350000D02*
X35696000Y-126350000D01*
X50127250Y-111825000D02*
X50127250Y-130875000D01*
%TO.C,D80*%
D11*
X216781000Y-54715000D02*
X235831000Y-54715000D01*
X216781000Y-73765000D02*
X216781000Y-54715000D01*
D10*
X224706000Y-67919999D02*
X224706000Y-70719999D01*
X224706000Y-70719999D02*
X227406000Y-70719999D01*
X227906000Y-67919999D02*
X224706000Y-67919999D01*
X227906000Y-70219999D02*
X227406000Y-70719999D01*
X227906000Y-70219999D02*
X227906000Y-67919999D01*
D11*
X235831000Y-54715000D02*
X235831000Y-73765000D01*
X235831000Y-73765000D02*
X216781000Y-73765000D01*
%TO.C,D78*%
X178681000Y-54715000D02*
X197731000Y-54715000D01*
X178681000Y-73765000D02*
X178681000Y-54715000D01*
D10*
X186606000Y-67919999D02*
X186606000Y-70719999D01*
X186606000Y-70719999D02*
X189306000Y-70719999D01*
X189806000Y-67919999D02*
X186606000Y-67919999D01*
X189806000Y-70219999D02*
X189306000Y-70719999D01*
X189806000Y-70219999D02*
X189806000Y-67919999D01*
D11*
X197731000Y-54715000D02*
X197731000Y-73765000D01*
X197731000Y-73765000D02*
X178681000Y-73765000D01*
%TO.C,D108*%
X193001000Y-92815000D02*
X212051000Y-92815000D01*
X193001000Y-111865000D02*
X193001000Y-92815000D01*
D10*
X200926000Y-106019999D02*
X200926000Y-108819999D01*
X200926000Y-108819999D02*
X203626000Y-108819999D01*
X204126000Y-106019999D02*
X200926000Y-106019999D01*
X204126000Y-108319999D02*
X203626000Y-108819999D01*
X204126000Y-108319999D02*
X204126000Y-106019999D01*
D11*
X212051000Y-92815000D02*
X212051000Y-111865000D01*
X212051000Y-111865000D02*
X193001000Y-111865000D01*
%TO.C,D90*%
X131057000Y-73765000D02*
X150107000Y-73765000D01*
X131057000Y-92815000D02*
X131057000Y-73765000D01*
D10*
X138982000Y-86969999D02*
X138982000Y-89769999D01*
X138982000Y-89769999D02*
X141682000Y-89769999D01*
X142182000Y-86969999D02*
X138982000Y-86969999D01*
X142182000Y-89269999D02*
X141682000Y-89769999D01*
X142182000Y-89269999D02*
X142182000Y-86969999D01*
D11*
X150107000Y-73765000D02*
X150107000Y-92815000D01*
X150107000Y-92815000D02*
X131057000Y-92815000D01*
%TO.C,SW49*%
D12*
X107281000Y-111825000D02*
X107281000Y-130875000D01*
X107281000Y-130875000D02*
X126331000Y-130875000D01*
X126331000Y-111825000D02*
X107281000Y-111825000D01*
X126331000Y-130875000D02*
X126331000Y-111825000D01*
%TO.C,D99*%
D11*
X14403500Y-92795000D02*
X33453500Y-92795000D01*
X14403500Y-111845000D02*
X14403500Y-92795000D01*
D10*
X22328500Y-105999999D02*
X22328500Y-108799999D01*
X22328500Y-108799999D02*
X25028500Y-108799999D01*
X25528500Y-105999999D02*
X22328500Y-105999999D01*
X25528500Y-108299999D02*
X25028500Y-108799999D01*
X25528500Y-108299999D02*
X25528500Y-105999999D01*
D11*
X33453500Y-92795000D02*
X33453500Y-111845000D01*
X33453500Y-111845000D02*
X14403500Y-111845000D01*
%TO.C,SW38*%
D12*
X154901000Y-92815000D02*
X154901000Y-111865000D01*
X154901000Y-111865000D02*
X173951000Y-111865000D01*
X173951000Y-92815000D02*
X154901000Y-92815000D01*
X173951000Y-111865000D02*
X173951000Y-92815000D01*
%TO.C,SW7*%
X121531000Y-54715000D02*
X121531000Y-73765000D01*
X121531000Y-73765000D02*
X140581000Y-73765000D01*
X140581000Y-54715000D02*
X121531000Y-54715000D01*
X140581000Y-73765000D02*
X140581000Y-54715000D01*
%TO.C,SW60*%
X31089750Y-130905000D02*
X31089750Y-149955000D01*
X31089750Y-149955000D02*
X54902250Y-149955000D01*
X54902250Y-130905000D02*
X31089750Y-130905000D01*
X54902250Y-149955000D02*
X54902250Y-130905000D01*
%TO.C,SW44*%
X293081000Y-92815000D02*
X293081000Y-111865000D01*
X293081000Y-111865000D02*
X312131000Y-111865000D01*
X312131000Y-92815000D02*
X293081000Y-92815000D01*
X312131000Y-111865000D02*
X312131000Y-92815000D01*
%TO.C,SW13*%
X235831000Y-54715000D02*
X235831000Y-73765000D01*
X235831000Y-73765000D02*
X254881000Y-73765000D01*
X254881000Y-54715000D02*
X235831000Y-54715000D01*
X254881000Y-73765000D02*
X254881000Y-54715000D01*
%TO.C,SW39*%
X173951000Y-92815000D02*
X173951000Y-111865000D01*
X173951000Y-111865000D02*
X193001000Y-111865000D01*
X193001000Y-92815000D02*
X173951000Y-92815000D01*
X193001000Y-111865000D02*
X193001000Y-92815000D01*
%TO.C,D127*%
D11*
X9651000Y-130895000D02*
X28701000Y-130895000D01*
X9651000Y-149945000D02*
X9651000Y-130895000D01*
D10*
X17576000Y-144099999D02*
X17576000Y-146899999D01*
X17576000Y-146899999D02*
X20276000Y-146899999D01*
X20776000Y-144099999D02*
X17576000Y-144099999D01*
X20776000Y-146399999D02*
X20276000Y-146899999D01*
X20776000Y-146399999D02*
X20776000Y-144099999D01*
D11*
X28701000Y-130895000D02*
X28701000Y-149945000D01*
X28701000Y-149945000D02*
X9651000Y-149945000D01*
%TO.C,SW19*%
D12*
X73907000Y-73765000D02*
X73907000Y-92815000D01*
X73907000Y-92815000D02*
X92957000Y-92815000D01*
X92957000Y-73765000D02*
X73907000Y-73765000D01*
X92957000Y-92815000D02*
X92957000Y-73765000D01*
%TO.C,REF\u002A\u002A*%
D10*
X78682750Y-130915000D02*
X78682750Y-149965000D01*
X78682750Y-130915000D02*
X197745250Y-130915000D01*
X78682750Y-149965000D02*
X197745250Y-149965000D01*
X131214000Y-133440000D02*
X133214000Y-133440000D01*
X131214000Y-135440000D02*
X131214000Y-133440000D01*
X131214000Y-147440000D02*
X131214000Y-145440000D01*
X133214000Y-147440000D02*
X131214000Y-147440000D01*
X143214000Y-133440000D02*
X145214000Y-133440000D01*
X143214000Y-147440000D02*
X145214000Y-147440000D01*
X145214000Y-133440000D02*
X145214000Y-135440000D01*
X145214000Y-147440000D02*
X145214000Y-145440000D01*
X197745250Y-130915000D02*
X197745250Y-149965000D01*
%TO.C,SW54*%
D12*
X202531000Y-111825000D02*
X202531000Y-130875000D01*
X202531000Y-130875000D02*
X221581000Y-130875000D01*
X221581000Y-111825000D02*
X202531000Y-111825000D01*
X221581000Y-130875000D02*
X221581000Y-111825000D01*
%TO.C,D103*%
D11*
X97751000Y-92815000D02*
X116801000Y-92815000D01*
X97751000Y-111865000D02*
X97751000Y-92815000D01*
D10*
X105676000Y-106019999D02*
X105676000Y-108819999D01*
X105676000Y-108819999D02*
X108376000Y-108819999D01*
X108876000Y-106019999D02*
X105676000Y-106019999D01*
X108876000Y-108319999D02*
X108376000Y-108819999D01*
X108876000Y-108319999D02*
X108876000Y-106019999D01*
D11*
X116801000Y-92815000D02*
X116801000Y-111865000D01*
X116801000Y-111865000D02*
X97751000Y-111865000D01*
%TO.C,D129*%
X57251000Y-130915000D02*
X76301000Y-130915000D01*
X57251000Y-149965000D02*
X57251000Y-130915000D01*
D10*
X65176000Y-144119999D02*
X65176000Y-146919999D01*
X65176000Y-146919999D02*
X67876000Y-146919999D01*
X68376000Y-144119999D02*
X65176000Y-144119999D01*
X68376000Y-146419999D02*
X67876000Y-146919999D01*
X68376000Y-146419999D02*
X68376000Y-144119999D01*
D11*
X76301000Y-130915000D02*
X76301000Y-149965000D01*
X76301000Y-149965000D02*
X57251000Y-149965000D01*
%TO.C,D98*%
X293081000Y-73765000D02*
X312131000Y-73765000D01*
X293081000Y-92815000D02*
X293081000Y-73765000D01*
D10*
X301006000Y-86969999D02*
X301006000Y-89769999D01*
X301006000Y-89769999D02*
X303706000Y-89769999D01*
X304206000Y-86969999D02*
X301006000Y-86969999D01*
X304206000Y-89269999D02*
X303706000Y-89769999D01*
X304206000Y-89269999D02*
X304206000Y-86969999D01*
D11*
X312131000Y-73765000D02*
X312131000Y-92815000D01*
X312131000Y-92815000D02*
X293081000Y-92815000D01*
%TO.C,D102*%
X78701000Y-92815000D02*
X97751000Y-92815000D01*
X78701000Y-111865000D02*
X78701000Y-92815000D01*
D10*
X86626000Y-106019999D02*
X86626000Y-108819999D01*
X86626000Y-108819999D02*
X89326000Y-108819999D01*
X89826000Y-106019999D02*
X86626000Y-106019999D01*
X89826000Y-108319999D02*
X89326000Y-108819999D01*
X89826000Y-108319999D02*
X89826000Y-106019999D01*
D11*
X97751000Y-92815000D02*
X97751000Y-111865000D01*
X97751000Y-111865000D02*
X78701000Y-111865000D01*
%TO.C,SW32*%
D12*
X40601000Y-92815000D02*
X40601000Y-111865000D01*
X40601000Y-111865000D02*
X59651000Y-111865000D01*
X59651000Y-92815000D02*
X40601000Y-92815000D01*
X59651000Y-111865000D02*
X59651000Y-92815000D01*
%TO.C,D89*%
D11*
X112007000Y-73765000D02*
X131057000Y-73765000D01*
X112007000Y-92815000D02*
X112007000Y-73765000D01*
D10*
X119932000Y-86969999D02*
X119932000Y-89769999D01*
X119932000Y-89769999D02*
X122632000Y-89769999D01*
X123132000Y-86969999D02*
X119932000Y-86969999D01*
X123132000Y-89269999D02*
X122632000Y-89769999D01*
X123132000Y-89269999D02*
X123132000Y-86969999D01*
D11*
X131057000Y-73765000D02*
X131057000Y-92815000D01*
X131057000Y-92815000D02*
X112007000Y-92815000D01*
%TO.C,SW48*%
D12*
X88231000Y-111825000D02*
X88231000Y-130875000D01*
X88231000Y-130875000D02*
X107281000Y-130875000D01*
X107281000Y-111825000D02*
X88231000Y-111825000D01*
X107281000Y-130875000D02*
X107281000Y-111825000D01*
%TO.C,SW55*%
X221581000Y-111825000D02*
X221581000Y-130875000D01*
X221581000Y-130875000D02*
X240631000Y-130875000D01*
X240631000Y-111825000D02*
X221581000Y-111825000D01*
X240631000Y-130875000D02*
X240631000Y-111825000D01*
%TO.C,SW63*%
X197745000Y-130915000D02*
X197745000Y-149965000D01*
X197745000Y-149965000D02*
X216795000Y-149965000D01*
X216795000Y-130915000D02*
X197745000Y-130915000D01*
X216795000Y-149965000D02*
X216795000Y-130915000D01*
%TO.C,D82*%
D11*
X264456000Y-54715000D02*
X283506000Y-54715000D01*
X264456000Y-73765000D02*
X264456000Y-54715000D01*
D10*
X272381000Y-67919999D02*
X272381000Y-70719999D01*
X272381000Y-70719999D02*
X275081000Y-70719999D01*
X275581000Y-67919999D02*
X272381000Y-67919999D01*
X275581000Y-70219999D02*
X275081000Y-70719999D01*
X275581000Y-70219999D02*
X275581000Y-67919999D01*
D11*
X283506000Y-54715000D02*
X283506000Y-73765000D01*
X283506000Y-73765000D02*
X264456000Y-73765000D01*
%TO.C,SW42*%
D12*
X231101000Y-92815000D02*
X231101000Y-111865000D01*
X231101000Y-111865000D02*
X250151000Y-111865000D01*
X250151000Y-92815000D02*
X231101000Y-92815000D01*
X250151000Y-111865000D02*
X250151000Y-92815000D01*
%TO.C,D93*%
D11*
X188207000Y-73765000D02*
X207257000Y-73765000D01*
X188207000Y-92815000D02*
X188207000Y-73765000D01*
D10*
X196132000Y-86969999D02*
X196132000Y-89769999D01*
X196132000Y-89769999D02*
X198832000Y-89769999D01*
X199332000Y-86969999D02*
X196132000Y-86969999D01*
X199332000Y-89269999D02*
X198832000Y-89769999D01*
X199332000Y-89269999D02*
X199332000Y-86969999D01*
D11*
X207257000Y-73765000D02*
X207257000Y-92815000D01*
X207257000Y-92815000D02*
X188207000Y-92815000D01*
%TO.C,D122*%
X202531000Y-111825000D02*
X221581000Y-111825000D01*
X202531000Y-130875000D02*
X202531000Y-111825000D01*
D10*
X210456000Y-125029999D02*
X210456000Y-127829999D01*
X210456000Y-127829999D02*
X213156000Y-127829999D01*
X213656000Y-125029999D02*
X210456000Y-125029999D01*
X213656000Y-127329999D02*
X213156000Y-127829999D01*
X213656000Y-127329999D02*
X213656000Y-125029999D01*
D11*
X221581000Y-111825000D02*
X221581000Y-130875000D01*
X221581000Y-130875000D02*
X202531000Y-130875000D01*
%TO.C,REF\u002A\u002A*%
D10*
X254931000Y-54715000D02*
X254931000Y-73765000D01*
X254931000Y-54715000D02*
X293031000Y-54715000D01*
X254931000Y-73765000D02*
X293031000Y-73765000D01*
X266981000Y-57240000D02*
X268981000Y-57240000D01*
X266981000Y-59240000D02*
X266981000Y-57240000D01*
X266981000Y-71240000D02*
X266981000Y-69240000D01*
X268981000Y-71240000D02*
X266981000Y-71240000D01*
X278981000Y-57240000D02*
X280981000Y-57240000D01*
X278981000Y-71240000D02*
X280981000Y-71240000D01*
X280981000Y-57240000D02*
X280981000Y-59240000D01*
X280981000Y-71240000D02*
X280981000Y-69240000D01*
X293031000Y-54715000D02*
X293031000Y-73765000D01*
%TO.C,SW58*%
D12*
X293081000Y-111865000D02*
X293081000Y-130915000D01*
X293081000Y-130915000D02*
X312131000Y-130915000D01*
X312131000Y-111865000D02*
X293081000Y-111865000D01*
X312131000Y-130915000D02*
X312131000Y-111865000D01*
%TO.C,D88*%
D11*
X92957000Y-73765000D02*
X112007000Y-73765000D01*
X92957000Y-92815000D02*
X92957000Y-73765000D01*
D10*
X100882000Y-86969999D02*
X100882000Y-89769999D01*
X100882000Y-89769999D02*
X103582000Y-89769999D01*
X104082000Y-86969999D02*
X100882000Y-86969999D01*
X104082000Y-89269999D02*
X103582000Y-89769999D01*
X104082000Y-89269999D02*
X104082000Y-86969999D01*
D11*
X112007000Y-73765000D02*
X112007000Y-92815000D01*
X112007000Y-92815000D02*
X92957000Y-92815000D01*
%TO.C,D135*%
X273945000Y-130915000D02*
X292995000Y-130915000D01*
X273945000Y-149965000D02*
X273945000Y-130915000D01*
D10*
X281870000Y-144119999D02*
X281870000Y-146919999D01*
X281870000Y-146919999D02*
X284570000Y-146919999D01*
X285070000Y-144119999D02*
X281870000Y-144119999D01*
X285070000Y-146419999D02*
X284570000Y-146919999D01*
X285070000Y-146419999D02*
X285070000Y-144119999D01*
D11*
X292995000Y-130915000D02*
X292995000Y-149965000D01*
X292995000Y-149965000D02*
X273945000Y-149965000D01*
%TO.C,D96*%
X245357000Y-73765000D02*
X264407000Y-73765000D01*
X245357000Y-92815000D02*
X245357000Y-73765000D01*
D10*
X253282000Y-86969999D02*
X253282000Y-89769999D01*
X253282000Y-89769999D02*
X255982000Y-89769999D01*
X256482000Y-86969999D02*
X253282000Y-86969999D01*
X256482000Y-89269999D02*
X255982000Y-89769999D01*
X256482000Y-89269999D02*
X256482000Y-86969999D01*
D11*
X264407000Y-73765000D02*
X264407000Y-92815000D01*
X264407000Y-92815000D02*
X245357000Y-92815000D01*
%TO.C,SW24*%
D12*
X169157000Y-73765000D02*
X169157000Y-92815000D01*
X169157000Y-92815000D02*
X188207000Y-92815000D01*
X188207000Y-73765000D02*
X169157000Y-73765000D01*
X188207000Y-92815000D02*
X188207000Y-73765000D01*
%TO.C,SW5*%
X83431000Y-54715000D02*
X83431000Y-73765000D01*
X83431000Y-73765000D02*
X102481000Y-73765000D01*
X102481000Y-54715000D02*
X83431000Y-54715000D01*
X102481000Y-73765000D02*
X102481000Y-54715000D01*
%TO.C,D134*%
D11*
X254895000Y-130915000D02*
X273945000Y-130915000D01*
X254895000Y-149965000D02*
X254895000Y-130915000D01*
D10*
X262820000Y-144119999D02*
X262820000Y-146919999D01*
X262820000Y-146919999D02*
X265520000Y-146919999D01*
X266020000Y-144119999D02*
X262820000Y-144119999D01*
X266020000Y-146419999D02*
X265520000Y-146919999D01*
X266020000Y-146419999D02*
X266020000Y-144119999D01*
D11*
X273945000Y-130915000D02*
X273945000Y-149965000D01*
X273945000Y-149965000D02*
X254895000Y-149965000D01*
%TO.C,D113*%
X19171000Y-111825000D02*
X38221000Y-111825000D01*
X19171000Y-130875000D02*
X19171000Y-111825000D01*
D10*
X27096000Y-125029999D02*
X27096000Y-127829999D01*
X27096000Y-127829999D02*
X29796000Y-127829999D01*
X30296000Y-125029999D02*
X27096000Y-125029999D01*
X30296000Y-127329999D02*
X29796000Y-127829999D01*
X30296000Y-127329999D02*
X30296000Y-125029999D01*
D11*
X38221000Y-111825000D02*
X38221000Y-130875000D01*
X38221000Y-130875000D02*
X19171000Y-130875000D01*
%TO.C,D101*%
X59651000Y-92815000D02*
X78701000Y-92815000D01*
X59651000Y-111865000D02*
X59651000Y-92815000D01*
D10*
X67576000Y-106019999D02*
X67576000Y-108819999D01*
X67576000Y-108819999D02*
X70276000Y-108819999D01*
X70776000Y-106019999D02*
X67576000Y-106019999D01*
X70776000Y-108319999D02*
X70276000Y-108819999D01*
X70776000Y-108319999D02*
X70776000Y-106019999D01*
D11*
X78701000Y-92815000D02*
X78701000Y-111865000D01*
X78701000Y-111865000D02*
X59651000Y-111865000D01*
%TO.C,SW31*%
D12*
X7259750Y-92795000D02*
X7259750Y-111845000D01*
X7259750Y-111845000D02*
X40597250Y-111845000D01*
X40597250Y-92795000D02*
X7259750Y-92795000D01*
X40597250Y-111845000D02*
X40597250Y-92795000D01*
%TO.C,D84*%
D11*
X11994000Y-73765000D02*
X31044000Y-73765000D01*
X11994000Y-92815000D02*
X11994000Y-73765000D01*
D10*
X19919000Y-86969999D02*
X19919000Y-89769999D01*
X19919000Y-89769999D02*
X22619000Y-89769999D01*
X23119000Y-86969999D02*
X19919000Y-86969999D01*
X23119000Y-89269999D02*
X22619000Y-89769999D01*
X23119000Y-89269999D02*
X23119000Y-86969999D01*
D11*
X31044000Y-73765000D02*
X31044000Y-92815000D01*
X31044000Y-92815000D02*
X11994000Y-92815000D01*
%TO.C,D119*%
X145381000Y-111825000D02*
X164431000Y-111825000D01*
X145381000Y-130875000D02*
X145381000Y-111825000D01*
D10*
X153306000Y-125029999D02*
X153306000Y-127829999D01*
X153306000Y-127829999D02*
X156006000Y-127829999D01*
X156506000Y-125029999D02*
X153306000Y-125029999D01*
X156506000Y-127329999D02*
X156006000Y-127829999D01*
X156506000Y-127329999D02*
X156506000Y-125029999D01*
D11*
X164431000Y-111825000D02*
X164431000Y-130875000D01*
X164431000Y-130875000D02*
X145381000Y-130875000D01*
%TO.C,D116*%
X88231000Y-111825000D02*
X107281000Y-111825000D01*
X88231000Y-130875000D02*
X88231000Y-111825000D01*
D10*
X96156000Y-125029999D02*
X96156000Y-127829999D01*
X96156000Y-127829999D02*
X98856000Y-127829999D01*
X99356000Y-125029999D02*
X96156000Y-125029999D01*
X99356000Y-127329999D02*
X98856000Y-127829999D01*
X99356000Y-127329999D02*
X99356000Y-125029999D01*
D11*
X107281000Y-111825000D02*
X107281000Y-130875000D01*
X107281000Y-130875000D02*
X88231000Y-130875000D01*
%TO.C,D131*%
X197745000Y-130915000D02*
X216795000Y-130915000D01*
X197745000Y-149965000D02*
X197745000Y-130915000D01*
D10*
X205670000Y-144119999D02*
X205670000Y-146919999D01*
X205670000Y-146919999D02*
X208370000Y-146919999D01*
X208870000Y-144119999D02*
X205670000Y-144119999D01*
X208870000Y-146419999D02*
X208370000Y-146919999D01*
X208870000Y-146419999D02*
X208870000Y-144119999D01*
D11*
X216795000Y-130915000D02*
X216795000Y-149965000D01*
X216795000Y-149965000D02*
X197745000Y-149965000D01*
%TO.C,SW15*%
D12*
X293081000Y-54715000D02*
X293081000Y-73765000D01*
X293081000Y-73765000D02*
X312131000Y-73765000D01*
X312131000Y-54715000D02*
X293081000Y-54715000D01*
X312131000Y-73765000D02*
X312131000Y-54715000D01*
%TO.C,D91*%
D11*
X150107000Y-73765000D02*
X169157000Y-73765000D01*
X150107000Y-92815000D02*
X150107000Y-73765000D01*
D10*
X158032000Y-86969999D02*
X158032000Y-89769999D01*
X158032000Y-89769999D02*
X160732000Y-89769999D01*
X161232000Y-86969999D02*
X158032000Y-86969999D01*
X161232000Y-89269999D02*
X160732000Y-89769999D01*
X161232000Y-89269999D02*
X161232000Y-86969999D01*
D11*
X169157000Y-73765000D02*
X169157000Y-92815000D01*
X169157000Y-92815000D02*
X150107000Y-92815000D01*
%TO.C,D77*%
X159631000Y-54715000D02*
X178681000Y-54715000D01*
X159631000Y-73765000D02*
X159631000Y-54715000D01*
D10*
X167556000Y-67919999D02*
X167556000Y-70719999D01*
X167556000Y-70719999D02*
X170256000Y-70719999D01*
X170756000Y-67919999D02*
X167556000Y-67919999D01*
X170756000Y-70219999D02*
X170256000Y-70719999D01*
X170756000Y-70219999D02*
X170756000Y-67919999D01*
D11*
X178681000Y-54715000D02*
X178681000Y-73765000D01*
X178681000Y-73765000D02*
X159631000Y-73765000D01*
%TO.C,SW30*%
D12*
X293081000Y-73765000D02*
X293081000Y-92815000D01*
X293081000Y-92815000D02*
X312131000Y-92815000D01*
X312131000Y-73765000D02*
X293081000Y-73765000D01*
X312131000Y-92815000D02*
X312131000Y-73765000D01*
%TO.C,SW35*%
X97751000Y-92815000D02*
X97751000Y-111865000D01*
X97751000Y-111865000D02*
X116801000Y-111865000D01*
X116801000Y-92815000D02*
X97751000Y-92815000D01*
X116801000Y-111865000D02*
X116801000Y-92815000D01*
%TO.C,D110*%
D11*
X231101000Y-92815000D02*
X250151000Y-92815000D01*
X231101000Y-111865000D02*
X231101000Y-92815000D01*
D10*
X239026000Y-106019999D02*
X239026000Y-108819999D01*
X239026000Y-108819999D02*
X241726000Y-108819999D01*
X242226000Y-106019999D02*
X239026000Y-106019999D01*
X242226000Y-108319999D02*
X241726000Y-108819999D01*
X242226000Y-108319999D02*
X242226000Y-106019999D01*
D11*
X250151000Y-92815000D02*
X250151000Y-111865000D01*
X250151000Y-111865000D02*
X231101000Y-111865000D01*
%TO.C,SW14*%
D12*
X254931000Y-54715000D02*
X254931000Y-73765000D01*
X254931000Y-73765000D02*
X293031000Y-73765000D01*
X293031000Y-54715000D02*
X254931000Y-54715000D01*
X293031000Y-73765000D02*
X293031000Y-54715000D01*
%TO.C,D117*%
D11*
X107281000Y-111825000D02*
X126331000Y-111825000D01*
X107281000Y-130875000D02*
X107281000Y-111825000D01*
D10*
X115206000Y-125029999D02*
X115206000Y-127829999D01*
X115206000Y-127829999D02*
X117906000Y-127829999D01*
X118406000Y-125029999D02*
X115206000Y-125029999D01*
X118406000Y-127329999D02*
X117906000Y-127829999D01*
X118406000Y-127329999D02*
X118406000Y-125029999D01*
D11*
X126331000Y-111825000D02*
X126331000Y-130875000D01*
X126331000Y-130875000D02*
X107281000Y-130875000D01*
%TO.C,D112*%
X293081000Y-92815000D02*
X312131000Y-92815000D01*
X293081000Y-111865000D02*
X293081000Y-92815000D01*
D10*
X301006000Y-106019999D02*
X301006000Y-108819999D01*
X301006000Y-108819999D02*
X303706000Y-108819999D01*
X304206000Y-106019999D02*
X301006000Y-106019999D01*
X304206000Y-108319999D02*
X303706000Y-108819999D01*
X304206000Y-108319999D02*
X304206000Y-106019999D01*
D11*
X312131000Y-92815000D02*
X312131000Y-111865000D01*
X312131000Y-111865000D02*
X293081000Y-111865000D01*
%TO.C,D100*%
X40601000Y-92815000D02*
X59651000Y-92815000D01*
X40601000Y-111865000D02*
X40601000Y-92815000D01*
D10*
X48526000Y-106019999D02*
X48526000Y-108819999D01*
X48526000Y-108819999D02*
X51226000Y-108819999D01*
X51726000Y-106019999D02*
X48526000Y-106019999D01*
X51726000Y-108319999D02*
X51226000Y-108819999D01*
X51726000Y-108319999D02*
X51726000Y-106019999D01*
D11*
X59651000Y-92815000D02*
X59651000Y-111865000D01*
X59651000Y-111865000D02*
X40601000Y-111865000D01*
%TO.C,SW33*%
D12*
X59651000Y-92815000D02*
X59651000Y-111865000D01*
X59651000Y-111865000D02*
X78701000Y-111865000D01*
X78701000Y-92815000D02*
X59651000Y-92815000D01*
X78701000Y-111865000D02*
X78701000Y-92815000D01*
%TO.C,D83*%
D11*
X293081000Y-54715000D02*
X312131000Y-54715000D01*
X293081000Y-73765000D02*
X293081000Y-54715000D01*
D10*
X301006000Y-67919999D02*
X301006000Y-70719999D01*
X301006000Y-70719999D02*
X303706000Y-70719999D01*
X304206000Y-67919999D02*
X301006000Y-67919999D01*
X304206000Y-70219999D02*
X303706000Y-70719999D01*
X304206000Y-70219999D02*
X304206000Y-67919999D01*
D11*
X312131000Y-54715000D02*
X312131000Y-73765000D01*
X312131000Y-73765000D02*
X293081000Y-73765000D01*
%TO.C,D86*%
X54857000Y-73765000D02*
X73907000Y-73765000D01*
X54857000Y-92815000D02*
X54857000Y-73765000D01*
D10*
X62782000Y-86969999D02*
X62782000Y-89769999D01*
X62782000Y-89769999D02*
X65482000Y-89769999D01*
X65982000Y-86969999D02*
X62782000Y-86969999D01*
X65982000Y-89269999D02*
X65482000Y-89769999D01*
X65982000Y-89269999D02*
X65982000Y-86969999D01*
D11*
X73907000Y-73765000D02*
X73907000Y-92815000D01*
X73907000Y-92815000D02*
X54857000Y-92815000D01*
%TO.C,SW50*%
D12*
X126331000Y-111825000D02*
X126331000Y-130875000D01*
X126331000Y-130875000D02*
X145381000Y-130875000D01*
X145381000Y-111825000D02*
X126331000Y-111825000D01*
X145381000Y-130875000D02*
X145381000Y-111825000D01*
%TO.C,SW66*%
X254895000Y-130915000D02*
X254895000Y-149965000D01*
X254895000Y-149965000D02*
X273945000Y-149965000D01*
X273945000Y-130915000D02*
X254895000Y-130915000D01*
X273945000Y-149965000D02*
X273945000Y-130915000D01*
%TO.C,SW21*%
X112007000Y-73765000D02*
X112007000Y-92815000D01*
X112007000Y-92815000D02*
X131057000Y-92815000D01*
X131057000Y-73765000D02*
X112007000Y-73765000D01*
X131057000Y-92815000D02*
X131057000Y-73765000D01*
%TO.C,D106*%
D11*
X154901000Y-92815000D02*
X173951000Y-92815000D01*
X154901000Y-111865000D02*
X154901000Y-92815000D01*
D10*
X162826000Y-106019999D02*
X162826000Y-108819999D01*
X162826000Y-108819999D02*
X165526000Y-108819999D01*
X166026000Y-106019999D02*
X162826000Y-106019999D01*
X166026000Y-108319999D02*
X165526000Y-108819999D01*
X166026000Y-108319999D02*
X166026000Y-106019999D01*
D11*
X173951000Y-92815000D02*
X173951000Y-111865000D01*
X173951000Y-111865000D02*
X154901000Y-111865000D01*
%TO.C,SW12*%
D12*
X216781000Y-54715000D02*
X216781000Y-73765000D01*
X216781000Y-73765000D02*
X235831000Y-73765000D01*
X235831000Y-54715000D02*
X216781000Y-54715000D01*
X235831000Y-73765000D02*
X235831000Y-54715000D01*
%TO.C,SW2*%
X26281000Y-54715000D02*
X26281000Y-73765000D01*
X26281000Y-73765000D02*
X45331000Y-73765000D01*
X45331000Y-54715000D02*
X26281000Y-54715000D01*
X45331000Y-73765000D02*
X45331000Y-54715000D01*
%TO.C,SW28*%
X245357000Y-73765000D02*
X245357000Y-92815000D01*
X245357000Y-92815000D02*
X264407000Y-92815000D01*
X264407000Y-73765000D02*
X245357000Y-73765000D01*
X264407000Y-92815000D02*
X264407000Y-73765000D01*
%TO.C,SW10*%
X178681000Y-54715000D02*
X178681000Y-73765000D01*
X178681000Y-73765000D02*
X197731000Y-73765000D01*
X197731000Y-54715000D02*
X178681000Y-54715000D01*
X197731000Y-73765000D02*
X197731000Y-54715000D01*
%TO.C,SW25*%
X188207000Y-73765000D02*
X188207000Y-92815000D01*
X188207000Y-92815000D02*
X207257000Y-92815000D01*
X207257000Y-73765000D02*
X188207000Y-73765000D01*
X207257000Y-92815000D02*
X207257000Y-73765000D01*
%TO.C,SW67*%
X273945000Y-130915000D02*
X273945000Y-149965000D01*
X273945000Y-149965000D02*
X292995000Y-149965000D01*
X292995000Y-130915000D02*
X273945000Y-130915000D01*
X292995000Y-149965000D02*
X292995000Y-130915000D01*
%TO.C,D81*%
D11*
X235831000Y-54715000D02*
X254881000Y-54715000D01*
X235831000Y-73765000D02*
X235831000Y-54715000D01*
D10*
X243756000Y-67919999D02*
X243756000Y-70719999D01*
X243756000Y-70719999D02*
X246456000Y-70719999D01*
X246956000Y-67919999D02*
X243756000Y-67919999D01*
X246956000Y-70219999D02*
X246456000Y-70719999D01*
X246956000Y-70219999D02*
X246956000Y-67919999D01*
D11*
X254881000Y-54715000D02*
X254881000Y-73765000D01*
X254881000Y-73765000D02*
X235831000Y-73765000D01*
%TO.C,SW62*%
D12*
X78682750Y-130915000D02*
X78682750Y-149965000D01*
X78682750Y-149965000D02*
X197745250Y-149965000D01*
X197745250Y-130915000D02*
X78682750Y-130915000D01*
X197745250Y-149965000D02*
X197745250Y-130915000D01*
%TO.C,D109*%
D11*
X212051000Y-92815000D02*
X231101000Y-92815000D01*
X212051000Y-111865000D02*
X212051000Y-92815000D01*
D10*
X219976000Y-106019999D02*
X219976000Y-108819999D01*
X219976000Y-108819999D02*
X222676000Y-108819999D01*
X223176000Y-106019999D02*
X219976000Y-106019999D01*
X223176000Y-108319999D02*
X222676000Y-108819999D01*
X223176000Y-108319999D02*
X223176000Y-106019999D01*
D11*
X231101000Y-92815000D02*
X231101000Y-111865000D01*
X231101000Y-111865000D02*
X212051000Y-111865000D01*
%TO.C,SW52*%
D12*
X164431000Y-111825000D02*
X164431000Y-130875000D01*
X164431000Y-130875000D02*
X183481000Y-130875000D01*
X183481000Y-111825000D02*
X164431000Y-111825000D01*
X183481000Y-130875000D02*
X183481000Y-111825000D01*
%TO.C,D115*%
D11*
X69181000Y-111825000D02*
X88231000Y-111825000D01*
X69181000Y-130875000D02*
X69181000Y-111825000D01*
D10*
X77106000Y-125029999D02*
X77106000Y-127829999D01*
X77106000Y-127829999D02*
X79806000Y-127829999D01*
X80306000Y-125029999D02*
X77106000Y-125029999D01*
X80306000Y-127329999D02*
X79806000Y-127829999D01*
X80306000Y-127329999D02*
X80306000Y-125029999D01*
D11*
X88231000Y-111825000D02*
X88231000Y-130875000D01*
X88231000Y-130875000D02*
X69181000Y-130875000D01*
%TO.C,SW59*%
D12*
X7269750Y-130895000D02*
X7269750Y-149945000D01*
X7269750Y-149945000D02*
X31082250Y-149945000D01*
X31082250Y-130895000D02*
X7269750Y-130895000D01*
X31082250Y-149945000D02*
X31082250Y-130895000D01*
%TO.C,SW61*%
X54869750Y-130915000D02*
X54869750Y-149965000D01*
X54869750Y-149965000D02*
X78682250Y-149965000D01*
X78682250Y-130915000D02*
X54869750Y-130915000D01*
X78682250Y-149965000D02*
X78682250Y-130915000D01*
%TO.C,SW22*%
X131057000Y-73765000D02*
X131057000Y-92815000D01*
X131057000Y-92815000D02*
X150107000Y-92815000D01*
X150107000Y-73765000D02*
X131057000Y-73765000D01*
X150107000Y-92815000D02*
X150107000Y-73765000D01*
%TO.C,D114*%
D11*
X50131000Y-111825000D02*
X69181000Y-111825000D01*
X50131000Y-130875000D02*
X50131000Y-111825000D01*
D10*
X58056000Y-125029999D02*
X58056000Y-127829999D01*
X58056000Y-127829999D02*
X60756000Y-127829999D01*
X61256000Y-125029999D02*
X58056000Y-125029999D01*
X61256000Y-127329999D02*
X60756000Y-127829999D01*
X61256000Y-127329999D02*
X61256000Y-125029999D01*
D11*
X69181000Y-111825000D02*
X69181000Y-130875000D01*
X69181000Y-130875000D02*
X50131000Y-130875000D01*
%TO.C,D118*%
X126331000Y-111825000D02*
X145381000Y-111825000D01*
X126331000Y-130875000D02*
X126331000Y-111825000D01*
D10*
X134256000Y-125029999D02*
X134256000Y-127829999D01*
X134256000Y-127829999D02*
X136956000Y-127829999D01*
X137456000Y-125029999D02*
X134256000Y-125029999D01*
X137456000Y-127329999D02*
X136956000Y-127829999D01*
X137456000Y-127329999D02*
X137456000Y-125029999D01*
D11*
X145381000Y-111825000D02*
X145381000Y-130875000D01*
X145381000Y-130875000D02*
X126331000Y-130875000D01*
%TO.C,D94*%
X207257000Y-73765000D02*
X226307000Y-73765000D01*
X207257000Y-92815000D02*
X207257000Y-73765000D01*
D10*
X215182000Y-86969999D02*
X215182000Y-89769999D01*
X215182000Y-89769999D02*
X217882000Y-89769999D01*
X218382000Y-86969999D02*
X215182000Y-86969999D01*
X218382000Y-89269999D02*
X217882000Y-89769999D01*
X218382000Y-89269999D02*
X218382000Y-86969999D01*
D11*
X226307000Y-73765000D02*
X226307000Y-92815000D01*
X226307000Y-92815000D02*
X207257000Y-92815000D01*
%TO.C,D136*%
X292995000Y-130915000D02*
X312045000Y-130915000D01*
X292995000Y-149965000D02*
X292995000Y-130915000D01*
D10*
X300920000Y-144119999D02*
X300920000Y-146919999D01*
X300920000Y-146919999D02*
X303620000Y-146919999D01*
X304120000Y-144119999D02*
X300920000Y-144119999D01*
X304120000Y-146419999D02*
X303620000Y-146919999D01*
X304120000Y-146419999D02*
X304120000Y-144119999D01*
D11*
X312045000Y-130915000D02*
X312045000Y-149965000D01*
X312045000Y-149965000D02*
X292995000Y-149965000D01*
%TO.C,SW41*%
D12*
X212051000Y-92815000D02*
X212051000Y-111865000D01*
X212051000Y-111865000D02*
X231101000Y-111865000D01*
X231101000Y-92815000D02*
X212051000Y-92815000D01*
X231101000Y-111865000D02*
X231101000Y-92815000D01*
%TO.C,D126*%
D11*
X293081000Y-111865000D02*
X312131000Y-111865000D01*
X293081000Y-130915000D02*
X293081000Y-111865000D01*
D10*
X301006000Y-125069999D02*
X301006000Y-127869999D01*
X301006000Y-127869999D02*
X303706000Y-127869999D01*
X304206000Y-125069999D02*
X301006000Y-125069999D01*
X304206000Y-127369999D02*
X303706000Y-127869999D01*
X304206000Y-127369999D02*
X304206000Y-125069999D01*
D11*
X312131000Y-111865000D02*
X312131000Y-130915000D01*
X312131000Y-130915000D02*
X293081000Y-130915000D01*
%TO.C,D132*%
X216795000Y-130915000D02*
X235845000Y-130915000D01*
X216795000Y-149965000D02*
X216795000Y-130915000D01*
D10*
X224720000Y-144119999D02*
X224720000Y-146919999D01*
X224720000Y-146919999D02*
X227420000Y-146919999D01*
X227920000Y-144119999D02*
X224720000Y-144119999D01*
X227920000Y-146419999D02*
X227420000Y-146919999D01*
X227920000Y-146419999D02*
X227920000Y-144119999D01*
D11*
X235845000Y-130915000D02*
X235845000Y-149965000D01*
X235845000Y-149965000D02*
X216795000Y-149965000D01*
%TO.C,SW3*%
D12*
X45331000Y-54715000D02*
X45331000Y-73765000D01*
X45331000Y-73765000D02*
X64381000Y-73765000D01*
X64381000Y-54715000D02*
X45331000Y-54715000D01*
X64381000Y-73765000D02*
X64381000Y-54715000D01*
%TO.C,D111*%
D11*
X262061000Y-92805000D02*
X281111000Y-92805000D01*
X262061000Y-111855000D02*
X262061000Y-92805000D01*
D10*
X269986000Y-106009999D02*
X269986000Y-108809999D01*
X269986000Y-108809999D02*
X272686000Y-108809999D01*
X273186000Y-106009999D02*
X269986000Y-106009999D01*
X273186000Y-108309999D02*
X272686000Y-108809999D01*
X273186000Y-108309999D02*
X273186000Y-106009999D01*
D11*
X281111000Y-92805000D02*
X281111000Y-111855000D01*
X281111000Y-111855000D02*
X262061000Y-111855000D01*
%TO.C,SW64*%
D12*
X216795000Y-130915000D02*
X216795000Y-149965000D01*
X216795000Y-149965000D02*
X235845000Y-149965000D01*
X235845000Y-130915000D02*
X216795000Y-130915000D01*
X235845000Y-149965000D02*
X235845000Y-130915000D01*
%TO.C,SW17*%
X35807000Y-73765000D02*
X35807000Y-92815000D01*
X35807000Y-92815000D02*
X54857000Y-92815000D01*
X54857000Y-73765000D02*
X35807000Y-73765000D01*
X54857000Y-92815000D02*
X54857000Y-73765000D01*
%TO.C,D73*%
D11*
X83431000Y-54715000D02*
X102481000Y-54715000D01*
X83431000Y-73765000D02*
X83431000Y-54715000D01*
D10*
X91356000Y-67919999D02*
X91356000Y-70719999D01*
X91356000Y-70719999D02*
X94056000Y-70719999D01*
X94556000Y-67919999D02*
X91356000Y-67919999D01*
X94556000Y-70219999D02*
X94056000Y-70719999D01*
X94556000Y-70219999D02*
X94556000Y-67919999D01*
D11*
X102481000Y-54715000D02*
X102481000Y-73765000D01*
X102481000Y-73765000D02*
X83431000Y-73765000D01*
%TO.C,SW11*%
D12*
X197731000Y-54715000D02*
X197731000Y-73765000D01*
X197731000Y-73765000D02*
X216781000Y-73765000D01*
X216781000Y-54715000D02*
X197731000Y-54715000D01*
X216781000Y-73765000D02*
X216781000Y-54715000D01*
%TO.C,D128*%
D11*
X33471000Y-130905000D02*
X52521000Y-130905000D01*
X33471000Y-149955000D02*
X33471000Y-130905000D01*
D10*
X41396000Y-144109999D02*
X41396000Y-146909999D01*
X41396000Y-146909999D02*
X44096000Y-146909999D01*
X44596000Y-144109999D02*
X41396000Y-144109999D01*
X44596000Y-146409999D02*
X44096000Y-146909999D01*
X44596000Y-146409999D02*
X44596000Y-144109999D01*
D11*
X52521000Y-130905000D02*
X52521000Y-149955000D01*
X52521000Y-149955000D02*
X33471000Y-149955000D01*
%TO.C,D85*%
X35807000Y-73765000D02*
X54857000Y-73765000D01*
X35807000Y-92815000D02*
X35807000Y-73765000D01*
D10*
X43732000Y-86969999D02*
X43732000Y-89769999D01*
X43732000Y-89769999D02*
X46432000Y-89769999D01*
X46932000Y-86969999D02*
X43732000Y-86969999D01*
X46932000Y-89269999D02*
X46432000Y-89769999D01*
X46932000Y-89269999D02*
X46932000Y-86969999D01*
D11*
X54857000Y-73765000D02*
X54857000Y-92815000D01*
X54857000Y-92815000D02*
X35807000Y-92815000D01*
%TO.C,D123*%
X221581000Y-111825000D02*
X240631000Y-111825000D01*
X221581000Y-130875000D02*
X221581000Y-111825000D01*
D10*
X229506000Y-125029999D02*
X229506000Y-127829999D01*
X229506000Y-127829999D02*
X232206000Y-127829999D01*
X232706000Y-125029999D02*
X229506000Y-125029999D01*
X232706000Y-127329999D02*
X232206000Y-127829999D01*
X232706000Y-127329999D02*
X232706000Y-125029999D01*
D11*
X240631000Y-111825000D02*
X240631000Y-130875000D01*
X240631000Y-130875000D02*
X221581000Y-130875000D01*
%TO.C,SW68*%
D12*
X292995000Y-130915000D02*
X292995000Y-149965000D01*
X292995000Y-149965000D02*
X312045000Y-149965000D01*
X312045000Y-130915000D02*
X292995000Y-130915000D01*
X312045000Y-149965000D02*
X312045000Y-130915000D01*
%TO.C,D70*%
D11*
X26281000Y-54715000D02*
X45331000Y-54715000D01*
X26281000Y-73765000D02*
X26281000Y-54715000D01*
D10*
X34206000Y-67919999D02*
X34206000Y-70719999D01*
X34206000Y-70719999D02*
X36906000Y-70719999D01*
X37406000Y-67919999D02*
X34206000Y-67919999D01*
X37406000Y-70219999D02*
X36906000Y-70719999D01*
X37406000Y-70219999D02*
X37406000Y-67919999D01*
D11*
X45331000Y-54715000D02*
X45331000Y-73765000D01*
X45331000Y-73765000D02*
X26281000Y-73765000D01*
%TO.C,D87*%
X73907000Y-73765000D02*
X92957000Y-73765000D01*
X73907000Y-92815000D02*
X73907000Y-73765000D01*
D10*
X81832000Y-86969999D02*
X81832000Y-89769999D01*
X81832000Y-89769999D02*
X84532000Y-89769999D01*
X85032000Y-86969999D02*
X81832000Y-86969999D01*
X85032000Y-89269999D02*
X84532000Y-89769999D01*
X85032000Y-89269999D02*
X85032000Y-86969999D01*
D11*
X92957000Y-73765000D02*
X92957000Y-92815000D01*
X92957000Y-92815000D02*
X73907000Y-92815000D01*
%TO.C,SW4*%
D12*
X64381000Y-54715000D02*
X64381000Y-73765000D01*
X64381000Y-73765000D02*
X83431000Y-73765000D01*
X83431000Y-54715000D02*
X64381000Y-54715000D01*
X83431000Y-73765000D02*
X83431000Y-54715000D01*
%TO.C,SW29*%
X264407500Y-73765000D02*
X264407500Y-92815000D01*
X264407500Y-92815000D02*
X292982500Y-92815000D01*
X292982500Y-73765000D02*
X264407500Y-73765000D01*
X292982500Y-92815000D02*
X292982500Y-73765000D01*
%TO.C,D121*%
D11*
X183481000Y-111825000D02*
X202531000Y-111825000D01*
X183481000Y-130875000D02*
X183481000Y-111825000D01*
D10*
X191406000Y-125029999D02*
X191406000Y-127829999D01*
X191406000Y-127829999D02*
X194106000Y-127829999D01*
X194606000Y-125029999D02*
X191406000Y-125029999D01*
X194606000Y-127329999D02*
X194106000Y-127829999D01*
X194606000Y-127329999D02*
X194606000Y-125029999D01*
D11*
X202531000Y-111825000D02*
X202531000Y-130875000D01*
X202531000Y-130875000D02*
X183481000Y-130875000D01*
%TO.C,D72*%
X64381000Y-54715000D02*
X83431000Y-54715000D01*
X64381000Y-73765000D02*
X64381000Y-54715000D01*
D10*
X72306000Y-67919999D02*
X72306000Y-70719999D01*
X72306000Y-70719999D02*
X75006000Y-70719999D01*
X75506000Y-67919999D02*
X72306000Y-67919999D01*
X75506000Y-70219999D02*
X75006000Y-70719999D01*
X75506000Y-70219999D02*
X75506000Y-67919999D01*
D11*
X83431000Y-54715000D02*
X83431000Y-73765000D01*
X83431000Y-73765000D02*
X64381000Y-73765000D01*
%TO.C,SW8*%
D12*
X140581000Y-54715000D02*
X140581000Y-73765000D01*
X140581000Y-73765000D02*
X159631000Y-73765000D01*
X159631000Y-54715000D02*
X140581000Y-54715000D01*
X159631000Y-73765000D02*
X159631000Y-54715000D01*
%TO.C,SW18*%
X54857000Y-73765000D02*
X54857000Y-92815000D01*
X54857000Y-92815000D02*
X73907000Y-92815000D01*
X73907000Y-73765000D02*
X54857000Y-73765000D01*
X73907000Y-92815000D02*
X73907000Y-73765000D01*
%TO.C,SW56*%
X240731250Y-111915000D02*
X240731250Y-130965000D01*
X240731250Y-130965000D02*
X274068750Y-130965000D01*
X274068750Y-111915000D02*
X240731250Y-111915000D01*
X274068750Y-130965000D02*
X274068750Y-111915000D01*
%TO.C,D125*%
D11*
X274031000Y-111865000D02*
X293081000Y-111865000D01*
X274031000Y-130915000D02*
X274031000Y-111865000D01*
D10*
X281956000Y-125069999D02*
X281956000Y-127869999D01*
X281956000Y-127869999D02*
X284656000Y-127869999D01*
X285156000Y-125069999D02*
X281956000Y-125069999D01*
X285156000Y-127369999D02*
X284656000Y-127869999D01*
X285156000Y-127369999D02*
X285156000Y-125069999D01*
D11*
X293081000Y-111865000D02*
X293081000Y-130915000D01*
X293081000Y-130915000D02*
X274031000Y-130915000D01*
%TO.C,SW26*%
D12*
X207257000Y-73765000D02*
X207257000Y-92815000D01*
X207257000Y-92815000D02*
X226307000Y-92815000D01*
X226307000Y-73765000D02*
X207257000Y-73765000D01*
X226307000Y-92815000D02*
X226307000Y-73765000D01*
%TO.C,D75*%
D11*
X121531000Y-54715000D02*
X140581000Y-54715000D01*
X121531000Y-73765000D02*
X121531000Y-54715000D01*
D10*
X129456000Y-67919999D02*
X129456000Y-70719999D01*
X129456000Y-70719999D02*
X132156000Y-70719999D01*
X132656000Y-67919999D02*
X129456000Y-67919999D01*
X132656000Y-70219999D02*
X132156000Y-70719999D01*
X132656000Y-70219999D02*
X132656000Y-67919999D01*
D11*
X140581000Y-54715000D02*
X140581000Y-73765000D01*
X140581000Y-73765000D02*
X121531000Y-73765000D01*
%TO.C,SW1*%
D12*
X7231000Y-54715000D02*
X7231000Y-73765000D01*
X7231000Y-73765000D02*
X26281000Y-73765000D01*
X26281000Y-54715000D02*
X7231000Y-54715000D01*
X26281000Y-73765000D02*
X26281000Y-54715000D01*
%TO.C,SW53*%
X183481000Y-111825000D02*
X183481000Y-130875000D01*
X183481000Y-130875000D02*
X202531000Y-130875000D01*
X202531000Y-111825000D02*
X183481000Y-111825000D01*
X202531000Y-130875000D02*
X202531000Y-111825000D01*
%TO.C,D124*%
D11*
X247773500Y-111815000D02*
X266823500Y-111815000D01*
X247773500Y-130865000D02*
X247773500Y-111815000D01*
D10*
X255698500Y-125019999D02*
X255698500Y-127819999D01*
X255698500Y-127819999D02*
X258398500Y-127819999D01*
X258898500Y-125019999D02*
X255698500Y-125019999D01*
X258898500Y-127319999D02*
X258398500Y-127819999D01*
X258898500Y-127319999D02*
X258898500Y-125019999D01*
D11*
X266823500Y-111815000D02*
X266823500Y-130865000D01*
X266823500Y-130865000D02*
X247773500Y-130865000D01*
%TO.C,D92*%
X169157000Y-73765000D02*
X188207000Y-73765000D01*
X169157000Y-92815000D02*
X169157000Y-73765000D01*
D10*
X177082000Y-86969999D02*
X177082000Y-89769999D01*
X177082000Y-89769999D02*
X179782000Y-89769999D01*
X180282000Y-86969999D02*
X177082000Y-86969999D01*
X180282000Y-89269999D02*
X179782000Y-89769999D01*
X180282000Y-89269999D02*
X180282000Y-86969999D01*
D11*
X188207000Y-73765000D02*
X188207000Y-92815000D01*
X188207000Y-92815000D02*
X169157000Y-92815000D01*
%TO.C,D133*%
X235845000Y-130915000D02*
X254895000Y-130915000D01*
X235845000Y-149965000D02*
X235845000Y-130915000D01*
D10*
X243770000Y-144119999D02*
X243770000Y-146919999D01*
X243770000Y-146919999D02*
X246470000Y-146919999D01*
X246970000Y-144119999D02*
X243770000Y-144119999D01*
X246970000Y-146419999D02*
X246470000Y-146919999D01*
X246970000Y-146419999D02*
X246970000Y-144119999D01*
D11*
X254895000Y-130915000D02*
X254895000Y-149965000D01*
X254895000Y-149965000D02*
X235845000Y-149965000D01*
%TO.C,SW6*%
D12*
X102481000Y-54715000D02*
X102481000Y-73765000D01*
X102481000Y-73765000D02*
X121531000Y-73765000D01*
X121531000Y-54715000D02*
X102481000Y-54715000D01*
X121531000Y-73765000D02*
X121531000Y-54715000D01*
%TO.C,D76*%
D11*
X140581000Y-54715000D02*
X159631000Y-54715000D01*
X140581000Y-73765000D02*
X140581000Y-54715000D01*
D10*
X148506000Y-67919999D02*
X148506000Y-70719999D01*
X148506000Y-70719999D02*
X151206000Y-70719999D01*
X151706000Y-67919999D02*
X148506000Y-67919999D01*
X151706000Y-70219999D02*
X151206000Y-70719999D01*
X151706000Y-70219999D02*
X151706000Y-67919999D01*
D11*
X159631000Y-54715000D02*
X159631000Y-73765000D01*
X159631000Y-73765000D02*
X140581000Y-73765000D01*
%TO.C,D104*%
X116801000Y-92815000D02*
X135851000Y-92815000D01*
X116801000Y-111865000D02*
X116801000Y-92815000D01*
D10*
X124726000Y-106019999D02*
X124726000Y-108819999D01*
X124726000Y-108819999D02*
X127426000Y-108819999D01*
X127926000Y-106019999D02*
X124726000Y-106019999D01*
X127926000Y-108319999D02*
X127426000Y-108819999D01*
X127926000Y-108319999D02*
X127926000Y-106019999D01*
D11*
X135851000Y-92815000D02*
X135851000Y-111865000D01*
X135851000Y-111865000D02*
X116801000Y-111865000D01*
%TO.C,REF\u002A\u002A*%
D10*
X250154750Y-92805000D02*
X250154750Y-111855000D01*
X250154750Y-92805000D02*
X293017250Y-92805000D01*
X250154750Y-111855000D02*
X293017250Y-111855000D01*
X264586000Y-95330000D02*
X266586000Y-95330000D01*
X264586000Y-97330000D02*
X264586000Y-95330000D01*
X264586000Y-109330000D02*
X264586000Y-107330000D01*
X266586000Y-109330000D02*
X264586000Y-109330000D01*
X276586000Y-95330000D02*
X278586000Y-95330000D01*
X276586000Y-109330000D02*
X278586000Y-109330000D01*
X278586000Y-95330000D02*
X278586000Y-97330000D01*
X278586000Y-109330000D02*
X278586000Y-107330000D01*
X293017250Y-92805000D02*
X293017250Y-111855000D01*
%TO.C,D79*%
D11*
X197731000Y-54715000D02*
X216781000Y-54715000D01*
X197731000Y-73765000D02*
X197731000Y-54715000D01*
D10*
X205656000Y-67919999D02*
X205656000Y-70719999D01*
X205656000Y-70719999D02*
X208356000Y-70719999D01*
X208856000Y-67919999D02*
X205656000Y-67919999D01*
X208856000Y-70219999D02*
X208356000Y-70719999D01*
X208856000Y-70219999D02*
X208856000Y-67919999D01*
D11*
X216781000Y-54715000D02*
X216781000Y-73765000D01*
X216781000Y-73765000D02*
X197731000Y-73765000D01*
%TO.C,SW34*%
D12*
X78701000Y-92815000D02*
X78701000Y-111865000D01*
X78701000Y-111865000D02*
X97751000Y-111865000D01*
X97751000Y-92815000D02*
X78701000Y-92815000D01*
X97751000Y-111865000D02*
X97751000Y-92815000D01*
%TO.C,SW16*%
X7231500Y-73765000D02*
X7231500Y-92815000D01*
X7231500Y-92815000D02*
X35806500Y-92815000D01*
X35806500Y-73765000D02*
X7231500Y-73765000D01*
X35806500Y-92815000D02*
X35806500Y-73765000D01*
%TO.C,D95*%
D11*
X226307000Y-73765000D02*
X245357000Y-73765000D01*
X226307000Y-92815000D02*
X226307000Y-73765000D01*
D10*
X234232000Y-86969999D02*
X234232000Y-89769999D01*
X234232000Y-89769999D02*
X236932000Y-89769999D01*
X237432000Y-86969999D02*
X234232000Y-86969999D01*
X237432000Y-89269999D02*
X236932000Y-89769999D01*
X237432000Y-89269999D02*
X237432000Y-86969999D01*
D11*
X245357000Y-73765000D02*
X245357000Y-92815000D01*
X245357000Y-92815000D02*
X226307000Y-92815000D01*
%TO.C,SW45*%
D12*
X7264750Y-111825000D02*
X7264750Y-130875000D01*
X7264750Y-130875000D02*
X50127250Y-130875000D01*
X50127250Y-111825000D02*
X7264750Y-111825000D01*
X50127250Y-130875000D02*
X50127250Y-111825000D01*
%TO.C,SW23*%
X150107000Y-73765000D02*
X150107000Y-92815000D01*
X150107000Y-92815000D02*
X169157000Y-92815000D01*
X169157000Y-73765000D02*
X150107000Y-73765000D01*
X169157000Y-92815000D02*
X169157000Y-73765000D01*
%TO.C,SW51*%
X145381000Y-111825000D02*
X145381000Y-130875000D01*
X145381000Y-130875000D02*
X164431000Y-130875000D01*
X164431000Y-111825000D02*
X145381000Y-111825000D01*
X164431000Y-130875000D02*
X164431000Y-111825000D01*
%TO.C,D74*%
D11*
X102481000Y-54715000D02*
X121531000Y-54715000D01*
X102481000Y-73765000D02*
X102481000Y-54715000D01*
D10*
X110406000Y-67919999D02*
X110406000Y-70719999D01*
X110406000Y-70719999D02*
X113106000Y-70719999D01*
X113606000Y-67919999D02*
X110406000Y-67919999D01*
X113606000Y-70219999D02*
X113106000Y-70719999D01*
X113606000Y-70219999D02*
X113606000Y-67919999D01*
D11*
X121531000Y-54715000D02*
X121531000Y-73765000D01*
X121531000Y-73765000D02*
X102481000Y-73765000D01*
%TO.C,D105*%
X135851000Y-92815000D02*
X154901000Y-92815000D01*
X135851000Y-111865000D02*
X135851000Y-92815000D01*
D10*
X143776000Y-106019999D02*
X143776000Y-108819999D01*
X143776000Y-108819999D02*
X146476000Y-108819999D01*
X146976000Y-106019999D02*
X143776000Y-106019999D01*
X146976000Y-108319999D02*
X146476000Y-108819999D01*
X146976000Y-108319999D02*
X146976000Y-106019999D01*
D11*
X154901000Y-92815000D02*
X154901000Y-111865000D01*
X154901000Y-111865000D02*
X135851000Y-111865000D01*
%TO.C,SW43*%
D12*
X250154750Y-92805000D02*
X250154750Y-111855000D01*
X250154750Y-111855000D02*
X293017250Y-111855000D01*
X293017250Y-92805000D02*
X250154750Y-92805000D01*
X293017250Y-111855000D02*
X293017250Y-92805000D01*
%TO.C,D71*%
D11*
X45331000Y-54715000D02*
X64381000Y-54715000D01*
X45331000Y-73765000D02*
X45331000Y-54715000D01*
D10*
X53256000Y-67919999D02*
X53256000Y-70719999D01*
X53256000Y-70719999D02*
X55956000Y-70719999D01*
X56456000Y-67919999D02*
X53256000Y-67919999D01*
X56456000Y-70219999D02*
X55956000Y-70719999D01*
X56456000Y-70219999D02*
X56456000Y-67919999D01*
D11*
X64381000Y-54715000D02*
X64381000Y-73765000D01*
X64381000Y-73765000D02*
X45331000Y-73765000D01*
%TO.C,D69*%
X7231000Y-54715000D02*
X26281000Y-54715000D01*
X7231000Y-73765000D02*
X7231000Y-54715000D01*
D10*
X15156000Y-67919999D02*
X15156000Y-70719999D01*
X15156000Y-70719999D02*
X17856000Y-70719999D01*
X18356000Y-67919999D02*
X15156000Y-67919999D01*
X18356000Y-70219999D02*
X17856000Y-70719999D01*
X18356000Y-70219999D02*
X18356000Y-67919999D01*
D11*
X26281000Y-54715000D02*
X26281000Y-73765000D01*
X26281000Y-73765000D02*
X7231000Y-73765000D01*
%TO.C,D130*%
X128689000Y-130915000D02*
X147739000Y-130915000D01*
X128689000Y-149965000D02*
X128689000Y-130915000D01*
D10*
X136614000Y-144119999D02*
X136614000Y-146919999D01*
X136614000Y-146919999D02*
X139314000Y-146919999D01*
X139814000Y-144119999D02*
X136614000Y-144119999D01*
X139814000Y-146419999D02*
X139314000Y-146919999D01*
X139814000Y-146419999D02*
X139814000Y-144119999D01*
D11*
X147739000Y-130915000D02*
X147739000Y-149965000D01*
X147739000Y-149965000D02*
X128689000Y-149965000D01*
%TO.C,SW46*%
D12*
X50131000Y-111825000D02*
X50131000Y-130875000D01*
X50131000Y-130875000D02*
X69181000Y-130875000D01*
X69181000Y-111825000D02*
X50131000Y-111825000D01*
X69181000Y-130875000D02*
X69181000Y-111825000D01*
%TO.C,D120*%
D11*
X164431000Y-111825000D02*
X183481000Y-111825000D01*
X164431000Y-130875000D02*
X164431000Y-111825000D01*
D10*
X172356000Y-125029999D02*
X172356000Y-127829999D01*
X172356000Y-127829999D02*
X175056000Y-127829999D01*
X175556000Y-125029999D02*
X172356000Y-125029999D01*
X175556000Y-127329999D02*
X175056000Y-127829999D01*
X175556000Y-127329999D02*
X175556000Y-125029999D01*
D11*
X183481000Y-111825000D02*
X183481000Y-130875000D01*
X183481000Y-130875000D02*
X164431000Y-130875000D01*
%TO.C,D97*%
X269170000Y-73765000D02*
X288220000Y-73765000D01*
X269170000Y-92815000D02*
X269170000Y-73765000D01*
D10*
X277095000Y-86969999D02*
X277095000Y-89769999D01*
X277095000Y-89769999D02*
X279795000Y-89769999D01*
X280295000Y-86969999D02*
X277095000Y-86969999D01*
X280295000Y-89269999D02*
X279795000Y-89769999D01*
X280295000Y-89269999D02*
X280295000Y-86969999D01*
D11*
X288220000Y-73765000D02*
X288220000Y-92815000D01*
X288220000Y-92815000D02*
X269170000Y-92815000D01*
%TO.C,SW20*%
D12*
X92957000Y-73765000D02*
X92957000Y-92815000D01*
X92957000Y-92815000D02*
X112007000Y-92815000D01*
X112007000Y-73765000D02*
X92957000Y-73765000D01*
X112007000Y-92815000D02*
X112007000Y-73765000D01*
%TO.C,SW36*%
X116801000Y-92815000D02*
X116801000Y-111865000D01*
X116801000Y-111865000D02*
X135851000Y-111865000D01*
X135851000Y-92815000D02*
X116801000Y-92815000D01*
X135851000Y-111865000D02*
X135851000Y-92815000D01*
%TO.C,SW57*%
X274031000Y-111865000D02*
X274031000Y-130915000D01*
X274031000Y-130915000D02*
X293081000Y-130915000D01*
X293081000Y-111865000D02*
X274031000Y-111865000D01*
X293081000Y-130915000D02*
X293081000Y-111865000D01*
%TO.C,D107*%
D11*
X173951000Y-92815000D02*
X193001000Y-92815000D01*
X173951000Y-111865000D02*
X173951000Y-92815000D01*
D10*
X181876000Y-106019999D02*
X181876000Y-108819999D01*
X181876000Y-108819999D02*
X184576000Y-108819999D01*
X185076000Y-106019999D02*
X181876000Y-106019999D01*
X185076000Y-108319999D02*
X184576000Y-108819999D01*
X185076000Y-108319999D02*
X185076000Y-106019999D01*
D11*
X193001000Y-92815000D02*
X193001000Y-111865000D01*
X193001000Y-111865000D02*
X173951000Y-111865000D01*
%TO.C,SW65*%
D12*
X235845000Y-130915000D02*
X235845000Y-149965000D01*
X235845000Y-149965000D02*
X254895000Y-149965000D01*
X254895000Y-130915000D02*
X235845000Y-130915000D01*
X254895000Y-149965000D02*
X254895000Y-130915000D01*
%TO.C,SW37*%
X135851000Y-92815000D02*
X135851000Y-111865000D01*
X135851000Y-111865000D02*
X154901000Y-111865000D01*
X154901000Y-92815000D02*
X135851000Y-92815000D01*
X154901000Y-111865000D02*
X154901000Y-92815000D01*
%TO.C,SW40*%
X193001000Y-92815000D02*
X193001000Y-111865000D01*
X193001000Y-111865000D02*
X212051000Y-111865000D01*
X212051000Y-92815000D02*
X193001000Y-92815000D01*
X212051000Y-111865000D02*
X212051000Y-92815000D01*
%TO.C,SW27*%
X226307000Y-73765000D02*
X226307000Y-92815000D01*
X226307000Y-92815000D02*
X245357000Y-92815000D01*
X245357000Y-73765000D02*
X226307000Y-73765000D01*
X245357000Y-92815000D02*
X245357000Y-73765000D01*
%TO.C,SW9*%
X159631000Y-54715000D02*
X159631000Y-73765000D01*
X159631000Y-73765000D02*
X178681000Y-73765000D01*
X178681000Y-54715000D02*
X159631000Y-54715000D01*
X178681000Y-73765000D02*
X178681000Y-54715000D01*
%TO.C,SW47*%
X69181000Y-111825000D02*
X69181000Y-130875000D01*
X69181000Y-130875000D02*
X88231000Y-130875000D01*
X88231000Y-111825000D02*
X69181000Y-111825000D01*
X88231000Y-130875000D02*
X88231000Y-111825000D01*
%TO.C,A1*%
D10*
X-9650000Y-53852500D02*
G75*
G02*
X-11750000Y-53852500I-1050000J0D01*
G01*
X-11750000Y-53852500D02*
G75*
G02*
X-9650000Y-53852500I1050000J0D01*
G01*
X-9650000Y-100852500D02*
G75*
G02*
X-11750000Y-100852500I-1050000J0D01*
G01*
X-11750000Y-100852500D02*
G75*
G02*
X-9650000Y-100852500I1050000J0D01*
G01*
X1750000Y-53852500D02*
G75*
G02*
X-350000Y-53852500I-1050000J0D01*
G01*
X-350000Y-53852500D02*
G75*
G02*
X1750000Y-53852500I1050000J0D01*
G01*
X1750000Y-100852500D02*
G75*
G02*
X-350000Y-100852500I-1050000J0D01*
G01*
X-350000Y-100852500D02*
G75*
G02*
X1750000Y-100852500I1050000J0D01*
G01*
%TD*%
M02*
