%TF.GenerationSoftware,KiCad,Pcbnew,10.0.3*%
%TF.CreationDate,2026-07-02T12:34:20+05:30*%
%TF.ProjectId,pcb,7063622e-6b69-4636-9164-5f7063625858,rev?*%
%TF.SameCoordinates,Original*%
%TF.FileFunction,Other,User*%
%FSLAX46Y46*%
G04 Gerber Fmt 4.6, Leading zero omitted, Abs format (unit mm)*
G04 Created by KiCad (PCBNEW 10.0.3) date 2026-07-02 12:34:20*
%MOMM*%
%LPD*%
G01*
G04 APERTURE LIST*
%ADD10C,0.120000*%
%ADD11C,0.050000*%
G04 APERTURE END LIST*
%TO.C,REF\u002A\u002A*%
D10*
X18789750Y-114365000D02*
G75*
G02*
X14789750Y-114365000I-2000000J0D01*
G01*
X14789750Y-114365000D02*
G75*
G02*
X18789750Y-114365000I2000000J0D01*
G01*
X42602250Y-114365000D02*
G75*
G02*
X38602250Y-114365000I-2000000J0D01*
G01*
X38602250Y-114365000D02*
G75*
G02*
X42602250Y-114365000I2000000J0D01*
G01*
%TO.C,D80*%
D11*
X222506000Y-67319999D02*
X222506000Y-71319999D01*
X222506000Y-71319999D02*
X230106000Y-71319999D01*
X230106000Y-67319999D02*
X222506000Y-67319999D01*
X230106000Y-71319999D02*
X230106000Y-67319999D01*
%TO.C,D78*%
X184406000Y-67319999D02*
X184406000Y-71319999D01*
X184406000Y-71319999D02*
X192006000Y-71319999D01*
X192006000Y-67319999D02*
X184406000Y-67319999D01*
X192006000Y-71319999D02*
X192006000Y-67319999D01*
%TO.C,D108*%
X198726000Y-105419999D02*
X198726000Y-109419999D01*
X198726000Y-109419999D02*
X206326000Y-109419999D01*
X206326000Y-105419999D02*
X198726000Y-105419999D01*
X206326000Y-109419999D02*
X206326000Y-105419999D01*
%TO.C,D90*%
X136782000Y-86369999D02*
X136782000Y-90369999D01*
X136782000Y-90369999D02*
X144382000Y-90369999D01*
X144382000Y-86369999D02*
X136782000Y-86369999D01*
X144382000Y-90369999D02*
X144382000Y-86369999D01*
%TO.C,SW49*%
X110806000Y-120550000D02*
X110806000Y-116550000D01*
X110806000Y-120550000D02*
X114506000Y-120550000D01*
X112806000Y-114550000D02*
X121606000Y-114550000D01*
X116506000Y-118550000D02*
X121606000Y-118550000D01*
X121606000Y-114550000D02*
X121606000Y-118550000D01*
X110806000Y-116550000D02*
G75*
G02*
X112806000Y-114550000I1999999J1D01*
G01*
X114506000Y-120550000D02*
G75*
G02*
X116506000Y-118550000I1999999J1D01*
G01*
%TO.C,D99*%
X20128500Y-105399999D02*
X20128500Y-109399999D01*
X20128500Y-109399999D02*
X27728500Y-109399999D01*
X27728500Y-105399999D02*
X20128500Y-105399999D01*
X27728500Y-109399999D02*
X27728500Y-105399999D01*
%TO.C,SW38*%
X158426000Y-101540000D02*
X158426000Y-97540000D01*
X158426000Y-101540000D02*
X162126000Y-101540000D01*
X160426000Y-95540000D02*
X169226000Y-95540000D01*
X164126000Y-99540000D02*
X169226000Y-99540000D01*
X169226000Y-95540000D02*
X169226000Y-99540000D01*
X158426000Y-97540000D02*
G75*
G02*
X160426000Y-95540000I1999999J1D01*
G01*
X162126000Y-101540000D02*
G75*
G02*
X164126000Y-99540000I1999999J1D01*
G01*
%TO.C,SW7*%
X125056000Y-63440000D02*
X125056000Y-59440000D01*
X125056000Y-63440000D02*
X128756000Y-63440000D01*
X127056000Y-57440000D02*
X135856000Y-57440000D01*
X130756000Y-61440000D02*
X135856000Y-61440000D01*
X135856000Y-57440000D02*
X135856000Y-61440000D01*
X125056000Y-59440000D02*
G75*
G02*
X127056000Y-57440000I1999999J1D01*
G01*
X128756000Y-63440000D02*
G75*
G02*
X130756000Y-61440000I1999999J1D01*
G01*
%TO.C,SW60*%
X36996000Y-139630000D02*
X36996000Y-135630000D01*
X36996000Y-139630000D02*
X40696000Y-139630000D01*
X38996000Y-133630000D02*
X47796000Y-133630000D01*
X42696000Y-137630000D02*
X47796000Y-137630000D01*
X47796000Y-133630000D02*
X47796000Y-137630000D01*
X36996000Y-135630000D02*
G75*
G02*
X38996000Y-133630000I1999999J1D01*
G01*
X40696000Y-139630000D02*
G75*
G02*
X42696000Y-137630000I1999999J1D01*
G01*
%TO.C,SW44*%
X296606000Y-101540000D02*
X296606000Y-97540000D01*
X296606000Y-101540000D02*
X300306000Y-101540000D01*
X298606000Y-95540000D02*
X307406000Y-95540000D01*
X302306000Y-99540000D02*
X307406000Y-99540000D01*
X307406000Y-95540000D02*
X307406000Y-99540000D01*
X296606000Y-97540000D02*
G75*
G02*
X298606000Y-95540000I1999999J1D01*
G01*
X300306000Y-101540000D02*
G75*
G02*
X302306000Y-99540000I1999999J1D01*
G01*
%TO.C,SW13*%
X239356000Y-63440000D02*
X239356000Y-59440000D01*
X239356000Y-63440000D02*
X243056000Y-63440000D01*
X241356000Y-57440000D02*
X250156000Y-57440000D01*
X245056000Y-61440000D02*
X250156000Y-61440000D01*
X250156000Y-57440000D02*
X250156000Y-61440000D01*
X239356000Y-59440000D02*
G75*
G02*
X241356000Y-57440000I1999999J1D01*
G01*
X243056000Y-63440000D02*
G75*
G02*
X245056000Y-61440000I1999999J1D01*
G01*
%TO.C,SW39*%
X177476000Y-101540000D02*
X177476000Y-97540000D01*
X177476000Y-101540000D02*
X181176000Y-101540000D01*
X179476000Y-95540000D02*
X188276000Y-95540000D01*
X183176000Y-99540000D02*
X188276000Y-99540000D01*
X188276000Y-95540000D02*
X188276000Y-99540000D01*
X177476000Y-97540000D02*
G75*
G02*
X179476000Y-95540000I1999999J1D01*
G01*
X181176000Y-101540000D02*
G75*
G02*
X183176000Y-99540000I1999999J1D01*
G01*
%TO.C,D127*%
X15376000Y-143499999D02*
X15376000Y-147499999D01*
X15376000Y-147499999D02*
X22976000Y-147499999D01*
X22976000Y-143499999D02*
X15376000Y-143499999D01*
X22976000Y-147499999D02*
X22976000Y-143499999D01*
%TO.C,SW19*%
X77432000Y-82490000D02*
X77432000Y-78490000D01*
X77432000Y-82490000D02*
X81132000Y-82490000D01*
X79432000Y-76490000D02*
X88232000Y-76490000D01*
X83132000Y-80490000D02*
X88232000Y-80490000D01*
X88232000Y-76490000D02*
X88232000Y-80490000D01*
X77432000Y-78490000D02*
G75*
G02*
X79432000Y-76490000I1999999J1D01*
G01*
X81132000Y-82490000D02*
G75*
G02*
X83132000Y-80490000I1999999J1D01*
G01*
%TO.C,REF\u002A\u002A*%
D10*
X90207750Y-133455000D02*
G75*
G02*
X86207750Y-133455000I-2000000J0D01*
G01*
X86207750Y-133455000D02*
G75*
G02*
X90207750Y-133455000I2000000J0D01*
G01*
X190220250Y-133455000D02*
G75*
G02*
X186220250Y-133455000I-2000000J0D01*
G01*
X186220250Y-133455000D02*
G75*
G02*
X190220250Y-133455000I2000000J0D01*
G01*
%TO.C,SW54*%
D11*
X206056000Y-120550000D02*
X206056000Y-116550000D01*
X206056000Y-120550000D02*
X209756000Y-120550000D01*
X208056000Y-114550000D02*
X216856000Y-114550000D01*
X211756000Y-118550000D02*
X216856000Y-118550000D01*
X216856000Y-114550000D02*
X216856000Y-118550000D01*
X206056000Y-116550000D02*
G75*
G02*
X208056000Y-114550000I1999999J1D01*
G01*
X209756000Y-120550000D02*
G75*
G02*
X211756000Y-118550000I1999999J1D01*
G01*
%TO.C,D103*%
X103476000Y-105419999D02*
X103476000Y-109419999D01*
X103476000Y-109419999D02*
X111076000Y-109419999D01*
X111076000Y-105419999D02*
X103476000Y-105419999D01*
X111076000Y-109419999D02*
X111076000Y-105419999D01*
%TO.C,D129*%
X62976000Y-143519999D02*
X62976000Y-147519999D01*
X62976000Y-147519999D02*
X70576000Y-147519999D01*
X70576000Y-143519999D02*
X62976000Y-143519999D01*
X70576000Y-147519999D02*
X70576000Y-143519999D01*
%TO.C,D98*%
X298806000Y-86369999D02*
X298806000Y-90369999D01*
X298806000Y-90369999D02*
X306406000Y-90369999D01*
X306406000Y-86369999D02*
X298806000Y-86369999D01*
X306406000Y-90369999D02*
X306406000Y-86369999D01*
%TO.C,D102*%
X84426000Y-105419999D02*
X84426000Y-109419999D01*
X84426000Y-109419999D02*
X92026000Y-109419999D01*
X92026000Y-105419999D02*
X84426000Y-105419999D01*
X92026000Y-109419999D02*
X92026000Y-105419999D01*
%TO.C,SW32*%
X44126000Y-101540000D02*
X44126000Y-97540000D01*
X44126000Y-101540000D02*
X47826000Y-101540000D01*
X46126000Y-95540000D02*
X54926000Y-95540000D01*
X49826000Y-99540000D02*
X54926000Y-99540000D01*
X54926000Y-95540000D02*
X54926000Y-99540000D01*
X44126000Y-97540000D02*
G75*
G02*
X46126000Y-95540000I1999999J1D01*
G01*
X47826000Y-101540000D02*
G75*
G02*
X49826000Y-99540000I1999999J1D01*
G01*
%TO.C,D89*%
X117732000Y-86369999D02*
X117732000Y-90369999D01*
X117732000Y-90369999D02*
X125332000Y-90369999D01*
X125332000Y-86369999D02*
X117732000Y-86369999D01*
X125332000Y-90369999D02*
X125332000Y-86369999D01*
%TO.C,SW48*%
X91756000Y-120550000D02*
X91756000Y-116550000D01*
X91756000Y-120550000D02*
X95456000Y-120550000D01*
X93756000Y-114550000D02*
X102556000Y-114550000D01*
X97456000Y-118550000D02*
X102556000Y-118550000D01*
X102556000Y-114550000D02*
X102556000Y-118550000D01*
X91756000Y-116550000D02*
G75*
G02*
X93756000Y-114550000I1999999J1D01*
G01*
X95456000Y-120550000D02*
G75*
G02*
X97456000Y-118550000I1999999J1D01*
G01*
%TO.C,SW55*%
X225106000Y-120550000D02*
X225106000Y-116550000D01*
X225106000Y-120550000D02*
X228806000Y-120550000D01*
X227106000Y-114550000D02*
X235906000Y-114550000D01*
X230806000Y-118550000D02*
X235906000Y-118550000D01*
X235906000Y-114550000D02*
X235906000Y-118550000D01*
X225106000Y-116550000D02*
G75*
G02*
X227106000Y-114550000I1999999J1D01*
G01*
X228806000Y-120550000D02*
G75*
G02*
X230806000Y-118550000I1999999J1D01*
G01*
%TO.C,SW63*%
X201270000Y-139640000D02*
X201270000Y-135640000D01*
X201270000Y-139640000D02*
X204970000Y-139640000D01*
X203270000Y-133640000D02*
X212070000Y-133640000D01*
X206970000Y-137640000D02*
X212070000Y-137640000D01*
X212070000Y-133640000D02*
X212070000Y-137640000D01*
X201270000Y-135640000D02*
G75*
G02*
X203270000Y-133640000I1999999J1D01*
G01*
X204970000Y-139640000D02*
G75*
G02*
X206970000Y-137640000I1999999J1D01*
G01*
%TO.C,D82*%
X270181000Y-67319999D02*
X270181000Y-71319999D01*
X270181000Y-71319999D02*
X277781000Y-71319999D01*
X277781000Y-67319999D02*
X270181000Y-67319999D01*
X277781000Y-71319999D02*
X277781000Y-67319999D01*
%TO.C,SW42*%
X234626000Y-101540000D02*
X234626000Y-97540000D01*
X234626000Y-101540000D02*
X238326000Y-101540000D01*
X236626000Y-95540000D02*
X245426000Y-95540000D01*
X240326000Y-99540000D02*
X245426000Y-99540000D01*
X245426000Y-95540000D02*
X245426000Y-99540000D01*
X234626000Y-97540000D02*
G75*
G02*
X236626000Y-95540000I1999999J1D01*
G01*
X238326000Y-101540000D02*
G75*
G02*
X240326000Y-99540000I1999999J1D01*
G01*
%TO.C,D93*%
X193932000Y-86369999D02*
X193932000Y-90369999D01*
X193932000Y-90369999D02*
X201532000Y-90369999D01*
X201532000Y-86369999D02*
X193932000Y-86369999D01*
X201532000Y-90369999D02*
X201532000Y-86369999D01*
%TO.C,D122*%
X208256000Y-124429999D02*
X208256000Y-128429999D01*
X208256000Y-128429999D02*
X215856000Y-128429999D01*
X215856000Y-124429999D02*
X208256000Y-124429999D01*
X215856000Y-128429999D02*
X215856000Y-124429999D01*
%TO.C,REF\u002A\u002A*%
D10*
X264074750Y-57255000D02*
G75*
G02*
X260074750Y-57255000I-2000000J0D01*
G01*
X260074750Y-57255000D02*
G75*
G02*
X264074750Y-57255000I2000000J0D01*
G01*
X287887250Y-57255000D02*
G75*
G02*
X283887250Y-57255000I-2000000J0D01*
G01*
X283887250Y-57255000D02*
G75*
G02*
X287887250Y-57255000I2000000J0D01*
G01*
%TO.C,SW58*%
D11*
X296606000Y-120590000D02*
X296606000Y-116590000D01*
X296606000Y-120590000D02*
X300306000Y-120590000D01*
X298606000Y-114590000D02*
X307406000Y-114590000D01*
X302306000Y-118590000D02*
X307406000Y-118590000D01*
X307406000Y-114590000D02*
X307406000Y-118590000D01*
X296606000Y-116590000D02*
G75*
G02*
X298606000Y-114590000I1999999J1D01*
G01*
X300306000Y-120590000D02*
G75*
G02*
X302306000Y-118590000I1999999J1D01*
G01*
%TO.C,D88*%
X98682000Y-86369999D02*
X98682000Y-90369999D01*
X98682000Y-90369999D02*
X106282000Y-90369999D01*
X106282000Y-86369999D02*
X98682000Y-86369999D01*
X106282000Y-90369999D02*
X106282000Y-86369999D01*
%TO.C,D135*%
X279670000Y-143519999D02*
X279670000Y-147519999D01*
X279670000Y-147519999D02*
X287270000Y-147519999D01*
X287270000Y-143519999D02*
X279670000Y-143519999D01*
X287270000Y-147519999D02*
X287270000Y-143519999D01*
%TO.C,D96*%
X251082000Y-86369999D02*
X251082000Y-90369999D01*
X251082000Y-90369999D02*
X258682000Y-90369999D01*
X258682000Y-86369999D02*
X251082000Y-86369999D01*
X258682000Y-90369999D02*
X258682000Y-86369999D01*
%TO.C,SW24*%
X172682000Y-82490000D02*
X172682000Y-78490000D01*
X172682000Y-82490000D02*
X176382000Y-82490000D01*
X174682000Y-76490000D02*
X183482000Y-76490000D01*
X178382000Y-80490000D02*
X183482000Y-80490000D01*
X183482000Y-76490000D02*
X183482000Y-80490000D01*
X172682000Y-78490000D02*
G75*
G02*
X174682000Y-76490000I1999999J1D01*
G01*
X176382000Y-82490000D02*
G75*
G02*
X178382000Y-80490000I1999999J1D01*
G01*
%TO.C,SW5*%
X86956000Y-63440000D02*
X86956000Y-59440000D01*
X86956000Y-63440000D02*
X90656000Y-63440000D01*
X88956000Y-57440000D02*
X97756000Y-57440000D01*
X92656000Y-61440000D02*
X97756000Y-61440000D01*
X97756000Y-57440000D02*
X97756000Y-61440000D01*
X86956000Y-59440000D02*
G75*
G02*
X88956000Y-57440000I1999999J1D01*
G01*
X90656000Y-63440000D02*
G75*
G02*
X92656000Y-61440000I1999999J1D01*
G01*
%TO.C,D134*%
X260620000Y-143519999D02*
X260620000Y-147519999D01*
X260620000Y-147519999D02*
X268220000Y-147519999D01*
X268220000Y-143519999D02*
X260620000Y-143519999D01*
X268220000Y-147519999D02*
X268220000Y-143519999D01*
%TO.C,D113*%
X24896000Y-124429999D02*
X24896000Y-128429999D01*
X24896000Y-128429999D02*
X32496000Y-128429999D01*
X32496000Y-124429999D02*
X24896000Y-124429999D01*
X32496000Y-128429999D02*
X32496000Y-124429999D01*
%TO.C,D101*%
X65376000Y-105419999D02*
X65376000Y-109419999D01*
X65376000Y-109419999D02*
X72976000Y-109419999D01*
X72976000Y-105419999D02*
X65376000Y-105419999D01*
X72976000Y-109419999D02*
X72976000Y-105419999D01*
%TO.C,SW31*%
X17928500Y-101520000D02*
X17928500Y-97520000D01*
X17928500Y-101520000D02*
X21628500Y-101520000D01*
X19928500Y-95520000D02*
X28728500Y-95520000D01*
X23628500Y-99520000D02*
X28728500Y-99520000D01*
X28728500Y-95520000D02*
X28728500Y-99520000D01*
X17928500Y-97520000D02*
G75*
G02*
X19928500Y-95520000I1999999J1D01*
G01*
X21628500Y-101520000D02*
G75*
G02*
X23628500Y-99520000I1999999J1D01*
G01*
%TO.C,D84*%
X17719000Y-86369999D02*
X17719000Y-90369999D01*
X17719000Y-90369999D02*
X25319000Y-90369999D01*
X25319000Y-86369999D02*
X17719000Y-86369999D01*
X25319000Y-90369999D02*
X25319000Y-86369999D01*
%TO.C,D119*%
X151106000Y-124429999D02*
X151106000Y-128429999D01*
X151106000Y-128429999D02*
X158706000Y-128429999D01*
X158706000Y-124429999D02*
X151106000Y-124429999D01*
X158706000Y-128429999D02*
X158706000Y-124429999D01*
%TO.C,D116*%
X93956000Y-124429999D02*
X93956000Y-128429999D01*
X93956000Y-128429999D02*
X101556000Y-128429999D01*
X101556000Y-124429999D02*
X93956000Y-124429999D01*
X101556000Y-128429999D02*
X101556000Y-124429999D01*
%TO.C,D131*%
X203470000Y-143519999D02*
X203470000Y-147519999D01*
X203470000Y-147519999D02*
X211070000Y-147519999D01*
X211070000Y-143519999D02*
X203470000Y-143519999D01*
X211070000Y-147519999D02*
X211070000Y-143519999D01*
%TO.C,SW15*%
X296606000Y-63440000D02*
X296606000Y-59440000D01*
X296606000Y-63440000D02*
X300306000Y-63440000D01*
X298606000Y-57440000D02*
X307406000Y-57440000D01*
X302306000Y-61440000D02*
X307406000Y-61440000D01*
X307406000Y-57440000D02*
X307406000Y-61440000D01*
X296606000Y-59440000D02*
G75*
G02*
X298606000Y-57440000I1999999J1D01*
G01*
X300306000Y-63440000D02*
G75*
G02*
X302306000Y-61440000I1999999J1D01*
G01*
%TO.C,D91*%
X155832000Y-86369999D02*
X155832000Y-90369999D01*
X155832000Y-90369999D02*
X163432000Y-90369999D01*
X163432000Y-86369999D02*
X155832000Y-86369999D01*
X163432000Y-90369999D02*
X163432000Y-86369999D01*
%TO.C,D77*%
X165356000Y-67319999D02*
X165356000Y-71319999D01*
X165356000Y-71319999D02*
X172956000Y-71319999D01*
X172956000Y-67319999D02*
X165356000Y-67319999D01*
X172956000Y-71319999D02*
X172956000Y-67319999D01*
%TO.C,SW30*%
X296606000Y-82490000D02*
X296606000Y-78490000D01*
X296606000Y-82490000D02*
X300306000Y-82490000D01*
X298606000Y-76490000D02*
X307406000Y-76490000D01*
X302306000Y-80490000D02*
X307406000Y-80490000D01*
X307406000Y-76490000D02*
X307406000Y-80490000D01*
X296606000Y-78490000D02*
G75*
G02*
X298606000Y-76490000I1999999J1D01*
G01*
X300306000Y-82490000D02*
G75*
G02*
X302306000Y-80490000I1999999J1D01*
G01*
%TO.C,SW35*%
X101276000Y-101540000D02*
X101276000Y-97540000D01*
X101276000Y-101540000D02*
X104976000Y-101540000D01*
X103276000Y-95540000D02*
X112076000Y-95540000D01*
X106976000Y-99540000D02*
X112076000Y-99540000D01*
X112076000Y-95540000D02*
X112076000Y-99540000D01*
X101276000Y-97540000D02*
G75*
G02*
X103276000Y-95540000I1999999J1D01*
G01*
X104976000Y-101540000D02*
G75*
G02*
X106976000Y-99540000I1999999J1D01*
G01*
%TO.C,D110*%
X236826000Y-105419999D02*
X236826000Y-109419999D01*
X236826000Y-109419999D02*
X244426000Y-109419999D01*
X244426000Y-105419999D02*
X236826000Y-105419999D01*
X244426000Y-109419999D02*
X244426000Y-105419999D01*
%TO.C,SW14*%
X267981000Y-63440000D02*
X267981000Y-59440000D01*
X267981000Y-63440000D02*
X271681000Y-63440000D01*
X269981000Y-57440000D02*
X278781000Y-57440000D01*
X273681000Y-61440000D02*
X278781000Y-61440000D01*
X278781000Y-57440000D02*
X278781000Y-61440000D01*
X267981000Y-59440000D02*
G75*
G02*
X269981000Y-57440000I1999999J1D01*
G01*
X271681000Y-63440000D02*
G75*
G02*
X273681000Y-61440000I1999999J1D01*
G01*
%TO.C,D117*%
X113006000Y-124429999D02*
X113006000Y-128429999D01*
X113006000Y-128429999D02*
X120606000Y-128429999D01*
X120606000Y-124429999D02*
X113006000Y-124429999D01*
X120606000Y-128429999D02*
X120606000Y-124429999D01*
%TO.C,D112*%
X298806000Y-105419999D02*
X298806000Y-109419999D01*
X298806000Y-109419999D02*
X306406000Y-109419999D01*
X306406000Y-105419999D02*
X298806000Y-105419999D01*
X306406000Y-109419999D02*
X306406000Y-105419999D01*
%TO.C,D100*%
X46326000Y-105419999D02*
X46326000Y-109419999D01*
X46326000Y-109419999D02*
X53926000Y-109419999D01*
X53926000Y-105419999D02*
X46326000Y-105419999D01*
X53926000Y-109419999D02*
X53926000Y-105419999D01*
%TO.C,SW33*%
X63176000Y-101540000D02*
X63176000Y-97540000D01*
X63176000Y-101540000D02*
X66876000Y-101540000D01*
X65176000Y-95540000D02*
X73976000Y-95540000D01*
X68876000Y-99540000D02*
X73976000Y-99540000D01*
X73976000Y-95540000D02*
X73976000Y-99540000D01*
X63176000Y-97540000D02*
G75*
G02*
X65176000Y-95540000I1999999J1D01*
G01*
X66876000Y-101540000D02*
G75*
G02*
X68876000Y-99540000I1999999J1D01*
G01*
%TO.C,D83*%
X298806000Y-67319999D02*
X298806000Y-71319999D01*
X298806000Y-71319999D02*
X306406000Y-71319999D01*
X306406000Y-67319999D02*
X298806000Y-67319999D01*
X306406000Y-71319999D02*
X306406000Y-67319999D01*
%TO.C,D86*%
X60582000Y-86369999D02*
X60582000Y-90369999D01*
X60582000Y-90369999D02*
X68182000Y-90369999D01*
X68182000Y-86369999D02*
X60582000Y-86369999D01*
X68182000Y-90369999D02*
X68182000Y-86369999D01*
%TO.C,SW50*%
X129856000Y-120550000D02*
X129856000Y-116550000D01*
X129856000Y-120550000D02*
X133556000Y-120550000D01*
X131856000Y-114550000D02*
X140656000Y-114550000D01*
X135556000Y-118550000D02*
X140656000Y-118550000D01*
X140656000Y-114550000D02*
X140656000Y-118550000D01*
X129856000Y-116550000D02*
G75*
G02*
X131856000Y-114550000I1999999J1D01*
G01*
X133556000Y-120550000D02*
G75*
G02*
X135556000Y-118550000I1999999J1D01*
G01*
%TO.C,SW66*%
X258420000Y-139640000D02*
X258420000Y-135640000D01*
X258420000Y-139640000D02*
X262120000Y-139640000D01*
X260420000Y-133640000D02*
X269220000Y-133640000D01*
X264120000Y-137640000D02*
X269220000Y-137640000D01*
X269220000Y-133640000D02*
X269220000Y-137640000D01*
X258420000Y-135640000D02*
G75*
G02*
X260420000Y-133640000I1999999J1D01*
G01*
X262120000Y-139640000D02*
G75*
G02*
X264120000Y-137640000I1999999J1D01*
G01*
%TO.C,SW21*%
X115532000Y-82490000D02*
X115532000Y-78490000D01*
X115532000Y-82490000D02*
X119232000Y-82490000D01*
X117532000Y-76490000D02*
X126332000Y-76490000D01*
X121232000Y-80490000D02*
X126332000Y-80490000D01*
X126332000Y-76490000D02*
X126332000Y-80490000D01*
X115532000Y-78490000D02*
G75*
G02*
X117532000Y-76490000I1999999J1D01*
G01*
X119232000Y-82490000D02*
G75*
G02*
X121232000Y-80490000I1999999J1D01*
G01*
%TO.C,D106*%
X160626000Y-105419999D02*
X160626000Y-109419999D01*
X160626000Y-109419999D02*
X168226000Y-109419999D01*
X168226000Y-105419999D02*
X160626000Y-105419999D01*
X168226000Y-109419999D02*
X168226000Y-105419999D01*
%TO.C,SW12*%
X220306000Y-63440000D02*
X220306000Y-59440000D01*
X220306000Y-63440000D02*
X224006000Y-63440000D01*
X222306000Y-57440000D02*
X231106000Y-57440000D01*
X226006000Y-61440000D02*
X231106000Y-61440000D01*
X231106000Y-57440000D02*
X231106000Y-61440000D01*
X220306000Y-59440000D02*
G75*
G02*
X222306000Y-57440000I1999999J1D01*
G01*
X224006000Y-63440000D02*
G75*
G02*
X226006000Y-61440000I1999999J1D01*
G01*
%TO.C,SW2*%
X29806000Y-63440000D02*
X29806000Y-59440000D01*
X29806000Y-63440000D02*
X33506000Y-63440000D01*
X31806000Y-57440000D02*
X40606000Y-57440000D01*
X35506000Y-61440000D02*
X40606000Y-61440000D01*
X40606000Y-57440000D02*
X40606000Y-61440000D01*
X29806000Y-59440000D02*
G75*
G02*
X31806000Y-57440000I1999999J1D01*
G01*
X33506000Y-63440000D02*
G75*
G02*
X35506000Y-61440000I1999999J1D01*
G01*
%TO.C,SW28*%
X248882000Y-82490000D02*
X248882000Y-78490000D01*
X248882000Y-82490000D02*
X252582000Y-82490000D01*
X250882000Y-76490000D02*
X259682000Y-76490000D01*
X254582000Y-80490000D02*
X259682000Y-80490000D01*
X259682000Y-76490000D02*
X259682000Y-80490000D01*
X248882000Y-78490000D02*
G75*
G02*
X250882000Y-76490000I1999999J1D01*
G01*
X252582000Y-82490000D02*
G75*
G02*
X254582000Y-80490000I1999999J1D01*
G01*
%TO.C,SW10*%
X182206000Y-63440000D02*
X182206000Y-59440000D01*
X182206000Y-63440000D02*
X185906000Y-63440000D01*
X184206000Y-57440000D02*
X193006000Y-57440000D01*
X187906000Y-61440000D02*
X193006000Y-61440000D01*
X193006000Y-57440000D02*
X193006000Y-61440000D01*
X182206000Y-59440000D02*
G75*
G02*
X184206000Y-57440000I1999999J1D01*
G01*
X185906000Y-63440000D02*
G75*
G02*
X187906000Y-61440000I1999999J1D01*
G01*
%TO.C,SW25*%
X191732000Y-82490000D02*
X191732000Y-78490000D01*
X191732000Y-82490000D02*
X195432000Y-82490000D01*
X193732000Y-76490000D02*
X202532000Y-76490000D01*
X197432000Y-80490000D02*
X202532000Y-80490000D01*
X202532000Y-76490000D02*
X202532000Y-80490000D01*
X191732000Y-78490000D02*
G75*
G02*
X193732000Y-76490000I1999999J1D01*
G01*
X195432000Y-82490000D02*
G75*
G02*
X197432000Y-80490000I1999999J1D01*
G01*
%TO.C,SW67*%
X277470000Y-139640000D02*
X277470000Y-135640000D01*
X277470000Y-139640000D02*
X281170000Y-139640000D01*
X279470000Y-133640000D02*
X288270000Y-133640000D01*
X283170000Y-137640000D02*
X288270000Y-137640000D01*
X288270000Y-133640000D02*
X288270000Y-137640000D01*
X277470000Y-135640000D02*
G75*
G02*
X279470000Y-133640000I1999999J1D01*
G01*
X281170000Y-139640000D02*
G75*
G02*
X283170000Y-137640000I1999999J1D01*
G01*
%TO.C,D81*%
X241556000Y-67319999D02*
X241556000Y-71319999D01*
X241556000Y-71319999D02*
X249156000Y-71319999D01*
X249156000Y-67319999D02*
X241556000Y-67319999D01*
X249156000Y-71319999D02*
X249156000Y-67319999D01*
%TO.C,SW62*%
X132214000Y-139640000D02*
X132214000Y-135640000D01*
X132214000Y-139640000D02*
X135914000Y-139640000D01*
X134214000Y-133640000D02*
X143014000Y-133640000D01*
X137914000Y-137640000D02*
X143014000Y-137640000D01*
X143014000Y-133640000D02*
X143014000Y-137640000D01*
X132214000Y-135640000D02*
G75*
G02*
X134214000Y-133640000I1999999J1D01*
G01*
X135914000Y-139640000D02*
G75*
G02*
X137914000Y-137640000I1999999J1D01*
G01*
%TO.C,D109*%
X217776000Y-105419999D02*
X217776000Y-109419999D01*
X217776000Y-109419999D02*
X225376000Y-109419999D01*
X225376000Y-105419999D02*
X217776000Y-105419999D01*
X225376000Y-109419999D02*
X225376000Y-105419999D01*
%TO.C,SW52*%
X167956000Y-120550000D02*
X167956000Y-116550000D01*
X167956000Y-120550000D02*
X171656000Y-120550000D01*
X169956000Y-114550000D02*
X178756000Y-114550000D01*
X173656000Y-118550000D02*
X178756000Y-118550000D01*
X178756000Y-114550000D02*
X178756000Y-118550000D01*
X167956000Y-116550000D02*
G75*
G02*
X169956000Y-114550000I1999999J1D01*
G01*
X171656000Y-120550000D02*
G75*
G02*
X173656000Y-118550000I1999999J1D01*
G01*
%TO.C,D115*%
X74906000Y-124429999D02*
X74906000Y-128429999D01*
X74906000Y-128429999D02*
X82506000Y-128429999D01*
X82506000Y-124429999D02*
X74906000Y-124429999D01*
X82506000Y-128429999D02*
X82506000Y-124429999D01*
%TO.C,SW59*%
X13176000Y-139620000D02*
X13176000Y-135620000D01*
X13176000Y-139620000D02*
X16876000Y-139620000D01*
X15176000Y-133620000D02*
X23976000Y-133620000D01*
X18876000Y-137620000D02*
X23976000Y-137620000D01*
X23976000Y-133620000D02*
X23976000Y-137620000D01*
X13176000Y-135620000D02*
G75*
G02*
X15176000Y-133620000I1999999J1D01*
G01*
X16876000Y-139620000D02*
G75*
G02*
X18876000Y-137620000I1999999J1D01*
G01*
%TO.C,SW61*%
X60776000Y-139640000D02*
X60776000Y-135640000D01*
X60776000Y-139640000D02*
X64476000Y-139640000D01*
X62776000Y-133640000D02*
X71576000Y-133640000D01*
X66476000Y-137640000D02*
X71576000Y-137640000D01*
X71576000Y-133640000D02*
X71576000Y-137640000D01*
X60776000Y-135640000D02*
G75*
G02*
X62776000Y-133640000I1999999J1D01*
G01*
X64476000Y-139640000D02*
G75*
G02*
X66476000Y-137640000I1999999J1D01*
G01*
%TO.C,SW22*%
X134582000Y-82490000D02*
X134582000Y-78490000D01*
X134582000Y-82490000D02*
X138282000Y-82490000D01*
X136582000Y-76490000D02*
X145382000Y-76490000D01*
X140282000Y-80490000D02*
X145382000Y-80490000D01*
X145382000Y-76490000D02*
X145382000Y-80490000D01*
X134582000Y-78490000D02*
G75*
G02*
X136582000Y-76490000I1999999J1D01*
G01*
X138282000Y-82490000D02*
G75*
G02*
X140282000Y-80490000I1999999J1D01*
G01*
%TO.C,D114*%
X55856000Y-124429999D02*
X55856000Y-128429999D01*
X55856000Y-128429999D02*
X63456000Y-128429999D01*
X63456000Y-124429999D02*
X55856000Y-124429999D01*
X63456000Y-128429999D02*
X63456000Y-124429999D01*
%TO.C,D118*%
X132056000Y-124429999D02*
X132056000Y-128429999D01*
X132056000Y-128429999D02*
X139656000Y-128429999D01*
X139656000Y-124429999D02*
X132056000Y-124429999D01*
X139656000Y-128429999D02*
X139656000Y-124429999D01*
%TO.C,D94*%
X212982000Y-86369999D02*
X212982000Y-90369999D01*
X212982000Y-90369999D02*
X220582000Y-90369999D01*
X220582000Y-86369999D02*
X212982000Y-86369999D01*
X220582000Y-90369999D02*
X220582000Y-86369999D01*
%TO.C,D136*%
X298720000Y-143519999D02*
X298720000Y-147519999D01*
X298720000Y-147519999D02*
X306320000Y-147519999D01*
X306320000Y-143519999D02*
X298720000Y-143519999D01*
X306320000Y-147519999D02*
X306320000Y-143519999D01*
%TO.C,SW41*%
X215576000Y-101540000D02*
X215576000Y-97540000D01*
X215576000Y-101540000D02*
X219276000Y-101540000D01*
X217576000Y-95540000D02*
X226376000Y-95540000D01*
X221276000Y-99540000D02*
X226376000Y-99540000D01*
X226376000Y-95540000D02*
X226376000Y-99540000D01*
X215576000Y-97540000D02*
G75*
G02*
X217576000Y-95540000I1999999J1D01*
G01*
X219276000Y-101540000D02*
G75*
G02*
X221276000Y-99540000I1999999J1D01*
G01*
%TO.C,D126*%
X298806000Y-124469999D02*
X298806000Y-128469999D01*
X298806000Y-128469999D02*
X306406000Y-128469999D01*
X306406000Y-124469999D02*
X298806000Y-124469999D01*
X306406000Y-128469999D02*
X306406000Y-124469999D01*
%TO.C,D132*%
X222520000Y-143519999D02*
X222520000Y-147519999D01*
X222520000Y-147519999D02*
X230120000Y-147519999D01*
X230120000Y-143519999D02*
X222520000Y-143519999D01*
X230120000Y-147519999D02*
X230120000Y-143519999D01*
%TO.C,SW3*%
X48856000Y-63440000D02*
X48856000Y-59440000D01*
X48856000Y-63440000D02*
X52556000Y-63440000D01*
X50856000Y-57440000D02*
X59656000Y-57440000D01*
X54556000Y-61440000D02*
X59656000Y-61440000D01*
X59656000Y-57440000D02*
X59656000Y-61440000D01*
X48856000Y-59440000D02*
G75*
G02*
X50856000Y-57440000I1999999J1D01*
G01*
X52556000Y-63440000D02*
G75*
G02*
X54556000Y-61440000I1999999J1D01*
G01*
%TO.C,D111*%
X267786000Y-105409999D02*
X267786000Y-109409999D01*
X267786000Y-109409999D02*
X275386000Y-109409999D01*
X275386000Y-105409999D02*
X267786000Y-105409999D01*
X275386000Y-109409999D02*
X275386000Y-105409999D01*
%TO.C,SW64*%
X220320000Y-139640000D02*
X220320000Y-135640000D01*
X220320000Y-139640000D02*
X224020000Y-139640000D01*
X222320000Y-133640000D02*
X231120000Y-133640000D01*
X226020000Y-137640000D02*
X231120000Y-137640000D01*
X231120000Y-133640000D02*
X231120000Y-137640000D01*
X220320000Y-135640000D02*
G75*
G02*
X222320000Y-133640000I1999999J1D01*
G01*
X224020000Y-139640000D02*
G75*
G02*
X226020000Y-137640000I1999999J1D01*
G01*
%TO.C,SW17*%
X39332000Y-82490000D02*
X39332000Y-78490000D01*
X39332000Y-82490000D02*
X43032000Y-82490000D01*
X41332000Y-76490000D02*
X50132000Y-76490000D01*
X45032000Y-80490000D02*
X50132000Y-80490000D01*
X50132000Y-76490000D02*
X50132000Y-80490000D01*
X39332000Y-78490000D02*
G75*
G02*
X41332000Y-76490000I1999999J1D01*
G01*
X43032000Y-82490000D02*
G75*
G02*
X45032000Y-80490000I1999999J1D01*
G01*
%TO.C,D73*%
X89156000Y-67319999D02*
X89156000Y-71319999D01*
X89156000Y-71319999D02*
X96756000Y-71319999D01*
X96756000Y-67319999D02*
X89156000Y-67319999D01*
X96756000Y-71319999D02*
X96756000Y-67319999D01*
%TO.C,SW11*%
X201256000Y-63440000D02*
X201256000Y-59440000D01*
X201256000Y-63440000D02*
X204956000Y-63440000D01*
X203256000Y-57440000D02*
X212056000Y-57440000D01*
X206956000Y-61440000D02*
X212056000Y-61440000D01*
X212056000Y-57440000D02*
X212056000Y-61440000D01*
X201256000Y-59440000D02*
G75*
G02*
X203256000Y-57440000I1999999J1D01*
G01*
X204956000Y-63440000D02*
G75*
G02*
X206956000Y-61440000I1999999J1D01*
G01*
%TO.C,D128*%
X39196000Y-143509999D02*
X39196000Y-147509999D01*
X39196000Y-147509999D02*
X46796000Y-147509999D01*
X46796000Y-143509999D02*
X39196000Y-143509999D01*
X46796000Y-147509999D02*
X46796000Y-143509999D01*
%TO.C,D85*%
X41532000Y-86369999D02*
X41532000Y-90369999D01*
X41532000Y-90369999D02*
X49132000Y-90369999D01*
X49132000Y-86369999D02*
X41532000Y-86369999D01*
X49132000Y-90369999D02*
X49132000Y-86369999D01*
%TO.C,D123*%
X227306000Y-124429999D02*
X227306000Y-128429999D01*
X227306000Y-128429999D02*
X234906000Y-128429999D01*
X234906000Y-124429999D02*
X227306000Y-124429999D01*
X234906000Y-128429999D02*
X234906000Y-124429999D01*
%TO.C,SW68*%
X296520000Y-139640000D02*
X296520000Y-135640000D01*
X296520000Y-139640000D02*
X300220000Y-139640000D01*
X298520000Y-133640000D02*
X307320000Y-133640000D01*
X302220000Y-137640000D02*
X307320000Y-137640000D01*
X307320000Y-133640000D02*
X307320000Y-137640000D01*
X296520000Y-135640000D02*
G75*
G02*
X298520000Y-133640000I1999999J1D01*
G01*
X300220000Y-139640000D02*
G75*
G02*
X302220000Y-137640000I1999999J1D01*
G01*
%TO.C,D70*%
X32006000Y-67319999D02*
X32006000Y-71319999D01*
X32006000Y-71319999D02*
X39606000Y-71319999D01*
X39606000Y-67319999D02*
X32006000Y-67319999D01*
X39606000Y-71319999D02*
X39606000Y-67319999D01*
%TO.C,D87*%
X79632000Y-86369999D02*
X79632000Y-90369999D01*
X79632000Y-90369999D02*
X87232000Y-90369999D01*
X87232000Y-86369999D02*
X79632000Y-86369999D01*
X87232000Y-90369999D02*
X87232000Y-86369999D01*
%TO.C,SW4*%
X67906000Y-63440000D02*
X67906000Y-59440000D01*
X67906000Y-63440000D02*
X71606000Y-63440000D01*
X69906000Y-57440000D02*
X78706000Y-57440000D01*
X73606000Y-61440000D02*
X78706000Y-61440000D01*
X78706000Y-57440000D02*
X78706000Y-61440000D01*
X67906000Y-59440000D02*
G75*
G02*
X69906000Y-57440000I1999999J1D01*
G01*
X71606000Y-63440000D02*
G75*
G02*
X73606000Y-61440000I1999999J1D01*
G01*
%TO.C,SW29*%
X272695000Y-82490000D02*
X272695000Y-78490000D01*
X272695000Y-82490000D02*
X276395000Y-82490000D01*
X274695000Y-76490000D02*
X283495000Y-76490000D01*
X278395000Y-80490000D02*
X283495000Y-80490000D01*
X283495000Y-76490000D02*
X283495000Y-80490000D01*
X272695000Y-78490000D02*
G75*
G02*
X274695000Y-76490000I1999999J1D01*
G01*
X276395000Y-82490000D02*
G75*
G02*
X278395000Y-80490000I1999999J1D01*
G01*
%TO.C,D121*%
X189206000Y-124429999D02*
X189206000Y-128429999D01*
X189206000Y-128429999D02*
X196806000Y-128429999D01*
X196806000Y-124429999D02*
X189206000Y-124429999D01*
X196806000Y-128429999D02*
X196806000Y-124429999D01*
%TO.C,D72*%
X70106000Y-67319999D02*
X70106000Y-71319999D01*
X70106000Y-71319999D02*
X77706000Y-71319999D01*
X77706000Y-67319999D02*
X70106000Y-67319999D01*
X77706000Y-71319999D02*
X77706000Y-67319999D01*
%TO.C,SW8*%
X144106000Y-63440000D02*
X144106000Y-59440000D01*
X144106000Y-63440000D02*
X147806000Y-63440000D01*
X146106000Y-57440000D02*
X154906000Y-57440000D01*
X149806000Y-61440000D02*
X154906000Y-61440000D01*
X154906000Y-57440000D02*
X154906000Y-61440000D01*
X144106000Y-59440000D02*
G75*
G02*
X146106000Y-57440000I1999999J1D01*
G01*
X147806000Y-63440000D02*
G75*
G02*
X149806000Y-61440000I1999999J1D01*
G01*
%TO.C,SW18*%
X58382000Y-82490000D02*
X58382000Y-78490000D01*
X58382000Y-82490000D02*
X62082000Y-82490000D01*
X60382000Y-76490000D02*
X69182000Y-76490000D01*
X64082000Y-80490000D02*
X69182000Y-80490000D01*
X69182000Y-76490000D02*
X69182000Y-80490000D01*
X58382000Y-78490000D02*
G75*
G02*
X60382000Y-76490000I1999999J1D01*
G01*
X62082000Y-82490000D02*
G75*
G02*
X64082000Y-80490000I1999999J1D01*
G01*
%TO.C,SW56*%
X251400000Y-120640000D02*
X251400000Y-116640000D01*
X251400000Y-120640000D02*
X255100000Y-120640000D01*
X253400000Y-114640000D02*
X262200000Y-114640000D01*
X257100000Y-118640000D02*
X262200000Y-118640000D01*
X262200000Y-114640000D02*
X262200000Y-118640000D01*
X251400000Y-116640000D02*
G75*
G02*
X253400000Y-114640000I1999999J1D01*
G01*
X255100000Y-120640000D02*
G75*
G02*
X257100000Y-118640000I1999999J1D01*
G01*
%TO.C,D125*%
X279756000Y-124469999D02*
X279756000Y-128469999D01*
X279756000Y-128469999D02*
X287356000Y-128469999D01*
X287356000Y-124469999D02*
X279756000Y-124469999D01*
X287356000Y-128469999D02*
X287356000Y-124469999D01*
%TO.C,SW26*%
X210782000Y-82490000D02*
X210782000Y-78490000D01*
X210782000Y-82490000D02*
X214482000Y-82490000D01*
X212782000Y-76490000D02*
X221582000Y-76490000D01*
X216482000Y-80490000D02*
X221582000Y-80490000D01*
X221582000Y-76490000D02*
X221582000Y-80490000D01*
X210782000Y-78490000D02*
G75*
G02*
X212782000Y-76490000I1999999J1D01*
G01*
X214482000Y-82490000D02*
G75*
G02*
X216482000Y-80490000I1999999J1D01*
G01*
%TO.C,D75*%
X127256000Y-67319999D02*
X127256000Y-71319999D01*
X127256000Y-71319999D02*
X134856000Y-71319999D01*
X134856000Y-67319999D02*
X127256000Y-67319999D01*
X134856000Y-71319999D02*
X134856000Y-67319999D01*
%TO.C,SW1*%
X10756000Y-63440000D02*
X10756000Y-59440000D01*
X10756000Y-63440000D02*
X14456000Y-63440000D01*
X12756000Y-57440000D02*
X21556000Y-57440000D01*
X16456000Y-61440000D02*
X21556000Y-61440000D01*
X21556000Y-57440000D02*
X21556000Y-61440000D01*
X10756000Y-59440000D02*
G75*
G02*
X12756000Y-57440000I1999999J1D01*
G01*
X14456000Y-63440000D02*
G75*
G02*
X16456000Y-61440000I1999999J1D01*
G01*
%TO.C,SW53*%
X187006000Y-120550000D02*
X187006000Y-116550000D01*
X187006000Y-120550000D02*
X190706000Y-120550000D01*
X189006000Y-114550000D02*
X197806000Y-114550000D01*
X192706000Y-118550000D02*
X197806000Y-118550000D01*
X197806000Y-114550000D02*
X197806000Y-118550000D01*
X187006000Y-116550000D02*
G75*
G02*
X189006000Y-114550000I1999999J1D01*
G01*
X190706000Y-120550000D02*
G75*
G02*
X192706000Y-118550000I1999999J1D01*
G01*
%TO.C,D124*%
X253498500Y-124419999D02*
X253498500Y-128419999D01*
X253498500Y-128419999D02*
X261098500Y-128419999D01*
X261098500Y-124419999D02*
X253498500Y-124419999D01*
X261098500Y-128419999D02*
X261098500Y-124419999D01*
%TO.C,D92*%
X174882000Y-86369999D02*
X174882000Y-90369999D01*
X174882000Y-90369999D02*
X182482000Y-90369999D01*
X182482000Y-86369999D02*
X174882000Y-86369999D01*
X182482000Y-90369999D02*
X182482000Y-86369999D01*
%TO.C,D133*%
X241570000Y-143519999D02*
X241570000Y-147519999D01*
X241570000Y-147519999D02*
X249170000Y-147519999D01*
X249170000Y-143519999D02*
X241570000Y-143519999D01*
X249170000Y-147519999D02*
X249170000Y-143519999D01*
%TO.C,SW6*%
X106006000Y-63440000D02*
X106006000Y-59440000D01*
X106006000Y-63440000D02*
X109706000Y-63440000D01*
X108006000Y-57440000D02*
X116806000Y-57440000D01*
X111706000Y-61440000D02*
X116806000Y-61440000D01*
X116806000Y-57440000D02*
X116806000Y-61440000D01*
X106006000Y-59440000D02*
G75*
G02*
X108006000Y-57440000I1999999J1D01*
G01*
X109706000Y-63440000D02*
G75*
G02*
X111706000Y-61440000I1999999J1D01*
G01*
%TO.C,D76*%
X146306000Y-67319999D02*
X146306000Y-71319999D01*
X146306000Y-71319999D02*
X153906000Y-71319999D01*
X153906000Y-67319999D02*
X146306000Y-67319999D01*
X153906000Y-71319999D02*
X153906000Y-67319999D01*
%TO.C,D104*%
X122526000Y-105419999D02*
X122526000Y-109419999D01*
X122526000Y-109419999D02*
X130126000Y-109419999D01*
X130126000Y-105419999D02*
X122526000Y-105419999D01*
X130126000Y-109419999D02*
X130126000Y-105419999D01*
%TO.C,REF\u002A\u002A*%
D10*
X261679750Y-95345000D02*
G75*
G02*
X257679750Y-95345000I-2000000J0D01*
G01*
X257679750Y-95345000D02*
G75*
G02*
X261679750Y-95345000I2000000J0D01*
G01*
X285492250Y-95345000D02*
G75*
G02*
X281492250Y-95345000I-2000000J0D01*
G01*
X281492250Y-95345000D02*
G75*
G02*
X285492250Y-95345000I2000000J0D01*
G01*
%TO.C,D79*%
D11*
X203456000Y-67319999D02*
X203456000Y-71319999D01*
X203456000Y-71319999D02*
X211056000Y-71319999D01*
X211056000Y-67319999D02*
X203456000Y-67319999D01*
X211056000Y-71319999D02*
X211056000Y-67319999D01*
%TO.C,SW34*%
X82226000Y-101540000D02*
X82226000Y-97540000D01*
X82226000Y-101540000D02*
X85926000Y-101540000D01*
X84226000Y-95540000D02*
X93026000Y-95540000D01*
X87926000Y-99540000D02*
X93026000Y-99540000D01*
X93026000Y-95540000D02*
X93026000Y-99540000D01*
X82226000Y-97540000D02*
G75*
G02*
X84226000Y-95540000I1999999J1D01*
G01*
X85926000Y-101540000D02*
G75*
G02*
X87926000Y-99540000I1999999J1D01*
G01*
%TO.C,SW16*%
X15519000Y-82490000D02*
X15519000Y-78490000D01*
X15519000Y-82490000D02*
X19219000Y-82490000D01*
X17519000Y-76490000D02*
X26319000Y-76490000D01*
X21219000Y-80490000D02*
X26319000Y-80490000D01*
X26319000Y-76490000D02*
X26319000Y-80490000D01*
X15519000Y-78490000D02*
G75*
G02*
X17519000Y-76490000I1999999J1D01*
G01*
X19219000Y-82490000D02*
G75*
G02*
X21219000Y-80490000I1999999J1D01*
G01*
%TO.C,D95*%
X232032000Y-86369999D02*
X232032000Y-90369999D01*
X232032000Y-90369999D02*
X239632000Y-90369999D01*
X239632000Y-86369999D02*
X232032000Y-86369999D01*
X239632000Y-90369999D02*
X239632000Y-86369999D01*
%TO.C,SW45*%
X22696000Y-120550000D02*
X22696000Y-116550000D01*
X22696000Y-120550000D02*
X26396000Y-120550000D01*
X24696000Y-114550000D02*
X33496000Y-114550000D01*
X28396000Y-118550000D02*
X33496000Y-118550000D01*
X33496000Y-114550000D02*
X33496000Y-118550000D01*
X22696000Y-116550000D02*
G75*
G02*
X24696000Y-114550000I1999999J1D01*
G01*
X26396000Y-120550000D02*
G75*
G02*
X28396000Y-118550000I1999999J1D01*
G01*
%TO.C,SW23*%
X153632000Y-82490000D02*
X153632000Y-78490000D01*
X153632000Y-82490000D02*
X157332000Y-82490000D01*
X155632000Y-76490000D02*
X164432000Y-76490000D01*
X159332000Y-80490000D02*
X164432000Y-80490000D01*
X164432000Y-76490000D02*
X164432000Y-80490000D01*
X153632000Y-78490000D02*
G75*
G02*
X155632000Y-76490000I1999999J1D01*
G01*
X157332000Y-82490000D02*
G75*
G02*
X159332000Y-80490000I1999999J1D01*
G01*
%TO.C,SW51*%
X148906000Y-120550000D02*
X148906000Y-116550000D01*
X148906000Y-120550000D02*
X152606000Y-120550000D01*
X150906000Y-114550000D02*
X159706000Y-114550000D01*
X154606000Y-118550000D02*
X159706000Y-118550000D01*
X159706000Y-114550000D02*
X159706000Y-118550000D01*
X148906000Y-116550000D02*
G75*
G02*
X150906000Y-114550000I1999999J1D01*
G01*
X152606000Y-120550000D02*
G75*
G02*
X154606000Y-118550000I1999999J1D01*
G01*
%TO.C,D74*%
X108206000Y-67319999D02*
X108206000Y-71319999D01*
X108206000Y-71319999D02*
X115806000Y-71319999D01*
X115806000Y-67319999D02*
X108206000Y-67319999D01*
X115806000Y-71319999D02*
X115806000Y-67319999D01*
%TO.C,D105*%
X141576000Y-105419999D02*
X141576000Y-109419999D01*
X141576000Y-109419999D02*
X149176000Y-109419999D01*
X149176000Y-105419999D02*
X141576000Y-105419999D01*
X149176000Y-109419999D02*
X149176000Y-105419999D01*
%TO.C,SW43*%
X265586000Y-101530000D02*
X265586000Y-97530000D01*
X265586000Y-101530000D02*
X269286000Y-101530000D01*
X267586000Y-95530000D02*
X276386000Y-95530000D01*
X271286000Y-99530000D02*
X276386000Y-99530000D01*
X276386000Y-95530000D02*
X276386000Y-99530000D01*
X265586000Y-97530000D02*
G75*
G02*
X267586000Y-95530000I1999999J1D01*
G01*
X269286000Y-101530000D02*
G75*
G02*
X271286000Y-99530000I1999999J1D01*
G01*
%TO.C,D71*%
X51056000Y-67319999D02*
X51056000Y-71319999D01*
X51056000Y-71319999D02*
X58656000Y-71319999D01*
X58656000Y-67319999D02*
X51056000Y-67319999D01*
X58656000Y-71319999D02*
X58656000Y-67319999D01*
%TO.C,D69*%
X12956000Y-67319999D02*
X12956000Y-71319999D01*
X12956000Y-71319999D02*
X20556000Y-71319999D01*
X20556000Y-67319999D02*
X12956000Y-67319999D01*
X20556000Y-71319999D02*
X20556000Y-67319999D01*
%TO.C,D130*%
X134414000Y-143519999D02*
X134414000Y-147519999D01*
X134414000Y-147519999D02*
X142014000Y-147519999D01*
X142014000Y-143519999D02*
X134414000Y-143519999D01*
X142014000Y-147519999D02*
X142014000Y-143519999D01*
%TO.C,SW46*%
X53656000Y-120550000D02*
X53656000Y-116550000D01*
X53656000Y-120550000D02*
X57356000Y-120550000D01*
X55656000Y-114550000D02*
X64456000Y-114550000D01*
X59356000Y-118550000D02*
X64456000Y-118550000D01*
X64456000Y-114550000D02*
X64456000Y-118550000D01*
X53656000Y-116550000D02*
G75*
G02*
X55656000Y-114550000I1999999J1D01*
G01*
X57356000Y-120550000D02*
G75*
G02*
X59356000Y-118550000I1999999J1D01*
G01*
%TO.C,D120*%
X170156000Y-124429999D02*
X170156000Y-128429999D01*
X170156000Y-128429999D02*
X177756000Y-128429999D01*
X177756000Y-124429999D02*
X170156000Y-124429999D01*
X177756000Y-128429999D02*
X177756000Y-124429999D01*
%TO.C,D97*%
X274895000Y-86369999D02*
X274895000Y-90369999D01*
X274895000Y-90369999D02*
X282495000Y-90369999D01*
X282495000Y-86369999D02*
X274895000Y-86369999D01*
X282495000Y-90369999D02*
X282495000Y-86369999D01*
%TO.C,SW20*%
X96482000Y-82490000D02*
X96482000Y-78490000D01*
X96482000Y-82490000D02*
X100182000Y-82490000D01*
X98482000Y-76490000D02*
X107282000Y-76490000D01*
X102182000Y-80490000D02*
X107282000Y-80490000D01*
X107282000Y-76490000D02*
X107282000Y-80490000D01*
X96482000Y-78490000D02*
G75*
G02*
X98482000Y-76490000I1999999J1D01*
G01*
X100182000Y-82490000D02*
G75*
G02*
X102182000Y-80490000I1999999J1D01*
G01*
%TO.C,SW36*%
X120326000Y-101540000D02*
X120326000Y-97540000D01*
X120326000Y-101540000D02*
X124026000Y-101540000D01*
X122326000Y-95540000D02*
X131126000Y-95540000D01*
X126026000Y-99540000D02*
X131126000Y-99540000D01*
X131126000Y-95540000D02*
X131126000Y-99540000D01*
X120326000Y-97540000D02*
G75*
G02*
X122326000Y-95540000I1999999J1D01*
G01*
X124026000Y-101540000D02*
G75*
G02*
X126026000Y-99540000I1999999J1D01*
G01*
%TO.C,SW57*%
X277556000Y-120590000D02*
X277556000Y-116590000D01*
X277556000Y-120590000D02*
X281256000Y-120590000D01*
X279556000Y-114590000D02*
X288356000Y-114590000D01*
X283256000Y-118590000D02*
X288356000Y-118590000D01*
X288356000Y-114590000D02*
X288356000Y-118590000D01*
X277556000Y-116590000D02*
G75*
G02*
X279556000Y-114590000I1999999J1D01*
G01*
X281256000Y-120590000D02*
G75*
G02*
X283256000Y-118590000I1999999J1D01*
G01*
%TO.C,D107*%
X179676000Y-105419999D02*
X179676000Y-109419999D01*
X179676000Y-109419999D02*
X187276000Y-109419999D01*
X187276000Y-105419999D02*
X179676000Y-105419999D01*
X187276000Y-109419999D02*
X187276000Y-105419999D01*
%TO.C,SW65*%
X239370000Y-139640000D02*
X239370000Y-135640000D01*
X239370000Y-139640000D02*
X243070000Y-139640000D01*
X241370000Y-133640000D02*
X250170000Y-133640000D01*
X245070000Y-137640000D02*
X250170000Y-137640000D01*
X250170000Y-133640000D02*
X250170000Y-137640000D01*
X239370000Y-135640000D02*
G75*
G02*
X241370000Y-133640000I1999999J1D01*
G01*
X243070000Y-139640000D02*
G75*
G02*
X245070000Y-137640000I1999999J1D01*
G01*
%TO.C,SW37*%
X139376000Y-101540000D02*
X139376000Y-97540000D01*
X139376000Y-101540000D02*
X143076000Y-101540000D01*
X141376000Y-95540000D02*
X150176000Y-95540000D01*
X145076000Y-99540000D02*
X150176000Y-99540000D01*
X150176000Y-95540000D02*
X150176000Y-99540000D01*
X139376000Y-97540000D02*
G75*
G02*
X141376000Y-95540000I1999999J1D01*
G01*
X143076000Y-101540000D02*
G75*
G02*
X145076000Y-99540000I1999999J1D01*
G01*
%TO.C,SW40*%
X196526000Y-101540000D02*
X196526000Y-97540000D01*
X196526000Y-101540000D02*
X200226000Y-101540000D01*
X198526000Y-95540000D02*
X207326000Y-95540000D01*
X202226000Y-99540000D02*
X207326000Y-99540000D01*
X207326000Y-95540000D02*
X207326000Y-99540000D01*
X196526000Y-97540000D02*
G75*
G02*
X198526000Y-95540000I1999999J1D01*
G01*
X200226000Y-101540000D02*
G75*
G02*
X202226000Y-99540000I1999999J1D01*
G01*
%TO.C,SW27*%
X229832000Y-82490000D02*
X229832000Y-78490000D01*
X229832000Y-82490000D02*
X233532000Y-82490000D01*
X231832000Y-76490000D02*
X240632000Y-76490000D01*
X235532000Y-80490000D02*
X240632000Y-80490000D01*
X240632000Y-76490000D02*
X240632000Y-80490000D01*
X229832000Y-78490000D02*
G75*
G02*
X231832000Y-76490000I1999999J1D01*
G01*
X233532000Y-82490000D02*
G75*
G02*
X235532000Y-80490000I1999999J1D01*
G01*
%TO.C,SW9*%
X163156000Y-63440000D02*
X163156000Y-59440000D01*
X163156000Y-63440000D02*
X166856000Y-63440000D01*
X165156000Y-57440000D02*
X173956000Y-57440000D01*
X168856000Y-61440000D02*
X173956000Y-61440000D01*
X173956000Y-57440000D02*
X173956000Y-61440000D01*
X163156000Y-59440000D02*
G75*
G02*
X165156000Y-57440000I1999999J1D01*
G01*
X166856000Y-63440000D02*
G75*
G02*
X168856000Y-61440000I1999999J1D01*
G01*
%TO.C,SW47*%
X72706000Y-120550000D02*
X72706000Y-116550000D01*
X72706000Y-120550000D02*
X76406000Y-120550000D01*
X74706000Y-114550000D02*
X83506000Y-114550000D01*
X78406000Y-118550000D02*
X83506000Y-118550000D01*
X83506000Y-114550000D02*
X83506000Y-118550000D01*
X72706000Y-116550000D02*
G75*
G02*
X74706000Y-114550000I1999999J1D01*
G01*
X76406000Y-120550000D02*
G75*
G02*
X78406000Y-118550000I1999999J1D01*
G01*
%TO.C,D66*%
X254450000Y-141290000D02*
X254450000Y-145990000D01*
X256750000Y-141290000D02*
X254450000Y-141290000D01*
X256750000Y-145990000D02*
X254450000Y-145990000D01*
X256750000Y-145990000D02*
X256750000Y-141290000D01*
%TO.C,D47*%
X68350000Y-121990000D02*
X68350000Y-126690000D01*
X70650000Y-121990000D02*
X68350000Y-121990000D01*
X70650000Y-126690000D02*
X68350000Y-126690000D01*
X70650000Y-126690000D02*
X70650000Y-121990000D01*
%TO.C,D55*%
X220650000Y-122090000D02*
X220650000Y-126790000D01*
X222950000Y-122090000D02*
X220650000Y-122090000D01*
X222950000Y-126790000D02*
X220650000Y-126790000D01*
X222950000Y-126790000D02*
X222950000Y-122090000D01*
%TO.C,D63*%
X197150000Y-141190000D02*
X197150000Y-145890000D01*
X199450000Y-141190000D02*
X197150000Y-141190000D01*
X199450000Y-145890000D02*
X197150000Y-145890000D01*
X199450000Y-145890000D02*
X199450000Y-141190000D01*
%TO.C,D12*%
X216150000Y-65190000D02*
X216150000Y-69890000D01*
X218450000Y-65190000D02*
X216150000Y-65190000D01*
X218450000Y-69890000D02*
X216150000Y-69890000D01*
X218450000Y-69890000D02*
X218450000Y-65190000D01*
%TO.C,D45*%
X18550000Y-121890000D02*
X18550000Y-126590000D01*
X20850000Y-121890000D02*
X18550000Y-121890000D01*
X20850000Y-126590000D02*
X18550000Y-126590000D01*
X20850000Y-126590000D02*
X20850000Y-121890000D01*
%TO.C,D56*%
X246450000Y-122940000D02*
X246450000Y-127640000D01*
X248750000Y-122940000D02*
X246450000Y-122940000D01*
X248750000Y-127640000D02*
X246450000Y-127640000D01*
X248750000Y-127640000D02*
X248750000Y-122940000D01*
%TO.C,D37*%
X135700000Y-103290000D02*
X135700000Y-107990000D01*
X138000000Y-103290000D02*
X135700000Y-103290000D01*
X138000000Y-107990000D02*
X135700000Y-107990000D01*
X138000000Y-107990000D02*
X138000000Y-103290000D01*
%TO.C,D67*%
X273650000Y-141490000D02*
X273650000Y-146190000D01*
X275950000Y-141490000D02*
X273650000Y-141490000D01*
X275950000Y-146190000D02*
X273650000Y-146190000D01*
X275950000Y-146190000D02*
X275950000Y-141490000D01*
%TO.C,D19*%
X73650000Y-84690000D02*
X73650000Y-89390000D01*
X75950000Y-84690000D02*
X73650000Y-84690000D01*
X75950000Y-89390000D02*
X73650000Y-89390000D01*
X75950000Y-89390000D02*
X75950000Y-84690000D01*
%TO.C,D3*%
X45150000Y-64490000D02*
X45150000Y-69190000D01*
X47450000Y-64490000D02*
X45150000Y-64490000D01*
X47450000Y-69190000D02*
X45150000Y-69190000D01*
X47450000Y-69190000D02*
X47450000Y-64490000D01*
%TO.C,D23*%
X149550000Y-84390000D02*
X149550000Y-89090000D01*
X151850000Y-84390000D02*
X149550000Y-84390000D01*
X151850000Y-89090000D02*
X149550000Y-89090000D01*
X151850000Y-89090000D02*
X151850000Y-84390000D01*
%TO.C,D31*%
X13950000Y-102940000D02*
X13950000Y-107640000D01*
X16250000Y-102940000D02*
X13950000Y-102940000D01*
X16250000Y-107640000D02*
X13950000Y-107640000D01*
X16250000Y-107640000D02*
X16250000Y-102940000D01*
%TO.C,D14*%
X263950000Y-65090000D02*
X263950000Y-69790000D01*
X266250000Y-65090000D02*
X263950000Y-65090000D01*
X266250000Y-69790000D02*
X263950000Y-69790000D01*
X266250000Y-69790000D02*
X266250000Y-65090000D01*
%TO.C,D64*%
X216250000Y-141190000D02*
X216250000Y-145890000D01*
X218550000Y-141190000D02*
X216250000Y-141190000D01*
X218550000Y-145890000D02*
X216250000Y-145890000D01*
X218550000Y-145890000D02*
X218550000Y-141190000D01*
%TO.C,D21*%
X111350000Y-84390000D02*
X111350000Y-89090000D01*
X113650000Y-84390000D02*
X111350000Y-84390000D01*
X113650000Y-89090000D02*
X111350000Y-89090000D01*
X113650000Y-89090000D02*
X113650000Y-84390000D01*
%TO.C,D52*%
X163650000Y-121790000D02*
X163650000Y-126490000D01*
X165950000Y-121790000D02*
X163650000Y-121790000D01*
X165950000Y-126490000D02*
X163650000Y-126490000D01*
X165950000Y-126490000D02*
X165950000Y-121790000D01*
%TO.C,D10*%
X177850000Y-65190000D02*
X177850000Y-69890000D01*
X180150000Y-65190000D02*
X177850000Y-65190000D01*
X180150000Y-69890000D02*
X177850000Y-69890000D01*
X180150000Y-69890000D02*
X180150000Y-65190000D01*
%TO.C,D30*%
X292250000Y-84240000D02*
X292250000Y-88940000D01*
X294550000Y-84240000D02*
X292250000Y-84240000D01*
X294550000Y-88940000D02*
X292250000Y-88940000D01*
X294550000Y-88940000D02*
X294550000Y-84240000D01*
%TO.C,D50*%
X125450000Y-122090000D02*
X125450000Y-126790000D01*
X127750000Y-122090000D02*
X125450000Y-122090000D01*
X127750000Y-126790000D02*
X125450000Y-126790000D01*
X127750000Y-126790000D02*
X127750000Y-122090000D01*
%TO.C,D46*%
X49550000Y-122090000D02*
X49550000Y-126790000D01*
X51850000Y-122090000D02*
X49550000Y-122090000D01*
X51850000Y-126790000D02*
X49550000Y-126790000D01*
X51850000Y-126790000D02*
X51850000Y-122090000D01*
%TO.C,D39*%
X173650000Y-103290000D02*
X173650000Y-107990000D01*
X175950000Y-103290000D02*
X173650000Y-103290000D01*
X175950000Y-107990000D02*
X173650000Y-107990000D01*
X175950000Y-107990000D02*
X175950000Y-103290000D01*
%TO.C,D7*%
X120850000Y-64790000D02*
X120850000Y-69490000D01*
X123150000Y-64790000D02*
X120850000Y-64790000D01*
X123150000Y-69490000D02*
X120850000Y-69490000D01*
X123150000Y-69490000D02*
X123150000Y-64790000D01*
%TO.C,D44*%
X292650000Y-102890000D02*
X292650000Y-107590000D01*
X294950000Y-102890000D02*
X292650000Y-102890000D01*
X294950000Y-107590000D02*
X292650000Y-107590000D01*
X294950000Y-107590000D02*
X294950000Y-102890000D01*
%TO.C,D34*%
X78450000Y-103190000D02*
X78450000Y-107890000D01*
X80750000Y-103190000D02*
X78450000Y-103190000D01*
X80750000Y-107890000D02*
X78450000Y-107890000D01*
X80750000Y-107890000D02*
X80750000Y-103190000D01*
%TO.C,D29*%
X268850000Y-84340000D02*
X268850000Y-89040000D01*
X271150000Y-84340000D02*
X268850000Y-84340000D01*
X271150000Y-89040000D02*
X268850000Y-89040000D01*
X271150000Y-89040000D02*
X271150000Y-84340000D01*
%TO.C,D42*%
X230850000Y-103190000D02*
X230850000Y-107890000D01*
X233150000Y-103190000D02*
X230850000Y-103190000D01*
X233150000Y-107890000D02*
X230850000Y-107890000D01*
X233150000Y-107890000D02*
X233150000Y-103190000D01*
%TO.C,D53*%
X182550000Y-121890000D02*
X182550000Y-126590000D01*
X184850000Y-121890000D02*
X182550000Y-121890000D01*
X184850000Y-126590000D02*
X182550000Y-126590000D01*
X184850000Y-126590000D02*
X184850000Y-121890000D01*
%TO.C,D8*%
X139750000Y-64690000D02*
X139750000Y-69390000D01*
X142050000Y-64690000D02*
X139750000Y-64690000D01*
X142050000Y-69390000D02*
X139750000Y-69390000D01*
X142050000Y-69390000D02*
X142050000Y-64690000D01*
%TO.C,D2*%
X25650000Y-64150000D02*
X25650000Y-68850000D01*
X27950000Y-64150000D02*
X25650000Y-64150000D01*
X27950000Y-68850000D02*
X25650000Y-68850000D01*
X27950000Y-68850000D02*
X27950000Y-64150000D01*
%TO.C,D16*%
X11750000Y-84640000D02*
X11750000Y-89340000D01*
X14050000Y-84640000D02*
X11750000Y-84640000D01*
X14050000Y-89340000D02*
X11750000Y-89340000D01*
X14050000Y-89340000D02*
X14050000Y-84640000D01*
%TO.C,D65*%
X235450000Y-141390000D02*
X235450000Y-146090000D01*
X237750000Y-141390000D02*
X235450000Y-141390000D01*
X237750000Y-146090000D02*
X235450000Y-146090000D01*
X237750000Y-146090000D02*
X237750000Y-141390000D01*
%TO.C,D33*%
X59250000Y-102790000D02*
X59250000Y-107490000D01*
X61550000Y-102790000D02*
X59250000Y-102790000D01*
X61550000Y-107490000D02*
X59250000Y-107490000D01*
X61550000Y-107490000D02*
X61550000Y-102790000D01*
%TO.C,D59*%
X9400000Y-140740000D02*
X9400000Y-145440000D01*
X11700000Y-140740000D02*
X9400000Y-140740000D01*
X11700000Y-145440000D02*
X9400000Y-145440000D01*
X11700000Y-145440000D02*
X11700000Y-140740000D01*
%TO.C,D38*%
X154550000Y-103190000D02*
X154550000Y-107890000D01*
X156850000Y-103190000D02*
X154550000Y-103190000D01*
X156850000Y-107890000D02*
X154550000Y-107890000D01*
X156850000Y-107890000D02*
X156850000Y-103190000D01*
%TO.C,D20*%
X92350000Y-84490000D02*
X92350000Y-89190000D01*
X94650000Y-84490000D02*
X92350000Y-84490000D01*
X94650000Y-89190000D02*
X92350000Y-89190000D01*
X94650000Y-89190000D02*
X94650000Y-84490000D01*
%TO.C,D9*%
X158950000Y-64790000D02*
X158950000Y-69490000D01*
X161250000Y-64790000D02*
X158950000Y-64790000D01*
X161250000Y-69490000D02*
X158950000Y-69490000D01*
X161250000Y-69490000D02*
X161250000Y-64790000D01*
%TO.C,D17*%
X35550000Y-84540000D02*
X35550000Y-89240000D01*
X37850000Y-84540000D02*
X35550000Y-84540000D01*
X37850000Y-89240000D02*
X35550000Y-89240000D01*
X37850000Y-89240000D02*
X37850000Y-84540000D01*
%TO.C,D60*%
X33150000Y-140990000D02*
X33150000Y-145690000D01*
X35450000Y-140990000D02*
X33150000Y-140990000D01*
X35450000Y-145690000D02*
X33150000Y-145690000D01*
X35450000Y-145690000D02*
X35450000Y-140990000D01*
%TO.C,D61*%
X56900000Y-141540000D02*
X56900000Y-146240000D01*
X59200000Y-141540000D02*
X56900000Y-141540000D01*
X59200000Y-146240000D02*
X56900000Y-146240000D01*
X59200000Y-146240000D02*
X59200000Y-141540000D01*
%TO.C,D41*%
X211950000Y-103290000D02*
X211950000Y-107990000D01*
X214250000Y-103290000D02*
X211950000Y-103290000D01*
X214250000Y-107990000D02*
X211950000Y-107990000D01*
X214250000Y-107990000D02*
X214250000Y-103290000D01*
%TO.C,D26*%
X206950000Y-84290000D02*
X206950000Y-88990000D01*
X209250000Y-84290000D02*
X206950000Y-84290000D01*
X209250000Y-88990000D02*
X206950000Y-88990000D01*
X209250000Y-88990000D02*
X209250000Y-84290000D01*
%TO.C,D13*%
X235750000Y-64990000D02*
X235750000Y-69690000D01*
X238050000Y-64990000D02*
X235750000Y-64990000D01*
X238050000Y-69690000D02*
X235750000Y-69690000D01*
X238050000Y-69690000D02*
X238050000Y-64990000D01*
%TO.C,D35*%
X97250000Y-103290000D02*
X97250000Y-107990000D01*
X99550000Y-103290000D02*
X97250000Y-103290000D01*
X99550000Y-107990000D02*
X97250000Y-107990000D01*
X99550000Y-107990000D02*
X99550000Y-103290000D01*
%TO.C,A1*%
X-500000Y-50052500D02*
X-9500000Y-50052500D01*
X-9500000Y-51602500D01*
X-16540000Y-51602500D01*
X-16540000Y-103902500D01*
X6540000Y-103902500D01*
X6540000Y-51602500D01*
X-500000Y-51602500D01*
X-500000Y-50052500D01*
%TO.C,D15*%
X292550000Y-65490000D02*
X292550000Y-70190000D01*
X294850000Y-65490000D02*
X292550000Y-65490000D01*
X294850000Y-70190000D02*
X292550000Y-70190000D01*
X294850000Y-70190000D02*
X294850000Y-65490000D01*
%TO.C,D51*%
X144650000Y-121890000D02*
X144650000Y-126590000D01*
X146950000Y-121890000D02*
X144650000Y-121890000D01*
X146950000Y-126590000D02*
X144650000Y-126590000D01*
X146950000Y-126590000D02*
X146950000Y-121890000D01*
%TO.C,D5*%
X83250000Y-64590000D02*
X83250000Y-69290000D01*
X85550000Y-64590000D02*
X83250000Y-64590000D01*
X85550000Y-69290000D02*
X83250000Y-69290000D01*
X85550000Y-69290000D02*
X85550000Y-64590000D01*
%TO.C,D54*%
X201650000Y-122090000D02*
X201650000Y-126790000D01*
X203950000Y-122090000D02*
X201650000Y-122090000D01*
X203950000Y-126790000D02*
X201650000Y-126790000D01*
X203950000Y-126790000D02*
X203950000Y-122090000D01*
%TO.C,D18*%
X54750000Y-84590000D02*
X54750000Y-89290000D01*
X57050000Y-84590000D02*
X54750000Y-84590000D01*
X57050000Y-89290000D02*
X54750000Y-89290000D01*
X57050000Y-89290000D02*
X57050000Y-84590000D01*
%TO.C,D36*%
X116650000Y-103190000D02*
X116650000Y-107890000D01*
X118950000Y-103190000D02*
X116650000Y-103190000D01*
X118950000Y-107890000D02*
X116650000Y-107890000D01*
X118950000Y-107890000D02*
X118950000Y-103190000D01*
%TO.C,D40*%
X192550000Y-103290000D02*
X192550000Y-107990000D01*
X194850000Y-103290000D02*
X192550000Y-103290000D01*
X194850000Y-107990000D02*
X192550000Y-107990000D01*
X194850000Y-107990000D02*
X194850000Y-103290000D01*
%TO.C,D57*%
X273000000Y-121940000D02*
X273000000Y-126640000D01*
X275300000Y-121940000D02*
X273000000Y-121940000D01*
X275300000Y-126640000D02*
X273000000Y-126640000D01*
X275300000Y-126640000D02*
X275300000Y-121940000D01*
%TO.C,D27*%
X225850000Y-84190000D02*
X225850000Y-88890000D01*
X228150000Y-84190000D02*
X225850000Y-84190000D01*
X228150000Y-88890000D02*
X225850000Y-88890000D01*
X228150000Y-88890000D02*
X228150000Y-84190000D01*
%TO.C,D43*%
X261450000Y-102990000D02*
X261450000Y-107690000D01*
X263750000Y-102990000D02*
X261450000Y-102990000D01*
X263750000Y-107690000D02*
X261450000Y-107690000D01*
X263750000Y-107690000D02*
X263750000Y-102990000D01*
%TO.C,D4*%
X63950000Y-64590000D02*
X63950000Y-69290000D01*
X66250000Y-64590000D02*
X63950000Y-64590000D01*
X66250000Y-69290000D02*
X63950000Y-69290000D01*
X66250000Y-69290000D02*
X66250000Y-64590000D01*
%TO.C,D58*%
X292650000Y-122090000D02*
X292650000Y-126790000D01*
X294950000Y-122090000D02*
X292650000Y-122090000D01*
X294950000Y-126790000D02*
X292650000Y-126790000D01*
X294950000Y-126790000D02*
X294950000Y-122090000D01*
%TO.C,D68*%
X292550000Y-141490000D02*
X292550000Y-146190000D01*
X294850000Y-141490000D02*
X292550000Y-141490000D01*
X294850000Y-146190000D02*
X292550000Y-146190000D01*
X294850000Y-146190000D02*
X294850000Y-141490000D01*
%TO.C,D22*%
X130450000Y-84390000D02*
X130450000Y-89090000D01*
X132750000Y-84390000D02*
X130450000Y-84390000D01*
X132750000Y-89090000D02*
X130450000Y-89090000D01*
X132750000Y-89090000D02*
X132750000Y-84390000D01*
%TO.C,D6*%
X102150000Y-64690000D02*
X102150000Y-69390000D01*
X104450000Y-64690000D02*
X102150000Y-64690000D01*
X104450000Y-69390000D02*
X102150000Y-69390000D01*
X104450000Y-69390000D02*
X104450000Y-64690000D01*
%TO.C,D62*%
X128650000Y-140990000D02*
X128650000Y-145690000D01*
X130950000Y-140990000D02*
X128650000Y-140990000D01*
X130950000Y-145690000D02*
X128650000Y-145690000D01*
X130950000Y-145690000D02*
X130950000Y-140990000D01*
%TO.C,D32*%
X40150000Y-103090000D02*
X40150000Y-107790000D01*
X42450000Y-103090000D02*
X40150000Y-103090000D01*
X42450000Y-107790000D02*
X40150000Y-107790000D01*
X42450000Y-107790000D02*
X42450000Y-103090000D01*
%TO.C,D28*%
X245050000Y-84090000D02*
X245050000Y-88790000D01*
X247350000Y-84090000D02*
X245050000Y-84090000D01*
X247350000Y-88790000D02*
X245050000Y-88790000D01*
X247350000Y-88790000D02*
X247350000Y-84090000D01*
%TO.C,D11*%
X196950000Y-65190000D02*
X196950000Y-69890000D01*
X199250000Y-65190000D02*
X196950000Y-65190000D01*
X199250000Y-69890000D02*
X196950000Y-69890000D01*
X199250000Y-69890000D02*
X199250000Y-65190000D01*
%TO.C,D1*%
X7450000Y-63950000D02*
X7450000Y-68650000D01*
X9750000Y-63950000D02*
X7450000Y-63950000D01*
X9750000Y-68650000D02*
X7450000Y-68650000D01*
X9750000Y-68650000D02*
X9750000Y-63950000D01*
%TO.C,D48*%
X87850000Y-121990000D02*
X87850000Y-126690000D01*
X90150000Y-121990000D02*
X87850000Y-121990000D01*
X90150000Y-126690000D02*
X87850000Y-126690000D01*
X90150000Y-126690000D02*
X90150000Y-121990000D01*
%TO.C,D24*%
X169050000Y-84990000D02*
X169050000Y-89690000D01*
X171350000Y-84990000D02*
X169050000Y-84990000D01*
X171350000Y-89690000D02*
X169050000Y-89690000D01*
X171350000Y-89690000D02*
X171350000Y-84990000D01*
%TO.C,D49*%
X106750000Y-121990000D02*
X106750000Y-126690000D01*
X109050000Y-121990000D02*
X106750000Y-121990000D01*
X109050000Y-126690000D02*
X106750000Y-126690000D01*
X109050000Y-126690000D02*
X109050000Y-121990000D01*
%TO.C,D25*%
X187600000Y-84290000D02*
X187600000Y-88990000D01*
X189900000Y-84290000D02*
X187600000Y-84290000D01*
X189900000Y-88990000D02*
X187600000Y-88990000D01*
X189900000Y-88990000D02*
X189900000Y-84290000D01*
%TD*%
M02*
