%TF.GenerationSoftware,KiCad,Pcbnew,10.0.3*%
%TF.CreationDate,2026-07-02T12:34:20+05:30*%
%TF.ProjectId,pcb,7063622e-6b69-4636-9164-5f7063625858,rev?*%
%TF.SameCoordinates,Original*%
%TF.FileFunction,Soldermask,Top*%
%TF.FilePolarity,Negative*%
%FSLAX46Y46*%
G04 Gerber Fmt 4.6, Leading zero omitted, Abs format (unit mm)*
G04 Created by KiCad (PCBNEW 10.0.3) date 2026-07-02 12:34:20*
%MOMM*%
%LPD*%
G01*
G04 APERTURE LIST*
G04 Aperture macros list*
%AMRoundRect*
0 Rectangle with rounded corners*
0 $1 Rounding radius*
0 $2 $3 $4 $5 $6 $7 $8 $9 X,Y pos of 4 corners*
0 Add a 4 corners polygon primitive as box body*
4,1,4,$2,$3,$4,$5,$6,$7,$8,$9,$2,$3,0*
0 Add four circle primitives for the rounded corners*
1,1,$1+$1,$2,$3*
1,1,$1+$1,$4,$5*
1,1,$1+$1,$6,$7*
1,1,$1+$1,$8,$9*
0 Add four rect primitives between the rounded corners*
20,1,$1+$1,$2,$3,$4,$5,0*
20,1,$1+$1,$4,$5,$6,$7,0*
20,1,$1+$1,$6,$7,$8,$9,0*
20,1,$1+$1,$8,$9,$2,$3,0*%
%AMFreePoly0*
4,1,37,0.603843,0.796157,0.639018,0.796157,0.711114,0.766294,0.766294,0.711114,0.796157,0.639018,0.796157,0.603843,0.800000,0.600000,0.800000,-0.600000,0.796157,-0.603843,0.796157,-0.639018,0.766294,-0.711114,0.711114,-0.766294,0.639018,-0.796157,0.603843,-0.796157,0.600000,-0.800000,0.000000,-0.800000,0.000000,-0.796148,-0.078414,-0.796148,-0.232228,-0.765552,-0.377117,-0.705537,
-0.507515,-0.618408,-0.618408,-0.507515,-0.705537,-0.377117,-0.765552,-0.232228,-0.796148,-0.078414,-0.796148,0.078414,-0.765552,0.232228,-0.705537,0.377117,-0.618408,0.507515,-0.507515,0.618408,-0.377117,0.705537,-0.232228,0.765552,-0.078414,0.796148,0.000000,0.796148,0.000000,0.800000,0.600000,0.800000,0.603843,0.796157,0.603843,0.796157,$1*%
%AMFreePoly1*
4,1,37,0.000000,0.796148,0.078414,0.796148,0.232228,0.765552,0.377117,0.705537,0.507515,0.618408,0.618408,0.507515,0.705537,0.377117,0.765552,0.232228,0.796148,0.078414,0.796148,-0.078414,0.765552,-0.232228,0.705537,-0.377117,0.618408,-0.507515,0.507515,-0.618408,0.377117,-0.705537,0.232228,-0.765552,0.078414,-0.796148,0.000000,-0.796148,0.000000,-0.800000,-0.600000,-0.800000,
-0.603843,-0.796157,-0.639018,-0.796157,-0.711114,-0.766294,-0.766294,-0.711114,-0.796157,-0.639018,-0.796157,-0.603843,-0.800000,-0.600000,-0.800000,0.600000,-0.796157,0.603843,-0.796157,0.639018,-0.766294,0.711114,-0.711114,0.766294,-0.639018,0.796157,-0.603843,0.796157,-0.600000,0.800000,0.000000,0.800000,0.000000,0.796148,0.000000,0.796148,$1*%
G04 Aperture macros list end*
%ADD10C,3.048000*%
%ADD11C,3.987800*%
%ADD12C,1.750000*%
%ADD13C,3.050000*%
%ADD14C,4.000000*%
%ADD15C,3.200000*%
%ADD16C,1.600000*%
%ADD17RoundRect,0.200000X0.600000X0.600000X-0.600000X0.600000X-0.600000X-0.600000X0.600000X-0.600000X0*%
%ADD18FreePoly0,180.000000*%
%ADD19FreePoly1,180.000000*%
G04 APERTURE END LIST*
D10*
%TO.C,REF\u002A\u002A*%
X16789750Y-114365000D03*
D11*
X16789750Y-129605000D03*
D10*
X40602250Y-114365000D03*
D11*
X40602250Y-129605000D03*
%TD*%
D12*
%TO.C,SW49*%
X111726000Y-121350000D03*
D13*
X112996000Y-118810000D03*
D14*
X116806000Y-121350000D03*
D13*
X119346000Y-116270000D03*
D12*
X121886000Y-121350000D03*
%TD*%
%TO.C,SW38*%
X159346000Y-102340000D03*
D13*
X160616000Y-99800000D03*
D14*
X164426000Y-102340000D03*
D13*
X166966000Y-97260000D03*
D12*
X169506000Y-102340000D03*
%TD*%
%TO.C,SW7*%
X125976000Y-64240000D03*
D13*
X127246000Y-61700000D03*
D14*
X131056000Y-64240000D03*
D13*
X133596000Y-59160000D03*
D12*
X136136000Y-64240000D03*
%TD*%
D15*
%TO.C,H6*%
X140600000Y-54240000D03*
%TD*%
D12*
%TO.C,SW60*%
X37916000Y-140430000D03*
D13*
X39186000Y-137890000D03*
D14*
X42996000Y-140430000D03*
D13*
X45536000Y-135350000D03*
D12*
X48076000Y-140430000D03*
%TD*%
%TO.C,SW44*%
X297526000Y-102340000D03*
D13*
X298796000Y-99800000D03*
D14*
X302606000Y-102340000D03*
D13*
X305146000Y-97260000D03*
D12*
X307686000Y-102340000D03*
%TD*%
%TO.C,SW13*%
X240276000Y-64240000D03*
D13*
X241546000Y-61700000D03*
D14*
X245356000Y-64240000D03*
D13*
X247896000Y-59160000D03*
D12*
X250436000Y-64240000D03*
%TD*%
%TO.C,SW39*%
X178396000Y-102340000D03*
D13*
X179666000Y-99800000D03*
D14*
X183476000Y-102340000D03*
D13*
X186016000Y-97260000D03*
D12*
X188556000Y-102340000D03*
%TD*%
%TO.C,SW19*%
X78352000Y-83290000D03*
D13*
X79622000Y-80750000D03*
D14*
X83432000Y-83290000D03*
D13*
X85972000Y-78210000D03*
D12*
X88512000Y-83290000D03*
%TD*%
D10*
%TO.C,REF\u002A\u002A*%
X88207750Y-133455000D03*
D11*
X88207750Y-148695000D03*
D10*
X188220250Y-133455000D03*
D11*
X188220250Y-148695000D03*
%TD*%
D12*
%TO.C,SW54*%
X206976000Y-121350000D03*
D13*
X208246000Y-118810000D03*
D14*
X212056000Y-121350000D03*
D13*
X214596000Y-116270000D03*
D12*
X217136000Y-121350000D03*
%TD*%
%TO.C,SW32*%
X45046000Y-102340000D03*
D13*
X46316000Y-99800000D03*
D14*
X50126000Y-102340000D03*
D13*
X52666000Y-97260000D03*
D12*
X55206000Y-102340000D03*
%TD*%
D16*
%TO.C,R1*%
X-19300000Y-90500000D03*
X-19300000Y-80340000D03*
%TD*%
D12*
%TO.C,SW48*%
X92676000Y-121350000D03*
D13*
X93946000Y-118810000D03*
D14*
X97756000Y-121350000D03*
D13*
X100296000Y-116270000D03*
D12*
X102836000Y-121350000D03*
%TD*%
%TO.C,SW55*%
X226026000Y-121350000D03*
D13*
X227296000Y-118810000D03*
D14*
X231106000Y-121350000D03*
D13*
X233646000Y-116270000D03*
D12*
X236186000Y-121350000D03*
%TD*%
%TO.C,SW63*%
X202190000Y-140440000D03*
D13*
X203460000Y-137900000D03*
D14*
X207270000Y-140440000D03*
D13*
X209810000Y-135360000D03*
D12*
X212350000Y-140440000D03*
%TD*%
%TO.C,SW42*%
X235546000Y-102340000D03*
D13*
X236816000Y-99800000D03*
D14*
X240626000Y-102340000D03*
D13*
X243166000Y-97260000D03*
D12*
X245706000Y-102340000D03*
%TD*%
D10*
%TO.C,REF\u002A\u002A*%
X262074750Y-57255000D03*
D11*
X262074750Y-72495000D03*
D10*
X285887250Y-57255000D03*
D11*
X285887250Y-72495000D03*
%TD*%
D12*
%TO.C,SW58*%
X297526000Y-121390000D03*
D13*
X298796000Y-118850000D03*
D14*
X302606000Y-121390000D03*
D13*
X305146000Y-116310000D03*
D12*
X307686000Y-121390000D03*
%TD*%
%TO.C,SW24*%
X173602000Y-83290000D03*
D13*
X174872000Y-80750000D03*
D14*
X178682000Y-83290000D03*
D13*
X181222000Y-78210000D03*
D12*
X183762000Y-83290000D03*
%TD*%
%TO.C,SW5*%
X87876000Y-64240000D03*
D13*
X89146000Y-61700000D03*
D14*
X92956000Y-64240000D03*
D13*
X95496000Y-59160000D03*
D12*
X98036000Y-64240000D03*
%TD*%
%TO.C,SW31*%
X18848500Y-102320000D03*
D13*
X20118500Y-99780000D03*
D14*
X23928500Y-102320000D03*
D13*
X26468500Y-97240000D03*
D12*
X29008500Y-102320000D03*
%TD*%
%TO.C,SW15*%
X297526000Y-64240000D03*
D13*
X298796000Y-61700000D03*
D14*
X302606000Y-64240000D03*
D13*
X305146000Y-59160000D03*
D12*
X307686000Y-64240000D03*
%TD*%
%TO.C,SW30*%
X297526000Y-83290000D03*
D13*
X298796000Y-80750000D03*
D14*
X302606000Y-83290000D03*
D13*
X305146000Y-78210000D03*
D12*
X307686000Y-83290000D03*
%TD*%
%TO.C,SW35*%
X102196000Y-102340000D03*
D13*
X103466000Y-99800000D03*
D14*
X107276000Y-102340000D03*
D13*
X109816000Y-97260000D03*
D12*
X112356000Y-102340000D03*
%TD*%
D15*
%TO.C,H5*%
X244400000Y-117040000D03*
%TD*%
D12*
%TO.C,SW14*%
X268901000Y-64240000D03*
D13*
X270171000Y-61700000D03*
D14*
X273981000Y-64240000D03*
D13*
X276521000Y-59160000D03*
D12*
X279061000Y-64240000D03*
%TD*%
D15*
%TO.C,H2*%
X-19800000Y-147740000D03*
%TD*%
%TO.C,H3*%
X313850000Y-55190000D03*
%TD*%
D12*
%TO.C,SW33*%
X64096000Y-102340000D03*
D13*
X65366000Y-99800000D03*
D14*
X69176000Y-102340000D03*
D13*
X71716000Y-97260000D03*
D12*
X74256000Y-102340000D03*
%TD*%
%TO.C,SW50*%
X130776000Y-121350000D03*
D13*
X132046000Y-118810000D03*
D14*
X135856000Y-121350000D03*
D13*
X138396000Y-116270000D03*
D12*
X140936000Y-121350000D03*
%TD*%
%TO.C,SW66*%
X259340000Y-140440000D03*
D13*
X260610000Y-137900000D03*
D14*
X264420000Y-140440000D03*
D13*
X266960000Y-135360000D03*
D12*
X269500000Y-140440000D03*
%TD*%
%TO.C,SW21*%
X116452000Y-83290000D03*
D13*
X117722000Y-80750000D03*
D14*
X121532000Y-83290000D03*
D13*
X124072000Y-78210000D03*
D12*
X126612000Y-83290000D03*
%TD*%
%TO.C,SW12*%
X221226000Y-64240000D03*
D13*
X222496000Y-61700000D03*
D14*
X226306000Y-64240000D03*
D13*
X228846000Y-59160000D03*
D12*
X231386000Y-64240000D03*
%TD*%
D15*
%TO.C,H1*%
X-20000000Y-55140000D03*
%TD*%
D12*
%TO.C,SW2*%
X30726000Y-64240000D03*
D13*
X31996000Y-61700000D03*
D14*
X35806000Y-64240000D03*
D13*
X38346000Y-59160000D03*
D12*
X40886000Y-64240000D03*
%TD*%
%TO.C,SW28*%
X249802000Y-83290000D03*
D13*
X251072000Y-80750000D03*
D14*
X254882000Y-83290000D03*
D13*
X257422000Y-78210000D03*
D12*
X259962000Y-83290000D03*
%TD*%
%TO.C,SW10*%
X183126000Y-64240000D03*
D13*
X184396000Y-61700000D03*
D14*
X188206000Y-64240000D03*
D13*
X190746000Y-59160000D03*
D12*
X193286000Y-64240000D03*
%TD*%
%TO.C,SW25*%
X192652000Y-83290000D03*
D13*
X193922000Y-80750000D03*
D14*
X197732000Y-83290000D03*
D13*
X200272000Y-78210000D03*
D12*
X202812000Y-83290000D03*
%TD*%
%TO.C,SW67*%
X278390000Y-140440000D03*
D13*
X279660000Y-137900000D03*
D14*
X283470000Y-140440000D03*
D13*
X286010000Y-135360000D03*
D12*
X288550000Y-140440000D03*
%TD*%
%TO.C,SW62*%
X133134000Y-140440000D03*
D13*
X134404000Y-137900000D03*
D14*
X138214000Y-140440000D03*
D13*
X140754000Y-135360000D03*
D12*
X143294000Y-140440000D03*
%TD*%
%TO.C,SW52*%
X168876000Y-121350000D03*
D13*
X170146000Y-118810000D03*
D14*
X173956000Y-121350000D03*
D13*
X176496000Y-116270000D03*
D12*
X179036000Y-121350000D03*
%TD*%
D15*
%TO.C,H5*%
X153300000Y-142040000D03*
%TD*%
D12*
%TO.C,SW59*%
X14096000Y-140420000D03*
D13*
X15366000Y-137880000D03*
D14*
X19176000Y-140420000D03*
D13*
X21716000Y-135340000D03*
D12*
X24256000Y-140420000D03*
%TD*%
%TO.C,SW61*%
X61696000Y-140440000D03*
D13*
X62966000Y-137900000D03*
D14*
X66776000Y-140440000D03*
D13*
X69316000Y-135360000D03*
D12*
X71856000Y-140440000D03*
%TD*%
%TO.C,SW22*%
X135502000Y-83290000D03*
D13*
X136772000Y-80750000D03*
D14*
X140582000Y-83290000D03*
D13*
X143122000Y-78210000D03*
D12*
X145662000Y-83290000D03*
%TD*%
%TO.C,SW41*%
X216496000Y-102340000D03*
D13*
X217766000Y-99800000D03*
D14*
X221576000Y-102340000D03*
D13*
X224116000Y-97260000D03*
D12*
X226656000Y-102340000D03*
%TD*%
%TO.C,SW3*%
X49776000Y-64240000D03*
D13*
X51046000Y-61700000D03*
D14*
X54856000Y-64240000D03*
D13*
X57396000Y-59160000D03*
D12*
X59936000Y-64240000D03*
%TD*%
%TO.C,SW64*%
X221240000Y-140440000D03*
D13*
X222510000Y-137900000D03*
D14*
X226320000Y-140440000D03*
D13*
X228860000Y-135360000D03*
D12*
X231400000Y-140440000D03*
%TD*%
%TO.C,SW17*%
X40252000Y-83290000D03*
D13*
X41522000Y-80750000D03*
D14*
X45332000Y-83290000D03*
D13*
X47872000Y-78210000D03*
D12*
X50412000Y-83290000D03*
%TD*%
%TO.C,SW11*%
X202176000Y-64240000D03*
D13*
X203446000Y-61700000D03*
D14*
X207256000Y-64240000D03*
D13*
X209796000Y-59160000D03*
D12*
X212336000Y-64240000D03*
%TD*%
%TO.C,SW68*%
X297440000Y-140440000D03*
D13*
X298710000Y-137900000D03*
D14*
X302520000Y-140440000D03*
D13*
X305060000Y-135360000D03*
D12*
X307600000Y-140440000D03*
%TD*%
%TO.C,SW4*%
X68826000Y-64240000D03*
D13*
X70096000Y-61700000D03*
D14*
X73906000Y-64240000D03*
D13*
X76446000Y-59160000D03*
D12*
X78986000Y-64240000D03*
%TD*%
%TO.C,SW29*%
X273615000Y-83290000D03*
D13*
X274885000Y-80750000D03*
D14*
X278695000Y-83290000D03*
D13*
X281235000Y-78210000D03*
D12*
X283775000Y-83290000D03*
%TD*%
%TO.C,SW8*%
X145026000Y-64240000D03*
D13*
X146296000Y-61700000D03*
D14*
X150106000Y-64240000D03*
D13*
X152646000Y-59160000D03*
D12*
X155186000Y-64240000D03*
%TD*%
%TO.C,SW18*%
X59302000Y-83290000D03*
D13*
X60572000Y-80750000D03*
D14*
X64382000Y-83290000D03*
D13*
X66922000Y-78210000D03*
D12*
X69462000Y-83290000D03*
%TD*%
%TO.C,SW56*%
X252320000Y-121440000D03*
D13*
X253590000Y-118900000D03*
D14*
X257400000Y-121440000D03*
D13*
X259940000Y-116360000D03*
D12*
X262480000Y-121440000D03*
%TD*%
%TO.C,SW26*%
X211702000Y-83290000D03*
D13*
X212972000Y-80750000D03*
D14*
X216782000Y-83290000D03*
D13*
X219322000Y-78210000D03*
D12*
X221862000Y-83290000D03*
%TD*%
%TO.C,SW1*%
X11676000Y-64240000D03*
D13*
X12946000Y-61700000D03*
D14*
X16756000Y-64240000D03*
D13*
X19296000Y-59160000D03*
D12*
X21836000Y-64240000D03*
%TD*%
%TO.C,SW53*%
X187926000Y-121350000D03*
D13*
X189196000Y-118810000D03*
D14*
X193006000Y-121350000D03*
D13*
X195546000Y-116270000D03*
D12*
X198086000Y-121350000D03*
%TD*%
D15*
%TO.C,H4*%
X313840000Y-148080000D03*
%TD*%
D12*
%TO.C,SW6*%
X106926000Y-64240000D03*
D13*
X108196000Y-61700000D03*
D14*
X112006000Y-64240000D03*
D13*
X114546000Y-59160000D03*
D12*
X117086000Y-64240000D03*
%TD*%
D10*
%TO.C,REF\u002A\u002A*%
X259679750Y-95345000D03*
D11*
X259679750Y-110585000D03*
D10*
X283492250Y-95345000D03*
D11*
X283492250Y-110585000D03*
%TD*%
D12*
%TO.C,SW34*%
X83146000Y-102340000D03*
D13*
X84416000Y-99800000D03*
D14*
X88226000Y-102340000D03*
D13*
X90766000Y-97260000D03*
D12*
X93306000Y-102340000D03*
%TD*%
%TO.C,SW16*%
X16439000Y-83290000D03*
D13*
X17709000Y-80750000D03*
D14*
X21519000Y-83290000D03*
D13*
X24059000Y-78210000D03*
D12*
X26599000Y-83290000D03*
%TD*%
%TO.C,SW45*%
X23616000Y-121350000D03*
D13*
X24886000Y-118810000D03*
D14*
X28696000Y-121350000D03*
D13*
X31236000Y-116270000D03*
D12*
X33776000Y-121350000D03*
%TD*%
%TO.C,SW23*%
X154552000Y-83290000D03*
D13*
X155822000Y-80750000D03*
D14*
X159632000Y-83290000D03*
D13*
X162172000Y-78210000D03*
D12*
X164712000Y-83290000D03*
%TD*%
%TO.C,SW51*%
X149826000Y-121350000D03*
D13*
X151096000Y-118810000D03*
D14*
X154906000Y-121350000D03*
D13*
X157446000Y-116270000D03*
D12*
X159986000Y-121350000D03*
%TD*%
%TO.C,SW43*%
X266506000Y-102330000D03*
D13*
X267776000Y-99790000D03*
D14*
X271586000Y-102330000D03*
D13*
X274126000Y-97250000D03*
D12*
X276666000Y-102330000D03*
%TD*%
%TO.C,SW46*%
X54576000Y-121350000D03*
D13*
X55846000Y-118810000D03*
D14*
X59656000Y-121350000D03*
D13*
X62196000Y-116270000D03*
D12*
X64736000Y-121350000D03*
%TD*%
D15*
%TO.C,H5*%
X44300000Y-121470000D03*
%TD*%
D12*
%TO.C,SW20*%
X97402000Y-83290000D03*
D13*
X98672000Y-80750000D03*
D14*
X102482000Y-83290000D03*
D13*
X105022000Y-78210000D03*
D12*
X107562000Y-83290000D03*
%TD*%
%TO.C,SW36*%
X121246000Y-102340000D03*
D13*
X122516000Y-99800000D03*
D14*
X126326000Y-102340000D03*
D13*
X128866000Y-97260000D03*
D12*
X131406000Y-102340000D03*
%TD*%
%TO.C,SW57*%
X278476000Y-121390000D03*
D13*
X279746000Y-118850000D03*
D14*
X283556000Y-121390000D03*
D13*
X286096000Y-116310000D03*
D12*
X288636000Y-121390000D03*
%TD*%
%TO.C,SW65*%
X240290000Y-140440000D03*
D13*
X241560000Y-137900000D03*
D14*
X245370000Y-140440000D03*
D13*
X247910000Y-135360000D03*
D12*
X250450000Y-140440000D03*
%TD*%
%TO.C,SW37*%
X140296000Y-102340000D03*
D13*
X141566000Y-99800000D03*
D14*
X145376000Y-102340000D03*
D13*
X147916000Y-97260000D03*
D12*
X150456000Y-102340000D03*
%TD*%
%TO.C,SW40*%
X197446000Y-102340000D03*
D13*
X198716000Y-99800000D03*
D14*
X202526000Y-102340000D03*
D13*
X205066000Y-97260000D03*
D12*
X207606000Y-102340000D03*
%TD*%
%TO.C,SW27*%
X230752000Y-83290000D03*
D13*
X232022000Y-80750000D03*
D14*
X235832000Y-83290000D03*
D13*
X238372000Y-78210000D03*
D12*
X240912000Y-83290000D03*
%TD*%
%TO.C,SW9*%
X164076000Y-64240000D03*
D13*
X165346000Y-61700000D03*
D14*
X169156000Y-64240000D03*
D13*
X171696000Y-59160000D03*
D12*
X174236000Y-64240000D03*
%TD*%
%TO.C,SW47*%
X73626000Y-121350000D03*
D13*
X74896000Y-118810000D03*
D14*
X78706000Y-121350000D03*
D13*
X81246000Y-116270000D03*
D12*
X83786000Y-121350000D03*
%TD*%
D17*
%TO.C,A1*%
X3890000Y-53222500D03*
D16*
X3890000Y-55762500D03*
D18*
X3890000Y-58302500D03*
D16*
X3890000Y-60842500D03*
X3890000Y-63382500D03*
X3890000Y-65922500D03*
X3890000Y-68462500D03*
D18*
X3890000Y-71002500D03*
D16*
X3890000Y-73542500D03*
X3890000Y-76082500D03*
X3890000Y-78622500D03*
X3890000Y-81162500D03*
D18*
X3890000Y-83702500D03*
D16*
X3890000Y-86242500D03*
X3890000Y-88782500D03*
X3890000Y-91322500D03*
X3890000Y-93862500D03*
D18*
X3890000Y-96402500D03*
D16*
X3890000Y-98942500D03*
X3890000Y-101482500D03*
X-13890000Y-101482500D03*
X-13890000Y-98942500D03*
D19*
X-13890000Y-96402500D03*
D16*
X-13890000Y-93862500D03*
X-13890000Y-91322500D03*
X-13890000Y-88782500D03*
X-13890000Y-86242500D03*
D19*
X-13890000Y-83702500D03*
D16*
X-13890000Y-81162500D03*
X-13890000Y-78622500D03*
X-13890000Y-76082500D03*
X-13890000Y-73542500D03*
D19*
X-13890000Y-71002500D03*
D16*
X-13890000Y-68462500D03*
X-13890000Y-65922500D03*
X-13890000Y-63382500D03*
X-13890000Y-60842500D03*
D19*
X-13890000Y-58302500D03*
D16*
X-13890000Y-55762500D03*
X-13890000Y-53222500D03*
%TD*%
M02*
