0
SECTION
2
HEADER
9
$INSUNITS
70
4
0
ENDSEC
0
SECTION
2
TABLES
0
TABLE
2
LTYPE
0
LTYPE
72
65
70
64
2
CONTINUOUS
3
______
73
0
40
0
0
ENDTAB
0
TABLE
2
LAYER
0
ENDTAB
0
ENDSEC
0
SECTION
2
ENTITIES
0
LINE
8
0
10
3.025
20
-31.1
11
16.025
21
-31.1
0
LINE
8
0
10
3.025
20
-45.1
11
16.025
21
-45.1
0
LINE
8
0
10
2.525
20
-31.6
11
2.525
21
-44.6
0
LINE
8
0
10
16.525
20
-31.6
11
16.525
21
-44.6
0
ARC
8
0
10
3.025
20
-31.6
40
0.5
50
90
51
180
0
ARC
8
0
10
16.025
20
-31.6
40
0.5
50
0
51
90
0
ARC
8
0
10
3.025
20
-44.6
40
0.5
50
180
51
270
0
ARC
8
0
10
16.025
20
-44.6
40
0.5
50
270
51
0
0
LINE
8
0
10
22.075
20
-31.1
11
35.075
21
-31.1
0
LINE
8
0
10
22.075
20
-45.1
11
35.075
21
-45.1
0
LINE
8
0
10
21.575
20
-31.6
11
21.575
21
-44.6
0
LINE
8
0
10
35.575
20
-31.6
11
35.575
21
-44.6
0
ARC
8
0
10
22.075
20
-31.6
40
0.5
50
90
51
180
0
ARC
8
0
10
35.075
20
-31.6
40
0.5
50
0
51
90
0
ARC
8
0
10
22.075
20
-44.6
40
0.5
50
180
51
270
0
ARC
8
0
10
35.075
20
-44.6
40
0.5
50
270
51
0
0
LINE
8
0
10
41.125
20
-31.1
11
54.125
21
-31.1
0
LINE
8
0
10
41.125
20
-45.1
11
54.125
21
-45.1
0
LINE
8
0
10
40.625
20
-31.6
11
40.625
21
-44.6
0
LINE
8
0
10
54.625
20
-31.6
11
54.625
21
-44.6
0
ARC
8
0
10
41.125
20
-31.6
40
0.5
50
90
51
180
0
ARC
8
0
10
54.125
20
-31.6
40
0.5
50
0
51
90
0
ARC
8
0
10
41.125
20
-44.6
40
0.5
50
180
51
270
0
ARC
8
0
10
54.125
20
-44.6
40
0.5
50
270
51
0
0
LINE
8
0
10
60.175
20
-31.1
11
73.175
21
-31.1
0
LINE
8
0
10
60.175
20
-45.1
11
73.175
21
-45.1
0
LINE
8
0
10
59.675
20
-31.6
11
59.675
21
-44.6
0
LINE
8
0
10
73.675
20
-31.6
11
73.675
21
-44.6
0
ARC
8
0
10
60.175
20
-31.6
40
0.5
50
90
51
180
0
ARC
8
0
10
73.175
20
-31.6
40
0.5
50
0
51
90
0
ARC
8
0
10
60.175
20
-44.6
40
0.5
50
180
51
270
0
ARC
8
0
10
73.175
20
-44.6
40
0.5
50
270
51
0
0
LINE
8
0
10
79.225
20
-31.1
11
92.225
21
-31.1
0
LINE
8
0
10
79.225
20
-45.1
11
92.225
21
-45.1
0
LINE
8
0
10
78.725
20
-31.6
11
78.725
21
-44.6
0
LINE
8
0
10
92.725
20
-31.6
11
92.725
21
-44.6
0
ARC
8
0
10
79.225
20
-31.6
40
0.5
50
90
51
180
0
ARC
8
0
10
92.225
20
-31.6
40
0.5
50
0
51
90
0
ARC
8
0
10
79.225
20
-44.6
40
0.5
50
180
51
270
0
ARC
8
0
10
92.225
20
-44.6
40
0.5
50
270
51
0
0
LINE
8
0
10
98.275
20
-31.1
11
111.275
21
-31.1
0
LINE
8
0
10
98.275
20
-45.1
11
111.275
21
-45.1
0
LINE
8
0
10
97.775
20
-31.6
11
97.775
21
-44.6
0
LINE
8
0
10
111.775
20
-31.6
11
111.775
21
-44.6
0
ARC
8
0
10
98.275
20
-31.6
40
0.5
50
90
51
180
0
ARC
8
0
10
111.275
20
-31.6
40
0.5
50
0
51
90
0
ARC
8
0
10
98.275
20
-44.6
40
0.5
50
180
51
270
0
ARC
8
0
10
111.275
20
-44.6
40
0.5
50
270
51
0
0
LINE
8
0
10
117.325
20
-31.1
11
130.325
21
-31.1
0
LINE
8
0
10
117.325
20
-45.1
11
130.325
21
-45.1
0
LINE
8
0
10
116.825
20
-31.6
11
116.825
21
-44.6
0
LINE
8
0
10
130.825
20
-31.6
11
130.825
21
-44.6
0
ARC
8
0
10
117.325
20
-31.6
40
0.5
50
90
51
180
0
ARC
8
0
10
130.325
20
-31.6
40
0.5
50
0
51
90
0
ARC
8
0
10
117.325
20
-44.6
40
0.5
50
180
51
270
0
ARC
8
0
10
130.325
20
-44.6
40
0.5
50
270
51
0
0
LINE
8
0
10
136.375
20
-31.1
11
149.375
21
-31.1
0
LINE
8
0
10
136.375
20
-45.1
11
149.375
21
-45.1
0
LINE
8
0
10
135.875
20
-31.6
11
135.875
21
-44.6
0
LINE
8
0
10
149.875
20
-31.6
11
149.875
21
-44.6
0
ARC
8
0
10
136.375
20
-31.6
40
0.5
50
90
51
180
0
ARC
8
0
10
149.375
20
-31.6
40
0.5
50
0
51
90
0
ARC
8
0
10
136.375
20
-44.6
40
0.5
50
180
51
270
0
ARC
8
0
10
149.375
20
-44.6
40
0.5
50
270
51
0
0
LINE
8
0
10
155.425
20
-31.1
11
168.425
21
-31.1
0
LINE
8
0
10
155.425
20
-45.1
11
168.425
21
-45.1
0
LINE
8
0
10
154.925
20
-31.6
11
154.925
21
-44.6
0
LINE
8
0
10
168.925
20
-31.6
11
168.925
21
-44.6
0
ARC
8
0
10
155.425
20
-31.6
40
0.5
50
90
51
180
0
ARC
8
0
10
168.425
20
-31.6
40
0.5
50
0
51
90
0
ARC
8
0
10
155.425
20
-44.6
40
0.5
50
180
51
270
0
ARC
8
0
10
168.425
20
-44.6
40
0.5
50
270
51
0
0
LINE
8
0
10
174.475
20
-31.1
11
187.475
21
-31.1
0
LINE
8
0
10
174.475
20
-45.1
11
187.475
21
-45.1
0
LINE
8
0
10
173.975
20
-31.6
11
173.975
21
-44.6
0
LINE
8
0
10
187.975
20
-31.6
11
187.975
21
-44.6
0
ARC
8
0
10
174.475
20
-31.6
40
0.5
50
90
51
180
0
ARC
8
0
10
187.475
20
-31.6
40
0.5
50
0
51
90
0
ARC
8
0
10
174.475
20
-44.6
40
0.5
50
180
51
270
0
ARC
8
0
10
187.475
20
-44.6
40
0.5
50
270
51
0
0
LINE
8
0
10
193.525
20
-31.1
11
206.525
21
-31.1
0
LINE
8
0
10
193.525
20
-45.1
11
206.525
21
-45.1
0
LINE
8
0
10
193.025
20
-31.6
11
193.025
21
-44.6
0
LINE
8
0
10
207.025
20
-31.6
11
207.025
21
-44.6
0
ARC
8
0
10
193.525
20
-31.6
40
0.5
50
90
51
180
0
ARC
8
0
10
206.525
20
-31.6
40
0.5
50
0
51
90
0
ARC
8
0
10
193.525
20
-44.6
40
0.5
50
180
51
270
0
ARC
8
0
10
206.525
20
-44.6
40
0.5
50
270
51
0
0
LINE
8
0
10
212.575
20
-31.1
11
225.575
21
-31.1
0
LINE
8
0
10
212.575
20
-45.1
11
225.575
21
-45.1
0
LINE
8
0
10
212.075
20
-31.6
11
212.075
21
-44.6
0
LINE
8
0
10
226.075
20
-31.6
11
226.075
21
-44.6
0
ARC
8
0
10
212.575
20
-31.6
40
0.5
50
90
51
180
0
ARC
8
0
10
225.575
20
-31.6
40
0.5
50
0
51
90
0
ARC
8
0
10
212.575
20
-44.6
40
0.5
50
180
51
270
0
ARC
8
0
10
225.575
20
-44.6
40
0.5
50
270
51
0
0
LINE
8
0
10
231.625
20
-31.1
11
244.625
21
-31.1
0
LINE
8
0
10
231.625
20
-45.1
11
244.625
21
-45.1
0
LINE
8
0
10
231.125
20
-31.6
11
231.125
21
-44.6
0
LINE
8
0
10
245.125
20
-31.6
11
245.125
21
-44.6
0
ARC
8
0
10
231.625
20
-31.6
40
0.5
50
90
51
180
0
ARC
8
0
10
244.625
20
-31.6
40
0.5
50
0
51
90
0
ARC
8
0
10
231.625
20
-44.6
40
0.5
50
180
51
270
0
ARC
8
0
10
244.625
20
-44.6
40
0.5
50
270
51
0
0
LINE
8
0
10
260.2
20
-31.1
11
273.2
21
-31.1
0
LINE
8
0
10
260.2
20
-45.1
11
273.2
21
-45.1
0
LINE
8
0
10
259.7
20
-31.6
11
259.7
21
-44.6
0
LINE
8
0
10
273.7
20
-31.6
11
273.7
21
-44.6
0
ARC
8
0
10
260.2
20
-31.6
40
0.5
50
90
51
180
0
ARC
8
0
10
273.2
20
-31.6
40
0.5
50
0
51
90
0
ARC
8
0
10
260.2
20
-44.6
40
0.5
50
180
51
270
0
ARC
8
0
10
273.2
20
-44.6
40
0.5
50
270
51
0
0
LINE
8
0
10
251.762
20
-32.1
11
257.762
21
-32.1
0
LINE
8
0
10
251.762
20
-47.1
11
257.762
21
-47.1
0
LINE
8
0
10
251.262
20
-32.6
11
251.262
21
-46.6
0
LINE
8
0
10
258.262
20
-32.6
11
258.262
21
-46.6
0
ARC
8
0
10
251.762
20
-32.6
40
0.5
50
90
51
180
0
ARC
8
0
10
257.762
20
-32.6
40
0.5
50
0
51
90
0
ARC
8
0
10
251.762
20
-46.6
40
0.5
50
180
51
270
0
ARC
8
0
10
257.762
20
-46.6
40
0.5
50
270
51
0
0
LINE
8
0
10
275.638
20
-32.1
11
281.638
21
-32.1
0
LINE
8
0
10
275.638
20
-47.1
11
281.638
21
-47.1
0
LINE
8
0
10
275.138
20
-32.6
11
275.138
21
-46.6
0
LINE
8
0
10
282.138
20
-32.6
11
282.138
21
-46.6
0
ARC
8
0
10
275.638
20
-32.6
40
0.5
50
90
51
180
0
ARC
8
0
10
281.638
20
-32.6
40
0.5
50
0
51
90
0
ARC
8
0
10
275.638
20
-46.6
40
0.5
50
180
51
270
0
ARC
8
0
10
281.638
20
-46.6
40
0.5
50
270
51
0
0
LINE
8
0
10
288.775
20
-31.1
11
301.775
21
-31.1
0
LINE
8
0
10
288.775
20
-45.1
11
301.775
21
-45.1
0
LINE
8
0
10
288.275
20
-31.6
11
288.275
21
-44.6
0
LINE
8
0
10
302.275
20
-31.6
11
302.275
21
-44.6
0
ARC
8
0
10
288.775
20
-31.6
40
0.5
50
90
51
180
0
ARC
8
0
10
301.775
20
-31.6
40
0.5
50
0
51
90
0
ARC
8
0
10
288.775
20
-44.6
40
0.5
50
180
51
270
0
ARC
8
0
10
301.775
20
-44.6
40
0.5
50
270
51
0
0
LINE
8
0
10
7.7875
20
-50.15
11
20.7875
21
-50.15
0
LINE
8
0
10
7.7875
20
-64.15
11
20.7875
21
-64.15
0
LINE
8
0
10
7.2875
20
-50.65
11
7.2875
21
-63.65
0
LINE
8
0
10
21.2875
20
-50.65
11
21.2875
21
-63.65
0
ARC
8
0
10
7.7875
20
-50.65
40
0.5
50
90
51
180
0
ARC
8
0
10
20.7875
20
-50.65
40
0.5
50
0
51
90
0
ARC
8
0
10
7.7875
20
-63.65
40
0.5
50
180
51
270
0
ARC
8
0
10
20.7875
20
-63.65
40
0.5
50
270
51
0
0
LINE
8
0
10
31.6
20
-50.15
11
44.6
21
-50.15
0
LINE
8
0
10
31.6
20
-64.15
11
44.6
21
-64.15
0
LINE
8
0
10
31.1
20
-50.65
11
31.1
21
-63.65
0
LINE
8
0
10
45.1
20
-50.65
11
45.1
21
-63.65
0
ARC
8
0
10
31.6
20
-50.65
40
0.5
50
90
51
180
0
ARC
8
0
10
44.6
20
-50.65
40
0.5
50
0
51
90
0
ARC
8
0
10
31.6
20
-63.65
40
0.5
50
180
51
270
0
ARC
8
0
10
44.6
20
-63.65
40
0.5
50
270
51
0
0
LINE
8
0
10
50.65
20
-50.15
11
63.65
21
-50.15
0
LINE
8
0
10
50.65
20
-64.15
11
63.65
21
-64.15
0
LINE
8
0
10
50.15
20
-50.65
11
50.15
21
-63.65
0
LINE
8
0
10
64.15
20
-50.65
11
64.15
21
-63.65
0
ARC
8
0
10
50.65
20
-50.65
40
0.5
50
90
51
180
0
ARC
8
0
10
63.65
20
-50.65
40
0.5
50
0
51
90
0
ARC
8
0
10
50.65
20
-63.65
40
0.5
50
180
51
270
0
ARC
8
0
10
63.65
20
-63.65
40
0.5
50
270
51
0
0
LINE
8
0
10
69.7
20
-50.15
11
82.7
21
-50.15
0
LINE
8
0
10
69.7
20
-64.15
11
82.7
21
-64.15
0
LINE
8
0
10
69.2
20
-50.65
11
69.2
21
-63.65
0
LINE
8
0
10
83.2
20
-50.65
11
83.2
21
-63.65
0
ARC
8
0
10
69.7
20
-50.65
40
0.5
50
90
51
180
0
ARC
8
0
10
82.7
20
-50.65
40
0.5
50
0
51
90
0
ARC
8
0
10
69.7
20
-63.65
40
0.5
50
180
51
270
0
ARC
8
0
10
82.7
20
-63.65
40
0.5
50
270
51
0
0
LINE
8
0
10
88.75
20
-50.15
11
101.75
21
-50.15
0
LINE
8
0
10
88.75
20
-64.15
11
101.75
21
-64.15
0
LINE
8
0
10
88.25
20
-50.65
11
88.25
21
-63.65
0
LINE
8
0
10
102.25
20
-50.65
11
102.25
21
-63.65
0
ARC
8
0
10
88.75
20
-50.65
40
0.5
50
90
51
180
0
ARC
8
0
10
101.75
20
-50.65
40
0.5
50
0
51
90
0
ARC
8
0
10
88.75
20
-63.65
40
0.5
50
180
51
270
0
ARC
8
0
10
101.75
20
-63.65
40
0.5
50
270
51
0
0
LINE
8
0
10
107.8
20
-50.15
11
120.8
21
-50.15
0
LINE
8
0
10
107.8
20
-64.15
11
120.8
21
-64.15
0
LINE
8
0
10
107.3
20
-50.65
11
107.3
21
-63.65
0
LINE
8
0
10
121.3
20
-50.65
11
121.3
21
-63.65
0
ARC
8
0
10
107.8
20
-50.65
40
0.5
50
90
51
180
0
ARC
8
0
10
120.8
20
-50.65
40
0.5
50
0
51
90
0
ARC
8
0
10
107.8
20
-63.65
40
0.5
50
180
51
270
0
ARC
8
0
10
120.8
20
-63.65
40
0.5
50
270
51
0
0
LINE
8
0
10
126.85
20
-50.15
11
139.85
21
-50.15
0
LINE
8
0
10
126.85
20
-64.15
11
139.85
21
-64.15
0
LINE
8
0
10
126.35
20
-50.65
11
126.35
21
-63.65
0
LINE
8
0
10
140.35
20
-50.65
11
140.35
21
-63.65
0
ARC
8
0
10
126.85
20
-50.65
40
0.5
50
90
51
180
0
ARC
8
0
10
139.85
20
-50.65
40
0.5
50
0
51
90
0
ARC
8
0
10
126.85
20
-63.65
40
0.5
50
180
51
270
0
ARC
8
0
10
139.85
20
-63.65
40
0.5
50
270
51
0
0
LINE
8
0
10
145.9
20
-50.15
11
158.9
21
-50.15
0
LINE
8
0
10
145.9
20
-64.15
11
158.9
21
-64.15
0
LINE
8
0
10
145.4
20
-50.65
11
145.4
21
-63.65
0
LINE
8
0
10
159.4
20
-50.65
11
159.4
21
-63.65
0
ARC
8
0
10
145.9
20
-50.65
40
0.5
50
90
51
180
0
ARC
8
0
10
158.9
20
-50.65
40
0.5
50
0
51
90
0
ARC
8
0
10
145.9
20
-63.65
40
0.5
50
180
51
270
0
ARC
8
0
10
158.9
20
-63.65
40
0.5
50
270
51
0
0
LINE
8
0
10
164.95
20
-50.15
11
177.95
21
-50.15
0
LINE
8
0
10
164.95
20
-64.15
11
177.95
21
-64.15
0
LINE
8
0
10
164.45
20
-50.65
11
164.45
21
-63.65
0
LINE
8
0
10
178.45
20
-50.65
11
178.45
21
-63.65
0
ARC
8
0
10
164.95
20
-50.65
40
0.5
50
90
51
180
0
ARC
8
0
10
177.95
20
-50.65
40
0.5
50
0
51
90
0
ARC
8
0
10
164.95
20
-63.65
40
0.5
50
180
51
270
0
ARC
8
0
10
177.95
20
-63.65
40
0.5
50
270
51
0
0
LINE
8
0
10
184
20
-50.15
11
197
21
-50.15
0
LINE
8
0
10
184
20
-64.15
11
197
21
-64.15
0
LINE
8
0
10
183.5
20
-50.65
11
183.5
21
-63.65
0
LINE
8
0
10
197.5
20
-50.65
11
197.5
21
-63.65
0
ARC
8
0
10
184
20
-50.65
40
0.5
50
90
51
180
0
ARC
8
0
10
197
20
-50.65
40
0.5
50
0
51
90
0
ARC
8
0
10
184
20
-63.65
40
0.5
50
180
51
270
0
ARC
8
0
10
197
20
-63.65
40
0.5
50
270
51
0
0
LINE
8
0
10
203.05
20
-50.15
11
216.05
21
-50.15
0
LINE
8
0
10
203.05
20
-64.15
11
216.05
21
-64.15
0
LINE
8
0
10
202.55
20
-50.65
11
202.55
21
-63.65
0
LINE
8
0
10
216.55
20
-50.65
11
216.55
21
-63.65
0
ARC
8
0
10
203.05
20
-50.65
40
0.5
50
90
51
180
0
ARC
8
0
10
216.05
20
-50.65
40
0.5
50
0
51
90
0
ARC
8
0
10
203.05
20
-63.65
40
0.5
50
180
51
270
0
ARC
8
0
10
216.05
20
-63.65
40
0.5
50
270
51
0
0
LINE
8
0
10
222.1
20
-50.15
11
235.1
21
-50.15
0
LINE
8
0
10
222.1
20
-64.15
11
235.1
21
-64.15
0
LINE
8
0
10
221.6
20
-50.65
11
221.6
21
-63.65
0
LINE
8
0
10
235.6
20
-50.65
11
235.6
21
-63.65
0
ARC
8
0
10
222.1
20
-50.65
40
0.5
50
90
51
180
0
ARC
8
0
10
235.1
20
-50.65
40
0.5
50
0
51
90
0
ARC
8
0
10
222.1
20
-63.65
40
0.5
50
180
51
270
0
ARC
8
0
10
235.1
20
-63.65
40
0.5
50
270
51
0
0
LINE
8
0
10
241.15
20
-50.15
11
254.15
21
-50.15
0
LINE
8
0
10
241.15
20
-64.15
11
254.15
21
-64.15
0
LINE
8
0
10
240.65
20
-50.65
11
240.65
21
-63.65
0
LINE
8
0
10
254.65
20
-50.65
11
254.65
21
-63.65
0
ARC
8
0
10
241.15
20
-50.65
40
0.5
50
90
51
180
0
ARC
8
0
10
254.15
20
-50.65
40
0.5
50
0
51
90
0
ARC
8
0
10
241.15
20
-63.65
40
0.5
50
180
51
270
0
ARC
8
0
10
254.15
20
-63.65
40
0.5
50
270
51
0
0
LINE
8
0
10
264.9625
20
-50.15
11
277.9625
21
-50.15
0
LINE
8
0
10
264.9625
20
-64.15
11
277.9625
21
-64.15
0
LINE
8
0
10
264.4625
20
-50.65
11
264.4625
21
-63.65
0
LINE
8
0
10
278.4625
20
-50.65
11
278.4625
21
-63.65
0
ARC
8
0
10
264.9625
20
-50.65
40
0.5
50
90
51
180
0
ARC
8
0
10
277.9625
20
-50.65
40
0.5
50
0
51
90
0
ARC
8
0
10
264.9625
20
-63.65
40
0.5
50
180
51
270
0
ARC
8
0
10
277.9625
20
-63.65
40
0.5
50
270
51
0
0
LINE
8
0
10
288.775
20
-50.15
11
301.775
21
-50.15
0
LINE
8
0
10
288.775
20
-64.15
11
301.775
21
-64.15
0
LINE
8
0
10
288.275
20
-50.65
11
288.275
21
-63.65
0
LINE
8
0
10
302.275
20
-50.65
11
302.275
21
-63.65
0
ARC
8
0
10
288.775
20
-50.65
40
0.5
50
90
51
180
0
ARC
8
0
10
301.775
20
-50.65
40
0.5
50
0
51
90
0
ARC
8
0
10
288.775
20
-63.65
40
0.5
50
180
51
270
0
ARC
8
0
10
301.775
20
-63.65
40
0.5
50
270
51
0
0
LINE
8
0
10
5.40625
20
-69.2
11
18.40625
21
-69.2
0
LINE
8
0
10
5.40625
20
-83.2
11
18.40625
21
-83.2
0
LINE
8
0
10
4.90625
20
-69.7
11
4.90625
21
-82.7
0
LINE
8
0
10
18.90625
20
-69.7
11
18.90625
21
-82.7
0
ARC
8
0
10
5.40625
20
-69.7
40
0.5
50
90
51
180
0
ARC
8
0
10
18.40625
20
-69.7
40
0.5
50
0
51
90
0
ARC
8
0
10
5.40625
20
-82.7
40
0.5
50
180
51
270
0
ARC
8
0
10
18.40625
20
-82.7
40
0.5
50
270
51
0
0
LINE
8
0
10
36.3625
20
-69.2
11
49.3625
21
-69.2
0
LINE
8
0
10
36.3625
20
-83.2
11
49.3625
21
-83.2
0
LINE
8
0
10
35.8625
20
-69.7
11
35.8625
21
-82.7
0
LINE
8
0
10
49.8625
20
-69.7
11
49.8625
21
-82.7
0
ARC
8
0
10
36.3625
20
-69.7
40
0.5
50
90
51
180
0
ARC
8
0
10
49.3625
20
-69.7
40
0.5
50
0
51
90
0
ARC
8
0
10
36.3625
20
-82.7
40
0.5
50
180
51
270
0
ARC
8
0
10
49.3625
20
-82.7
40
0.5
50
270
51
0
0
LINE
8
0
10
55.4125
20
-69.2
11
68.4125
21
-69.2
0
LINE
8
0
10
55.4125
20
-83.2
11
68.4125
21
-83.2
0
LINE
8
0
10
54.9125
20
-69.7
11
54.9125
21
-82.7
0
LINE
8
0
10
68.9125
20
-69.7
11
68.9125
21
-82.7
0
ARC
8
0
10
55.4125
20
-69.7
40
0.5
50
90
51
180
0
ARC
8
0
10
68.4125
20
-69.7
40
0.5
50
0
51
90
0
ARC
8
0
10
55.4125
20
-82.7
40
0.5
50
180
51
270
0
ARC
8
0
10
68.4125
20
-82.7
40
0.5
50
270
51
0
0
LINE
8
0
10
74.4625
20
-69.2
11
87.4625
21
-69.2
0
LINE
8
0
10
74.4625
20
-83.2
11
87.4625
21
-83.2
0
LINE
8
0
10
73.9625
20
-69.7
11
73.9625
21
-82.7
0
LINE
8
0
10
87.9625
20
-69.7
11
87.9625
21
-82.7
0
ARC
8
0
10
74.4625
20
-69.7
40
0.5
50
90
51
180
0
ARC
8
0
10
87.4625
20
-69.7
40
0.5
50
0
51
90
0
ARC
8
0
10
74.4625
20
-82.7
40
0.5
50
180
51
270
0
ARC
8
0
10
87.4625
20
-82.7
40
0.5
50
270
51
0
0
LINE
8
0
10
93.5125
20
-69.2
11
106.5125
21
-69.2
0
LINE
8
0
10
93.5125
20
-83.2
11
106.5125
21
-83.2
0
LINE
8
0
10
93.0125
20
-69.7
11
93.0125
21
-82.7
0
LINE
8
0
10
107.0125
20
-69.7
11
107.0125
21
-82.7
0
ARC
8
0
10
93.5125
20
-69.7
40
0.5
50
90
51
180
0
ARC
8
0
10
106.5125
20
-69.7
40
0.5
50
0
51
90
0
ARC
8
0
10
93.5125
20
-82.7
40
0.5
50
180
51
270
0
ARC
8
0
10
106.5125
20
-82.7
40
0.5
50
270
51
0
0
LINE
8
0
10
112.5625
20
-69.2
11
125.5625
21
-69.2
0
LINE
8
0
10
112.5625
20
-83.2
11
125.5625
21
-83.2
0
LINE
8
0
10
112.0625
20
-69.7
11
112.0625
21
-82.7
0
LINE
8
0
10
126.0625
20
-69.7
11
126.0625
21
-82.7
0
ARC
8
0
10
112.5625
20
-69.7
40
0.5
50
90
51
180
0
ARC
8
0
10
125.5625
20
-69.7
40
0.5
50
0
51
90
0
ARC
8
0
10
112.5625
20
-82.7
40
0.5
50
180
51
270
0
ARC
8
0
10
125.5625
20
-82.7
40
0.5
50
270
51
0
0
LINE
8
0
10
131.6125
20
-69.2
11
144.6125
21
-69.2
0
LINE
8
0
10
131.6125
20
-83.2
11
144.6125
21
-83.2
0
LINE
8
0
10
131.1125
20
-69.7
11
131.1125
21
-82.7
0
LINE
8
0
10
145.1125
20
-69.7
11
145.1125
21
-82.7
0
ARC
8
0
10
131.6125
20
-69.7
40
0.5
50
90
51
180
0
ARC
8
0
10
144.6125
20
-69.7
40
0.5
50
0
51
90
0
ARC
8
0
10
131.6125
20
-82.7
40
0.5
50
180
51
270
0
ARC
8
0
10
144.6125
20
-82.7
40
0.5
50
270
51
0
0
LINE
8
0
10
150.6625
20
-69.2
11
163.6625
21
-69.2
0
LINE
8
0
10
150.6625
20
-83.2
11
163.6625
21
-83.2
0
LINE
8
0
10
150.1625
20
-69.7
11
150.1625
21
-82.7
0
LINE
8
0
10
164.1625
20
-69.7
11
164.1625
21
-82.7
0
ARC
8
0
10
150.6625
20
-69.7
40
0.5
50
90
51
180
0
ARC
8
0
10
163.6625
20
-69.7
40
0.5
50
0
51
90
0
ARC
8
0
10
150.6625
20
-82.7
40
0.5
50
180
51
270
0
ARC
8
0
10
163.6625
20
-82.7
40
0.5
50
270
51
0
0
LINE
8
0
10
169.7125
20
-69.2
11
182.7125
21
-69.2
0
LINE
8
0
10
169.7125
20
-83.2
11
182.7125
21
-83.2
0
LINE
8
0
10
169.2125
20
-69.7
11
169.2125
21
-82.7
0
LINE
8
0
10
183.2125
20
-69.7
11
183.2125
21
-82.7
0
ARC
8
0
10
169.7125
20
-69.7
40
0.5
50
90
51
180
0
ARC
8
0
10
182.7125
20
-69.7
40
0.5
50
0
51
90
0
ARC
8
0
10
169.7125
20
-82.7
40
0.5
50
180
51
270
0
ARC
8
0
10
182.7125
20
-82.7
40
0.5
50
270
51
0
0
LINE
8
0
10
188.7625
20
-69.2
11
201.7625
21
-69.2
0
LINE
8
0
10
188.7625
20
-83.2
11
201.7625
21
-83.2
0
LINE
8
0
10
188.2625
20
-69.7
11
188.2625
21
-82.7
0
LINE
8
0
10
202.2625
20
-69.7
11
202.2625
21
-82.7
0
ARC
8
0
10
188.7625
20
-69.7
40
0.5
50
90
51
180
0
ARC
8
0
10
201.7625
20
-69.7
40
0.5
50
0
51
90
0
ARC
8
0
10
188.7625
20
-82.7
40
0.5
50
180
51
270
0
ARC
8
0
10
201.7625
20
-82.7
40
0.5
50
270
51
0
0
LINE
8
0
10
207.8125
20
-69.2
11
220.8125
21
-69.2
0
LINE
8
0
10
207.8125
20
-83.2
11
220.8125
21
-83.2
0
LINE
8
0
10
207.3125
20
-69.7
11
207.3125
21
-82.7
0
LINE
8
0
10
221.3125
20
-69.7
11
221.3125
21
-82.7
0
ARC
8
0
10
207.8125
20
-69.7
40
0.5
50
90
51
180
0
ARC
8
0
10
220.8125
20
-69.7
40
0.5
50
0
51
90
0
ARC
8
0
10
207.8125
20
-82.7
40
0.5
50
180
51
270
0
ARC
8
0
10
220.8125
20
-82.7
40
0.5
50
270
51
0
0
LINE
8
0
10
226.8625
20
-69.2
11
239.8625
21
-69.2
0
LINE
8
0
10
226.8625
20
-83.2
11
239.8625
21
-83.2
0
LINE
8
0
10
226.3625
20
-69.7
11
226.3625
21
-82.7
0
LINE
8
0
10
240.3625
20
-69.7
11
240.3625
21
-82.7
0
ARC
8
0
10
226.8625
20
-69.7
40
0.5
50
90
51
180
0
ARC
8
0
10
239.8625
20
-69.7
40
0.5
50
0
51
90
0
ARC
8
0
10
226.8625
20
-82.7
40
0.5
50
180
51
270
0
ARC
8
0
10
239.8625
20
-82.7
40
0.5
50
270
51
0
0
LINE
8
0
10
257.81875
20
-69.2
11
270.81875
21
-69.2
0
LINE
8
0
10
257.81875
20
-83.2
11
270.81875
21
-83.2
0
LINE
8
0
10
257.31875
20
-69.7
11
257.31875
21
-82.7
0
LINE
8
0
10
271.31875
20
-69.7
11
271.31875
21
-82.7
0
ARC
8
0
10
257.81875
20
-69.7
40
0.5
50
90
51
180
0
ARC
8
0
10
270.81875
20
-69.7
40
0.5
50
0
51
90
0
ARC
8
0
10
257.81875
20
-82.7
40
0.5
50
180
51
270
0
ARC
8
0
10
270.81875
20
-82.7
40
0.5
50
270
51
0
0
LINE
8
0
10
249.38075
20
-70.2
11
255.38075
21
-70.2
0
LINE
8
0
10
249.38075
20
-85.2
11
255.38075
21
-85.2
0
LINE
8
0
10
248.88075
20
-70.7
11
248.88075
21
-84.7
0
LINE
8
0
10
255.88075
20
-70.7
11
255.88075
21
-84.7
0
ARC
8
0
10
249.38075
20
-70.7
40
0.5
50
90
51
180
0
ARC
8
0
10
255.38075
20
-70.7
40
0.5
50
0
51
90
0
ARC
8
0
10
249.38075
20
-84.7
40
0.5
50
180
51
270
0
ARC
8
0
10
255.38075
20
-84.7
40
0.5
50
270
51
0
0
LINE
8
0
10
273.25675
20
-70.2
11
279.25675
21
-70.2
0
LINE
8
0
10
273.25675
20
-85.2
11
279.25675
21
-85.2
0
LINE
8
0
10
272.75675
20
-70.7
11
272.75675
21
-84.7
0
LINE
8
0
10
279.75675
20
-70.7
11
279.75675
21
-84.7
0
ARC
8
0
10
273.25675
20
-70.7
40
0.5
50
90
51
180
0
ARC
8
0
10
279.25675
20
-70.7
40
0.5
50
0
51
90
0
ARC
8
0
10
273.25675
20
-84.7
40
0.5
50
180
51
270
0
ARC
8
0
10
279.25675
20
-84.7
40
0.5
50
270
51
0
0
LINE
8
0
10
288.775
20
-69.2
11
301.775
21
-69.2
0
LINE
8
0
10
288.775
20
-83.2
11
301.775
21
-83.2
0
LINE
8
0
10
288.275
20
-69.7
11
288.275
21
-82.7
0
LINE
8
0
10
302.275
20
-69.7
11
302.275
21
-82.7
0
ARC
8
0
10
288.775
20
-69.7
40
0.5
50
90
51
180
0
ARC
8
0
10
301.775
20
-69.7
40
0.5
50
0
51
90
0
ARC
8
0
10
288.775
20
-82.7
40
0.5
50
180
51
270
0
ARC
8
0
10
301.775
20
-82.7
40
0.5
50
270
51
0
0
LINE
8
0
10
14.93125
20
-88.25
11
27.93125
21
-88.25
0
LINE
8
0
10
14.93125
20
-102.25
11
27.93125
21
-102.25
0
LINE
8
0
10
14.43125
20
-88.75
11
14.43125
21
-101.75
0
LINE
8
0
10
28.43125
20
-88.75
11
28.43125
21
-101.75
0
ARC
8
0
10
14.93125
20
-88.75
40
0.5
50
90
51
180
0
ARC
8
0
10
27.93125
20
-88.75
40
0.5
50
0
51
90
0
ARC
8
0
10
14.93125
20
-101.75
40
0.5
50
180
51
270
0
ARC
8
0
10
27.93125
20
-101.75
40
0.5
50
270
51
0
0
LINE
8
0
10
6.49325
20
-89.25
11
12.49325
21
-89.25
0
LINE
8
0
10
6.49325
20
-104.25
11
12.49325
21
-104.25
0
LINE
8
0
10
5.99325
20
-89.75
11
5.99325
21
-103.75
0
LINE
8
0
10
12.99325
20
-89.75
11
12.99325
21
-103.75
0
ARC
8
0
10
6.49325
20
-89.75
40
0.5
50
90
51
180
0
ARC
8
0
10
12.49325
20
-89.75
40
0.5
50
0
51
90
0
ARC
8
0
10
6.49325
20
-103.75
40
0.5
50
180
51
270
0
ARC
8
0
10
12.49325
20
-103.75
40
0.5
50
270
51
0
0
LINE
8
0
10
30.36925
20
-89.25
11
36.36925
21
-89.25
0
LINE
8
0
10
30.36925
20
-104.25
11
36.36925
21
-104.25
0
LINE
8
0
10
29.86925
20
-89.75
11
29.86925
21
-103.75
0
LINE
8
0
10
36.86925
20
-89.75
11
36.86925
21
-103.75
0
ARC
8
0
10
30.36925
20
-89.75
40
0.5
50
90
51
180
0
ARC
8
0
10
36.36925
20
-89.75
40
0.5
50
0
51
90
0
ARC
8
0
10
30.36925
20
-103.75
40
0.5
50
180
51
270
0
ARC
8
0
10
36.36925
20
-103.75
40
0.5
50
270
51
0
0
LINE
8
0
10
45.8875
20
-88.25
11
58.8875
21
-88.25
0
LINE
8
0
10
45.8875
20
-102.25
11
58.8875
21
-102.25
0
LINE
8
0
10
45.3875
20
-88.75
11
45.3875
21
-101.75
0
LINE
8
0
10
59.3875
20
-88.75
11
59.3875
21
-101.75
0
ARC
8
0
10
45.8875
20
-88.75
40
0.5
50
90
51
180
0
ARC
8
0
10
58.8875
20
-88.75
40
0.5
50
0
51
90
0
ARC
8
0
10
45.8875
20
-101.75
40
0.5
50
180
51
270
0
ARC
8
0
10
58.8875
20
-101.75
40
0.5
50
270
51
0
0
LINE
8
0
10
64.9375
20
-88.25
11
77.9375
21
-88.25
0
LINE
8
0
10
64.9375
20
-102.25
11
77.9375
21
-102.25
0
LINE
8
0
10
64.4375
20
-88.75
11
64.4375
21
-101.75
0
LINE
8
0
10
78.4375
20
-88.75
11
78.4375
21
-101.75
0
ARC
8
0
10
64.9375
20
-88.75
40
0.5
50
90
51
180
0
ARC
8
0
10
77.9375
20
-88.75
40
0.5
50
0
51
90
0
ARC
8
0
10
64.9375
20
-101.75
40
0.5
50
180
51
270
0
ARC
8
0
10
77.9375
20
-101.75
40
0.5
50
270
51
0
0
LINE
8
0
10
83.9875
20
-88.25
11
96.9875
21
-88.25
0
LINE
8
0
10
83.9875
20
-102.25
11
96.9875
21
-102.25
0
LINE
8
0
10
83.4875
20
-88.75
11
83.4875
21
-101.75
0
LINE
8
0
10
97.4875
20
-88.75
11
97.4875
21
-101.75
0
ARC
8
0
10
83.9875
20
-88.75
40
0.5
50
90
51
180
0
ARC
8
0
10
96.9875
20
-88.75
40
0.5
50
0
51
90
0
ARC
8
0
10
83.9875
20
-101.75
40
0.5
50
180
51
270
0
ARC
8
0
10
96.9875
20
-101.75
40
0.5
50
270
51
0
0
LINE
8
0
10
103.0375
20
-88.25
11
116.0375
21
-88.25
0
LINE
8
0
10
103.0375
20
-102.25
11
116.0375
21
-102.25
0
LINE
8
0
10
102.5375
20
-88.75
11
102.5375
21
-101.75
0
LINE
8
0
10
116.5375
20
-88.75
11
116.5375
21
-101.75
0
ARC
8
0
10
103.0375
20
-88.75
40
0.5
50
90
51
180
0
ARC
8
0
10
116.0375
20
-88.75
40
0.5
50
0
51
90
0
ARC
8
0
10
103.0375
20
-101.75
40
0.5
50
180
51
270
0
ARC
8
0
10
116.0375
20
-101.75
40
0.5
50
270
51
0
0
LINE
8
0
10
122.0875
20
-88.25
11
135.0875
21
-88.25
0
LINE
8
0
10
122.0875
20
-102.25
11
135.0875
21
-102.25
0
LINE
8
0
10
121.5875
20
-88.75
11
121.5875
21
-101.75
0
LINE
8
0
10
135.5875
20
-88.75
11
135.5875
21
-101.75
0
ARC
8
0
10
122.0875
20
-88.75
40
0.5
50
90
51
180
0
ARC
8
0
10
135.0875
20
-88.75
40
0.5
50
0
51
90
0
ARC
8
0
10
122.0875
20
-101.75
40
0.5
50
180
51
270
0
ARC
8
0
10
135.0875
20
-101.75
40
0.5
50
270
51
0
0
LINE
8
0
10
141.1375
20
-88.25
11
154.1375
21
-88.25
0
LINE
8
0
10
141.1375
20
-102.25
11
154.1375
21
-102.25
0
LINE
8
0
10
140.6375
20
-88.75
11
140.6375
21
-101.75
0
LINE
8
0
10
154.6375
20
-88.75
11
154.6375
21
-101.75
0
ARC
8
0
10
141.1375
20
-88.75
40
0.5
50
90
51
180
0
ARC
8
0
10
154.1375
20
-88.75
40
0.5
50
0
51
90
0
ARC
8
0
10
141.1375
20
-101.75
40
0.5
50
180
51
270
0
ARC
8
0
10
154.1375
20
-101.75
40
0.5
50
270
51
0
0
LINE
8
0
10
160.1875
20
-88.25
11
173.1875
21
-88.25
0
LINE
8
0
10
160.1875
20
-102.25
11
173.1875
21
-102.25
0
LINE
8
0
10
159.6875
20
-88.75
11
159.6875
21
-101.75
0
LINE
8
0
10
173.6875
20
-88.75
11
173.6875
21
-101.75
0
ARC
8
0
10
160.1875
20
-88.75
40
0.5
50
90
51
180
0
ARC
8
0
10
173.1875
20
-88.75
40
0.5
50
0
51
90
0
ARC
8
0
10
160.1875
20
-101.75
40
0.5
50
180
51
270
0
ARC
8
0
10
173.1875
20
-101.75
40
0.5
50
270
51
0
0
LINE
8
0
10
179.2375
20
-88.25
11
192.2375
21
-88.25
0
LINE
8
0
10
179.2375
20
-102.25
11
192.2375
21
-102.25
0
LINE
8
0
10
178.7375
20
-88.75
11
178.7375
21
-101.75
0
LINE
8
0
10
192.7375
20
-88.75
11
192.7375
21
-101.75
0
ARC
8
0
10
179.2375
20
-88.75
40
0.5
50
90
51
180
0
ARC
8
0
10
192.2375
20
-88.75
40
0.5
50
0
51
90
0
ARC
8
0
10
179.2375
20
-101.75
40
0.5
50
180
51
270
0
ARC
8
0
10
192.2375
20
-101.75
40
0.5
50
270
51
0
0
LINE
8
0
10
198.2875
20
-88.25
11
211.2875
21
-88.25
0
LINE
8
0
10
198.2875
20
-102.25
11
211.2875
21
-102.25
0
LINE
8
0
10
197.7875
20
-88.75
11
197.7875
21
-101.75
0
LINE
8
0
10
211.7875
20
-88.75
11
211.7875
21
-101.75
0
ARC
8
0
10
198.2875
20
-88.75
40
0.5
50
90
51
180
0
ARC
8
0
10
211.2875
20
-88.75
40
0.5
50
0
51
90
0
ARC
8
0
10
198.2875
20
-101.75
40
0.5
50
180
51
270
0
ARC
8
0
10
211.2875
20
-101.75
40
0.5
50
270
51
0
0
LINE
8
0
10
217.3375
20
-88.25
11
230.3375
21
-88.25
0
LINE
8
0
10
217.3375
20
-102.25
11
230.3375
21
-102.25
0
LINE
8
0
10
216.8375
20
-88.75
11
216.8375
21
-101.75
0
LINE
8
0
10
230.8375
20
-88.75
11
230.8375
21
-101.75
0
ARC
8
0
10
217.3375
20
-88.75
40
0.5
50
90
51
180
0
ARC
8
0
10
230.3375
20
-88.75
40
0.5
50
0
51
90
0
ARC
8
0
10
217.3375
20
-101.75
40
0.5
50
180
51
270
0
ARC
8
0
10
230.3375
20
-101.75
40
0.5
50
270
51
0
0
LINE
8
0
10
243.53125
20
-88.25
11
256.53125
21
-88.25
0
LINE
8
0
10
243.53125
20
-102.25
11
256.53125
21
-102.25
0
LINE
8
0
10
243.03125
20
-88.75
11
243.03125
21
-101.75
0
LINE
8
0
10
257.03125
20
-88.75
11
257.03125
21
-101.75
0
ARC
8
0
10
243.53125
20
-88.75
40
0.5
50
90
51
180
0
ARC
8
0
10
256.53125
20
-88.75
40
0.5
50
0
51
90
0
ARC
8
0
10
243.53125
20
-101.75
40
0.5
50
180
51
270
0
ARC
8
0
10
256.53125
20
-101.75
40
0.5
50
270
51
0
0
LINE
8
0
10
269.725
20
-88.25
11
282.725
21
-88.25
0
LINE
8
0
10
269.725
20
-102.25
11
282.725
21
-102.25
0
LINE
8
0
10
269.225
20
-88.75
11
269.225
21
-101.75
0
LINE
8
0
10
283.225
20
-88.75
11
283.225
21
-101.75
0
ARC
8
0
10
269.725
20
-88.75
40
0.5
50
90
51
180
0
ARC
8
0
10
282.725
20
-88.75
40
0.5
50
0
51
90
0
ARC
8
0
10
269.725
20
-101.75
40
0.5
50
180
51
270
0
ARC
8
0
10
282.725
20
-101.75
40
0.5
50
270
51
0
0
LINE
8
0
10
288.775
20
-88.25
11
301.775
21
-88.25
0
LINE
8
0
10
288.775
20
-102.25
11
301.775
21
-102.25
0
LINE
8
0
10
288.275
20
-88.75
11
288.275
21
-101.75
0
LINE
8
0
10
302.275
20
-88.75
11
302.275
21
-101.75
0
ARC
8
0
10
288.775
20
-88.75
40
0.5
50
90
51
180
0
ARC
8
0
10
301.775
20
-88.75
40
0.5
50
0
51
90
0
ARC
8
0
10
288.775
20
-101.75
40
0.5
50
180
51
270
0
ARC
8
0
10
301.775
20
-101.75
40
0.5
50
270
51
0
0
LINE
8
0
10
5.40625
20
-107.3
11
18.40625
21
-107.3
0
LINE
8
0
10
5.40625
20
-121.3
11
18.40625
21
-121.3
0
LINE
8
0
10
4.90625
20
-107.8
11
4.90625
21
-120.8
0
LINE
8
0
10
18.90625
20
-107.8
11
18.90625
21
-120.8
0
ARC
8
0
10
5.40625
20
-107.8
40
0.5
50
90
51
180
0
ARC
8
0
10
18.40625
20
-107.8
40
0.5
50
0
51
90
0
ARC
8
0
10
5.40625
20
-120.8
40
0.5
50
180
51
270
0
ARC
8
0
10
18.40625
20
-120.8
40
0.5
50
270
51
0
0
LINE
8
0
10
29.21875
20
-107.3
11
42.21875
21
-107.3
0
LINE
8
0
10
29.21875
20
-121.3
11
42.21875
21
-121.3
0
LINE
8
0
10
28.71875
20
-107.8
11
28.71875
21
-120.8
0
LINE
8
0
10
42.71875
20
-107.8
11
42.71875
21
-120.8
0
ARC
8
0
10
29.21875
20
-107.8
40
0.5
50
90
51
180
0
ARC
8
0
10
42.21875
20
-107.8
40
0.5
50
0
51
90
0
ARC
8
0
10
29.21875
20
-120.8
40
0.5
50
180
51
270
0
ARC
8
0
10
42.21875
20
-120.8
40
0.5
50
270
51
0
0
LINE
8
0
10
53.03125
20
-107.3
11
66.03125
21
-107.3
0
LINE
8
0
10
53.03125
20
-121.3
11
66.03125
21
-121.3
0
LINE
8
0
10
52.53125
20
-107.8
11
52.53125
21
-120.8
0
LINE
8
0
10
66.53125
20
-107.8
11
66.53125
21
-120.8
0
ARC
8
0
10
53.03125
20
-107.8
40
0.5
50
90
51
180
0
ARC
8
0
10
66.03125
20
-107.8
40
0.5
50
0
51
90
0
ARC
8
0
10
53.03125
20
-120.8
40
0.5
50
180
51
270
0
ARC
8
0
10
66.03125
20
-120.8
40
0.5
50
270
51
0
0
LINE
8
0
10
124.46875
20
-107.3
11
137.46875
21
-107.3
0
LINE
8
0
10
124.46875
20
-121.3
11
137.46875
21
-121.3
0
LINE
8
0
10
123.96875
20
-107.8
11
123.96875
21
-120.8
0
LINE
8
0
10
137.96875
20
-107.8
11
137.96875
21
-120.8
0
ARC
8
0
10
124.46875
20
-107.8
40
0.5
50
90
51
180
0
ARC
8
0
10
137.46875
20
-107.8
40
0.5
50
0
51
90
0
ARC
8
0
10
124.46875
20
-120.8
40
0.5
50
180
51
270
0
ARC
8
0
10
137.46875
20
-120.8
40
0.5
50
270
51
0
0
LINE
8
0
10
77.96875
20
-108.3
11
83.96875
21
-108.3
0
LINE
8
0
10
77.96875
20
-123.3
11
83.96875
21
-123.3
0
LINE
8
0
10
77.46875
20
-108.8
11
77.46875
21
-122.8
0
LINE
8
0
10
84.46875
20
-108.8
11
84.46875
21
-122.8
0
ARC
8
0
10
77.96875
20
-108.8
40
0.5
50
90
51
180
0
ARC
8
0
10
83.96875
20
-108.8
40
0.5
50
0
51
90
0
ARC
8
0
10
77.96875
20
-122.8
40
0.5
50
180
51
270
0
ARC
8
0
10
83.96875
20
-122.8
40
0.5
50
270
51
0
0
LINE
8
0
10
177.96875
20
-108.3
11
183.96875
21
-108.3
0
LINE
8
0
10
177.96875
20
-123.3
11
183.96875
21
-123.3
0
LINE
8
0
10
177.46875
20
-108.8
11
177.46875
21
-122.8
0
LINE
8
0
10
184.46875
20
-108.8
11
184.46875
21
-122.8
0
ARC
8
0
10
177.96875
20
-108.8
40
0.5
50
90
51
180
0
ARC
8
0
10
183.96875
20
-108.8
40
0.5
50
0
51
90
0
ARC
8
0
10
177.96875
20
-122.8
40
0.5
50
180
51
270
0
ARC
8
0
10
183.96875
20
-122.8
40
0.5
50
270
51
0
0
LINE
8
0
10
193.525
20
-107.3
11
206.525
21
-107.3
0
LINE
8
0
10
193.525
20
-121.3
11
206.525
21
-121.3
0
LINE
8
0
10
193.025
20
-107.8
11
193.025
21
-120.8
0
LINE
8
0
10
207.025
20
-107.8
11
207.025
21
-120.8
0
ARC
8
0
10
193.525
20
-107.8
40
0.5
50
90
51
180
0
ARC
8
0
10
206.525
20
-107.8
40
0.5
50
0
51
90
0
ARC
8
0
10
193.525
20
-120.8
40
0.5
50
180
51
270
0
ARC
8
0
10
206.525
20
-120.8
40
0.5
50
270
51
0
0
LINE
8
0
10
212.575
20
-107.3
11
225.575
21
-107.3
0
LINE
8
0
10
212.575
20
-121.3
11
225.575
21
-121.3
0
LINE
8
0
10
212.075
20
-107.8
11
212.075
21
-120.8
0
LINE
8
0
10
226.075
20
-107.8
11
226.075
21
-120.8
0
ARC
8
0
10
212.575
20
-107.8
40
0.5
50
90
51
180
0
ARC
8
0
10
225.575
20
-107.8
40
0.5
50
0
51
90
0
ARC
8
0
10
212.575
20
-120.8
40
0.5
50
180
51
270
0
ARC
8
0
10
225.575
20
-120.8
40
0.5
50
270
51
0
0
LINE
8
0
10
231.625
20
-107.3
11
244.625
21
-107.3
0
LINE
8
0
10
231.625
20
-121.3
11
244.625
21
-121.3
0
LINE
8
0
10
231.125
20
-107.8
11
231.125
21
-120.8
0
LINE
8
0
10
245.125
20
-107.8
11
245.125
21
-120.8
0
ARC
8
0
10
231.625
20
-107.8
40
0.5
50
90
51
180
0
ARC
8
0
10
244.625
20
-107.8
40
0.5
50
0
51
90
0
ARC
8
0
10
231.625
20
-120.8
40
0.5
50
180
51
270
0
ARC
8
0
10
244.625
20
-120.8
40
0.5
50
270
51
0
0
LINE
8
0
10
250.675
20
-107.3
11
263.675
21
-107.3
0
LINE
8
0
10
250.675
20
-121.3
11
263.675
21
-121.3
0
LINE
8
0
10
250.175
20
-107.8
11
250.175
21
-120.8
0
LINE
8
0
10
264.175
20
-107.8
11
264.175
21
-120.8
0
ARC
8
0
10
250.675
20
-107.8
40
0.5
50
90
51
180
0
ARC
8
0
10
263.675
20
-107.8
40
0.5
50
0
51
90
0
ARC
8
0
10
250.675
20
-120.8
40
0.5
50
180
51
270
0
ARC
8
0
10
263.675
20
-120.8
40
0.5
50
270
51
0
0
LINE
8
0
10
269.725
20
-107.3
11
282.725
21
-107.3
0
LINE
8
0
10
269.725
20
-121.3
11
282.725
21
-121.3
0
LINE
8
0
10
269.225
20
-107.8
11
269.225
21
-120.8
0
LINE
8
0
10
283.225
20
-107.8
11
283.225
21
-120.8
0
ARC
8
0
10
269.725
20
-107.8
40
0.5
50
90
51
180
0
ARC
8
0
10
282.725
20
-107.8
40
0.5
50
0
51
90
0
ARC
8
0
10
269.725
20
-120.8
40
0.5
50
180
51
270
0
ARC
8
0
10
282.725
20
-120.8
40
0.5
50
270
51
0
0
LINE
8
0
10
288.775
20
-107.3
11
301.775
21
-107.3
0
LINE
8
0
10
288.775
20
-121.3
11
301.775
21
-121.3
0
LINE
8
0
10
288.275
20
-107.8
11
288.275
21
-120.8
0
LINE
8
0
10
302.275
20
-107.8
11
302.275
21
-120.8
0
ARC
8
0
10
288.775
20
-107.8
40
0.5
50
90
51
180
0
ARC
8
0
10
301.775
20
-107.8
40
0.5
50
0
51
90
0
ARC
8
0
10
288.775
20
-120.8
40
0.5
50
180
51
270
0
ARC
8
0
10
301.775
20
-120.8
40
0.5
50
270
51
0
0
LINE
8
0
10
0
20
-123.825
11
304.8
21
-123.825
0
LINE
8
0
10
0
20
-28.575
11
304.8
21
-28.575
0
LINE
8
0
10
0
20
-123.825
11
0
21
-28.575
0
LINE
8
0
10
304.8
20
-123.825
11
304.8
21
-28.575
0
ENDSEC
0
EOF